M48
; DRILL file {KiCad (5.1.9)-1} date 06/19/21 16:19:31
; FORMAT={3:3/ absolute / metric / suppress leading zeros}
; #@! TF.CreationDate,2021-06-19T16:19:31+09:00
; #@! TF.GenerationSoftware,Kicad,Pcbnew,(5.1.9)-1
FMAT,2
METRIC,TZ
T1C0.400
T2C0.750
T3C0.762
T4C0.800
T5C0.900
T6C1.000
T7C4.500
T8C3.200
%
G90
G05
T1
X76745Y-83275
X80010Y-82550
X81190Y-83275
X86995Y-81280
X109538Y-83503
X110807Y-84773
X112078Y-82868
X118110Y-82550
X122555Y-84776
X142240Y-90170
X143827Y-68263
X143827Y-77153
X144145Y-89535
X149860Y-85090
X198755Y-78105
X199390Y-48260
X199390Y-76200
X200660Y-74930
X200660Y-76200
X202565Y-83820
X203200Y-73660
X203200Y-74930
X212090Y-45720
X212090Y-49530
X212090Y-74295
X212725Y-77470
X213360Y-120015
X213677Y-79057
X213995Y-96520
T2
X83185Y-45085
X90805Y-45085
X96520Y-45720
X96520Y-85090
X104140Y-45720
X104140Y-85090
X124460Y-45720
X124460Y-85090
X132080Y-45720
X132080Y-85090
X205740Y-94615
X207010Y-94615
X208280Y-94615
T3
X73660Y-59690
X73660Y-78740
X73660Y-97790
X73660Y-118110
X76200Y-59690
X76200Y-78740
X76200Y-97790
X76200Y-118110
X78740Y-59690
X78740Y-78740
X78740Y-97790
X78740Y-118110
X81280Y-59690
X81280Y-78740
X81280Y-97790
X81280Y-118110
X83820Y-59690
X83820Y-78740
X83820Y-97790
X83820Y-118110
X88900Y-41910
X88900Y-81280
X91440Y-41910
X91440Y-81280
X93980Y-41910
X93980Y-77470
X93980Y-81280
X93980Y-116840
X96520Y-41910
X96520Y-77470
X96520Y-81280
X96520Y-116840
X99060Y-41910
X99060Y-77470
X99060Y-81280
X99060Y-116840
X101600Y-41910
X101600Y-77470
X101600Y-81280
X101600Y-116840
X104140Y-41910
X104140Y-77470
X104140Y-81280
X104140Y-116840
X106680Y-41910
X106680Y-77470
X106680Y-81280
X106680Y-116840
X109220Y-41910
X109220Y-77470
X109220Y-81280
X109220Y-116840
X111760Y-41910
X111760Y-77470
X111760Y-81280
X111760Y-116840
X116840Y-41910
X116840Y-81280
X119380Y-41910
X119380Y-81280
X121920Y-41910
X121920Y-77470
X121920Y-81280
X121920Y-116840
X124460Y-41910
X124460Y-77470
X124460Y-81280
X124460Y-116840
X127000Y-41910
X127000Y-77470
X127000Y-81280
X127000Y-116840
X129540Y-41910
X129540Y-77470
X129540Y-81280
X129540Y-116840
X132080Y-41910
X132080Y-77470
X132080Y-81280
X132080Y-116840
X134620Y-41910
X134620Y-77470
X134620Y-81280
X134620Y-116840
X137160Y-41910
X137160Y-77470
X137160Y-81280
X137160Y-116840
X139700Y-41910
X139700Y-77470
X139700Y-81280
X139700Y-116840
X215900Y-48260
X217170Y-54610
X217170Y-81280
X217170Y-106680
X217170Y-116840
X218440Y-48260
X219710Y-54610
X219710Y-81280
X219710Y-106680
X219710Y-116840
X220980Y-48260
X222250Y-54610
X222250Y-81280
X222250Y-106680
X222250Y-116840
X224790Y-54610
X224790Y-81280
X224790Y-106680
X224790Y-116840
T4
X78105Y-41275
X85725Y-41275
X128270Y-121920
X128270Y-125095
X135890Y-121920
X135890Y-125095
X207010Y-98425
X213360Y-86995
X213360Y-94615
X214630Y-98425
X219710Y-60960
X219710Y-64770
X219710Y-68580
X219710Y-72390
X227330Y-60960
X227330Y-64770
X227330Y-68580
X227330Y-72390
T5
X213360Y-60960
X213360Y-64770
X213360Y-68580
X213360Y-72390
X215900Y-60960
X215900Y-64770
X215900Y-68580
X215900Y-72390
T6
X146050Y-43180
X146050Y-45720
X146050Y-48260
X146050Y-50800
X146050Y-53340
X146050Y-55880
X146050Y-58420
X146050Y-60960
X146050Y-63500
X146050Y-66040
X146050Y-68580
X146050Y-71120
X146050Y-73660
X146050Y-76200
X146050Y-78740
X146050Y-81280
X146050Y-83820
X146050Y-86360
X146050Y-88900
X148590Y-43180
X148590Y-45720
X148590Y-48260
X148590Y-50800
X148590Y-53340
X148590Y-55880
X148590Y-58420
X148590Y-60960
X148590Y-63500
X148590Y-66040
X148590Y-68580
X148590Y-71120
X148590Y-73660
X148590Y-76200
X148590Y-78740
X148590Y-81280
X148590Y-83820
X148590Y-86360
X148590Y-88900
X207095Y-43100
X207095Y-45640
X207095Y-48180
X207095Y-50720
X207095Y-53260
X207095Y-55800
X207095Y-58340
X207095Y-60880
X207095Y-63420
X207095Y-65960
X207095Y-68500
X207095Y-71040
X207095Y-73580
X207095Y-76120
X207095Y-78660
X207095Y-81200
X207095Y-83740
X207095Y-86280
X207095Y-88820
X209635Y-43100
X209635Y-45640
X209635Y-48180
X209635Y-50720
X209635Y-53260
X209635Y-55800
X209635Y-58340
X209635Y-60880
X209635Y-63420
X209635Y-65960
X209635Y-68500
X209635Y-71040
X209635Y-73580
X209635Y-76120
X209635Y-78660
X209635Y-81200
X209635Y-83740
X209635Y-86280
X209635Y-88820
X222250Y-87630
X222250Y-97630
T7
X74930Y-50800
X74930Y-69850
X74930Y-88900
X74930Y-109220
X82550Y-50800
X82550Y-69850
X82550Y-88900
X82550Y-109220
X93980Y-125095
X101600Y-125095
T8
X71755Y-126365
X72390Y-42545
X227965Y-42545
X227965Y-126365
T0
M30
