G04 #@! TF.GenerationSoftware,KiCad,Pcbnew,(5.1.9)-1*
G04 #@! TF.CreationDate,2021-06-19T16:16:09+09:00*
G04 #@! TF.ProjectId,_______,b3de8ab7-fceb-4c92-9e6b-696361645f70,rev?*
G04 #@! TF.SameCoordinates,Original*
G04 #@! TF.FileFunction,Copper,L1,Top*
G04 #@! TF.FilePolarity,Positive*
%FSLAX46Y46*%
G04 Gerber Fmt 4.6, Leading zero omitted, Abs format (unit mm)*
G04 Created by KiCad (PCBNEW (5.1.9)-1) date 2021-06-19 16:16:09*
%MOMM*%
%LPD*%
G01*
G04 APERTURE LIST*
G04 #@! TA.AperFunction,ComponentPad*
%ADD10C,1.524000*%
G04 #@! TD*
G04 #@! TA.AperFunction,ComponentPad*
%ADD11C,6.500000*%
G04 #@! TD*
G04 #@! TA.AperFunction,ComponentPad*
%ADD12R,1.700000X1.700000*%
G04 #@! TD*
G04 #@! TA.AperFunction,ComponentPad*
%ADD13O,1.700000X1.700000*%
G04 #@! TD*
G04 #@! TA.AperFunction,ComponentPad*
%ADD14R,1.500000X1.500000*%
G04 #@! TD*
G04 #@! TA.AperFunction,ComponentPad*
%ADD15O,1.500000X1.500000*%
G04 #@! TD*
G04 #@! TA.AperFunction,ComponentPad*
%ADD16R,1.800000X1.800000*%
G04 #@! TD*
G04 #@! TA.AperFunction,ComponentPad*
%ADD17C,1.800000*%
G04 #@! TD*
G04 #@! TA.AperFunction,ComponentPad*
%ADD18R,1.524000X1.524000*%
G04 #@! TD*
G04 #@! TA.AperFunction,ComponentPad*
%ADD19C,1.600000*%
G04 #@! TD*
G04 #@! TA.AperFunction,ComponentPad*
%ADD20O,1.600000X1.600000*%
G04 #@! TD*
G04 #@! TA.AperFunction,ComponentPad*
%ADD21C,2.000000*%
G04 #@! TD*
G04 #@! TA.AperFunction,ComponentPad*
%ADD22R,2.000000X2.000000*%
G04 #@! TD*
G04 #@! TA.AperFunction,ComponentPad*
%ADD23O,1.050000X1.300000*%
G04 #@! TD*
G04 #@! TA.AperFunction,ViaPad*
%ADD24C,0.800000*%
G04 #@! TD*
G04 #@! TA.AperFunction,Conductor*
%ADD25C,0.250000*%
G04 #@! TD*
G04 #@! TA.AperFunction,Conductor*
%ADD26C,0.254000*%
G04 #@! TD*
G04 #@! TA.AperFunction,Conductor*
%ADD27C,0.150000*%
G04 #@! TD*
G04 APERTURE END LIST*
D10*
X111760000Y-81280000D03*
X109220000Y-81280000D03*
X106680000Y-81280000D03*
X104140000Y-81280000D03*
X101600000Y-81280000D03*
X99060000Y-81280000D03*
X96520000Y-81280000D03*
X93980000Y-81280000D03*
X91440000Y-81280000D03*
X88900000Y-81280000D03*
X111760000Y-116840000D03*
X109220000Y-116840000D03*
X106680000Y-116840000D03*
X104140000Y-116840000D03*
X101600000Y-116840000D03*
X99060000Y-116840000D03*
X96520000Y-116840000D03*
X93980000Y-116840000D03*
D11*
X74930000Y-50800000D03*
X82550000Y-50800000D03*
D12*
X209635001Y-43100001D03*
D13*
X207095001Y-43100001D03*
X209635001Y-45640001D03*
X207095001Y-45640001D03*
X209635001Y-48180001D03*
X207095001Y-48180001D03*
X209635001Y-50720001D03*
X207095001Y-50720001D03*
X209635001Y-53260001D03*
X207095001Y-53260001D03*
X209635001Y-55800001D03*
X207095001Y-55800001D03*
X209635001Y-58340001D03*
X207095001Y-58340001D03*
X209635001Y-60880001D03*
X207095001Y-60880001D03*
X209635001Y-63420001D03*
X207095001Y-63420001D03*
X209635001Y-65960001D03*
X207095001Y-65960001D03*
X209635001Y-68500001D03*
X207095001Y-68500001D03*
X209635001Y-71040001D03*
X207095001Y-71040001D03*
X209635001Y-73580001D03*
X207095001Y-73580001D03*
X209635001Y-76120001D03*
X207095001Y-76120001D03*
X209635001Y-78660001D03*
X207095001Y-78660001D03*
X209635001Y-81200001D03*
X207095001Y-81200001D03*
X209635001Y-83740001D03*
X207095001Y-83740001D03*
X209635001Y-86280001D03*
X207095001Y-86280001D03*
X209635001Y-88820001D03*
X207095001Y-88820001D03*
D10*
X121920000Y-116840000D03*
X124460000Y-116840000D03*
X127000000Y-116840000D03*
X129540000Y-116840000D03*
X132080000Y-116840000D03*
X134620000Y-116840000D03*
X137160000Y-116840000D03*
X139700000Y-116840000D03*
X116840000Y-81280000D03*
X119380000Y-81280000D03*
X121920000Y-81280000D03*
X124460000Y-81280000D03*
X127000000Y-81280000D03*
X129540000Y-81280000D03*
X132080000Y-81280000D03*
X134620000Y-81280000D03*
X137160000Y-81280000D03*
X139700000Y-81280000D03*
D14*
X132080000Y-85090000D03*
D15*
X124460000Y-85090000D03*
X124460000Y-45720000D03*
D14*
X132080000Y-45720000D03*
D15*
X96520000Y-45720000D03*
D14*
X104140000Y-45720000D03*
X104140000Y-85090000D03*
D15*
X96520000Y-85090000D03*
D16*
X215900000Y-60960000D03*
D17*
X213360000Y-60960000D03*
D16*
X215900000Y-68580000D03*
D17*
X213360000Y-68580000D03*
X213360000Y-64770000D03*
D16*
X215900000Y-64770000D03*
D17*
X213360000Y-72390000D03*
D16*
X215900000Y-72390000D03*
D18*
X224790000Y-106680000D03*
D10*
X222250000Y-106680000D03*
X219710000Y-106680000D03*
X217170000Y-106680000D03*
D13*
X146050000Y-88900000D03*
X148590000Y-88900000D03*
X146050000Y-86360000D03*
X148590000Y-86360000D03*
X146050000Y-83820000D03*
X148590000Y-83820000D03*
X146050000Y-81280000D03*
X148590000Y-81280000D03*
X146050000Y-78740000D03*
X148590000Y-78740000D03*
X146050000Y-76200000D03*
X148590000Y-76200000D03*
X146050000Y-73660000D03*
X148590000Y-73660000D03*
X146050000Y-71120000D03*
X148590000Y-71120000D03*
X146050000Y-68580000D03*
X148590000Y-68580000D03*
X146050000Y-66040000D03*
X148590000Y-66040000D03*
X146050000Y-63500000D03*
X148590000Y-63500000D03*
X146050000Y-60960000D03*
X148590000Y-60960000D03*
X146050000Y-58420000D03*
X148590000Y-58420000D03*
X146050000Y-55880000D03*
X148590000Y-55880000D03*
X146050000Y-53340000D03*
X148590000Y-53340000D03*
X146050000Y-50800000D03*
X148590000Y-50800000D03*
X146050000Y-48260000D03*
X148590000Y-48260000D03*
X146050000Y-45720000D03*
X148590000Y-45720000D03*
X146050000Y-43180000D03*
D12*
X148590000Y-43180000D03*
D10*
X121920000Y-77470000D03*
X124460000Y-77470000D03*
X127000000Y-77470000D03*
X129540000Y-77470000D03*
X132080000Y-77470000D03*
X134620000Y-77470000D03*
X137160000Y-77470000D03*
X139700000Y-77470000D03*
X116840000Y-41910000D03*
X119380000Y-41910000D03*
X121920000Y-41910000D03*
X124460000Y-41910000D03*
X127000000Y-41910000D03*
X129540000Y-41910000D03*
X132080000Y-41910000D03*
X134620000Y-41910000D03*
X137160000Y-41910000D03*
X139700000Y-41910000D03*
X111760000Y-41910000D03*
X109220000Y-41910000D03*
X106680000Y-41910000D03*
X104140000Y-41910000D03*
X101600000Y-41910000D03*
X99060000Y-41910000D03*
X96520000Y-41910000D03*
X93980000Y-41910000D03*
X91440000Y-41910000D03*
X88900000Y-41910000D03*
X111760000Y-77470000D03*
X109220000Y-77470000D03*
X106680000Y-77470000D03*
X104140000Y-77470000D03*
X101600000Y-77470000D03*
X99060000Y-77470000D03*
X96520000Y-77470000D03*
X93980000Y-77470000D03*
X217170000Y-54610000D03*
X219710000Y-54610000D03*
X222250000Y-54610000D03*
D18*
X224790000Y-54610000D03*
D19*
X219710000Y-60960000D03*
D20*
X227330000Y-60960000D03*
D19*
X219710000Y-68580000D03*
D20*
X227330000Y-68580000D03*
X227330000Y-64770000D03*
D19*
X219710000Y-64770000D03*
D20*
X227330000Y-72390000D03*
D19*
X219710000Y-72390000D03*
D18*
X73660000Y-59690000D03*
D10*
X76200000Y-59690000D03*
X78740000Y-59690000D03*
X81280000Y-59690000D03*
X83820000Y-59690000D03*
X83820000Y-78740000D03*
X81280000Y-78740000D03*
X78740000Y-78740000D03*
X76200000Y-78740000D03*
D18*
X73660000Y-78740000D03*
D10*
X83820000Y-97790000D03*
X81280000Y-97790000D03*
X78740000Y-97790000D03*
X76200000Y-97790000D03*
D18*
X73660000Y-97790000D03*
X73660000Y-118110000D03*
D10*
X76200000Y-118110000D03*
X78740000Y-118110000D03*
X81280000Y-118110000D03*
X83820000Y-118110000D03*
D18*
X217170000Y-81280000D03*
D10*
X219710000Y-81280000D03*
X222250000Y-81280000D03*
X224790000Y-81280000D03*
D21*
X222250000Y-97630000D03*
D22*
X222250000Y-87630000D03*
D11*
X82550000Y-69850000D03*
X74930000Y-69850000D03*
X82550000Y-88900000D03*
X74930000Y-88900000D03*
X74930000Y-109220000D03*
X82550000Y-109220000D03*
X101600000Y-125095000D03*
X93980000Y-125095000D03*
D18*
X215900000Y-48260000D03*
D10*
X218440000Y-48260000D03*
X220980000Y-48260000D03*
D23*
X207010000Y-94615000D03*
X205740000Y-94615000D03*
G04 #@! TA.AperFunction,ComponentPad*
G36*
G01*
X208805000Y-94214900D02*
X208805000Y-95015100D01*
G75*
G02*
X208555100Y-95265000I-249900J0D01*
G01*
X208004900Y-95265000D01*
G75*
G02*
X207755000Y-95015100I0J249900D01*
G01*
X207755000Y-94214900D01*
G75*
G02*
X208004900Y-93965000I249900J0D01*
G01*
X208555100Y-93965000D01*
G75*
G02*
X208805000Y-94214900I0J-249900D01*
G01*
G37*
G04 #@! TD.AperFunction*
D19*
X213360000Y-94615000D03*
D20*
X213360000Y-86995000D03*
X207010000Y-98425000D03*
D19*
X214630000Y-98425000D03*
D20*
X135890000Y-125095000D03*
D19*
X128270000Y-125095000D03*
X135890000Y-121920000D03*
D20*
X128270000Y-121920000D03*
D14*
X83185000Y-45085000D03*
D15*
X90805000Y-45085000D03*
D19*
X78105000Y-41275000D03*
D20*
X85725000Y-41275000D03*
D18*
X224790000Y-116840000D03*
D10*
X222250000Y-116840000D03*
X219710000Y-116840000D03*
X217170000Y-116840000D03*
D24*
X112077500Y-82867500D03*
X118110000Y-82550000D03*
X122555000Y-84776002D03*
X109537500Y-83502500D03*
X110807500Y-84772500D03*
X199390000Y-48260000D03*
X81189999Y-83275001D03*
X76744999Y-83275001D03*
X144145000Y-89535000D03*
X142240000Y-90170000D03*
X80010000Y-82550000D03*
X86995000Y-81280000D03*
X143827500Y-77152500D03*
X143827500Y-68262500D03*
X198755000Y-78105000D03*
X199390000Y-76200000D03*
X212090000Y-74295000D03*
X213677500Y-79057500D03*
X213995000Y-96520000D03*
X213360000Y-120015000D03*
X212090000Y-45720000D03*
X212090000Y-49530000D03*
X200660000Y-74930000D03*
X203200000Y-74930000D03*
X149860000Y-85090000D03*
X202565000Y-83820000D03*
X200660000Y-76200000D03*
X203200000Y-73660000D03*
X212725000Y-77470000D03*
D25*
X82732999Y-117022999D02*
X83820000Y-118110000D01*
X75749409Y-117022999D02*
X82732999Y-117022999D01*
X71354999Y-112628589D02*
X75749409Y-117022999D01*
X71354999Y-103271411D02*
X71354999Y-112628589D01*
X75749409Y-98877001D02*
X71354999Y-103271411D01*
X82732999Y-98877001D02*
X75749409Y-98877001D01*
X83820000Y-97790000D02*
X82732999Y-98877001D01*
X82099990Y-61410010D02*
X83820000Y-59690000D01*
X70036400Y-61410010D02*
X82099990Y-61410010D01*
X69215000Y-62231410D02*
X70036400Y-61410010D01*
X69215000Y-76200000D02*
X69215000Y-62231410D01*
X69850000Y-76835000D02*
X69215000Y-76200000D01*
X81915000Y-76835000D02*
X69850000Y-76835000D01*
X83820000Y-78740000D02*
X81915000Y-76835000D01*
X112077500Y-82867500D02*
X117792500Y-82867500D01*
X118110000Y-82550000D02*
X118110000Y-82550000D01*
X118110000Y-82550000D02*
X117792500Y-82867500D01*
X132080000Y-41910000D02*
X132080000Y-45720000D01*
X144780000Y-85090000D02*
X146050000Y-86360000D01*
X132080000Y-85090000D02*
X144780000Y-85090000D01*
X104140000Y-45720000D02*
X104140000Y-41910000D01*
X104140000Y-81280000D02*
X104140000Y-85090000D01*
X104140000Y-85090000D02*
X104140000Y-85725000D01*
X104140000Y-85725000D02*
X107315000Y-88900000D01*
X145959999Y-88809999D02*
X146050000Y-88900000D01*
X143796999Y-88809999D02*
X145959999Y-88809999D01*
X143706998Y-88900000D02*
X143796999Y-88809999D01*
X107315000Y-88900000D02*
X143706998Y-88900000D01*
X215900000Y-60960000D02*
X219710000Y-60960000D01*
X213280001Y-60880001D02*
X213360000Y-60960000D01*
X209635001Y-60880001D02*
X213280001Y-60880001D01*
X215900000Y-68580000D02*
X219710000Y-68580000D01*
X210899999Y-71040001D02*
X213360000Y-68580000D01*
X209635001Y-71040001D02*
X210899999Y-71040001D01*
X213360000Y-64775002D02*
X213360000Y-64770000D01*
X209635001Y-68500001D02*
X213360000Y-64775002D01*
X215900000Y-64770000D02*
X219710000Y-64770000D01*
X213360000Y-74935002D02*
X213360000Y-72390000D01*
X209635001Y-78660001D02*
X213360000Y-74935002D01*
X215900000Y-72390000D02*
X219710000Y-72390000D01*
X204889990Y-47845012D02*
X207095001Y-45640001D01*
X206469999Y-99550001D02*
X204889990Y-97969992D01*
X212580001Y-99550001D02*
X206469999Y-99550001D01*
X204889990Y-97969992D02*
X204889990Y-47845012D01*
X219710000Y-106680000D02*
X212580001Y-99550001D01*
X208270002Y-45076000D02*
X208270002Y-47005000D01*
X207659002Y-44465000D02*
X208270002Y-45076000D01*
X206531000Y-44465000D02*
X207659002Y-44465000D01*
X204439981Y-46556019D02*
X206531000Y-44465000D01*
X208270002Y-47005000D02*
X207095001Y-48180001D01*
X204439981Y-98156393D02*
X204439981Y-46556019D01*
X212963588Y-106680000D02*
X204439981Y-98156393D01*
X217170000Y-106680000D02*
X212963588Y-106680000D01*
X222250000Y-54610000D02*
X222250000Y-81280000D01*
X222250000Y-87630000D02*
X222250000Y-81280000D01*
X222250000Y-87630000D02*
X223520000Y-87630000D01*
X224790000Y-88900000D02*
X224790000Y-106680000D01*
X223520000Y-87630000D02*
X224790000Y-88900000D01*
X224790000Y-106680000D02*
X224790000Y-116840000D01*
X70904990Y-103085010D02*
X76200000Y-97790000D01*
X70904990Y-112814990D02*
X70904990Y-103085010D01*
X76200000Y-118110000D02*
X70904990Y-112814990D01*
X122555000Y-84776002D02*
X110811002Y-84776002D01*
X110811002Y-84776002D02*
X110807500Y-84772500D01*
X110807500Y-84772500D02*
X109537500Y-83502500D01*
X148590000Y-63500000D02*
X150495000Y-63500000D01*
X150495000Y-63500000D02*
X150495000Y-48260000D01*
X150495000Y-48260000D02*
X148590000Y-48260000D01*
X150495000Y-48260000D02*
X198120000Y-48260000D01*
X199390000Y-48260000D02*
X196850000Y-48260000D01*
X80358001Y-83275001D02*
X81189999Y-83275001D01*
X76744999Y-83275001D02*
X80358001Y-83275001D01*
X76200000Y-78740000D02*
X74930000Y-77470000D01*
X68580000Y-62230000D02*
X69850000Y-60960000D01*
X75769002Y-59690000D02*
X76200000Y-59690000D01*
X74499002Y-60960000D02*
X75769002Y-59690000D01*
X69850000Y-60960000D02*
X74499002Y-60960000D01*
X69848590Y-77470000D02*
X68580000Y-76201410D01*
X74930000Y-77470000D02*
X69848590Y-77470000D01*
X68580000Y-76201410D02*
X68580000Y-62230000D01*
X68580000Y-62230000D02*
X69215000Y-61595000D01*
X215979999Y-48339999D02*
X215900000Y-48260000D01*
X215979999Y-50720001D02*
X215979999Y-48339999D01*
X209635001Y-50720001D02*
X215979999Y-50720001D01*
X218360001Y-50720001D02*
X215979999Y-50720001D01*
X222250000Y-54610000D02*
X218360001Y-50720001D01*
X111352499Y-83215501D02*
X111352499Y-81687501D01*
X111956998Y-83820000D02*
X111352499Y-83215501D01*
X111352499Y-81687501D02*
X111760000Y-81280000D01*
X144146410Y-83820000D02*
X111956998Y-83820000D01*
X145511409Y-85184999D02*
X144146410Y-83820000D01*
X147414999Y-85184999D02*
X145511409Y-85184999D01*
X148590000Y-86360000D02*
X147414999Y-85184999D01*
X70485000Y-94615000D02*
X73660000Y-97790000D01*
X70485000Y-85725000D02*
X70485000Y-94615000D01*
X144054999Y-89444999D02*
X106409997Y-89444999D01*
X106409997Y-89444999D02*
X100965000Y-84000002D01*
X144145000Y-89535000D02*
X144054999Y-89444999D01*
X72209998Y-84000002D02*
X71120000Y-85090000D01*
X100965000Y-84000002D02*
X72209998Y-84000002D01*
X71120000Y-85090000D02*
X70485000Y-85725000D01*
X71755000Y-84455000D02*
X71120000Y-85090000D01*
X99060000Y-81280000D02*
X100147001Y-80192999D01*
X101047021Y-79292979D02*
X99060000Y-81280000D01*
X142957021Y-79292979D02*
X101047021Y-79292979D01*
X146050000Y-76200000D02*
X142957021Y-79292979D01*
X73025705Y-96519295D02*
X76538057Y-96519295D01*
X70935010Y-94428600D02*
X73025705Y-96519295D01*
X70935010Y-85911400D02*
X70935010Y-94428600D01*
X77808762Y-97790000D02*
X78740000Y-97790000D01*
X93980000Y-84455000D02*
X72391410Y-84455000D01*
X95885000Y-86360000D02*
X93980000Y-84455000D01*
X102235000Y-86360000D02*
X95885000Y-86360000D01*
X106045000Y-90170000D02*
X102235000Y-86360000D01*
X76538057Y-96519295D02*
X77808762Y-97790000D01*
X72391410Y-84455000D02*
X70935010Y-85911400D01*
X142240000Y-90170000D02*
X106045000Y-90170000D01*
X143510000Y-81280000D02*
X146050000Y-78740000D01*
X139700000Y-81280000D02*
X143510000Y-81280000D01*
X144962999Y-82367001D02*
X146050000Y-81280000D01*
X128087001Y-82367001D02*
X144962999Y-82367001D01*
X127000000Y-81280000D02*
X128087001Y-82367001D01*
X73660000Y-118110000D02*
X70904989Y-115354989D01*
X70034991Y-85538599D02*
X73023590Y-82550000D01*
X70034990Y-114484990D02*
X70034991Y-85538599D01*
X73660000Y-118110000D02*
X70034990Y-114484990D01*
X73023590Y-82550000D02*
X80010000Y-82550000D01*
X80010000Y-82550000D02*
X80010000Y-82550000D01*
X89717999Y-78557001D02*
X142422999Y-78557001D01*
X86995000Y-81280000D02*
X89717999Y-78557001D01*
X142422999Y-78557001D02*
X143827500Y-77152500D01*
X145732500Y-68262500D02*
X146050000Y-68580000D01*
X143827500Y-68262500D02*
X145732500Y-68262500D01*
X139700000Y-41910000D02*
X143510000Y-45720000D01*
X143510000Y-60960000D02*
X146050000Y-63500000D01*
X143510000Y-45720000D02*
X143510000Y-60960000D01*
X147414999Y-46895001D02*
X148590000Y-45720000D01*
X145485999Y-46895001D02*
X147414999Y-46895001D01*
X144874999Y-46284001D02*
X145485999Y-46895001D01*
X144874999Y-45181409D02*
X144874999Y-46284001D01*
X140516589Y-40822999D02*
X144874999Y-45181409D01*
X128087001Y-40822999D02*
X140516589Y-40822999D01*
X127000000Y-41910000D02*
X128087001Y-40822999D01*
X82550000Y-45085000D02*
X83185000Y-45085000D01*
X83185000Y-45085000D02*
X83185000Y-44450000D01*
X208270002Y-54625000D02*
X207095001Y-55800001D01*
X209071000Y-49545000D02*
X208270002Y-50345998D01*
X210199002Y-49545000D02*
X209071000Y-49545000D01*
X212438001Y-50255001D02*
X210909003Y-50255001D01*
X212815001Y-49878001D02*
X212438001Y-50255001D01*
X208270002Y-50345998D02*
X208270002Y-54625000D01*
X212815001Y-43358589D02*
X212815001Y-49878001D01*
X210909003Y-50255001D02*
X210199002Y-49545000D01*
X209379392Y-39922980D02*
X212815001Y-43358589D01*
X108030611Y-39922981D02*
X209379392Y-39922980D01*
X107948590Y-40005000D02*
X108030611Y-39922981D01*
X87630000Y-40005000D02*
X107948590Y-40005000D01*
X83185000Y-43180000D02*
X85090000Y-41275000D01*
X83185000Y-45085000D02*
X83185000Y-43180000D01*
X85090000Y-41275000D02*
X86360000Y-41275000D01*
X86360000Y-41275000D02*
X87630000Y-40005000D01*
X198755000Y-78105000D02*
X198755000Y-78105000D01*
X150495000Y-78740000D02*
X151130000Y-78105000D01*
X149765001Y-82455001D02*
X150495000Y-81725002D01*
X145149400Y-82817010D02*
X145511409Y-82455001D01*
X74747001Y-79827001D02*
X79190591Y-79827001D01*
X73660000Y-78740000D02*
X74747001Y-79827001D01*
X124388305Y-82817066D02*
X145149400Y-82817010D01*
X79190591Y-79827001D02*
X82180601Y-82817011D01*
X82180601Y-82817011D02*
X101671751Y-82817011D01*
X102687001Y-80758239D02*
X103252241Y-80192999D01*
X101671751Y-82817011D02*
X102687001Y-81801761D01*
X151130000Y-78105000D02*
X198755000Y-78105000D01*
X120467001Y-80462001D02*
X120467001Y-81435763D01*
X102687001Y-81801761D02*
X102687001Y-80758239D01*
X103252241Y-80192999D02*
X120197999Y-80192999D01*
X150495000Y-81725002D02*
X150495000Y-78740000D01*
X120197999Y-80192999D02*
X120467001Y-80462001D01*
X120467001Y-81435763D02*
X121848304Y-82817066D01*
X145511409Y-82455001D02*
X149765001Y-82455001D01*
X121848304Y-82817066D02*
X124388305Y-82817066D01*
X199390000Y-76200000D02*
X199390000Y-76200000D01*
X145675997Y-77375001D02*
X198214999Y-77375001D01*
X143308009Y-79742989D02*
X145675997Y-77375001D01*
X101233421Y-79742989D02*
X143308009Y-79742989D01*
X198214999Y-77375001D02*
X199390000Y-76200000D01*
X100147001Y-80829409D02*
X101233421Y-79742989D01*
X100147001Y-81801761D02*
X100147001Y-80829409D01*
X84341761Y-82367001D02*
X99581761Y-82367001D01*
X99581761Y-82367001D02*
X100147001Y-81801761D01*
X79827001Y-79827001D02*
X81801761Y-79827001D01*
X81801761Y-79827001D02*
X84341761Y-82367001D01*
X78740000Y-78740000D02*
X79827001Y-79827001D01*
X78740000Y-118110000D02*
X78740000Y-128905000D01*
X78740000Y-128905000D02*
X80010000Y-130175000D01*
X80010000Y-130175000D02*
X200660000Y-130175000D01*
X209260998Y-72405000D02*
X210200000Y-72405000D01*
X208280000Y-71424002D02*
X209260998Y-72405000D01*
X210200000Y-72405000D02*
X212090000Y-74295000D01*
X212090000Y-74295000D02*
X212090000Y-74295000D01*
X213677500Y-79057500D02*
X214077499Y-79457499D01*
X213995000Y-96520000D02*
X213995000Y-96520000D01*
X213995000Y-96520000D02*
X214077499Y-96437501D01*
X206720998Y-67325000D02*
X207660000Y-67325000D01*
X207660000Y-67325000D02*
X208280000Y-67945000D01*
X205920000Y-66524002D02*
X206720998Y-67325000D01*
X207095001Y-63420001D02*
X205920000Y-64595002D01*
X205920000Y-64595002D02*
X205920000Y-66524002D01*
X208280000Y-67945000D02*
X208280000Y-71424002D01*
X214485001Y-79865001D02*
X213677500Y-79057500D01*
X214485001Y-96029999D02*
X214485001Y-79865001D01*
X213995000Y-96520000D02*
X214485001Y-96029999D01*
X213360000Y-120015000D02*
X213360000Y-125095000D01*
X213360000Y-125095000D02*
X208280000Y-130175000D01*
X208280000Y-130175000D02*
X198120000Y-130175000D01*
X99060000Y-42987630D02*
X99060000Y-41910000D01*
X103512380Y-47440010D02*
X99060000Y-42987630D01*
X141418600Y-47440010D02*
X103512380Y-47440010D01*
X142609980Y-48631390D02*
X141418600Y-47440010D01*
X142609980Y-70219980D02*
X142609980Y-48631390D01*
X146050000Y-73660000D02*
X142609980Y-70219980D01*
X112847001Y-42997001D02*
X111760000Y-41910000D01*
X127271999Y-42997001D02*
X112847001Y-42997001D01*
X131264998Y-46990000D02*
X127271999Y-42997001D01*
X141605000Y-46990000D02*
X131264998Y-46990000D01*
X143059990Y-69399990D02*
X143059990Y-48444990D01*
X143059990Y-48444990D02*
X141605000Y-46990000D01*
X144780000Y-71120000D02*
X143059990Y-69399990D01*
X146050000Y-71120000D02*
X144780000Y-71120000D01*
X212090000Y-45720000D02*
X212090000Y-47464004D01*
X212090000Y-47464004D02*
X212090000Y-49530000D01*
X212090000Y-49530000D02*
X212090000Y-49530000D01*
X209192991Y-40372989D02*
X108217010Y-40372990D01*
X210810002Y-41990000D02*
X209192991Y-40372989D01*
X209260998Y-46815002D02*
X210199002Y-46815002D01*
X208460000Y-47616000D02*
X209260998Y-46815002D01*
X208460000Y-48715000D02*
X208460000Y-47616000D01*
X108217010Y-40372990D02*
X106680000Y-41910000D01*
X207819998Y-49355002D02*
X208460000Y-48715000D01*
X210810002Y-46204002D02*
X210810002Y-41990000D01*
X206720998Y-49355002D02*
X207819998Y-49355002D01*
X205340000Y-50736000D02*
X206720998Y-49355002D01*
X205340000Y-66745000D02*
X205340000Y-50736000D01*
X210199002Y-46815002D02*
X210810002Y-46204002D01*
X207095001Y-68500001D02*
X205340000Y-66745000D01*
X200660000Y-74930000D02*
X200660000Y-74930000D01*
X207089999Y-81200001D02*
X207095001Y-81200001D01*
X84245001Y-46210001D02*
X85925020Y-47890020D01*
X141232200Y-47890020D02*
X142159970Y-48817790D01*
X142159970Y-71508972D02*
X145580998Y-74930000D01*
X85925020Y-47890020D02*
X141232200Y-47890020D01*
X145580998Y-74930000D02*
X200660000Y-74930000D01*
X142159970Y-48817790D02*
X142159970Y-71508972D01*
X77564999Y-40149999D02*
X76835000Y-40879998D01*
X78645001Y-40149999D02*
X77564999Y-40149999D01*
X79230001Y-40734999D02*
X78645001Y-40149999D01*
X79230001Y-43215003D02*
X79230001Y-40734999D01*
X82224999Y-46210001D02*
X79230001Y-43215003D01*
X84245001Y-46210001D02*
X82224999Y-46210001D01*
X76835000Y-40879998D02*
X76835000Y-46355000D01*
X69848590Y-59690000D02*
X73660000Y-59690000D01*
X68764991Y-58606401D02*
X69848590Y-59690000D01*
X68764990Y-47438600D02*
X68764991Y-58606401D01*
X69848590Y-46355000D02*
X68764990Y-47438600D01*
X76835000Y-46355000D02*
X69848590Y-46355000D01*
X73660000Y-59690000D02*
X69215000Y-59690000D01*
X207015002Y-71120000D02*
X207095001Y-71040001D01*
X149860000Y-85090000D02*
X149860000Y-85090000D01*
X203200000Y-74930000D02*
X199299999Y-78830001D01*
X150945010Y-84004990D02*
X149860000Y-85090000D01*
X150945010Y-79559990D02*
X151674999Y-78830001D01*
X199299999Y-78830001D02*
X151674999Y-78830001D01*
X150945010Y-79559990D02*
X150945010Y-84004990D01*
X202565000Y-83820000D02*
X202565000Y-83820000D01*
X153035000Y-83820000D02*
X202565000Y-83820000D01*
X107316410Y-87630000D02*
X149225000Y-87630000D01*
X149225000Y-87630000D02*
X153035000Y-83820000D01*
X106680000Y-86993590D02*
X107316410Y-87630000D01*
X106680000Y-81280000D02*
X106680000Y-86993590D01*
X97555001Y-128670001D02*
X93980000Y-125095000D01*
X110089999Y-128670001D02*
X97555001Y-128670001D01*
X121920000Y-116840000D02*
X110089999Y-128670001D01*
X209130010Y-89995002D02*
X208270002Y-89134994D01*
X208270002Y-74755002D02*
X207095001Y-73580001D01*
X209130010Y-94830010D02*
X209130010Y-89995002D01*
X208270002Y-89134994D02*
X208270002Y-74755002D01*
X215265000Y-100965000D02*
X209130010Y-94830010D01*
X215603762Y-100965000D02*
X215265000Y-100965000D01*
X221162999Y-106524237D02*
X215603762Y-100965000D01*
X221162999Y-115387001D02*
X221162999Y-106524237D01*
X219710000Y-116840000D02*
X221162999Y-115387001D01*
X217170000Y-116840000D02*
X217170000Y-111522822D01*
X203989971Y-98342793D02*
X203989971Y-46509971D01*
X217170000Y-111522822D02*
X203989971Y-98342793D01*
X144874999Y-44544999D02*
X146050000Y-45720000D01*
X144874999Y-42615999D02*
X144874999Y-44544999D01*
X146667999Y-40822999D02*
X144874999Y-42615999D01*
X198302999Y-40822999D02*
X146667999Y-40822999D01*
X203989971Y-46509971D02*
X198302999Y-40822999D01*
X221455000Y-98425000D02*
X222250000Y-97630000D01*
X214630000Y-98425000D02*
X221455000Y-98425000D01*
X141605000Y-125095000D02*
X143510000Y-125095000D01*
X135890000Y-121920000D02*
X135890000Y-125095000D01*
X135890000Y-125095000D02*
X142240000Y-125095000D01*
X148590000Y-88900000D02*
X146685000Y-90805000D01*
X146685000Y-121920000D02*
X143510000Y-125095000D01*
X146685000Y-90805000D02*
X146685000Y-121920000D01*
X149225000Y-42545000D02*
X148590000Y-43180000D01*
X198118590Y-42545000D02*
X149225000Y-42545000D01*
X201930000Y-46356410D02*
X198118590Y-42545000D01*
X201930000Y-73660000D02*
X201930000Y-46356410D01*
X200660000Y-76200000D02*
X201930000Y-74930000D01*
X201930000Y-74930000D02*
X201930000Y-73660000D01*
X147320000Y-41910000D02*
X146050000Y-43180000D01*
X198120000Y-41910000D02*
X147320000Y-41910000D01*
X203200000Y-46990000D02*
X198120000Y-41910000D01*
X203200000Y-73660000D02*
X203200000Y-46990000D01*
X212725000Y-86995000D02*
X212725000Y-77470000D01*
X212725000Y-77470000D02*
X212725000Y-77470000D01*
X212725000Y-86360000D02*
X212725000Y-77470000D01*
X213360000Y-86995000D02*
X212725000Y-86360000D01*
X74930000Y-50800000D02*
X78505001Y-54375001D01*
X132080000Y-77470000D02*
X134620000Y-77470000D01*
X82550000Y-50800000D02*
X134620000Y-50800000D01*
X139700000Y-55880000D02*
X139700000Y-77470000D01*
X134620000Y-50800000D02*
X139700000Y-55880000D01*
X137160000Y-77470000D02*
X139700000Y-77470000D01*
X82550000Y-69850000D02*
X107950000Y-69850000D01*
X111760000Y-73660000D02*
X111760000Y-77470000D01*
X107950000Y-69850000D02*
X111760000Y-73660000D01*
X109220000Y-77470000D02*
X111760000Y-77470000D01*
X74930000Y-69850000D02*
X78505001Y-73425001D01*
X104140000Y-77470000D02*
X106680000Y-77470000D01*
X74930000Y-88900000D02*
X74930000Y-91440000D01*
X132080000Y-116840000D02*
X134620000Y-116840000D01*
X74930000Y-88900000D02*
X76538762Y-88900000D01*
X133985000Y-116205000D02*
X134620000Y-116840000D01*
X137160000Y-116840000D02*
X139700000Y-116840000D01*
X139700000Y-116840000D02*
X139700000Y-92710000D01*
X86360000Y-92710000D02*
X82550000Y-88900000D01*
X139700000Y-92710000D02*
X86360000Y-92710000D01*
X82550000Y-109220000D02*
X110490000Y-109220000D01*
X111760000Y-110490000D02*
X111760000Y-116840000D01*
X110490000Y-109220000D02*
X111760000Y-110490000D01*
X109220000Y-116840000D02*
X111760000Y-116840000D01*
X106680000Y-116840000D02*
X104140000Y-116840000D01*
X69363119Y-58568119D02*
X69215000Y-58420000D01*
X76686881Y-58568119D02*
X69363119Y-58568119D01*
X77808762Y-59690000D02*
X76686881Y-58568119D01*
X78740000Y-59690000D02*
X77808762Y-59690000D01*
X69850000Y-46990000D02*
X69215000Y-47625000D01*
X77470000Y-46990000D02*
X69850000Y-46990000D01*
X69215000Y-58420000D02*
X69215000Y-47625000D01*
X78105000Y-41275000D02*
X78105000Y-46355000D01*
X78105000Y-46355000D02*
X77470000Y-46990000D01*
X207010000Y-98425000D02*
X207010000Y-94615000D01*
D26*
X77978000Y-108820822D02*
X77578822Y-109220000D01*
X77978000Y-109619178D01*
X77978000Y-113030000D01*
X77980440Y-113054776D01*
X77987667Y-113078601D01*
X77999403Y-113100557D01*
X78015197Y-113119803D01*
X78034443Y-113135597D01*
X78056399Y-113147333D01*
X78080224Y-113154560D01*
X78105000Y-113157000D01*
X107188000Y-113157000D01*
X107188000Y-115363653D01*
X106347761Y-114523414D01*
X105894403Y-114976772D01*
X106429922Y-115512291D01*
X106371774Y-115633748D01*
X106680000Y-115941974D01*
X106769803Y-115852172D01*
X107188000Y-116270369D01*
X107188000Y-117409631D01*
X106769803Y-117827829D01*
X106680000Y-117738026D01*
X106371774Y-118046252D01*
X106429922Y-118167709D01*
X105979631Y-118618000D01*
X85121681Y-118618000D01*
X85163314Y-118517490D01*
X85217000Y-118247592D01*
X85217000Y-117972408D01*
X85163314Y-117702510D01*
X85058005Y-117448273D01*
X84905120Y-117219465D01*
X84710535Y-117024880D01*
X84481727Y-116871995D01*
X84227490Y-116766686D01*
X83957592Y-116713000D01*
X83682408Y-116713000D01*
X83528429Y-116743628D01*
X83487210Y-116702408D01*
X92583000Y-116702408D01*
X92583000Y-116977592D01*
X92636686Y-117247490D01*
X92741995Y-117501727D01*
X92894880Y-117730535D01*
X93089465Y-117925120D01*
X93318273Y-118078005D01*
X93572510Y-118183314D01*
X93842408Y-118237000D01*
X94117592Y-118237000D01*
X94387490Y-118183314D01*
X94641727Y-118078005D01*
X94870535Y-117925120D01*
X95065120Y-117730535D01*
X95218005Y-117501727D01*
X95250000Y-117424485D01*
X95281995Y-117501727D01*
X95434880Y-117730535D01*
X95629465Y-117925120D01*
X95858273Y-118078005D01*
X96112510Y-118183314D01*
X96382408Y-118237000D01*
X96657592Y-118237000D01*
X96927490Y-118183314D01*
X97181727Y-118078005D01*
X97410535Y-117925120D01*
X97605120Y-117730535D01*
X97758005Y-117501727D01*
X97790000Y-117424485D01*
X97821995Y-117501727D01*
X97974880Y-117730535D01*
X98169465Y-117925120D01*
X98398273Y-118078005D01*
X98652510Y-118183314D01*
X98922408Y-118237000D01*
X99197592Y-118237000D01*
X99467490Y-118183314D01*
X99721727Y-118078005D01*
X99950535Y-117925120D01*
X100145120Y-117730535D01*
X100298005Y-117501727D01*
X100330000Y-117424485D01*
X100361995Y-117501727D01*
X100514880Y-117730535D01*
X100709465Y-117925120D01*
X100938273Y-118078005D01*
X101192510Y-118183314D01*
X101462408Y-118237000D01*
X101737592Y-118237000D01*
X102007490Y-118183314D01*
X102261727Y-118078005D01*
X102309248Y-118046252D01*
X103831774Y-118046252D01*
X103917863Y-118226071D01*
X104192541Y-118242775D01*
X104362137Y-118226071D01*
X104448226Y-118046252D01*
X104140000Y-117738026D01*
X103831774Y-118046252D01*
X102309248Y-118046252D01*
X102490535Y-117925120D01*
X102685120Y-117730535D01*
X102838005Y-117501727D01*
X102943314Y-117247490D01*
X102970337Y-117111637D01*
X103241974Y-116840000D01*
X105038026Y-116840000D01*
X105346252Y-117148226D01*
X105410000Y-117117706D01*
X105473748Y-117148226D01*
X105781974Y-116840000D01*
X105473748Y-116531774D01*
X105410000Y-116562294D01*
X105346252Y-116531774D01*
X105038026Y-116840000D01*
X103241974Y-116840000D01*
X102970337Y-116568363D01*
X102943314Y-116432510D01*
X102838005Y-116178273D01*
X102685120Y-115949465D01*
X102490535Y-115754880D01*
X102309249Y-115633748D01*
X103831774Y-115633748D01*
X104140000Y-115941974D01*
X104448226Y-115633748D01*
X104362137Y-115453929D01*
X104087459Y-115437225D01*
X103917863Y-115453929D01*
X103831774Y-115633748D01*
X102309249Y-115633748D01*
X102261727Y-115601995D01*
X102007490Y-115496686D01*
X101737592Y-115443000D01*
X101462408Y-115443000D01*
X101192510Y-115496686D01*
X100938273Y-115601995D01*
X100709465Y-115754880D01*
X100514880Y-115949465D01*
X100361995Y-116178273D01*
X100330000Y-116255515D01*
X100298005Y-116178273D01*
X100145120Y-115949465D01*
X99950535Y-115754880D01*
X99721727Y-115601995D01*
X99467490Y-115496686D01*
X99197592Y-115443000D01*
X98922408Y-115443000D01*
X98652510Y-115496686D01*
X98398273Y-115601995D01*
X98169465Y-115754880D01*
X97974880Y-115949465D01*
X97821995Y-116178273D01*
X97790000Y-116255515D01*
X97758005Y-116178273D01*
X97605120Y-115949465D01*
X97410535Y-115754880D01*
X97181727Y-115601995D01*
X96927490Y-115496686D01*
X96657592Y-115443000D01*
X96382408Y-115443000D01*
X96112510Y-115496686D01*
X95858273Y-115601995D01*
X95629465Y-115754880D01*
X95434880Y-115949465D01*
X95281995Y-116178273D01*
X95250000Y-116255515D01*
X95218005Y-116178273D01*
X95065120Y-115949465D01*
X94870535Y-115754880D01*
X94641727Y-115601995D01*
X94387490Y-115496686D01*
X94117592Y-115443000D01*
X93842408Y-115443000D01*
X93572510Y-115496686D01*
X93318273Y-115601995D01*
X93089465Y-115754880D01*
X92894880Y-115949465D01*
X92741995Y-116178273D01*
X92636686Y-116432510D01*
X92583000Y-116702408D01*
X83487210Y-116702408D01*
X83296803Y-116512001D01*
X83273000Y-116482998D01*
X83157275Y-116388025D01*
X83025246Y-116317453D01*
X82881985Y-116273996D01*
X82770332Y-116262999D01*
X82770321Y-116262999D01*
X82732999Y-116259323D01*
X82695677Y-116262999D01*
X76064211Y-116262999D01*
X72638793Y-112837581D01*
X73961241Y-112837581D01*
X74432048Y-113091909D01*
X75196988Y-113114656D01*
X75427952Y-113091909D01*
X75898759Y-112837581D01*
X74930000Y-111868822D01*
X73961241Y-112837581D01*
X72638793Y-112837581D01*
X72114999Y-112313788D01*
X72114999Y-109386179D01*
X72281178Y-109220000D01*
X72114999Y-109053821D01*
X72114999Y-105602419D01*
X73961241Y-105602419D01*
X74930000Y-106571178D01*
X75898759Y-105602419D01*
X75427952Y-105348091D01*
X74663012Y-105325344D01*
X74432048Y-105348091D01*
X73961241Y-105602419D01*
X72114999Y-105602419D01*
X72114999Y-103586212D01*
X75879212Y-99822000D01*
X77978000Y-99822000D01*
X77978000Y-108820822D01*
G04 #@! TA.AperFunction,Conductor*
D27*
G36*
X77978000Y-108820822D02*
G01*
X77578822Y-109220000D01*
X77978000Y-109619178D01*
X77978000Y-113030000D01*
X77980440Y-113054776D01*
X77987667Y-113078601D01*
X77999403Y-113100557D01*
X78015197Y-113119803D01*
X78034443Y-113135597D01*
X78056399Y-113147333D01*
X78080224Y-113154560D01*
X78105000Y-113157000D01*
X107188000Y-113157000D01*
X107188000Y-115363653D01*
X106347761Y-114523414D01*
X105894403Y-114976772D01*
X106429922Y-115512291D01*
X106371774Y-115633748D01*
X106680000Y-115941974D01*
X106769803Y-115852172D01*
X107188000Y-116270369D01*
X107188000Y-117409631D01*
X106769803Y-117827829D01*
X106680000Y-117738026D01*
X106371774Y-118046252D01*
X106429922Y-118167709D01*
X105979631Y-118618000D01*
X85121681Y-118618000D01*
X85163314Y-118517490D01*
X85217000Y-118247592D01*
X85217000Y-117972408D01*
X85163314Y-117702510D01*
X85058005Y-117448273D01*
X84905120Y-117219465D01*
X84710535Y-117024880D01*
X84481727Y-116871995D01*
X84227490Y-116766686D01*
X83957592Y-116713000D01*
X83682408Y-116713000D01*
X83528429Y-116743628D01*
X83487210Y-116702408D01*
X92583000Y-116702408D01*
X92583000Y-116977592D01*
X92636686Y-117247490D01*
X92741995Y-117501727D01*
X92894880Y-117730535D01*
X93089465Y-117925120D01*
X93318273Y-118078005D01*
X93572510Y-118183314D01*
X93842408Y-118237000D01*
X94117592Y-118237000D01*
X94387490Y-118183314D01*
X94641727Y-118078005D01*
X94870535Y-117925120D01*
X95065120Y-117730535D01*
X95218005Y-117501727D01*
X95250000Y-117424485D01*
X95281995Y-117501727D01*
X95434880Y-117730535D01*
X95629465Y-117925120D01*
X95858273Y-118078005D01*
X96112510Y-118183314D01*
X96382408Y-118237000D01*
X96657592Y-118237000D01*
X96927490Y-118183314D01*
X97181727Y-118078005D01*
X97410535Y-117925120D01*
X97605120Y-117730535D01*
X97758005Y-117501727D01*
X97790000Y-117424485D01*
X97821995Y-117501727D01*
X97974880Y-117730535D01*
X98169465Y-117925120D01*
X98398273Y-118078005D01*
X98652510Y-118183314D01*
X98922408Y-118237000D01*
X99197592Y-118237000D01*
X99467490Y-118183314D01*
X99721727Y-118078005D01*
X99950535Y-117925120D01*
X100145120Y-117730535D01*
X100298005Y-117501727D01*
X100330000Y-117424485D01*
X100361995Y-117501727D01*
X100514880Y-117730535D01*
X100709465Y-117925120D01*
X100938273Y-118078005D01*
X101192510Y-118183314D01*
X101462408Y-118237000D01*
X101737592Y-118237000D01*
X102007490Y-118183314D01*
X102261727Y-118078005D01*
X102309248Y-118046252D01*
X103831774Y-118046252D01*
X103917863Y-118226071D01*
X104192541Y-118242775D01*
X104362137Y-118226071D01*
X104448226Y-118046252D01*
X104140000Y-117738026D01*
X103831774Y-118046252D01*
X102309248Y-118046252D01*
X102490535Y-117925120D01*
X102685120Y-117730535D01*
X102838005Y-117501727D01*
X102943314Y-117247490D01*
X102970337Y-117111637D01*
X103241974Y-116840000D01*
X105038026Y-116840000D01*
X105346252Y-117148226D01*
X105410000Y-117117706D01*
X105473748Y-117148226D01*
X105781974Y-116840000D01*
X105473748Y-116531774D01*
X105410000Y-116562294D01*
X105346252Y-116531774D01*
X105038026Y-116840000D01*
X103241974Y-116840000D01*
X102970337Y-116568363D01*
X102943314Y-116432510D01*
X102838005Y-116178273D01*
X102685120Y-115949465D01*
X102490535Y-115754880D01*
X102309249Y-115633748D01*
X103831774Y-115633748D01*
X104140000Y-115941974D01*
X104448226Y-115633748D01*
X104362137Y-115453929D01*
X104087459Y-115437225D01*
X103917863Y-115453929D01*
X103831774Y-115633748D01*
X102309249Y-115633748D01*
X102261727Y-115601995D01*
X102007490Y-115496686D01*
X101737592Y-115443000D01*
X101462408Y-115443000D01*
X101192510Y-115496686D01*
X100938273Y-115601995D01*
X100709465Y-115754880D01*
X100514880Y-115949465D01*
X100361995Y-116178273D01*
X100330000Y-116255515D01*
X100298005Y-116178273D01*
X100145120Y-115949465D01*
X99950535Y-115754880D01*
X99721727Y-115601995D01*
X99467490Y-115496686D01*
X99197592Y-115443000D01*
X98922408Y-115443000D01*
X98652510Y-115496686D01*
X98398273Y-115601995D01*
X98169465Y-115754880D01*
X97974880Y-115949465D01*
X97821995Y-116178273D01*
X97790000Y-116255515D01*
X97758005Y-116178273D01*
X97605120Y-115949465D01*
X97410535Y-115754880D01*
X97181727Y-115601995D01*
X96927490Y-115496686D01*
X96657592Y-115443000D01*
X96382408Y-115443000D01*
X96112510Y-115496686D01*
X95858273Y-115601995D01*
X95629465Y-115754880D01*
X95434880Y-115949465D01*
X95281995Y-116178273D01*
X95250000Y-116255515D01*
X95218005Y-116178273D01*
X95065120Y-115949465D01*
X94870535Y-115754880D01*
X94641727Y-115601995D01*
X94387490Y-115496686D01*
X94117592Y-115443000D01*
X93842408Y-115443000D01*
X93572510Y-115496686D01*
X93318273Y-115601995D01*
X93089465Y-115754880D01*
X92894880Y-115949465D01*
X92741995Y-116178273D01*
X92636686Y-116432510D01*
X92583000Y-116702408D01*
X83487210Y-116702408D01*
X83296803Y-116512001D01*
X83273000Y-116482998D01*
X83157275Y-116388025D01*
X83025246Y-116317453D01*
X82881985Y-116273996D01*
X82770332Y-116262999D01*
X82770321Y-116262999D01*
X82732999Y-116259323D01*
X82695677Y-116262999D01*
X76064211Y-116262999D01*
X72638793Y-112837581D01*
X73961241Y-112837581D01*
X74432048Y-113091909D01*
X75196988Y-113114656D01*
X75427952Y-113091909D01*
X75898759Y-112837581D01*
X74930000Y-111868822D01*
X73961241Y-112837581D01*
X72638793Y-112837581D01*
X72114999Y-112313788D01*
X72114999Y-109386179D01*
X72281178Y-109220000D01*
X72114999Y-109053821D01*
X72114999Y-105602419D01*
X73961241Y-105602419D01*
X74930000Y-106571178D01*
X75898759Y-105602419D01*
X75427952Y-105348091D01*
X74663012Y-105325344D01*
X74432048Y-105348091D01*
X73961241Y-105602419D01*
X72114999Y-105602419D01*
X72114999Y-103586212D01*
X75879212Y-99822000D01*
X77978000Y-99822000D01*
X77978000Y-108820822D01*
G37*
G04 #@! TD.AperFunction*
D26*
X86233000Y-102870000D02*
X86235440Y-102894776D01*
X86242667Y-102918601D01*
X86254403Y-102940557D01*
X86270197Y-102959803D01*
X86289443Y-102975597D01*
X86311399Y-102987333D01*
X86335224Y-102994560D01*
X86360000Y-102997000D01*
X114173000Y-102997000D01*
X114173000Y-119888000D01*
X108077000Y-119888000D01*
X108077000Y-118046252D01*
X108911774Y-118046252D01*
X108997863Y-118226071D01*
X109272541Y-118242775D01*
X109442137Y-118226071D01*
X109528226Y-118046252D01*
X111451774Y-118046252D01*
X111537863Y-118226071D01*
X111812541Y-118242775D01*
X111982137Y-118226071D01*
X112068226Y-118046252D01*
X111760000Y-117738026D01*
X111451774Y-118046252D01*
X109528226Y-118046252D01*
X109220000Y-117738026D01*
X108911774Y-118046252D01*
X108077000Y-118046252D01*
X108077000Y-117084974D01*
X108321974Y-116840000D01*
X110118026Y-116840000D01*
X110426252Y-117148226D01*
X110490000Y-117117706D01*
X110553748Y-117148226D01*
X110861974Y-116840000D01*
X112658026Y-116840000D01*
X112966252Y-117148226D01*
X113146071Y-117062137D01*
X113162775Y-116787459D01*
X113146071Y-116617863D01*
X112966252Y-116531774D01*
X112658026Y-116840000D01*
X110861974Y-116840000D01*
X110553748Y-116531774D01*
X110490000Y-116562294D01*
X110426252Y-116531774D01*
X110118026Y-116840000D01*
X108321974Y-116840000D01*
X108077000Y-116595026D01*
X108077000Y-115633748D01*
X108911774Y-115633748D01*
X109220000Y-115941974D01*
X109528226Y-115633748D01*
X111451774Y-115633748D01*
X111760000Y-115941974D01*
X112068226Y-115633748D01*
X111982137Y-115453929D01*
X111707459Y-115437225D01*
X111537863Y-115453929D01*
X111451774Y-115633748D01*
X109528226Y-115633748D01*
X109442137Y-115453929D01*
X109167459Y-115437225D01*
X108997863Y-115453929D01*
X108911774Y-115633748D01*
X108077000Y-115633748D01*
X108077000Y-112395000D01*
X108074560Y-112370224D01*
X108067333Y-112346399D01*
X108055597Y-112324443D01*
X108039803Y-112305197D01*
X108020557Y-112289403D01*
X107998601Y-112277667D01*
X107974776Y-112270440D01*
X107950000Y-112268000D01*
X82949178Y-112268000D01*
X82550000Y-111868822D01*
X82150822Y-112268000D01*
X78867000Y-112268000D01*
X78867000Y-110067657D01*
X78932419Y-110188759D01*
X79901178Y-109220000D01*
X85198822Y-109220000D01*
X86167581Y-110188759D01*
X86421909Y-109717952D01*
X86444656Y-108953012D01*
X86421909Y-108722048D01*
X86167581Y-108251241D01*
X85198822Y-109220000D01*
X79901178Y-109220000D01*
X78932419Y-108251241D01*
X78867000Y-108372343D01*
X78867000Y-105602419D01*
X81581241Y-105602419D01*
X82550000Y-106571178D01*
X83518759Y-105602419D01*
X83047952Y-105348091D01*
X82283012Y-105325344D01*
X82052048Y-105348091D01*
X81581241Y-105602419D01*
X78867000Y-105602419D01*
X78867000Y-99822000D01*
X86233000Y-99822000D01*
X86233000Y-102870000D01*
G04 #@! TA.AperFunction,Conductor*
D27*
G36*
X86233000Y-102870000D02*
G01*
X86235440Y-102894776D01*
X86242667Y-102918601D01*
X86254403Y-102940557D01*
X86270197Y-102959803D01*
X86289443Y-102975597D01*
X86311399Y-102987333D01*
X86335224Y-102994560D01*
X86360000Y-102997000D01*
X114173000Y-102997000D01*
X114173000Y-119888000D01*
X108077000Y-119888000D01*
X108077000Y-118046252D01*
X108911774Y-118046252D01*
X108997863Y-118226071D01*
X109272541Y-118242775D01*
X109442137Y-118226071D01*
X109528226Y-118046252D01*
X111451774Y-118046252D01*
X111537863Y-118226071D01*
X111812541Y-118242775D01*
X111982137Y-118226071D01*
X112068226Y-118046252D01*
X111760000Y-117738026D01*
X111451774Y-118046252D01*
X109528226Y-118046252D01*
X109220000Y-117738026D01*
X108911774Y-118046252D01*
X108077000Y-118046252D01*
X108077000Y-117084974D01*
X108321974Y-116840000D01*
X110118026Y-116840000D01*
X110426252Y-117148226D01*
X110490000Y-117117706D01*
X110553748Y-117148226D01*
X110861974Y-116840000D01*
X112658026Y-116840000D01*
X112966252Y-117148226D01*
X113146071Y-117062137D01*
X113162775Y-116787459D01*
X113146071Y-116617863D01*
X112966252Y-116531774D01*
X112658026Y-116840000D01*
X110861974Y-116840000D01*
X110553748Y-116531774D01*
X110490000Y-116562294D01*
X110426252Y-116531774D01*
X110118026Y-116840000D01*
X108321974Y-116840000D01*
X108077000Y-116595026D01*
X108077000Y-115633748D01*
X108911774Y-115633748D01*
X109220000Y-115941974D01*
X109528226Y-115633748D01*
X111451774Y-115633748D01*
X111760000Y-115941974D01*
X112068226Y-115633748D01*
X111982137Y-115453929D01*
X111707459Y-115437225D01*
X111537863Y-115453929D01*
X111451774Y-115633748D01*
X109528226Y-115633748D01*
X109442137Y-115453929D01*
X109167459Y-115437225D01*
X108997863Y-115453929D01*
X108911774Y-115633748D01*
X108077000Y-115633748D01*
X108077000Y-112395000D01*
X108074560Y-112370224D01*
X108067333Y-112346399D01*
X108055597Y-112324443D01*
X108039803Y-112305197D01*
X108020557Y-112289403D01*
X107998601Y-112277667D01*
X107974776Y-112270440D01*
X107950000Y-112268000D01*
X82949178Y-112268000D01*
X82550000Y-111868822D01*
X82150822Y-112268000D01*
X78867000Y-112268000D01*
X78867000Y-110067657D01*
X78932419Y-110188759D01*
X79901178Y-109220000D01*
X85198822Y-109220000D01*
X86167581Y-110188759D01*
X86421909Y-109717952D01*
X86444656Y-108953012D01*
X86421909Y-108722048D01*
X86167581Y-108251241D01*
X85198822Y-109220000D01*
X79901178Y-109220000D01*
X78932419Y-108251241D01*
X78867000Y-108372343D01*
X78867000Y-105602419D01*
X81581241Y-105602419D01*
X82550000Y-106571178D01*
X83518759Y-105602419D01*
X83047952Y-105348091D01*
X82283012Y-105325344D01*
X82052048Y-105348091D01*
X81581241Y-105602419D01*
X78867000Y-105602419D01*
X78867000Y-99822000D01*
X86233000Y-99822000D01*
X86233000Y-102870000D01*
G37*
G04 #@! TD.AperFunction*
D26*
X95321200Y-86871002D02*
X95344999Y-86900001D01*
X95460724Y-86994974D01*
X95592753Y-87065546D01*
X95736014Y-87109003D01*
X95847667Y-87120000D01*
X95847677Y-87120000D01*
X95885000Y-87123676D01*
X95922323Y-87120000D01*
X101920199Y-87120000D01*
X105481201Y-90681003D01*
X105504999Y-90710001D01*
X105620724Y-90804974D01*
X105752753Y-90875546D01*
X105896014Y-90919003D01*
X106007667Y-90930000D01*
X106007675Y-90930000D01*
X106045000Y-90933676D01*
X106082325Y-90930000D01*
X141536289Y-90930000D01*
X141580226Y-90973937D01*
X141749744Y-91087205D01*
X141938102Y-91165226D01*
X142138061Y-91205000D01*
X142341939Y-91205000D01*
X142541898Y-91165226D01*
X142730256Y-91087205D01*
X142899774Y-90973937D01*
X143043937Y-90829774D01*
X143157205Y-90660256D01*
X143235226Y-90471898D01*
X143275000Y-90271939D01*
X143275000Y-90204999D01*
X143351288Y-90204999D01*
X143485226Y-90338937D01*
X143654744Y-90452205D01*
X143843102Y-90530226D01*
X144043061Y-90570000D01*
X144246939Y-90570000D01*
X144446898Y-90530226D01*
X144635256Y-90452205D01*
X144804774Y-90338937D01*
X144948937Y-90194774D01*
X145062205Y-90025256D01*
X145065996Y-90016103D01*
X145103368Y-90053475D01*
X145288000Y-90176842D01*
X145288000Y-120523000D01*
X136652000Y-120523000D01*
X136652000Y-118316347D01*
X137492239Y-119156586D01*
X137945597Y-118703228D01*
X137410078Y-118167709D01*
X137468226Y-118046252D01*
X139391774Y-118046252D01*
X139477863Y-118226071D01*
X139752541Y-118242775D01*
X139922137Y-118226071D01*
X140008226Y-118046252D01*
X139700000Y-117738026D01*
X139391774Y-118046252D01*
X137468226Y-118046252D01*
X137160000Y-117738026D01*
X137070198Y-117827829D01*
X136652000Y-117409631D01*
X136652000Y-116840000D01*
X138058026Y-116840000D01*
X138366252Y-117148226D01*
X138430000Y-117117706D01*
X138493748Y-117148226D01*
X138801974Y-116840000D01*
X140598026Y-116840000D01*
X140906252Y-117148226D01*
X141086071Y-117062137D01*
X141102775Y-116787459D01*
X141086071Y-116617863D01*
X140906252Y-116531774D01*
X140598026Y-116840000D01*
X138801974Y-116840000D01*
X138493748Y-116531774D01*
X138430000Y-116562294D01*
X138366252Y-116531774D01*
X138058026Y-116840000D01*
X136652000Y-116840000D01*
X136652000Y-116270369D01*
X137070198Y-115852172D01*
X137160000Y-115941974D01*
X137468226Y-115633748D01*
X139391774Y-115633748D01*
X139700000Y-115941974D01*
X140008226Y-115633748D01*
X139922137Y-115453929D01*
X139647459Y-115437225D01*
X139477863Y-115453929D01*
X139391774Y-115633748D01*
X137468226Y-115633748D01*
X137410078Y-115512291D01*
X137945597Y-114976772D01*
X137492239Y-114523414D01*
X136652000Y-115363653D01*
X136652000Y-95885000D01*
X136649560Y-95860224D01*
X136642333Y-95836399D01*
X136630597Y-95814443D01*
X136614803Y-95795197D01*
X136595557Y-95779403D01*
X136573601Y-95767667D01*
X136549776Y-95760440D01*
X136525000Y-95758000D01*
X91567000Y-95758000D01*
X91567000Y-92710000D01*
X91564560Y-92685224D01*
X91557333Y-92661399D01*
X91545597Y-92639443D01*
X91529803Y-92620197D01*
X91510557Y-92604403D01*
X91488601Y-92592667D01*
X91464776Y-92585440D01*
X91440000Y-92583000D01*
X83397657Y-92583000D01*
X83518759Y-92517581D01*
X82550000Y-91548822D01*
X82535858Y-91562965D01*
X80137000Y-89164107D01*
X80137000Y-88900000D01*
X85198822Y-88900000D01*
X86167581Y-89868759D01*
X86421909Y-89397952D01*
X86444656Y-88633012D01*
X86421909Y-88402048D01*
X86167581Y-87931241D01*
X85198822Y-88900000D01*
X80137000Y-88900000D01*
X80137000Y-88635893D01*
X82535858Y-86237036D01*
X82550000Y-86251178D01*
X83518759Y-85282419D01*
X83393954Y-85215000D01*
X93665199Y-85215000D01*
X95321200Y-86871002D01*
G04 #@! TA.AperFunction,Conductor*
D27*
G36*
X95321200Y-86871002D02*
G01*
X95344999Y-86900001D01*
X95460724Y-86994974D01*
X95592753Y-87065546D01*
X95736014Y-87109003D01*
X95847667Y-87120000D01*
X95847677Y-87120000D01*
X95885000Y-87123676D01*
X95922323Y-87120000D01*
X101920199Y-87120000D01*
X105481201Y-90681003D01*
X105504999Y-90710001D01*
X105620724Y-90804974D01*
X105752753Y-90875546D01*
X105896014Y-90919003D01*
X106007667Y-90930000D01*
X106007675Y-90930000D01*
X106045000Y-90933676D01*
X106082325Y-90930000D01*
X141536289Y-90930000D01*
X141580226Y-90973937D01*
X141749744Y-91087205D01*
X141938102Y-91165226D01*
X142138061Y-91205000D01*
X142341939Y-91205000D01*
X142541898Y-91165226D01*
X142730256Y-91087205D01*
X142899774Y-90973937D01*
X143043937Y-90829774D01*
X143157205Y-90660256D01*
X143235226Y-90471898D01*
X143275000Y-90271939D01*
X143275000Y-90204999D01*
X143351288Y-90204999D01*
X143485226Y-90338937D01*
X143654744Y-90452205D01*
X143843102Y-90530226D01*
X144043061Y-90570000D01*
X144246939Y-90570000D01*
X144446898Y-90530226D01*
X144635256Y-90452205D01*
X144804774Y-90338937D01*
X144948937Y-90194774D01*
X145062205Y-90025256D01*
X145065996Y-90016103D01*
X145103368Y-90053475D01*
X145288000Y-90176842D01*
X145288000Y-120523000D01*
X136652000Y-120523000D01*
X136652000Y-118316347D01*
X137492239Y-119156586D01*
X137945597Y-118703228D01*
X137410078Y-118167709D01*
X137468226Y-118046252D01*
X139391774Y-118046252D01*
X139477863Y-118226071D01*
X139752541Y-118242775D01*
X139922137Y-118226071D01*
X140008226Y-118046252D01*
X139700000Y-117738026D01*
X139391774Y-118046252D01*
X137468226Y-118046252D01*
X137160000Y-117738026D01*
X137070198Y-117827829D01*
X136652000Y-117409631D01*
X136652000Y-116840000D01*
X138058026Y-116840000D01*
X138366252Y-117148226D01*
X138430000Y-117117706D01*
X138493748Y-117148226D01*
X138801974Y-116840000D01*
X140598026Y-116840000D01*
X140906252Y-117148226D01*
X141086071Y-117062137D01*
X141102775Y-116787459D01*
X141086071Y-116617863D01*
X140906252Y-116531774D01*
X140598026Y-116840000D01*
X138801974Y-116840000D01*
X138493748Y-116531774D01*
X138430000Y-116562294D01*
X138366252Y-116531774D01*
X138058026Y-116840000D01*
X136652000Y-116840000D01*
X136652000Y-116270369D01*
X137070198Y-115852172D01*
X137160000Y-115941974D01*
X137468226Y-115633748D01*
X139391774Y-115633748D01*
X139700000Y-115941974D01*
X140008226Y-115633748D01*
X139922137Y-115453929D01*
X139647459Y-115437225D01*
X139477863Y-115453929D01*
X139391774Y-115633748D01*
X137468226Y-115633748D01*
X137410078Y-115512291D01*
X137945597Y-114976772D01*
X137492239Y-114523414D01*
X136652000Y-115363653D01*
X136652000Y-95885000D01*
X136649560Y-95860224D01*
X136642333Y-95836399D01*
X136630597Y-95814443D01*
X136614803Y-95795197D01*
X136595557Y-95779403D01*
X136573601Y-95767667D01*
X136549776Y-95760440D01*
X136525000Y-95758000D01*
X91567000Y-95758000D01*
X91567000Y-92710000D01*
X91564560Y-92685224D01*
X91557333Y-92661399D01*
X91545597Y-92639443D01*
X91529803Y-92620197D01*
X91510557Y-92604403D01*
X91488601Y-92592667D01*
X91464776Y-92585440D01*
X91440000Y-92583000D01*
X83397657Y-92583000D01*
X83518759Y-92517581D01*
X82550000Y-91548822D01*
X82535858Y-91562965D01*
X80137000Y-89164107D01*
X80137000Y-88900000D01*
X85198822Y-88900000D01*
X86167581Y-89868759D01*
X86421909Y-89397952D01*
X86444656Y-88633012D01*
X86421909Y-88402048D01*
X86167581Y-87931241D01*
X85198822Y-88900000D01*
X80137000Y-88900000D01*
X80137000Y-88635893D01*
X82535858Y-86237036D01*
X82550000Y-86251178D01*
X83518759Y-85282419D01*
X83393954Y-85215000D01*
X93665199Y-85215000D01*
X95321200Y-86871002D01*
G37*
G04 #@! TD.AperFunction*
D26*
X73961241Y-85282419D02*
X74930000Y-86251178D01*
X75898759Y-85282419D01*
X75773954Y-85215000D01*
X79248000Y-85215000D01*
X79248000Y-86848977D01*
X79107158Y-87059762D01*
X78814298Y-87766787D01*
X78718610Y-88247846D01*
X78547581Y-87931241D01*
X77578822Y-88900000D01*
X78547581Y-89868759D01*
X78718610Y-89552154D01*
X78814298Y-90033213D01*
X79107158Y-90740238D01*
X79248000Y-90951023D01*
X79248000Y-93345000D01*
X79250440Y-93369776D01*
X79257667Y-93393601D01*
X79269403Y-93415557D01*
X79285197Y-93434803D01*
X79304443Y-93450597D01*
X79326399Y-93462333D01*
X79350224Y-93469560D01*
X79375000Y-93472000D01*
X86342982Y-93472000D01*
X86360000Y-93473676D01*
X86377018Y-93472000D01*
X90678000Y-93472000D01*
X90678000Y-96520000D01*
X90680440Y-96544776D01*
X90687667Y-96568601D01*
X90699403Y-96590557D01*
X90715197Y-96609803D01*
X90734443Y-96625597D01*
X90756399Y-96637333D01*
X90780224Y-96644560D01*
X90805000Y-96647000D01*
X135763000Y-96647000D01*
X135763000Y-116595026D01*
X135518026Y-116840000D01*
X135763000Y-117084974D01*
X135763000Y-120485000D01*
X135748665Y-120485000D01*
X135557629Y-120523000D01*
X130937000Y-120523000D01*
X130937000Y-118046252D01*
X131771774Y-118046252D01*
X131857863Y-118226071D01*
X132132541Y-118242775D01*
X132302137Y-118226071D01*
X132388226Y-118046252D01*
X134311774Y-118046252D01*
X134397863Y-118226071D01*
X134672541Y-118242775D01*
X134842137Y-118226071D01*
X134928226Y-118046252D01*
X134620000Y-117738026D01*
X134311774Y-118046252D01*
X132388226Y-118046252D01*
X132080000Y-117738026D01*
X131771774Y-118046252D01*
X130937000Y-118046252D01*
X130937000Y-117084974D01*
X131181974Y-116840000D01*
X132978026Y-116840000D01*
X133286252Y-117148226D01*
X133350000Y-117117706D01*
X133413748Y-117148226D01*
X133721974Y-116840000D01*
X133413748Y-116531774D01*
X133350000Y-116562294D01*
X133286252Y-116531774D01*
X132978026Y-116840000D01*
X131181974Y-116840000D01*
X130937000Y-116595026D01*
X130937000Y-115633748D01*
X131771774Y-115633748D01*
X132080000Y-115941974D01*
X132388226Y-115633748D01*
X134311774Y-115633748D01*
X134620000Y-115941974D01*
X134928226Y-115633748D01*
X134842137Y-115453929D01*
X134567459Y-115437225D01*
X134397863Y-115453929D01*
X134311774Y-115633748D01*
X132388226Y-115633748D01*
X132302137Y-115453929D01*
X132027459Y-115437225D01*
X131857863Y-115453929D01*
X131771774Y-115633748D01*
X130937000Y-115633748D01*
X130937000Y-102235000D01*
X130934560Y-102210224D01*
X130927333Y-102186399D01*
X130915597Y-102164443D01*
X130899803Y-102145197D01*
X130880557Y-102129403D01*
X130858601Y-102117667D01*
X130834776Y-102110440D01*
X130810000Y-102108000D01*
X87122000Y-102108000D01*
X87122000Y-99060000D01*
X87119560Y-99035224D01*
X87112333Y-99011399D01*
X87100597Y-98989443D01*
X87084803Y-98970197D01*
X87065557Y-98954403D01*
X87043601Y-98942667D01*
X87019776Y-98935440D01*
X86995000Y-98933000D01*
X84623912Y-98933000D01*
X84710535Y-98875120D01*
X84905120Y-98680535D01*
X85058005Y-98451727D01*
X85163314Y-98197490D01*
X85217000Y-97927592D01*
X85217000Y-97652408D01*
X85163314Y-97382510D01*
X85058005Y-97128273D01*
X84905120Y-96899465D01*
X84710535Y-96704880D01*
X84481727Y-96551995D01*
X84227490Y-96446686D01*
X83957592Y-96393000D01*
X83682408Y-96393000D01*
X83412510Y-96446686D01*
X83158273Y-96551995D01*
X82929465Y-96704880D01*
X82734880Y-96899465D01*
X82581995Y-97128273D01*
X82550000Y-97205515D01*
X82518005Y-97128273D01*
X82365120Y-96899465D01*
X82170535Y-96704880D01*
X81941727Y-96551995D01*
X81687490Y-96446686D01*
X81417592Y-96393000D01*
X81142408Y-96393000D01*
X80872510Y-96446686D01*
X80618273Y-96551995D01*
X80389465Y-96704880D01*
X80194880Y-96899465D01*
X80041995Y-97128273D01*
X80010000Y-97205515D01*
X79978005Y-97128273D01*
X79825120Y-96899465D01*
X79630535Y-96704880D01*
X79401727Y-96551995D01*
X79147490Y-96446686D01*
X78877592Y-96393000D01*
X78602408Y-96393000D01*
X78332510Y-96446686D01*
X78078273Y-96551995D01*
X77849465Y-96704880D01*
X77823954Y-96730391D01*
X77101861Y-96008298D01*
X77078058Y-95979294D01*
X76962333Y-95884321D01*
X76830304Y-95813749D01*
X76687043Y-95770292D01*
X76575390Y-95759295D01*
X76575379Y-95759295D01*
X76538057Y-95755619D01*
X76500735Y-95759295D01*
X73340507Y-95759295D01*
X71695010Y-94113799D01*
X71695010Y-92517581D01*
X73961241Y-92517581D01*
X74432048Y-92771909D01*
X75196988Y-92794656D01*
X75427952Y-92771909D01*
X75898759Y-92517581D01*
X74930000Y-91548822D01*
X73961241Y-92517581D01*
X71695010Y-92517581D01*
X71695010Y-89486168D01*
X72281178Y-88900000D01*
X71695010Y-88313832D01*
X71695010Y-86226201D01*
X72706212Y-85215000D01*
X74086046Y-85215000D01*
X73961241Y-85282419D01*
G04 #@! TA.AperFunction,Conductor*
D27*
G36*
X73961241Y-85282419D02*
G01*
X74930000Y-86251178D01*
X75898759Y-85282419D01*
X75773954Y-85215000D01*
X79248000Y-85215000D01*
X79248000Y-86848977D01*
X79107158Y-87059762D01*
X78814298Y-87766787D01*
X78718610Y-88247846D01*
X78547581Y-87931241D01*
X77578822Y-88900000D01*
X78547581Y-89868759D01*
X78718610Y-89552154D01*
X78814298Y-90033213D01*
X79107158Y-90740238D01*
X79248000Y-90951023D01*
X79248000Y-93345000D01*
X79250440Y-93369776D01*
X79257667Y-93393601D01*
X79269403Y-93415557D01*
X79285197Y-93434803D01*
X79304443Y-93450597D01*
X79326399Y-93462333D01*
X79350224Y-93469560D01*
X79375000Y-93472000D01*
X86342982Y-93472000D01*
X86360000Y-93473676D01*
X86377018Y-93472000D01*
X90678000Y-93472000D01*
X90678000Y-96520000D01*
X90680440Y-96544776D01*
X90687667Y-96568601D01*
X90699403Y-96590557D01*
X90715197Y-96609803D01*
X90734443Y-96625597D01*
X90756399Y-96637333D01*
X90780224Y-96644560D01*
X90805000Y-96647000D01*
X135763000Y-96647000D01*
X135763000Y-116595026D01*
X135518026Y-116840000D01*
X135763000Y-117084974D01*
X135763000Y-120485000D01*
X135748665Y-120485000D01*
X135557629Y-120523000D01*
X130937000Y-120523000D01*
X130937000Y-118046252D01*
X131771774Y-118046252D01*
X131857863Y-118226071D01*
X132132541Y-118242775D01*
X132302137Y-118226071D01*
X132388226Y-118046252D01*
X134311774Y-118046252D01*
X134397863Y-118226071D01*
X134672541Y-118242775D01*
X134842137Y-118226071D01*
X134928226Y-118046252D01*
X134620000Y-117738026D01*
X134311774Y-118046252D01*
X132388226Y-118046252D01*
X132080000Y-117738026D01*
X131771774Y-118046252D01*
X130937000Y-118046252D01*
X130937000Y-117084974D01*
X131181974Y-116840000D01*
X132978026Y-116840000D01*
X133286252Y-117148226D01*
X133350000Y-117117706D01*
X133413748Y-117148226D01*
X133721974Y-116840000D01*
X133413748Y-116531774D01*
X133350000Y-116562294D01*
X133286252Y-116531774D01*
X132978026Y-116840000D01*
X131181974Y-116840000D01*
X130937000Y-116595026D01*
X130937000Y-115633748D01*
X131771774Y-115633748D01*
X132080000Y-115941974D01*
X132388226Y-115633748D01*
X134311774Y-115633748D01*
X134620000Y-115941974D01*
X134928226Y-115633748D01*
X134842137Y-115453929D01*
X134567459Y-115437225D01*
X134397863Y-115453929D01*
X134311774Y-115633748D01*
X132388226Y-115633748D01*
X132302137Y-115453929D01*
X132027459Y-115437225D01*
X131857863Y-115453929D01*
X131771774Y-115633748D01*
X130937000Y-115633748D01*
X130937000Y-102235000D01*
X130934560Y-102210224D01*
X130927333Y-102186399D01*
X130915597Y-102164443D01*
X130899803Y-102145197D01*
X130880557Y-102129403D01*
X130858601Y-102117667D01*
X130834776Y-102110440D01*
X130810000Y-102108000D01*
X87122000Y-102108000D01*
X87122000Y-99060000D01*
X87119560Y-99035224D01*
X87112333Y-99011399D01*
X87100597Y-98989443D01*
X87084803Y-98970197D01*
X87065557Y-98954403D01*
X87043601Y-98942667D01*
X87019776Y-98935440D01*
X86995000Y-98933000D01*
X84623912Y-98933000D01*
X84710535Y-98875120D01*
X84905120Y-98680535D01*
X85058005Y-98451727D01*
X85163314Y-98197490D01*
X85217000Y-97927592D01*
X85217000Y-97652408D01*
X85163314Y-97382510D01*
X85058005Y-97128273D01*
X84905120Y-96899465D01*
X84710535Y-96704880D01*
X84481727Y-96551995D01*
X84227490Y-96446686D01*
X83957592Y-96393000D01*
X83682408Y-96393000D01*
X83412510Y-96446686D01*
X83158273Y-96551995D01*
X82929465Y-96704880D01*
X82734880Y-96899465D01*
X82581995Y-97128273D01*
X82550000Y-97205515D01*
X82518005Y-97128273D01*
X82365120Y-96899465D01*
X82170535Y-96704880D01*
X81941727Y-96551995D01*
X81687490Y-96446686D01*
X81417592Y-96393000D01*
X81142408Y-96393000D01*
X80872510Y-96446686D01*
X80618273Y-96551995D01*
X80389465Y-96704880D01*
X80194880Y-96899465D01*
X80041995Y-97128273D01*
X80010000Y-97205515D01*
X79978005Y-97128273D01*
X79825120Y-96899465D01*
X79630535Y-96704880D01*
X79401727Y-96551995D01*
X79147490Y-96446686D01*
X78877592Y-96393000D01*
X78602408Y-96393000D01*
X78332510Y-96446686D01*
X78078273Y-96551995D01*
X77849465Y-96704880D01*
X77823954Y-96730391D01*
X77101861Y-96008298D01*
X77078058Y-95979294D01*
X76962333Y-95884321D01*
X76830304Y-95813749D01*
X76687043Y-95770292D01*
X76575390Y-95759295D01*
X76575379Y-95759295D01*
X76538057Y-95755619D01*
X76500735Y-95759295D01*
X73340507Y-95759295D01*
X71695010Y-94113799D01*
X71695010Y-92517581D01*
X73961241Y-92517581D01*
X74432048Y-92771909D01*
X75196988Y-92794656D01*
X75427952Y-92771909D01*
X75898759Y-92517581D01*
X74930000Y-91548822D01*
X73961241Y-92517581D01*
X71695010Y-92517581D01*
X71695010Y-89486168D01*
X72281178Y-88900000D01*
X71695010Y-88313832D01*
X71695010Y-86226201D01*
X72706212Y-85215000D01*
X74086046Y-85215000D01*
X73961241Y-85282419D01*
G37*
G04 #@! TD.AperFunction*
D26*
X78613000Y-69002343D02*
X78547581Y-68881241D01*
X77578822Y-69850000D01*
X78547581Y-70818759D01*
X78613000Y-70697657D01*
X78613000Y-73660000D01*
X78615440Y-73684776D01*
X78622667Y-73708601D01*
X78634403Y-73730557D01*
X78650197Y-73749803D01*
X78669443Y-73765597D01*
X78691399Y-73777333D01*
X78715224Y-73784560D01*
X78740000Y-73787000D01*
X107823000Y-73787000D01*
X107823000Y-77225026D01*
X107578026Y-77470000D01*
X107667829Y-77559803D01*
X107430630Y-77797001D01*
X105929370Y-77797001D01*
X105863358Y-77730989D01*
X106456586Y-77137761D01*
X106003228Y-76684403D01*
X105499803Y-77187829D01*
X105473748Y-77161774D01*
X105410000Y-77192294D01*
X105346252Y-77161774D01*
X105320198Y-77187829D01*
X104816772Y-76684403D01*
X104363414Y-77137761D01*
X104956642Y-77730989D01*
X104890630Y-77797001D01*
X103389370Y-77797001D01*
X103152172Y-77559803D01*
X103241974Y-77470000D01*
X102970337Y-77198363D01*
X102943314Y-77062510D01*
X102838005Y-76808273D01*
X102685120Y-76579465D01*
X102490535Y-76384880D01*
X102309249Y-76263748D01*
X103831774Y-76263748D01*
X104140000Y-76571974D01*
X104448226Y-76263748D01*
X106371774Y-76263748D01*
X106680000Y-76571974D01*
X106988226Y-76263748D01*
X106902137Y-76083929D01*
X106627459Y-76067225D01*
X106457863Y-76083929D01*
X106371774Y-76263748D01*
X104448226Y-76263748D01*
X104362137Y-76083929D01*
X104087459Y-76067225D01*
X103917863Y-76083929D01*
X103831774Y-76263748D01*
X102309249Y-76263748D01*
X102261727Y-76231995D01*
X102007490Y-76126686D01*
X101737592Y-76073000D01*
X101462408Y-76073000D01*
X101192510Y-76126686D01*
X100938273Y-76231995D01*
X100709465Y-76384880D01*
X100514880Y-76579465D01*
X100361995Y-76808273D01*
X100330000Y-76885515D01*
X100298005Y-76808273D01*
X100145120Y-76579465D01*
X99950535Y-76384880D01*
X99721727Y-76231995D01*
X99467490Y-76126686D01*
X99197592Y-76073000D01*
X98922408Y-76073000D01*
X98652510Y-76126686D01*
X98398273Y-76231995D01*
X98169465Y-76384880D01*
X97974880Y-76579465D01*
X97821995Y-76808273D01*
X97790000Y-76885515D01*
X97758005Y-76808273D01*
X97605120Y-76579465D01*
X97410535Y-76384880D01*
X97181727Y-76231995D01*
X96927490Y-76126686D01*
X96657592Y-76073000D01*
X96382408Y-76073000D01*
X96112510Y-76126686D01*
X95858273Y-76231995D01*
X95629465Y-76384880D01*
X95434880Y-76579465D01*
X95281995Y-76808273D01*
X95250000Y-76885515D01*
X95218005Y-76808273D01*
X95065120Y-76579465D01*
X94870535Y-76384880D01*
X94641727Y-76231995D01*
X94387490Y-76126686D01*
X94117592Y-76073000D01*
X93842408Y-76073000D01*
X93572510Y-76126686D01*
X93318273Y-76231995D01*
X93089465Y-76384880D01*
X92894880Y-76579465D01*
X92741995Y-76808273D01*
X92636686Y-77062510D01*
X92583000Y-77332408D01*
X92583000Y-77607592D01*
X92620676Y-77797001D01*
X89755321Y-77797001D01*
X89717998Y-77793325D01*
X89680675Y-77797001D01*
X89680666Y-77797001D01*
X89569013Y-77807998D01*
X89432312Y-77849465D01*
X89425752Y-77851455D01*
X89293722Y-77922027D01*
X89221862Y-77981002D01*
X89177998Y-78017000D01*
X89154200Y-78045998D01*
X86955199Y-80245000D01*
X86893061Y-80245000D01*
X86693102Y-80284774D01*
X86504744Y-80362795D01*
X86335226Y-80476063D01*
X86191063Y-80620226D01*
X86077795Y-80789744D01*
X85999774Y-80978102D01*
X85960000Y-81178061D01*
X85960000Y-81381939D01*
X85999774Y-81581898D01*
X86010172Y-81607001D01*
X84656564Y-81607001D01*
X82491282Y-79441721D01*
X82518005Y-79401727D01*
X82550000Y-79324485D01*
X82581995Y-79401727D01*
X82734880Y-79630535D01*
X82929465Y-79825120D01*
X83158273Y-79978005D01*
X83412510Y-80083314D01*
X83682408Y-80137000D01*
X83957592Y-80137000D01*
X84227490Y-80083314D01*
X84481727Y-79978005D01*
X84710535Y-79825120D01*
X84905120Y-79630535D01*
X85058005Y-79401727D01*
X85163314Y-79147490D01*
X85217000Y-78877592D01*
X85217000Y-78602408D01*
X85163314Y-78332510D01*
X85058005Y-78078273D01*
X84905120Y-77849465D01*
X84710535Y-77654880D01*
X84481727Y-77501995D01*
X84227490Y-77396686D01*
X83957592Y-77343000D01*
X83682408Y-77343000D01*
X83528430Y-77373628D01*
X82478804Y-76324003D01*
X82455001Y-76294999D01*
X82339276Y-76200026D01*
X82207247Y-76129454D01*
X82063986Y-76085997D01*
X81952333Y-76075000D01*
X81952322Y-76075000D01*
X81915000Y-76071324D01*
X81877678Y-76075000D01*
X70164802Y-76075000D01*
X69975000Y-75885199D01*
X69975000Y-73467581D01*
X73961241Y-73467581D01*
X74432048Y-73721909D01*
X75196988Y-73744656D01*
X75427952Y-73721909D01*
X75898759Y-73467581D01*
X74930000Y-72498822D01*
X73961241Y-73467581D01*
X69975000Y-73467581D01*
X69975000Y-70116988D01*
X71035344Y-70116988D01*
X71058091Y-70347952D01*
X71312419Y-70818759D01*
X72281178Y-69850000D01*
X71312419Y-68881241D01*
X71058091Y-69352048D01*
X71035344Y-70116988D01*
X69975000Y-70116988D01*
X69975000Y-66232419D01*
X73961241Y-66232419D01*
X74930000Y-67201178D01*
X75898759Y-66232419D01*
X75427952Y-65978091D01*
X74663012Y-65955344D01*
X74432048Y-65978091D01*
X73961241Y-66232419D01*
X69975000Y-66232419D01*
X69975000Y-62546211D01*
X70351202Y-62170010D01*
X78613000Y-62170010D01*
X78613000Y-69002343D01*
G04 #@! TA.AperFunction,Conductor*
D27*
G36*
X78613000Y-69002343D02*
G01*
X78547581Y-68881241D01*
X77578822Y-69850000D01*
X78547581Y-70818759D01*
X78613000Y-70697657D01*
X78613000Y-73660000D01*
X78615440Y-73684776D01*
X78622667Y-73708601D01*
X78634403Y-73730557D01*
X78650197Y-73749803D01*
X78669443Y-73765597D01*
X78691399Y-73777333D01*
X78715224Y-73784560D01*
X78740000Y-73787000D01*
X107823000Y-73787000D01*
X107823000Y-77225026D01*
X107578026Y-77470000D01*
X107667829Y-77559803D01*
X107430630Y-77797001D01*
X105929370Y-77797001D01*
X105863358Y-77730989D01*
X106456586Y-77137761D01*
X106003228Y-76684403D01*
X105499803Y-77187829D01*
X105473748Y-77161774D01*
X105410000Y-77192294D01*
X105346252Y-77161774D01*
X105320198Y-77187829D01*
X104816772Y-76684403D01*
X104363414Y-77137761D01*
X104956642Y-77730989D01*
X104890630Y-77797001D01*
X103389370Y-77797001D01*
X103152172Y-77559803D01*
X103241974Y-77470000D01*
X102970337Y-77198363D01*
X102943314Y-77062510D01*
X102838005Y-76808273D01*
X102685120Y-76579465D01*
X102490535Y-76384880D01*
X102309249Y-76263748D01*
X103831774Y-76263748D01*
X104140000Y-76571974D01*
X104448226Y-76263748D01*
X106371774Y-76263748D01*
X106680000Y-76571974D01*
X106988226Y-76263748D01*
X106902137Y-76083929D01*
X106627459Y-76067225D01*
X106457863Y-76083929D01*
X106371774Y-76263748D01*
X104448226Y-76263748D01*
X104362137Y-76083929D01*
X104087459Y-76067225D01*
X103917863Y-76083929D01*
X103831774Y-76263748D01*
X102309249Y-76263748D01*
X102261727Y-76231995D01*
X102007490Y-76126686D01*
X101737592Y-76073000D01*
X101462408Y-76073000D01*
X101192510Y-76126686D01*
X100938273Y-76231995D01*
X100709465Y-76384880D01*
X100514880Y-76579465D01*
X100361995Y-76808273D01*
X100330000Y-76885515D01*
X100298005Y-76808273D01*
X100145120Y-76579465D01*
X99950535Y-76384880D01*
X99721727Y-76231995D01*
X99467490Y-76126686D01*
X99197592Y-76073000D01*
X98922408Y-76073000D01*
X98652510Y-76126686D01*
X98398273Y-76231995D01*
X98169465Y-76384880D01*
X97974880Y-76579465D01*
X97821995Y-76808273D01*
X97790000Y-76885515D01*
X97758005Y-76808273D01*
X97605120Y-76579465D01*
X97410535Y-76384880D01*
X97181727Y-76231995D01*
X96927490Y-76126686D01*
X96657592Y-76073000D01*
X96382408Y-76073000D01*
X96112510Y-76126686D01*
X95858273Y-76231995D01*
X95629465Y-76384880D01*
X95434880Y-76579465D01*
X95281995Y-76808273D01*
X95250000Y-76885515D01*
X95218005Y-76808273D01*
X95065120Y-76579465D01*
X94870535Y-76384880D01*
X94641727Y-76231995D01*
X94387490Y-76126686D01*
X94117592Y-76073000D01*
X93842408Y-76073000D01*
X93572510Y-76126686D01*
X93318273Y-76231995D01*
X93089465Y-76384880D01*
X92894880Y-76579465D01*
X92741995Y-76808273D01*
X92636686Y-77062510D01*
X92583000Y-77332408D01*
X92583000Y-77607592D01*
X92620676Y-77797001D01*
X89755321Y-77797001D01*
X89717998Y-77793325D01*
X89680675Y-77797001D01*
X89680666Y-77797001D01*
X89569013Y-77807998D01*
X89432312Y-77849465D01*
X89425752Y-77851455D01*
X89293722Y-77922027D01*
X89221862Y-77981002D01*
X89177998Y-78017000D01*
X89154200Y-78045998D01*
X86955199Y-80245000D01*
X86893061Y-80245000D01*
X86693102Y-80284774D01*
X86504744Y-80362795D01*
X86335226Y-80476063D01*
X86191063Y-80620226D01*
X86077795Y-80789744D01*
X85999774Y-80978102D01*
X85960000Y-81178061D01*
X85960000Y-81381939D01*
X85999774Y-81581898D01*
X86010172Y-81607001D01*
X84656564Y-81607001D01*
X82491282Y-79441721D01*
X82518005Y-79401727D01*
X82550000Y-79324485D01*
X82581995Y-79401727D01*
X82734880Y-79630535D01*
X82929465Y-79825120D01*
X83158273Y-79978005D01*
X83412510Y-80083314D01*
X83682408Y-80137000D01*
X83957592Y-80137000D01*
X84227490Y-80083314D01*
X84481727Y-79978005D01*
X84710535Y-79825120D01*
X84905120Y-79630535D01*
X85058005Y-79401727D01*
X85163314Y-79147490D01*
X85217000Y-78877592D01*
X85217000Y-78602408D01*
X85163314Y-78332510D01*
X85058005Y-78078273D01*
X84905120Y-77849465D01*
X84710535Y-77654880D01*
X84481727Y-77501995D01*
X84227490Y-77396686D01*
X83957592Y-77343000D01*
X83682408Y-77343000D01*
X83528430Y-77373628D01*
X82478804Y-76324003D01*
X82455001Y-76294999D01*
X82339276Y-76200026D01*
X82207247Y-76129454D01*
X82063986Y-76085997D01*
X81952333Y-76075000D01*
X81952322Y-76075000D01*
X81915000Y-76071324D01*
X81877678Y-76075000D01*
X70164802Y-76075000D01*
X69975000Y-75885199D01*
X69975000Y-73467581D01*
X73961241Y-73467581D01*
X74432048Y-73721909D01*
X75196988Y-73744656D01*
X75427952Y-73721909D01*
X75898759Y-73467581D01*
X74930000Y-72498822D01*
X73961241Y-73467581D01*
X69975000Y-73467581D01*
X69975000Y-70116988D01*
X71035344Y-70116988D01*
X71058091Y-70347952D01*
X71312419Y-70818759D01*
X72281178Y-69850000D01*
X71312419Y-68881241D01*
X71058091Y-69352048D01*
X71035344Y-70116988D01*
X69975000Y-70116988D01*
X69975000Y-66232419D01*
X73961241Y-66232419D01*
X74930000Y-67201178D01*
X75898759Y-66232419D01*
X75427952Y-65978091D01*
X74663012Y-65955344D01*
X74432048Y-65978091D01*
X73961241Y-66232419D01*
X69975000Y-66232419D01*
X69975000Y-62546211D01*
X70351202Y-62170010D01*
X78613000Y-62170010D01*
X78613000Y-69002343D01*
G37*
G04 #@! TD.AperFunction*
D26*
X115443000Y-77797001D02*
X113417346Y-77797001D01*
X114076586Y-77137761D01*
X113623228Y-76684403D01*
X113087709Y-77219922D01*
X112966252Y-77161774D01*
X112658026Y-77470000D01*
X112747829Y-77559803D01*
X112510630Y-77797001D01*
X111009370Y-77797001D01*
X110943358Y-77730989D01*
X111536586Y-77137761D01*
X111083228Y-76684403D01*
X110579803Y-77187829D01*
X110553748Y-77161774D01*
X110490000Y-77192294D01*
X110426252Y-77161774D01*
X110400198Y-77187829D01*
X109896772Y-76684403D01*
X109443414Y-77137761D01*
X110036642Y-77730989D01*
X109970630Y-77797001D01*
X108712000Y-77797001D01*
X108712000Y-76900369D01*
X109130198Y-76482172D01*
X109220000Y-76571974D01*
X109528226Y-76263748D01*
X111451774Y-76263748D01*
X111760000Y-76571974D01*
X112068226Y-76263748D01*
X111982137Y-76083929D01*
X111707459Y-76067225D01*
X111537863Y-76083929D01*
X111451774Y-76263748D01*
X109528226Y-76263748D01*
X109470078Y-76142291D01*
X110005597Y-75606772D01*
X109552239Y-75153414D01*
X108712000Y-75993653D01*
X108712000Y-73025000D01*
X108709560Y-73000224D01*
X108702333Y-72976399D01*
X108690597Y-72954443D01*
X108674803Y-72935197D01*
X108655557Y-72919403D01*
X108633601Y-72907667D01*
X108609776Y-72900440D01*
X108585000Y-72898000D01*
X82949178Y-72898000D01*
X82550000Y-72498822D01*
X82150822Y-72898000D01*
X79502000Y-72898000D01*
X79502000Y-70249178D01*
X79901178Y-69850000D01*
X85198822Y-69850000D01*
X86167581Y-70818759D01*
X86421909Y-70347952D01*
X86444656Y-69583012D01*
X86421909Y-69352048D01*
X86167581Y-68881241D01*
X85198822Y-69850000D01*
X79901178Y-69850000D01*
X79502000Y-69450822D01*
X79502000Y-66232419D01*
X81581241Y-66232419D01*
X82550000Y-67201178D01*
X83518759Y-66232419D01*
X83047952Y-65978091D01*
X82283012Y-65955344D01*
X82052048Y-65978091D01*
X81581241Y-66232419D01*
X79502000Y-66232419D01*
X79502000Y-62170010D01*
X82062668Y-62170010D01*
X82099990Y-62173686D01*
X82137312Y-62170010D01*
X82137323Y-62170010D01*
X82248976Y-62159013D01*
X82392237Y-62115556D01*
X82524266Y-62044984D01*
X82639991Y-61950011D01*
X82663793Y-61921008D01*
X83497802Y-61087000D01*
X115443000Y-61087000D01*
X115443000Y-77797001D01*
G04 #@! TA.AperFunction,Conductor*
D27*
G36*
X115443000Y-77797001D02*
G01*
X113417346Y-77797001D01*
X114076586Y-77137761D01*
X113623228Y-76684403D01*
X113087709Y-77219922D01*
X112966252Y-77161774D01*
X112658026Y-77470000D01*
X112747829Y-77559803D01*
X112510630Y-77797001D01*
X111009370Y-77797001D01*
X110943358Y-77730989D01*
X111536586Y-77137761D01*
X111083228Y-76684403D01*
X110579803Y-77187829D01*
X110553748Y-77161774D01*
X110490000Y-77192294D01*
X110426252Y-77161774D01*
X110400198Y-77187829D01*
X109896772Y-76684403D01*
X109443414Y-77137761D01*
X110036642Y-77730989D01*
X109970630Y-77797001D01*
X108712000Y-77797001D01*
X108712000Y-76900369D01*
X109130198Y-76482172D01*
X109220000Y-76571974D01*
X109528226Y-76263748D01*
X111451774Y-76263748D01*
X111760000Y-76571974D01*
X112068226Y-76263748D01*
X111982137Y-76083929D01*
X111707459Y-76067225D01*
X111537863Y-76083929D01*
X111451774Y-76263748D01*
X109528226Y-76263748D01*
X109470078Y-76142291D01*
X110005597Y-75606772D01*
X109552239Y-75153414D01*
X108712000Y-75993653D01*
X108712000Y-73025000D01*
X108709560Y-73000224D01*
X108702333Y-72976399D01*
X108690597Y-72954443D01*
X108674803Y-72935197D01*
X108655557Y-72919403D01*
X108633601Y-72907667D01*
X108609776Y-72900440D01*
X108585000Y-72898000D01*
X82949178Y-72898000D01*
X82550000Y-72498822D01*
X82150822Y-72898000D01*
X79502000Y-72898000D01*
X79502000Y-70249178D01*
X79901178Y-69850000D01*
X85198822Y-69850000D01*
X86167581Y-70818759D01*
X86421909Y-70347952D01*
X86444656Y-69583012D01*
X86421909Y-69352048D01*
X86167581Y-68881241D01*
X85198822Y-69850000D01*
X79901178Y-69850000D01*
X79502000Y-69450822D01*
X79502000Y-66232419D01*
X81581241Y-66232419D01*
X82550000Y-67201178D01*
X83518759Y-66232419D01*
X83047952Y-65978091D01*
X82283012Y-65955344D01*
X82052048Y-65978091D01*
X81581241Y-66232419D01*
X79502000Y-66232419D01*
X79502000Y-62170010D01*
X82062668Y-62170010D01*
X82099990Y-62173686D01*
X82137312Y-62170010D01*
X82137323Y-62170010D01*
X82248976Y-62159013D01*
X82392237Y-62115556D01*
X82524266Y-62044984D01*
X82639991Y-61950011D01*
X82663793Y-61921008D01*
X83497802Y-61087000D01*
X115443000Y-61087000D01*
X115443000Y-77797001D01*
G37*
G04 #@! TD.AperFunction*
D26*
X81661199Y-46721003D02*
X81684998Y-46750002D01*
X81800723Y-46844975D01*
X81932752Y-46915547D01*
X82024019Y-46943232D01*
X81581241Y-47182419D01*
X82550000Y-48151178D01*
X82564143Y-48137036D01*
X85212965Y-50785858D01*
X85198822Y-50800000D01*
X86167581Y-51768759D01*
X86421909Y-51297952D01*
X86444656Y-50533012D01*
X86421909Y-50302048D01*
X86167582Y-49831243D01*
X86634380Y-49364445D01*
X85923479Y-48653544D01*
X85925020Y-48653696D01*
X85962345Y-48650020D01*
X140917399Y-48650020D01*
X141399970Y-49132592D01*
X141399971Y-71471639D01*
X141396294Y-71508972D01*
X141399971Y-71546305D01*
X141410968Y-71657958D01*
X141411588Y-71660001D01*
X141454424Y-71801218D01*
X141524996Y-71933248D01*
X141596171Y-72019974D01*
X141619970Y-72048973D01*
X141648968Y-72072771D01*
X144018000Y-74441804D01*
X144018000Y-76135116D01*
X143929439Y-76117500D01*
X143725561Y-76117500D01*
X143525602Y-76157274D01*
X143337244Y-76235295D01*
X143167726Y-76348563D01*
X143023563Y-76492726D01*
X142910295Y-76662244D01*
X142832274Y-76850602D01*
X142792500Y-77050561D01*
X142792500Y-77112698D01*
X142108198Y-77797001D01*
X141357346Y-77797001D01*
X142016586Y-77137761D01*
X141563228Y-76684403D01*
X141027709Y-77219922D01*
X140906252Y-77161774D01*
X140598026Y-77470000D01*
X140687829Y-77559803D01*
X140450630Y-77797001D01*
X138949370Y-77797001D01*
X138883358Y-77730989D01*
X139476586Y-77137761D01*
X139023228Y-76684403D01*
X138519803Y-77187829D01*
X138493748Y-77161774D01*
X138430000Y-77192294D01*
X138366252Y-77161774D01*
X138340198Y-77187829D01*
X137836772Y-76684403D01*
X137383414Y-77137761D01*
X137976642Y-77730989D01*
X137910630Y-77797001D01*
X136409370Y-77797001D01*
X136172172Y-77559803D01*
X136261974Y-77470000D01*
X136017000Y-77225026D01*
X136017000Y-76263748D01*
X136851774Y-76263748D01*
X137160000Y-76571974D01*
X137468226Y-76263748D01*
X139391774Y-76263748D01*
X139700000Y-76571974D01*
X140008226Y-76263748D01*
X139922137Y-76083929D01*
X139647459Y-76067225D01*
X139477863Y-76083929D01*
X139391774Y-76263748D01*
X137468226Y-76263748D01*
X137382137Y-76083929D01*
X137107459Y-76067225D01*
X136937863Y-76083929D01*
X136851774Y-76263748D01*
X136017000Y-76263748D01*
X136017000Y-54610000D01*
X136014560Y-54585224D01*
X136007333Y-54561399D01*
X135995597Y-54539443D01*
X135979803Y-54520197D01*
X135960557Y-54504403D01*
X135938601Y-54492667D01*
X135914776Y-54485440D01*
X135890000Y-54483000D01*
X83397657Y-54483000D01*
X83518759Y-54417581D01*
X82550000Y-53448822D01*
X81581241Y-54417581D01*
X81702343Y-54483000D01*
X79502000Y-54483000D01*
X79502000Y-51199178D01*
X79901178Y-50800000D01*
X79502000Y-50400822D01*
X79502000Y-44561803D01*
X81661199Y-46721003D01*
G04 #@! TA.AperFunction,Conductor*
D27*
G36*
X81661199Y-46721003D02*
G01*
X81684998Y-46750002D01*
X81800723Y-46844975D01*
X81932752Y-46915547D01*
X82024019Y-46943232D01*
X81581241Y-47182419D01*
X82550000Y-48151178D01*
X82564143Y-48137036D01*
X85212965Y-50785858D01*
X85198822Y-50800000D01*
X86167581Y-51768759D01*
X86421909Y-51297952D01*
X86444656Y-50533012D01*
X86421909Y-50302048D01*
X86167582Y-49831243D01*
X86634380Y-49364445D01*
X85923479Y-48653544D01*
X85925020Y-48653696D01*
X85962345Y-48650020D01*
X140917399Y-48650020D01*
X141399970Y-49132592D01*
X141399971Y-71471639D01*
X141396294Y-71508972D01*
X141399971Y-71546305D01*
X141410968Y-71657958D01*
X141411588Y-71660001D01*
X141454424Y-71801218D01*
X141524996Y-71933248D01*
X141596171Y-72019974D01*
X141619970Y-72048973D01*
X141648968Y-72072771D01*
X144018000Y-74441804D01*
X144018000Y-76135116D01*
X143929439Y-76117500D01*
X143725561Y-76117500D01*
X143525602Y-76157274D01*
X143337244Y-76235295D01*
X143167726Y-76348563D01*
X143023563Y-76492726D01*
X142910295Y-76662244D01*
X142832274Y-76850602D01*
X142792500Y-77050561D01*
X142792500Y-77112698D01*
X142108198Y-77797001D01*
X141357346Y-77797001D01*
X142016586Y-77137761D01*
X141563228Y-76684403D01*
X141027709Y-77219922D01*
X140906252Y-77161774D01*
X140598026Y-77470000D01*
X140687829Y-77559803D01*
X140450630Y-77797001D01*
X138949370Y-77797001D01*
X138883358Y-77730989D01*
X139476586Y-77137761D01*
X139023228Y-76684403D01*
X138519803Y-77187829D01*
X138493748Y-77161774D01*
X138430000Y-77192294D01*
X138366252Y-77161774D01*
X138340198Y-77187829D01*
X137836772Y-76684403D01*
X137383414Y-77137761D01*
X137976642Y-77730989D01*
X137910630Y-77797001D01*
X136409370Y-77797001D01*
X136172172Y-77559803D01*
X136261974Y-77470000D01*
X136017000Y-77225026D01*
X136017000Y-76263748D01*
X136851774Y-76263748D01*
X137160000Y-76571974D01*
X137468226Y-76263748D01*
X139391774Y-76263748D01*
X139700000Y-76571974D01*
X140008226Y-76263748D01*
X139922137Y-76083929D01*
X139647459Y-76067225D01*
X139477863Y-76083929D01*
X139391774Y-76263748D01*
X137468226Y-76263748D01*
X137382137Y-76083929D01*
X137107459Y-76067225D01*
X136937863Y-76083929D01*
X136851774Y-76263748D01*
X136017000Y-76263748D01*
X136017000Y-54610000D01*
X136014560Y-54585224D01*
X136007333Y-54561399D01*
X135995597Y-54539443D01*
X135979803Y-54520197D01*
X135960557Y-54504403D01*
X135938601Y-54492667D01*
X135914776Y-54485440D01*
X135890000Y-54483000D01*
X83397657Y-54483000D01*
X83518759Y-54417581D01*
X82550000Y-53448822D01*
X81581241Y-54417581D01*
X81702343Y-54483000D01*
X79502000Y-54483000D01*
X79502000Y-51199178D01*
X79901178Y-50800000D01*
X79502000Y-50400822D01*
X79502000Y-44561803D01*
X81661199Y-46721003D01*
G37*
G04 #@! TD.AperFunction*
D26*
X130048000Y-115538319D02*
X129947490Y-115496686D01*
X129677592Y-115443000D01*
X129402408Y-115443000D01*
X129132510Y-115496686D01*
X128878273Y-115601995D01*
X128649465Y-115754880D01*
X128454880Y-115949465D01*
X128301995Y-116178273D01*
X128270000Y-116255515D01*
X128238005Y-116178273D01*
X128085120Y-115949465D01*
X127890535Y-115754880D01*
X127661727Y-115601995D01*
X127407490Y-115496686D01*
X127137592Y-115443000D01*
X126862408Y-115443000D01*
X126592510Y-115496686D01*
X126338273Y-115601995D01*
X126109465Y-115754880D01*
X125914880Y-115949465D01*
X125761995Y-116178273D01*
X125656686Y-116432510D01*
X125629663Y-116568363D01*
X125358026Y-116840000D01*
X125629663Y-117111637D01*
X125656686Y-117247490D01*
X125761995Y-117501727D01*
X125914880Y-117730535D01*
X126109465Y-117925120D01*
X126338273Y-118078005D01*
X126592510Y-118183314D01*
X126862408Y-118237000D01*
X127137592Y-118237000D01*
X127407490Y-118183314D01*
X127661727Y-118078005D01*
X127890535Y-117925120D01*
X128085120Y-117730535D01*
X128238005Y-117501727D01*
X128270000Y-117424485D01*
X128301995Y-117501727D01*
X128454880Y-117730535D01*
X128649465Y-117925120D01*
X128878273Y-118078005D01*
X129132510Y-118183314D01*
X129402408Y-118237000D01*
X129677592Y-118237000D01*
X129947490Y-118183314D01*
X130048000Y-118141681D01*
X130048000Y-121285000D01*
X130050440Y-121309776D01*
X130057667Y-121333601D01*
X130069403Y-121355557D01*
X130085197Y-121374803D01*
X130104443Y-121390597D01*
X130126399Y-121402333D01*
X130150224Y-121409560D01*
X130175000Y-121412000D01*
X134547188Y-121412000D01*
X134510147Y-121501426D01*
X134455000Y-121778665D01*
X134455000Y-122061335D01*
X134510147Y-122338574D01*
X134618320Y-122599727D01*
X134775363Y-122834759D01*
X134975241Y-123034637D01*
X135130000Y-123138044D01*
X135130001Y-123876956D01*
X134975241Y-123980363D01*
X134775363Y-124180241D01*
X134618320Y-124415273D01*
X134510147Y-124676426D01*
X134455000Y-124953665D01*
X134455000Y-125236335D01*
X134510147Y-125513574D01*
X134618320Y-125774727D01*
X134775363Y-126009759D01*
X134975241Y-126209637D01*
X135210273Y-126366680D01*
X135471426Y-126474853D01*
X135748665Y-126530000D01*
X136031335Y-126530000D01*
X136308574Y-126474853D01*
X136569727Y-126366680D01*
X136804759Y-126209637D01*
X137004637Y-126009759D01*
X137108043Y-125855000D01*
X143472678Y-125855000D01*
X143510000Y-125858676D01*
X143547322Y-125855000D01*
X143547333Y-125855000D01*
X143658986Y-125844003D01*
X143802247Y-125800546D01*
X143934276Y-125729974D01*
X144050001Y-125635001D01*
X144073804Y-125605997D01*
X145288000Y-124391801D01*
X145288000Y-129415000D01*
X80324802Y-129415000D01*
X79622383Y-128712581D01*
X93011241Y-128712581D01*
X93482048Y-128966909D01*
X94246988Y-128989656D01*
X94477952Y-128966909D01*
X94948759Y-128712581D01*
X93980000Y-127743822D01*
X93011241Y-128712581D01*
X79622383Y-128712581D01*
X79500000Y-128590199D01*
X79500000Y-125361988D01*
X90085344Y-125361988D01*
X90108091Y-125592952D01*
X90362419Y-126063759D01*
X91331178Y-125095000D01*
X96628822Y-125095000D01*
X97597581Y-126063759D01*
X97768610Y-125747154D01*
X97864298Y-126228213D01*
X98157158Y-126935238D01*
X98582323Y-127571543D01*
X99123457Y-128112677D01*
X99759762Y-128537842D01*
X100466787Y-128830702D01*
X101217361Y-128980000D01*
X101982639Y-128980000D01*
X102733213Y-128830702D01*
X103440238Y-128537842D01*
X104076543Y-128112677D01*
X104617677Y-127571543D01*
X105042842Y-126935238D01*
X105287977Y-126343429D01*
X127973337Y-126343429D01*
X128064894Y-126522281D01*
X128347284Y-126534870D01*
X128475106Y-126522281D01*
X128566663Y-126343429D01*
X128270000Y-126046766D01*
X127973337Y-126343429D01*
X105287977Y-126343429D01*
X105335702Y-126228213D01*
X105485000Y-125477639D01*
X105485000Y-125172284D01*
X126830130Y-125172284D01*
X126842719Y-125300106D01*
X127021571Y-125391663D01*
X127318234Y-125095000D01*
X129221766Y-125095000D01*
X129518429Y-125391663D01*
X129697281Y-125300106D01*
X129709870Y-125017716D01*
X129697281Y-124889894D01*
X129518429Y-124798337D01*
X129221766Y-125095000D01*
X127318234Y-125095000D01*
X127021571Y-124798337D01*
X126842719Y-124889894D01*
X126830130Y-125172284D01*
X105485000Y-125172284D01*
X105485000Y-124712361D01*
X105335702Y-123961787D01*
X105287978Y-123846571D01*
X127973337Y-123846571D01*
X128270000Y-124143234D01*
X128566663Y-123846571D01*
X128475106Y-123667719D01*
X128192716Y-123655130D01*
X128064894Y-123667719D01*
X127973337Y-123846571D01*
X105287978Y-123846571D01*
X105042842Y-123254762D01*
X104617677Y-122618457D01*
X104076543Y-122077323D01*
X103629570Y-121778665D01*
X126835000Y-121778665D01*
X126835000Y-122061335D01*
X126890147Y-122338574D01*
X126998320Y-122599727D01*
X127155363Y-122834759D01*
X127355241Y-123034637D01*
X127590273Y-123191680D01*
X127851426Y-123299853D01*
X128128665Y-123355000D01*
X128411335Y-123355000D01*
X128688574Y-123299853D01*
X128949727Y-123191680D01*
X129184759Y-123034637D01*
X129384637Y-122834759D01*
X129541680Y-122599727D01*
X129649853Y-122338574D01*
X129705000Y-122061335D01*
X129705000Y-121778665D01*
X129649853Y-121501426D01*
X129541680Y-121240273D01*
X129384637Y-121005241D01*
X129184759Y-120805363D01*
X128949727Y-120648320D01*
X128688574Y-120540147D01*
X128411335Y-120485000D01*
X128128665Y-120485000D01*
X127851426Y-120540147D01*
X127590273Y-120648320D01*
X127355241Y-120805363D01*
X127155363Y-121005241D01*
X126998320Y-121240273D01*
X126890147Y-121501426D01*
X126835000Y-121778665D01*
X103629570Y-121778665D01*
X103440238Y-121652158D01*
X102733213Y-121359298D01*
X101982639Y-121210000D01*
X101217361Y-121210000D01*
X100466787Y-121359298D01*
X99759762Y-121652158D01*
X99123457Y-122077323D01*
X98582323Y-122618457D01*
X98157158Y-123254762D01*
X97864298Y-123961787D01*
X97768610Y-124442846D01*
X97597581Y-124126241D01*
X96628822Y-125095000D01*
X91331178Y-125095000D01*
X90362419Y-124126241D01*
X90108091Y-124597048D01*
X90085344Y-125361988D01*
X79500000Y-125361988D01*
X79500000Y-121477419D01*
X93011241Y-121477419D01*
X93980000Y-122446178D01*
X94948759Y-121477419D01*
X94477952Y-121223091D01*
X93713012Y-121200344D01*
X93482048Y-121223091D01*
X93011241Y-121477419D01*
X79500000Y-121477419D01*
X79500000Y-119507000D01*
X107188000Y-119507000D01*
X107188000Y-120650000D01*
X107190440Y-120674776D01*
X107197667Y-120698601D01*
X107209403Y-120720557D01*
X107225197Y-120739803D01*
X107244443Y-120755597D01*
X107266399Y-120767333D01*
X107290224Y-120774560D01*
X107315000Y-120777000D01*
X114935000Y-120777000D01*
X114959776Y-120774560D01*
X114983601Y-120767333D01*
X115005557Y-120755597D01*
X115024803Y-120739803D01*
X115040597Y-120720557D01*
X115052333Y-120698601D01*
X115059560Y-120674776D01*
X115062000Y-120650000D01*
X115062000Y-118046252D01*
X121611774Y-118046252D01*
X121697863Y-118226071D01*
X121972541Y-118242775D01*
X122142137Y-118226071D01*
X122228226Y-118046252D01*
X124151774Y-118046252D01*
X124237863Y-118226071D01*
X124512541Y-118242775D01*
X124682137Y-118226071D01*
X124768226Y-118046252D01*
X124460000Y-117738026D01*
X124151774Y-118046252D01*
X122228226Y-118046252D01*
X121920000Y-117738026D01*
X121611774Y-118046252D01*
X115062000Y-118046252D01*
X115062000Y-116892541D01*
X120517225Y-116892541D01*
X120533929Y-117062137D01*
X120713748Y-117148226D01*
X121021974Y-116840000D01*
X122818026Y-116840000D01*
X123126252Y-117148226D01*
X123190000Y-117117706D01*
X123253748Y-117148226D01*
X123561974Y-116840000D01*
X123253748Y-116531774D01*
X123190000Y-116562294D01*
X123126252Y-116531774D01*
X122818026Y-116840000D01*
X121021974Y-116840000D01*
X120713748Y-116531774D01*
X120533929Y-116617863D01*
X120517225Y-116892541D01*
X115062000Y-116892541D01*
X115062000Y-115633748D01*
X121611774Y-115633748D01*
X121920000Y-115941974D01*
X122228226Y-115633748D01*
X124151774Y-115633748D01*
X124460000Y-115941974D01*
X124768226Y-115633748D01*
X124682137Y-115453929D01*
X124407459Y-115437225D01*
X124237863Y-115453929D01*
X124151774Y-115633748D01*
X122228226Y-115633748D01*
X122142137Y-115453929D01*
X121867459Y-115437225D01*
X121697863Y-115453929D01*
X121611774Y-115633748D01*
X115062000Y-115633748D01*
X115062000Y-102997000D01*
X130048000Y-102997000D01*
X130048000Y-115538319D01*
G04 #@! TA.AperFunction,Conductor*
D27*
G36*
X130048000Y-115538319D02*
G01*
X129947490Y-115496686D01*
X129677592Y-115443000D01*
X129402408Y-115443000D01*
X129132510Y-115496686D01*
X128878273Y-115601995D01*
X128649465Y-115754880D01*
X128454880Y-115949465D01*
X128301995Y-116178273D01*
X128270000Y-116255515D01*
X128238005Y-116178273D01*
X128085120Y-115949465D01*
X127890535Y-115754880D01*
X127661727Y-115601995D01*
X127407490Y-115496686D01*
X127137592Y-115443000D01*
X126862408Y-115443000D01*
X126592510Y-115496686D01*
X126338273Y-115601995D01*
X126109465Y-115754880D01*
X125914880Y-115949465D01*
X125761995Y-116178273D01*
X125656686Y-116432510D01*
X125629663Y-116568363D01*
X125358026Y-116840000D01*
X125629663Y-117111637D01*
X125656686Y-117247490D01*
X125761995Y-117501727D01*
X125914880Y-117730535D01*
X126109465Y-117925120D01*
X126338273Y-118078005D01*
X126592510Y-118183314D01*
X126862408Y-118237000D01*
X127137592Y-118237000D01*
X127407490Y-118183314D01*
X127661727Y-118078005D01*
X127890535Y-117925120D01*
X128085120Y-117730535D01*
X128238005Y-117501727D01*
X128270000Y-117424485D01*
X128301995Y-117501727D01*
X128454880Y-117730535D01*
X128649465Y-117925120D01*
X128878273Y-118078005D01*
X129132510Y-118183314D01*
X129402408Y-118237000D01*
X129677592Y-118237000D01*
X129947490Y-118183314D01*
X130048000Y-118141681D01*
X130048000Y-121285000D01*
X130050440Y-121309776D01*
X130057667Y-121333601D01*
X130069403Y-121355557D01*
X130085197Y-121374803D01*
X130104443Y-121390597D01*
X130126399Y-121402333D01*
X130150224Y-121409560D01*
X130175000Y-121412000D01*
X134547188Y-121412000D01*
X134510147Y-121501426D01*
X134455000Y-121778665D01*
X134455000Y-122061335D01*
X134510147Y-122338574D01*
X134618320Y-122599727D01*
X134775363Y-122834759D01*
X134975241Y-123034637D01*
X135130000Y-123138044D01*
X135130001Y-123876956D01*
X134975241Y-123980363D01*
X134775363Y-124180241D01*
X134618320Y-124415273D01*
X134510147Y-124676426D01*
X134455000Y-124953665D01*
X134455000Y-125236335D01*
X134510147Y-125513574D01*
X134618320Y-125774727D01*
X134775363Y-126009759D01*
X134975241Y-126209637D01*
X135210273Y-126366680D01*
X135471426Y-126474853D01*
X135748665Y-126530000D01*
X136031335Y-126530000D01*
X136308574Y-126474853D01*
X136569727Y-126366680D01*
X136804759Y-126209637D01*
X137004637Y-126009759D01*
X137108043Y-125855000D01*
X143472678Y-125855000D01*
X143510000Y-125858676D01*
X143547322Y-125855000D01*
X143547333Y-125855000D01*
X143658986Y-125844003D01*
X143802247Y-125800546D01*
X143934276Y-125729974D01*
X144050001Y-125635001D01*
X144073804Y-125605997D01*
X145288000Y-124391801D01*
X145288000Y-129415000D01*
X80324802Y-129415000D01*
X79622383Y-128712581D01*
X93011241Y-128712581D01*
X93482048Y-128966909D01*
X94246988Y-128989656D01*
X94477952Y-128966909D01*
X94948759Y-128712581D01*
X93980000Y-127743822D01*
X93011241Y-128712581D01*
X79622383Y-128712581D01*
X79500000Y-128590199D01*
X79500000Y-125361988D01*
X90085344Y-125361988D01*
X90108091Y-125592952D01*
X90362419Y-126063759D01*
X91331178Y-125095000D01*
X96628822Y-125095000D01*
X97597581Y-126063759D01*
X97768610Y-125747154D01*
X97864298Y-126228213D01*
X98157158Y-126935238D01*
X98582323Y-127571543D01*
X99123457Y-128112677D01*
X99759762Y-128537842D01*
X100466787Y-128830702D01*
X101217361Y-128980000D01*
X101982639Y-128980000D01*
X102733213Y-128830702D01*
X103440238Y-128537842D01*
X104076543Y-128112677D01*
X104617677Y-127571543D01*
X105042842Y-126935238D01*
X105287977Y-126343429D01*
X127973337Y-126343429D01*
X128064894Y-126522281D01*
X128347284Y-126534870D01*
X128475106Y-126522281D01*
X128566663Y-126343429D01*
X128270000Y-126046766D01*
X127973337Y-126343429D01*
X105287977Y-126343429D01*
X105335702Y-126228213D01*
X105485000Y-125477639D01*
X105485000Y-125172284D01*
X126830130Y-125172284D01*
X126842719Y-125300106D01*
X127021571Y-125391663D01*
X127318234Y-125095000D01*
X129221766Y-125095000D01*
X129518429Y-125391663D01*
X129697281Y-125300106D01*
X129709870Y-125017716D01*
X129697281Y-124889894D01*
X129518429Y-124798337D01*
X129221766Y-125095000D01*
X127318234Y-125095000D01*
X127021571Y-124798337D01*
X126842719Y-124889894D01*
X126830130Y-125172284D01*
X105485000Y-125172284D01*
X105485000Y-124712361D01*
X105335702Y-123961787D01*
X105287978Y-123846571D01*
X127973337Y-123846571D01*
X128270000Y-124143234D01*
X128566663Y-123846571D01*
X128475106Y-123667719D01*
X128192716Y-123655130D01*
X128064894Y-123667719D01*
X127973337Y-123846571D01*
X105287978Y-123846571D01*
X105042842Y-123254762D01*
X104617677Y-122618457D01*
X104076543Y-122077323D01*
X103629570Y-121778665D01*
X126835000Y-121778665D01*
X126835000Y-122061335D01*
X126890147Y-122338574D01*
X126998320Y-122599727D01*
X127155363Y-122834759D01*
X127355241Y-123034637D01*
X127590273Y-123191680D01*
X127851426Y-123299853D01*
X128128665Y-123355000D01*
X128411335Y-123355000D01*
X128688574Y-123299853D01*
X128949727Y-123191680D01*
X129184759Y-123034637D01*
X129384637Y-122834759D01*
X129541680Y-122599727D01*
X129649853Y-122338574D01*
X129705000Y-122061335D01*
X129705000Y-121778665D01*
X129649853Y-121501426D01*
X129541680Y-121240273D01*
X129384637Y-121005241D01*
X129184759Y-120805363D01*
X128949727Y-120648320D01*
X128688574Y-120540147D01*
X128411335Y-120485000D01*
X128128665Y-120485000D01*
X127851426Y-120540147D01*
X127590273Y-120648320D01*
X127355241Y-120805363D01*
X127155363Y-121005241D01*
X126998320Y-121240273D01*
X126890147Y-121501426D01*
X126835000Y-121778665D01*
X103629570Y-121778665D01*
X103440238Y-121652158D01*
X102733213Y-121359298D01*
X101982639Y-121210000D01*
X101217361Y-121210000D01*
X100466787Y-121359298D01*
X99759762Y-121652158D01*
X99123457Y-122077323D01*
X98582323Y-122618457D01*
X98157158Y-123254762D01*
X97864298Y-123961787D01*
X97768610Y-124442846D01*
X97597581Y-124126241D01*
X96628822Y-125095000D01*
X91331178Y-125095000D01*
X90362419Y-124126241D01*
X90108091Y-124597048D01*
X90085344Y-125361988D01*
X79500000Y-125361988D01*
X79500000Y-121477419D01*
X93011241Y-121477419D01*
X93980000Y-122446178D01*
X94948759Y-121477419D01*
X94477952Y-121223091D01*
X93713012Y-121200344D01*
X93482048Y-121223091D01*
X93011241Y-121477419D01*
X79500000Y-121477419D01*
X79500000Y-119507000D01*
X107188000Y-119507000D01*
X107188000Y-120650000D01*
X107190440Y-120674776D01*
X107197667Y-120698601D01*
X107209403Y-120720557D01*
X107225197Y-120739803D01*
X107244443Y-120755597D01*
X107266399Y-120767333D01*
X107290224Y-120774560D01*
X107315000Y-120777000D01*
X114935000Y-120777000D01*
X114959776Y-120774560D01*
X114983601Y-120767333D01*
X115005557Y-120755597D01*
X115024803Y-120739803D01*
X115040597Y-120720557D01*
X115052333Y-120698601D01*
X115059560Y-120674776D01*
X115062000Y-120650000D01*
X115062000Y-118046252D01*
X121611774Y-118046252D01*
X121697863Y-118226071D01*
X121972541Y-118242775D01*
X122142137Y-118226071D01*
X122228226Y-118046252D01*
X124151774Y-118046252D01*
X124237863Y-118226071D01*
X124512541Y-118242775D01*
X124682137Y-118226071D01*
X124768226Y-118046252D01*
X124460000Y-117738026D01*
X124151774Y-118046252D01*
X122228226Y-118046252D01*
X121920000Y-117738026D01*
X121611774Y-118046252D01*
X115062000Y-118046252D01*
X115062000Y-116892541D01*
X120517225Y-116892541D01*
X120533929Y-117062137D01*
X120713748Y-117148226D01*
X121021974Y-116840000D01*
X122818026Y-116840000D01*
X123126252Y-117148226D01*
X123190000Y-117117706D01*
X123253748Y-117148226D01*
X123561974Y-116840000D01*
X123253748Y-116531774D01*
X123190000Y-116562294D01*
X123126252Y-116531774D01*
X122818026Y-116840000D01*
X121021974Y-116840000D01*
X120713748Y-116531774D01*
X120533929Y-116617863D01*
X120517225Y-116892541D01*
X115062000Y-116892541D01*
X115062000Y-115633748D01*
X121611774Y-115633748D01*
X121920000Y-115941974D01*
X122228226Y-115633748D01*
X124151774Y-115633748D01*
X124460000Y-115941974D01*
X124768226Y-115633748D01*
X124682137Y-115453929D01*
X124407459Y-115437225D01*
X124237863Y-115453929D01*
X124151774Y-115633748D01*
X122228226Y-115633748D01*
X122142137Y-115453929D01*
X121867459Y-115437225D01*
X121697863Y-115453929D01*
X121611774Y-115633748D01*
X115062000Y-115633748D01*
X115062000Y-102997000D01*
X130048000Y-102997000D01*
X130048000Y-115538319D01*
G37*
G04 #@! TD.AperFunction*
D26*
X78613000Y-49952343D02*
X78547581Y-49831241D01*
X77578822Y-50800000D01*
X78547581Y-51768759D01*
X78613000Y-51647657D01*
X78613000Y-55245000D01*
X78615440Y-55269776D01*
X78622667Y-55293601D01*
X78634403Y-55315557D01*
X78650197Y-55334803D01*
X78669443Y-55350597D01*
X78691399Y-55362333D01*
X78715224Y-55369560D01*
X78740000Y-55372000D01*
X135128000Y-55372000D01*
X135128000Y-75993653D01*
X134287761Y-75153414D01*
X133834403Y-75606772D01*
X134369922Y-76142291D01*
X134311774Y-76263748D01*
X134620000Y-76571974D01*
X134709803Y-76482172D01*
X135128000Y-76900369D01*
X135128000Y-77797001D01*
X133869370Y-77797001D01*
X133803358Y-77730989D01*
X134396586Y-77137761D01*
X133943228Y-76684403D01*
X133439803Y-77187829D01*
X133413748Y-77161774D01*
X133350000Y-77192294D01*
X133286252Y-77161774D01*
X133260198Y-77187829D01*
X132756772Y-76684403D01*
X132303414Y-77137761D01*
X132896642Y-77730989D01*
X132830630Y-77797001D01*
X131329370Y-77797001D01*
X131092172Y-77559803D01*
X131181974Y-77470000D01*
X130910337Y-77198363D01*
X130883314Y-77062510D01*
X130778005Y-76808273D01*
X130625120Y-76579465D01*
X130430535Y-76384880D01*
X130249249Y-76263748D01*
X131771774Y-76263748D01*
X132080000Y-76571974D01*
X132388226Y-76263748D01*
X132302137Y-76083929D01*
X132027459Y-76067225D01*
X131857863Y-76083929D01*
X131771774Y-76263748D01*
X130249249Y-76263748D01*
X130201727Y-76231995D01*
X129947490Y-76126686D01*
X129677592Y-76073000D01*
X129402408Y-76073000D01*
X129132510Y-76126686D01*
X128878273Y-76231995D01*
X128649465Y-76384880D01*
X128454880Y-76579465D01*
X128301995Y-76808273D01*
X128270000Y-76885515D01*
X128238005Y-76808273D01*
X128085120Y-76579465D01*
X127890535Y-76384880D01*
X127661727Y-76231995D01*
X127407490Y-76126686D01*
X127137592Y-76073000D01*
X126862408Y-76073000D01*
X126592510Y-76126686D01*
X126338273Y-76231995D01*
X126109465Y-76384880D01*
X125914880Y-76579465D01*
X125761995Y-76808273D01*
X125730000Y-76885515D01*
X125698005Y-76808273D01*
X125545120Y-76579465D01*
X125350535Y-76384880D01*
X125121727Y-76231995D01*
X124867490Y-76126686D01*
X124597592Y-76073000D01*
X124322408Y-76073000D01*
X124052510Y-76126686D01*
X123798273Y-76231995D01*
X123569465Y-76384880D01*
X123374880Y-76579465D01*
X123221995Y-76808273D01*
X123190000Y-76885515D01*
X123158005Y-76808273D01*
X123005120Y-76579465D01*
X122810535Y-76384880D01*
X122581727Y-76231995D01*
X122327490Y-76126686D01*
X122057592Y-76073000D01*
X121782408Y-76073000D01*
X121512510Y-76126686D01*
X121258273Y-76231995D01*
X121029465Y-76384880D01*
X120834880Y-76579465D01*
X120681995Y-76808273D01*
X120576686Y-77062510D01*
X120523000Y-77332408D01*
X120523000Y-77607592D01*
X120560676Y-77797001D01*
X116332000Y-77797001D01*
X116332000Y-60325000D01*
X116329560Y-60300224D01*
X116322333Y-60276399D01*
X116310597Y-60254443D01*
X116294803Y-60235197D01*
X116275557Y-60219403D01*
X116253601Y-60207667D01*
X116229776Y-60200440D01*
X116205000Y-60198000D01*
X85121681Y-60198000D01*
X85163314Y-60097490D01*
X85217000Y-59827592D01*
X85217000Y-59552408D01*
X85163314Y-59282510D01*
X85058005Y-59028273D01*
X84905120Y-58799465D01*
X84710535Y-58604880D01*
X84481727Y-58451995D01*
X84227490Y-58346686D01*
X83957592Y-58293000D01*
X83682408Y-58293000D01*
X83412510Y-58346686D01*
X83158273Y-58451995D01*
X82929465Y-58604880D01*
X82734880Y-58799465D01*
X82581995Y-59028273D01*
X82550000Y-59105515D01*
X82518005Y-59028273D01*
X82365120Y-58799465D01*
X82170535Y-58604880D01*
X81941727Y-58451995D01*
X81687490Y-58346686D01*
X81417592Y-58293000D01*
X81142408Y-58293000D01*
X80872510Y-58346686D01*
X80618273Y-58451995D01*
X80389465Y-58604880D01*
X80194880Y-58799465D01*
X80041995Y-59028273D01*
X80010000Y-59105515D01*
X79978005Y-59028273D01*
X79825120Y-58799465D01*
X79630535Y-58604880D01*
X79401727Y-58451995D01*
X79147490Y-58346686D01*
X78877592Y-58293000D01*
X78602408Y-58293000D01*
X78332510Y-58346686D01*
X78078273Y-58451995D01*
X77849465Y-58604880D01*
X77823954Y-58630391D01*
X77250685Y-58057121D01*
X77226882Y-58028118D01*
X77111157Y-57933145D01*
X76979128Y-57862573D01*
X76835867Y-57819116D01*
X76724214Y-57808119D01*
X76724203Y-57808119D01*
X76686881Y-57804443D01*
X76649559Y-57808119D01*
X69975000Y-57808119D01*
X69975000Y-54417581D01*
X73961241Y-54417581D01*
X74432048Y-54671909D01*
X75196988Y-54694656D01*
X75427952Y-54671909D01*
X75898759Y-54417581D01*
X74930000Y-53448822D01*
X73961241Y-54417581D01*
X69975000Y-54417581D01*
X69975000Y-51066988D01*
X71035344Y-51066988D01*
X71058091Y-51297952D01*
X71312419Y-51768759D01*
X72281178Y-50800000D01*
X71312419Y-49831241D01*
X71058091Y-50302048D01*
X71035344Y-51066988D01*
X69975000Y-51066988D01*
X69975000Y-47939801D01*
X70164802Y-47750000D01*
X74528822Y-47750000D01*
X74930000Y-48151178D01*
X75331178Y-47750000D01*
X77432678Y-47750000D01*
X77470000Y-47753676D01*
X77507322Y-47750000D01*
X77507333Y-47750000D01*
X77618986Y-47739003D01*
X77762247Y-47695546D01*
X77894276Y-47624974D01*
X78010001Y-47530001D01*
X78033803Y-47500998D01*
X78613000Y-46921802D01*
X78613000Y-49952343D01*
G04 #@! TA.AperFunction,Conductor*
D27*
G36*
X78613000Y-49952343D02*
G01*
X78547581Y-49831241D01*
X77578822Y-50800000D01*
X78547581Y-51768759D01*
X78613000Y-51647657D01*
X78613000Y-55245000D01*
X78615440Y-55269776D01*
X78622667Y-55293601D01*
X78634403Y-55315557D01*
X78650197Y-55334803D01*
X78669443Y-55350597D01*
X78691399Y-55362333D01*
X78715224Y-55369560D01*
X78740000Y-55372000D01*
X135128000Y-55372000D01*
X135128000Y-75993653D01*
X134287761Y-75153414D01*
X133834403Y-75606772D01*
X134369922Y-76142291D01*
X134311774Y-76263748D01*
X134620000Y-76571974D01*
X134709803Y-76482172D01*
X135128000Y-76900369D01*
X135128000Y-77797001D01*
X133869370Y-77797001D01*
X133803358Y-77730989D01*
X134396586Y-77137761D01*
X133943228Y-76684403D01*
X133439803Y-77187829D01*
X133413748Y-77161774D01*
X133350000Y-77192294D01*
X133286252Y-77161774D01*
X133260198Y-77187829D01*
X132756772Y-76684403D01*
X132303414Y-77137761D01*
X132896642Y-77730989D01*
X132830630Y-77797001D01*
X131329370Y-77797001D01*
X131092172Y-77559803D01*
X131181974Y-77470000D01*
X130910337Y-77198363D01*
X130883314Y-77062510D01*
X130778005Y-76808273D01*
X130625120Y-76579465D01*
X130430535Y-76384880D01*
X130249249Y-76263748D01*
X131771774Y-76263748D01*
X132080000Y-76571974D01*
X132388226Y-76263748D01*
X132302137Y-76083929D01*
X132027459Y-76067225D01*
X131857863Y-76083929D01*
X131771774Y-76263748D01*
X130249249Y-76263748D01*
X130201727Y-76231995D01*
X129947490Y-76126686D01*
X129677592Y-76073000D01*
X129402408Y-76073000D01*
X129132510Y-76126686D01*
X128878273Y-76231995D01*
X128649465Y-76384880D01*
X128454880Y-76579465D01*
X128301995Y-76808273D01*
X128270000Y-76885515D01*
X128238005Y-76808273D01*
X128085120Y-76579465D01*
X127890535Y-76384880D01*
X127661727Y-76231995D01*
X127407490Y-76126686D01*
X127137592Y-76073000D01*
X126862408Y-76073000D01*
X126592510Y-76126686D01*
X126338273Y-76231995D01*
X126109465Y-76384880D01*
X125914880Y-76579465D01*
X125761995Y-76808273D01*
X125730000Y-76885515D01*
X125698005Y-76808273D01*
X125545120Y-76579465D01*
X125350535Y-76384880D01*
X125121727Y-76231995D01*
X124867490Y-76126686D01*
X124597592Y-76073000D01*
X124322408Y-76073000D01*
X124052510Y-76126686D01*
X123798273Y-76231995D01*
X123569465Y-76384880D01*
X123374880Y-76579465D01*
X123221995Y-76808273D01*
X123190000Y-76885515D01*
X123158005Y-76808273D01*
X123005120Y-76579465D01*
X122810535Y-76384880D01*
X122581727Y-76231995D01*
X122327490Y-76126686D01*
X122057592Y-76073000D01*
X121782408Y-76073000D01*
X121512510Y-76126686D01*
X121258273Y-76231995D01*
X121029465Y-76384880D01*
X120834880Y-76579465D01*
X120681995Y-76808273D01*
X120576686Y-77062510D01*
X120523000Y-77332408D01*
X120523000Y-77607592D01*
X120560676Y-77797001D01*
X116332000Y-77797001D01*
X116332000Y-60325000D01*
X116329560Y-60300224D01*
X116322333Y-60276399D01*
X116310597Y-60254443D01*
X116294803Y-60235197D01*
X116275557Y-60219403D01*
X116253601Y-60207667D01*
X116229776Y-60200440D01*
X116205000Y-60198000D01*
X85121681Y-60198000D01*
X85163314Y-60097490D01*
X85217000Y-59827592D01*
X85217000Y-59552408D01*
X85163314Y-59282510D01*
X85058005Y-59028273D01*
X84905120Y-58799465D01*
X84710535Y-58604880D01*
X84481727Y-58451995D01*
X84227490Y-58346686D01*
X83957592Y-58293000D01*
X83682408Y-58293000D01*
X83412510Y-58346686D01*
X83158273Y-58451995D01*
X82929465Y-58604880D01*
X82734880Y-58799465D01*
X82581995Y-59028273D01*
X82550000Y-59105515D01*
X82518005Y-59028273D01*
X82365120Y-58799465D01*
X82170535Y-58604880D01*
X81941727Y-58451995D01*
X81687490Y-58346686D01*
X81417592Y-58293000D01*
X81142408Y-58293000D01*
X80872510Y-58346686D01*
X80618273Y-58451995D01*
X80389465Y-58604880D01*
X80194880Y-58799465D01*
X80041995Y-59028273D01*
X80010000Y-59105515D01*
X79978005Y-59028273D01*
X79825120Y-58799465D01*
X79630535Y-58604880D01*
X79401727Y-58451995D01*
X79147490Y-58346686D01*
X78877592Y-58293000D01*
X78602408Y-58293000D01*
X78332510Y-58346686D01*
X78078273Y-58451995D01*
X77849465Y-58604880D01*
X77823954Y-58630391D01*
X77250685Y-58057121D01*
X77226882Y-58028118D01*
X77111157Y-57933145D01*
X76979128Y-57862573D01*
X76835867Y-57819116D01*
X76724214Y-57808119D01*
X76724203Y-57808119D01*
X76686881Y-57804443D01*
X76649559Y-57808119D01*
X69975000Y-57808119D01*
X69975000Y-54417581D01*
X73961241Y-54417581D01*
X74432048Y-54671909D01*
X75196988Y-54694656D01*
X75427952Y-54671909D01*
X75898759Y-54417581D01*
X74930000Y-53448822D01*
X73961241Y-54417581D01*
X69975000Y-54417581D01*
X69975000Y-51066988D01*
X71035344Y-51066988D01*
X71058091Y-51297952D01*
X71312419Y-51768759D01*
X72281178Y-50800000D01*
X71312419Y-49831241D01*
X71058091Y-50302048D01*
X71035344Y-51066988D01*
X69975000Y-51066988D01*
X69975000Y-47939801D01*
X70164802Y-47750000D01*
X74528822Y-47750000D01*
X74930000Y-48151178D01*
X75331178Y-47750000D01*
X77432678Y-47750000D01*
X77470000Y-47753676D01*
X77507322Y-47750000D01*
X77507333Y-47750000D01*
X77618986Y-47739003D01*
X77762247Y-47695546D01*
X77894276Y-47624974D01*
X78010001Y-47530001D01*
X78033803Y-47500998D01*
X78613000Y-46921802D01*
X78613000Y-49952343D01*
G37*
G04 #@! TD.AperFunction*
D26*
X224028000Y-46355000D02*
X224030440Y-46379776D01*
X224037667Y-46403601D01*
X224049403Y-46425557D01*
X224065197Y-46444803D01*
X224084443Y-46460597D01*
X224106399Y-46472333D01*
X224130224Y-46479560D01*
X224155000Y-46482000D01*
X231750001Y-46482000D01*
X231750000Y-122428000D01*
X224155000Y-122428000D01*
X224130224Y-122430440D01*
X224106399Y-122437667D01*
X224084443Y-122449403D01*
X224065197Y-122465197D01*
X224049403Y-122484443D01*
X224037667Y-122506399D01*
X224030440Y-122530224D01*
X224028000Y-122555000D01*
X224028000Y-130150000D01*
X209379801Y-130150000D01*
X213871003Y-125658799D01*
X213900001Y-125635001D01*
X213926332Y-125602917D01*
X213994974Y-125519277D01*
X214065546Y-125387247D01*
X214090091Y-125306331D01*
X214109003Y-125243986D01*
X214120000Y-125132333D01*
X214120000Y-125132323D01*
X214123676Y-125095000D01*
X214120000Y-125057677D01*
X214120000Y-120718711D01*
X214163937Y-120674774D01*
X214277205Y-120505256D01*
X214355226Y-120316898D01*
X214395000Y-120116939D01*
X214395000Y-119913061D01*
X214355226Y-119713102D01*
X214277205Y-119524744D01*
X214163937Y-119355226D01*
X214019774Y-119211063D01*
X213850256Y-119097795D01*
X213661898Y-119019774D01*
X213461939Y-118980000D01*
X213258061Y-118980000D01*
X213058102Y-119019774D01*
X212869744Y-119097795D01*
X212700226Y-119211063D01*
X212556063Y-119355226D01*
X212442795Y-119524744D01*
X212364774Y-119713102D01*
X212325000Y-119913061D01*
X212325000Y-120116939D01*
X212364774Y-120316898D01*
X212442795Y-120505256D01*
X212556063Y-120674774D01*
X212600000Y-120718711D01*
X212600001Y-124780197D01*
X207965199Y-129415000D01*
X146177000Y-129415000D01*
X146177000Y-123502802D01*
X147196003Y-122483799D01*
X147225001Y-122460001D01*
X147251332Y-122427917D01*
X147319974Y-122344277D01*
X147390546Y-122212247D01*
X147434003Y-122068986D01*
X147445000Y-121957333D01*
X147445000Y-121957324D01*
X147448676Y-121920001D01*
X147445000Y-121882678D01*
X147445000Y-91119801D01*
X148223592Y-90341210D01*
X148443740Y-90385000D01*
X148736260Y-90385000D01*
X149023158Y-90327932D01*
X149293411Y-90215990D01*
X149536632Y-90053475D01*
X149743475Y-89846632D01*
X149905990Y-89603411D01*
X150017932Y-89333158D01*
X150075000Y-89046260D01*
X150075000Y-88753740D01*
X150017932Y-88466842D01*
X149905990Y-88196589D01*
X149836785Y-88093016D01*
X153349802Y-84580000D01*
X201861289Y-84580000D01*
X201905226Y-84623937D01*
X202074744Y-84737205D01*
X202263102Y-84815226D01*
X202463061Y-84855000D01*
X202666939Y-84855000D01*
X202866898Y-84815226D01*
X203055256Y-84737205D01*
X203224774Y-84623937D01*
X203229971Y-84618740D01*
X203229971Y-98305471D01*
X203226295Y-98342793D01*
X203229971Y-98380115D01*
X203229971Y-98380125D01*
X203240968Y-98491778D01*
X203275303Y-98604966D01*
X203284425Y-98635039D01*
X203354997Y-98767069D01*
X203373817Y-98790001D01*
X203449970Y-98882794D01*
X203478974Y-98906597D01*
X216410001Y-111837625D01*
X216410000Y-115667659D01*
X216279465Y-115754880D01*
X216084880Y-115949465D01*
X215931995Y-116178273D01*
X215826686Y-116432510D01*
X215773000Y-116702408D01*
X215773000Y-116977592D01*
X215826686Y-117247490D01*
X215931995Y-117501727D01*
X216084880Y-117730535D01*
X216279465Y-117925120D01*
X216508273Y-118078005D01*
X216762510Y-118183314D01*
X217032408Y-118237000D01*
X217307592Y-118237000D01*
X217577490Y-118183314D01*
X217831727Y-118078005D01*
X218060535Y-117925120D01*
X218255120Y-117730535D01*
X218408005Y-117501727D01*
X218440000Y-117424485D01*
X218471995Y-117501727D01*
X218624880Y-117730535D01*
X218819465Y-117925120D01*
X219048273Y-118078005D01*
X219302510Y-118183314D01*
X219572408Y-118237000D01*
X219847592Y-118237000D01*
X220117490Y-118183314D01*
X220371727Y-118078005D01*
X220600535Y-117925120D01*
X220795120Y-117730535D01*
X220948005Y-117501727D01*
X220980000Y-117424485D01*
X221011995Y-117501727D01*
X221164880Y-117730535D01*
X221359465Y-117925120D01*
X221588273Y-118078005D01*
X221842510Y-118183314D01*
X222112408Y-118237000D01*
X222387592Y-118237000D01*
X222657490Y-118183314D01*
X222911727Y-118078005D01*
X223140535Y-117925120D01*
X223335120Y-117730535D01*
X223393000Y-117643911D01*
X223393000Y-118713002D01*
X224028000Y-118713002D01*
X224028000Y-118205250D01*
X224155000Y-118078250D01*
X224155000Y-117475000D01*
X225425000Y-117475000D01*
X225425000Y-118078250D01*
X225583750Y-118237000D01*
X225685670Y-118225914D01*
X225804821Y-118187847D01*
X225914257Y-118127268D01*
X226009771Y-118046502D01*
X226087693Y-117948654D01*
X226145028Y-117837485D01*
X226179574Y-117717266D01*
X226187000Y-117633750D01*
X226028250Y-117475000D01*
X225425000Y-117475000D01*
X224155000Y-117475000D01*
X224028000Y-117475000D01*
X224028000Y-116205000D01*
X224155000Y-116205000D01*
X224155000Y-115601750D01*
X225425000Y-115601750D01*
X225425000Y-116205000D01*
X226028250Y-116205000D01*
X226187000Y-116046250D01*
X226179574Y-115962734D01*
X226145028Y-115842515D01*
X226087693Y-115731346D01*
X226009771Y-115633498D01*
X225914257Y-115552732D01*
X225804821Y-115492153D01*
X225685670Y-115454086D01*
X225583750Y-115443000D01*
X225425000Y-115601750D01*
X224155000Y-115601750D01*
X224028000Y-115474750D01*
X224028000Y-114966998D01*
X223393000Y-114966998D01*
X223393000Y-116036089D01*
X223335120Y-115949465D01*
X223140535Y-115754880D01*
X222911727Y-115601995D01*
X222657490Y-115496686D01*
X222387592Y-115443000D01*
X222112408Y-115443000D01*
X221917339Y-115481802D01*
X221922999Y-115424334D01*
X221922999Y-115424324D01*
X221926675Y-115387001D01*
X221922999Y-115349678D01*
X221922999Y-108039324D01*
X222112408Y-108077000D01*
X222387592Y-108077000D01*
X222657490Y-108023314D01*
X222911727Y-107918005D01*
X223140535Y-107765120D01*
X223335120Y-107570535D01*
X223393000Y-107483911D01*
X223393000Y-108553002D01*
X224028000Y-108553002D01*
X224028000Y-108045250D01*
X224155000Y-107918250D01*
X224155000Y-107315000D01*
X225425000Y-107315000D01*
X225425000Y-107918250D01*
X225583750Y-108077000D01*
X225685670Y-108065914D01*
X225804821Y-108027847D01*
X225914257Y-107967268D01*
X226009771Y-107886502D01*
X226087693Y-107788654D01*
X226145028Y-107677485D01*
X226179574Y-107557266D01*
X226187000Y-107473750D01*
X226028250Y-107315000D01*
X225425000Y-107315000D01*
X224155000Y-107315000D01*
X224028000Y-107315000D01*
X224028000Y-106045000D01*
X224155000Y-106045000D01*
X224155000Y-105441750D01*
X225425000Y-105441750D01*
X225425000Y-106045000D01*
X226028250Y-106045000D01*
X226187000Y-105886250D01*
X226179574Y-105802734D01*
X226145028Y-105682515D01*
X226087693Y-105571346D01*
X226009771Y-105473498D01*
X225914257Y-105392732D01*
X225804821Y-105332153D01*
X225685670Y-105294086D01*
X225583750Y-105283000D01*
X225425000Y-105441750D01*
X224155000Y-105441750D01*
X224028000Y-105314750D01*
X224028000Y-104806998D01*
X223393000Y-104806998D01*
X223393000Y-105876089D01*
X223335120Y-105789465D01*
X223140535Y-105594880D01*
X222911727Y-105441995D01*
X222657490Y-105336686D01*
X222387592Y-105283000D01*
X222112408Y-105283000D01*
X221842510Y-105336686D01*
X221588273Y-105441995D01*
X221359465Y-105594880D01*
X221333954Y-105620391D01*
X216167566Y-100454003D01*
X216143763Y-100424999D01*
X216028038Y-100330026D01*
X215896009Y-100259454D01*
X215752748Y-100215997D01*
X215641095Y-100205000D01*
X215641084Y-100205000D01*
X215603762Y-100201324D01*
X215578604Y-100203802D01*
X215141262Y-99766460D01*
X215309727Y-99696680D01*
X215544759Y-99539637D01*
X215744637Y-99339759D01*
X215848043Y-99185000D01*
X221417678Y-99185000D01*
X221455000Y-99188676D01*
X221492322Y-99185000D01*
X221492333Y-99185000D01*
X221603986Y-99174003D01*
X221662350Y-99156299D01*
X221773088Y-99202168D01*
X222088967Y-99265000D01*
X222411033Y-99265000D01*
X222726912Y-99202168D01*
X223024463Y-99078918D01*
X223292252Y-98899987D01*
X223519987Y-98672252D01*
X223698918Y-98404463D01*
X223822168Y-98106912D01*
X223885000Y-97791033D01*
X223885000Y-97468967D01*
X223822168Y-97153088D01*
X223698918Y-96855537D01*
X223519987Y-96587748D01*
X223292252Y-96360013D01*
X223024463Y-96181082D01*
X222726912Y-96057832D01*
X222411033Y-95995000D01*
X222088967Y-95995000D01*
X221773088Y-96057832D01*
X221475537Y-96181082D01*
X221207748Y-96360013D01*
X220980013Y-96587748D01*
X220801082Y-96855537D01*
X220677832Y-97153088D01*
X220615000Y-97468967D01*
X220615000Y-97665000D01*
X215848043Y-97665000D01*
X215744637Y-97510241D01*
X215544759Y-97310363D01*
X215309727Y-97153320D01*
X215048574Y-97045147D01*
X214907625Y-97017110D01*
X214912205Y-97010256D01*
X214990226Y-96821898D01*
X215030000Y-96621939D01*
X215030000Y-96563910D01*
X215085032Y-96496853D01*
X215119975Y-96454276D01*
X215190547Y-96322246D01*
X215219210Y-96227754D01*
X215234004Y-96178985D01*
X215245001Y-96067332D01*
X215245001Y-96067323D01*
X215248677Y-96030000D01*
X215245001Y-95992677D01*
X215245001Y-88661750D01*
X220615000Y-88661750D01*
X220625734Y-88762013D01*
X220663483Y-88881264D01*
X220723772Y-88990860D01*
X220804284Y-89086588D01*
X220901924Y-89164770D01*
X221012941Y-89222401D01*
X221133067Y-89257266D01*
X221218250Y-89265000D01*
X221377000Y-89106250D01*
X221377000Y-88503000D01*
X223123000Y-88503000D01*
X223123000Y-89106250D01*
X223281750Y-89265000D01*
X223366933Y-89257266D01*
X223487059Y-89222401D01*
X223598076Y-89164770D01*
X223695716Y-89086588D01*
X223776228Y-88990860D01*
X223836517Y-88881264D01*
X223874266Y-88762013D01*
X223885000Y-88661750D01*
X223726250Y-88503000D01*
X223123000Y-88503000D01*
X221377000Y-88503000D01*
X220773750Y-88503000D01*
X220615000Y-88661750D01*
X215245001Y-88661750D01*
X215245001Y-86598250D01*
X220615000Y-86598250D01*
X220773750Y-86757000D01*
X221377000Y-86757000D01*
X221377000Y-86153750D01*
X223123000Y-86153750D01*
X223123000Y-86757000D01*
X223726250Y-86757000D01*
X223885000Y-86598250D01*
X223874266Y-86497987D01*
X223836517Y-86378736D01*
X223776228Y-86269140D01*
X223695716Y-86173412D01*
X223598076Y-86095230D01*
X223487059Y-86037599D01*
X223366933Y-86002734D01*
X223281750Y-85995000D01*
X223123000Y-86153750D01*
X221377000Y-86153750D01*
X221218250Y-85995000D01*
X221133067Y-86002734D01*
X221012941Y-86037599D01*
X220901924Y-86095230D01*
X220804284Y-86173412D01*
X220723772Y-86269140D01*
X220663483Y-86378736D01*
X220625734Y-86497987D01*
X220615000Y-86598250D01*
X215245001Y-86598250D01*
X215245001Y-80518000D01*
X215769928Y-80518000D01*
X215769928Y-82042000D01*
X215782188Y-82166482D01*
X215818498Y-82286180D01*
X215877463Y-82396494D01*
X215956815Y-82493185D01*
X216053506Y-82572537D01*
X216163820Y-82631502D01*
X216283518Y-82667812D01*
X216408000Y-82680072D01*
X217932000Y-82680072D01*
X218056482Y-82667812D01*
X218176180Y-82631502D01*
X218286494Y-82572537D01*
X218383185Y-82493185D01*
X218462537Y-82396494D01*
X218521502Y-82286180D01*
X218557812Y-82166482D01*
X218566080Y-82082535D01*
X218624880Y-82170535D01*
X218819465Y-82365120D01*
X219048273Y-82518005D01*
X219302510Y-82623314D01*
X219572408Y-82677000D01*
X219847592Y-82677000D01*
X220117490Y-82623314D01*
X220371727Y-82518005D01*
X220419248Y-82486252D01*
X221941774Y-82486252D01*
X222027863Y-82666071D01*
X222302541Y-82682775D01*
X222472137Y-82666071D01*
X222558226Y-82486252D01*
X222250000Y-82178026D01*
X221941774Y-82486252D01*
X220419248Y-82486252D01*
X220600535Y-82365120D01*
X220795120Y-82170535D01*
X220948005Y-81941727D01*
X221053314Y-81687490D01*
X221080337Y-81551637D01*
X221351974Y-81280000D01*
X223148026Y-81280000D01*
X223419663Y-81551637D01*
X223446686Y-81687490D01*
X223551995Y-81941727D01*
X223704880Y-82170535D01*
X223899465Y-82365120D01*
X224128273Y-82518005D01*
X224382510Y-82623314D01*
X224652408Y-82677000D01*
X224927592Y-82677000D01*
X225197490Y-82623314D01*
X225451727Y-82518005D01*
X225680535Y-82365120D01*
X225875120Y-82170535D01*
X226028005Y-81941727D01*
X226133314Y-81687490D01*
X226187000Y-81417592D01*
X226187000Y-81142408D01*
X226133314Y-80872510D01*
X226028005Y-80618273D01*
X225875120Y-80389465D01*
X225680535Y-80194880D01*
X225451727Y-80041995D01*
X225197490Y-79936686D01*
X224927592Y-79883000D01*
X224652408Y-79883000D01*
X224382510Y-79936686D01*
X224128273Y-80041995D01*
X223899465Y-80194880D01*
X223704880Y-80389465D01*
X223551995Y-80618273D01*
X223446686Y-80872510D01*
X223419663Y-81008363D01*
X223148026Y-81280000D01*
X221351974Y-81280000D01*
X221080337Y-81008363D01*
X221053314Y-80872510D01*
X220948005Y-80618273D01*
X220795120Y-80389465D01*
X220600535Y-80194880D01*
X220419249Y-80073748D01*
X221941774Y-80073748D01*
X222250000Y-80381974D01*
X222558226Y-80073748D01*
X222472137Y-79893929D01*
X222197459Y-79877225D01*
X222027863Y-79893929D01*
X221941774Y-80073748D01*
X220419249Y-80073748D01*
X220371727Y-80041995D01*
X220117490Y-79936686D01*
X219847592Y-79883000D01*
X219572408Y-79883000D01*
X219302510Y-79936686D01*
X219048273Y-80041995D01*
X218819465Y-80194880D01*
X218624880Y-80389465D01*
X218566080Y-80477465D01*
X218557812Y-80393518D01*
X218521502Y-80273820D01*
X218462537Y-80163506D01*
X218383185Y-80066815D01*
X218286494Y-79987463D01*
X218176180Y-79928498D01*
X218056482Y-79892188D01*
X217932000Y-79879928D01*
X216408000Y-79879928D01*
X216283518Y-79892188D01*
X216163820Y-79928498D01*
X216053506Y-79987463D01*
X215956815Y-80066815D01*
X215877463Y-80163506D01*
X215818498Y-80273820D01*
X215782188Y-80393518D01*
X215769928Y-80518000D01*
X215245001Y-80518000D01*
X215245001Y-79902324D01*
X215248677Y-79865001D01*
X215245001Y-79827678D01*
X215245001Y-79827668D01*
X215234004Y-79716015D01*
X215190547Y-79572754D01*
X215119975Y-79440725D01*
X215025002Y-79325000D01*
X214996003Y-79301202D01*
X214712500Y-79017698D01*
X214712500Y-78955561D01*
X214672726Y-78755602D01*
X214594705Y-78567244D01*
X214481437Y-78397726D01*
X214337274Y-78253563D01*
X214167756Y-78140295D01*
X213979398Y-78062274D01*
X213779439Y-78022500D01*
X213600615Y-78022500D01*
X213642205Y-77960256D01*
X213720226Y-77771898D01*
X213760000Y-77571939D01*
X213760000Y-77368061D01*
X213720226Y-77168102D01*
X213642205Y-76979744D01*
X213528937Y-76810226D01*
X213384774Y-76666063D01*
X213215256Y-76552795D01*
X213026898Y-76474774D01*
X212916908Y-76452896D01*
X213871004Y-75498800D01*
X213900001Y-75475003D01*
X213944931Y-75420256D01*
X213994974Y-75359279D01*
X214065546Y-75227249D01*
X214070109Y-75212205D01*
X214109003Y-75083988D01*
X214120000Y-74972335D01*
X214120000Y-74972326D01*
X214123676Y-74935003D01*
X214120000Y-74897680D01*
X214120000Y-73728313D01*
X214338505Y-73582312D01*
X214404944Y-73515873D01*
X214410498Y-73534180D01*
X214469463Y-73644494D01*
X214548815Y-73741185D01*
X214645506Y-73820537D01*
X214755820Y-73879502D01*
X214875518Y-73915812D01*
X215000000Y-73928072D01*
X216800000Y-73928072D01*
X216924482Y-73915812D01*
X217044180Y-73879502D01*
X217154494Y-73820537D01*
X217251185Y-73741185D01*
X217330537Y-73644494D01*
X217389502Y-73534180D01*
X217425812Y-73414482D01*
X217438072Y-73290000D01*
X217438072Y-73150000D01*
X218491957Y-73150000D01*
X218595363Y-73304759D01*
X218795241Y-73504637D01*
X219030273Y-73661680D01*
X219291426Y-73769853D01*
X219568665Y-73825000D01*
X219851335Y-73825000D01*
X220128574Y-73769853D01*
X220389727Y-73661680D01*
X220624759Y-73504637D01*
X220824637Y-73304759D01*
X220981680Y-73069727D01*
X221089853Y-72808574D01*
X221145000Y-72531335D01*
X221145000Y-72248665D01*
X225895000Y-72248665D01*
X225895000Y-72531335D01*
X225950147Y-72808574D01*
X226058320Y-73069727D01*
X226215363Y-73304759D01*
X226415241Y-73504637D01*
X226650273Y-73661680D01*
X226911426Y-73769853D01*
X227188665Y-73825000D01*
X227471335Y-73825000D01*
X227748574Y-73769853D01*
X228009727Y-73661680D01*
X228244759Y-73504637D01*
X228444637Y-73304759D01*
X228601680Y-73069727D01*
X228709853Y-72808574D01*
X228765000Y-72531335D01*
X228765000Y-72248665D01*
X228709853Y-71971426D01*
X228601680Y-71710273D01*
X228444637Y-71475241D01*
X228244759Y-71275363D01*
X228009727Y-71118320D01*
X227748574Y-71010147D01*
X227471335Y-70955000D01*
X227188665Y-70955000D01*
X226911426Y-71010147D01*
X226650273Y-71118320D01*
X226415241Y-71275363D01*
X226215363Y-71475241D01*
X226058320Y-71710273D01*
X225950147Y-71971426D01*
X225895000Y-72248665D01*
X221145000Y-72248665D01*
X221089853Y-71971426D01*
X220981680Y-71710273D01*
X220824637Y-71475241D01*
X220624759Y-71275363D01*
X220389727Y-71118320D01*
X220128574Y-71010147D01*
X219851335Y-70955000D01*
X219568665Y-70955000D01*
X219291426Y-71010147D01*
X219030273Y-71118320D01*
X218795241Y-71275363D01*
X218595363Y-71475241D01*
X218491957Y-71630000D01*
X217438072Y-71630000D01*
X217438072Y-71490000D01*
X217425812Y-71365518D01*
X217389502Y-71245820D01*
X217330537Y-71135506D01*
X217251185Y-71038815D01*
X217154494Y-70959463D01*
X217044180Y-70900498D01*
X216924482Y-70864188D01*
X216800000Y-70851928D01*
X215000000Y-70851928D01*
X214875518Y-70864188D01*
X214755820Y-70900498D01*
X214645506Y-70959463D01*
X214548815Y-71038815D01*
X214469463Y-71135506D01*
X214410498Y-71245820D01*
X214404944Y-71264127D01*
X214338505Y-71197688D01*
X214087095Y-71029701D01*
X213807743Y-70913989D01*
X213511184Y-70855000D01*
X213208816Y-70855000D01*
X212912257Y-70913989D01*
X212632905Y-71029701D01*
X212381495Y-71197688D01*
X212167688Y-71411495D01*
X211999701Y-71662905D01*
X211883989Y-71942257D01*
X211825000Y-72238816D01*
X211825000Y-72541184D01*
X211883989Y-72837743D01*
X211999701Y-73117095D01*
X212025485Y-73155683D01*
X210815696Y-71945895D01*
X210911479Y-71802546D01*
X210937321Y-71800001D01*
X210937332Y-71800001D01*
X211048985Y-71789004D01*
X211192246Y-71745547D01*
X211324275Y-71674975D01*
X211440000Y-71580002D01*
X211463803Y-71550998D01*
X212951070Y-70063731D01*
X213208816Y-70115000D01*
X213511184Y-70115000D01*
X213807743Y-70056011D01*
X214087095Y-69940299D01*
X214338505Y-69772312D01*
X214404944Y-69705873D01*
X214410498Y-69724180D01*
X214469463Y-69834494D01*
X214548815Y-69931185D01*
X214645506Y-70010537D01*
X214755820Y-70069502D01*
X214875518Y-70105812D01*
X215000000Y-70118072D01*
X216800000Y-70118072D01*
X216924482Y-70105812D01*
X217044180Y-70069502D01*
X217154494Y-70010537D01*
X217251185Y-69931185D01*
X217330537Y-69834494D01*
X217389502Y-69724180D01*
X217425812Y-69604482D01*
X217438072Y-69480000D01*
X217438072Y-69340000D01*
X218491957Y-69340000D01*
X218595363Y-69494759D01*
X218795241Y-69694637D01*
X219030273Y-69851680D01*
X219291426Y-69959853D01*
X219568665Y-70015000D01*
X219851335Y-70015000D01*
X220128574Y-69959853D01*
X220389727Y-69851680D01*
X220624759Y-69694637D01*
X220824637Y-69494759D01*
X220981680Y-69259727D01*
X221089853Y-68998574D01*
X221145000Y-68721335D01*
X221145000Y-68438665D01*
X225895000Y-68438665D01*
X225895000Y-68721335D01*
X225950147Y-68998574D01*
X226058320Y-69259727D01*
X226215363Y-69494759D01*
X226415241Y-69694637D01*
X226650273Y-69851680D01*
X226911426Y-69959853D01*
X227188665Y-70015000D01*
X227471335Y-70015000D01*
X227748574Y-69959853D01*
X228009727Y-69851680D01*
X228244759Y-69694637D01*
X228444637Y-69494759D01*
X228601680Y-69259727D01*
X228709853Y-68998574D01*
X228765000Y-68721335D01*
X228765000Y-68438665D01*
X228709853Y-68161426D01*
X228601680Y-67900273D01*
X228444637Y-67665241D01*
X228244759Y-67465363D01*
X228009727Y-67308320D01*
X227748574Y-67200147D01*
X227471335Y-67145000D01*
X227188665Y-67145000D01*
X226911426Y-67200147D01*
X226650273Y-67308320D01*
X226415241Y-67465363D01*
X226215363Y-67665241D01*
X226058320Y-67900273D01*
X225950147Y-68161426D01*
X225895000Y-68438665D01*
X221145000Y-68438665D01*
X221089853Y-68161426D01*
X220981680Y-67900273D01*
X220824637Y-67665241D01*
X220624759Y-67465363D01*
X220389727Y-67308320D01*
X220128574Y-67200147D01*
X219851335Y-67145000D01*
X219568665Y-67145000D01*
X219291426Y-67200147D01*
X219030273Y-67308320D01*
X218795241Y-67465363D01*
X218595363Y-67665241D01*
X218491957Y-67820000D01*
X217438072Y-67820000D01*
X217438072Y-67680000D01*
X217425812Y-67555518D01*
X217389502Y-67435820D01*
X217330537Y-67325506D01*
X217251185Y-67228815D01*
X217154494Y-67149463D01*
X217044180Y-67090498D01*
X216924482Y-67054188D01*
X216800000Y-67041928D01*
X215000000Y-67041928D01*
X214875518Y-67054188D01*
X214755820Y-67090498D01*
X214645506Y-67149463D01*
X214548815Y-67228815D01*
X214469463Y-67325506D01*
X214410498Y-67435820D01*
X214404944Y-67454127D01*
X214338505Y-67387688D01*
X214087095Y-67219701D01*
X213807743Y-67103989D01*
X213511184Y-67045000D01*
X213208816Y-67045000D01*
X212912257Y-67103989D01*
X212632905Y-67219701D01*
X212381495Y-67387688D01*
X212167688Y-67601495D01*
X211999701Y-67852905D01*
X211883989Y-68132257D01*
X211825000Y-68428816D01*
X211825000Y-68731184D01*
X211876269Y-68988930D01*
X210780153Y-70085046D01*
X210581633Y-69886526D01*
X210407241Y-69770001D01*
X210581633Y-69653476D01*
X210788476Y-69446633D01*
X210950991Y-69203412D01*
X211062933Y-68933159D01*
X211120001Y-68646261D01*
X211120001Y-68353741D01*
X211076210Y-68133593D01*
X212955242Y-66254561D01*
X213208816Y-66305000D01*
X213511184Y-66305000D01*
X213807743Y-66246011D01*
X214087095Y-66130299D01*
X214338505Y-65962312D01*
X214404944Y-65895873D01*
X214410498Y-65914180D01*
X214469463Y-66024494D01*
X214548815Y-66121185D01*
X214645506Y-66200537D01*
X214755820Y-66259502D01*
X214875518Y-66295812D01*
X215000000Y-66308072D01*
X216800000Y-66308072D01*
X216924482Y-66295812D01*
X217044180Y-66259502D01*
X217154494Y-66200537D01*
X217251185Y-66121185D01*
X217330537Y-66024494D01*
X217389502Y-65914180D01*
X217425812Y-65794482D01*
X217438072Y-65670000D01*
X217438072Y-65530000D01*
X218491957Y-65530000D01*
X218595363Y-65684759D01*
X218795241Y-65884637D01*
X219030273Y-66041680D01*
X219291426Y-66149853D01*
X219568665Y-66205000D01*
X219851335Y-66205000D01*
X220128574Y-66149853D01*
X220389727Y-66041680D01*
X220624759Y-65884637D01*
X220824637Y-65684759D01*
X220981680Y-65449727D01*
X221089853Y-65188574D01*
X221145000Y-64911335D01*
X221145000Y-64628665D01*
X225895000Y-64628665D01*
X225895000Y-64911335D01*
X225950147Y-65188574D01*
X226058320Y-65449727D01*
X226215363Y-65684759D01*
X226415241Y-65884637D01*
X226650273Y-66041680D01*
X226911426Y-66149853D01*
X227188665Y-66205000D01*
X227471335Y-66205000D01*
X227748574Y-66149853D01*
X228009727Y-66041680D01*
X228244759Y-65884637D01*
X228444637Y-65684759D01*
X228601680Y-65449727D01*
X228709853Y-65188574D01*
X228765000Y-64911335D01*
X228765000Y-64628665D01*
X228709853Y-64351426D01*
X228601680Y-64090273D01*
X228444637Y-63855241D01*
X228244759Y-63655363D01*
X228009727Y-63498320D01*
X227748574Y-63390147D01*
X227471335Y-63335000D01*
X227188665Y-63335000D01*
X226911426Y-63390147D01*
X226650273Y-63498320D01*
X226415241Y-63655363D01*
X226215363Y-63855241D01*
X226058320Y-64090273D01*
X225950147Y-64351426D01*
X225895000Y-64628665D01*
X221145000Y-64628665D01*
X221089853Y-64351426D01*
X220981680Y-64090273D01*
X220824637Y-63855241D01*
X220624759Y-63655363D01*
X220389727Y-63498320D01*
X220128574Y-63390147D01*
X219851335Y-63335000D01*
X219568665Y-63335000D01*
X219291426Y-63390147D01*
X219030273Y-63498320D01*
X218795241Y-63655363D01*
X218595363Y-63855241D01*
X218491957Y-64010000D01*
X217438072Y-64010000D01*
X217438072Y-63870000D01*
X217425812Y-63745518D01*
X217389502Y-63625820D01*
X217330537Y-63515506D01*
X217251185Y-63418815D01*
X217154494Y-63339463D01*
X217044180Y-63280498D01*
X216924482Y-63244188D01*
X216800000Y-63231928D01*
X215000000Y-63231928D01*
X214875518Y-63244188D01*
X214755820Y-63280498D01*
X214645506Y-63339463D01*
X214548815Y-63418815D01*
X214469463Y-63515506D01*
X214410498Y-63625820D01*
X214404944Y-63644127D01*
X214338505Y-63577688D01*
X214087095Y-63409701D01*
X213807743Y-63293989D01*
X213511184Y-63235000D01*
X213208816Y-63235000D01*
X212912257Y-63293989D01*
X212632905Y-63409701D01*
X212381495Y-63577688D01*
X212167688Y-63791495D01*
X211999701Y-64042905D01*
X211883989Y-64322257D01*
X211825000Y-64618816D01*
X211825000Y-64921184D01*
X211877098Y-65183102D01*
X211120001Y-65940199D01*
X211120001Y-65813741D01*
X211062933Y-65526843D01*
X210950991Y-65256590D01*
X210788476Y-65013369D01*
X210581633Y-64806526D01*
X210407241Y-64690001D01*
X210581633Y-64573476D01*
X210788476Y-64366633D01*
X210950991Y-64123412D01*
X211062933Y-63853159D01*
X211120001Y-63566261D01*
X211120001Y-63273741D01*
X211062933Y-62986843D01*
X210950991Y-62716590D01*
X210788476Y-62473369D01*
X210581633Y-62266526D01*
X210407241Y-62150001D01*
X210581633Y-62033476D01*
X210788476Y-61826633D01*
X210913179Y-61640001D01*
X211980194Y-61640001D01*
X211999701Y-61687095D01*
X212167688Y-61938505D01*
X212381495Y-62152312D01*
X212632905Y-62320299D01*
X212912257Y-62436011D01*
X213208816Y-62495000D01*
X213511184Y-62495000D01*
X213807743Y-62436011D01*
X214087095Y-62320299D01*
X214338505Y-62152312D01*
X214404944Y-62085873D01*
X214410498Y-62104180D01*
X214469463Y-62214494D01*
X214548815Y-62311185D01*
X214645506Y-62390537D01*
X214755820Y-62449502D01*
X214875518Y-62485812D01*
X215000000Y-62498072D01*
X216800000Y-62498072D01*
X216924482Y-62485812D01*
X217044180Y-62449502D01*
X217154494Y-62390537D01*
X217251185Y-62311185D01*
X217330537Y-62214494D01*
X217389502Y-62104180D01*
X217425812Y-61984482D01*
X217438072Y-61860000D01*
X217438072Y-61720000D01*
X218491957Y-61720000D01*
X218595363Y-61874759D01*
X218795241Y-62074637D01*
X219030273Y-62231680D01*
X219291426Y-62339853D01*
X219568665Y-62395000D01*
X219851335Y-62395000D01*
X220128574Y-62339853D01*
X220389727Y-62231680D01*
X220624759Y-62074637D01*
X220824637Y-61874759D01*
X220981680Y-61639727D01*
X221089853Y-61378574D01*
X221145000Y-61101335D01*
X221145000Y-60818665D01*
X225895000Y-60818665D01*
X225895000Y-61101335D01*
X225950147Y-61378574D01*
X226058320Y-61639727D01*
X226215363Y-61874759D01*
X226415241Y-62074637D01*
X226650273Y-62231680D01*
X226911426Y-62339853D01*
X227188665Y-62395000D01*
X227471335Y-62395000D01*
X227748574Y-62339853D01*
X228009727Y-62231680D01*
X228244759Y-62074637D01*
X228444637Y-61874759D01*
X228601680Y-61639727D01*
X228709853Y-61378574D01*
X228765000Y-61101335D01*
X228765000Y-60818665D01*
X228709853Y-60541426D01*
X228601680Y-60280273D01*
X228444637Y-60045241D01*
X228244759Y-59845363D01*
X228009727Y-59688320D01*
X227748574Y-59580147D01*
X227471335Y-59525000D01*
X227188665Y-59525000D01*
X226911426Y-59580147D01*
X226650273Y-59688320D01*
X226415241Y-59845363D01*
X226215363Y-60045241D01*
X226058320Y-60280273D01*
X225950147Y-60541426D01*
X225895000Y-60818665D01*
X221145000Y-60818665D01*
X221089853Y-60541426D01*
X220981680Y-60280273D01*
X220824637Y-60045241D01*
X220624759Y-59845363D01*
X220389727Y-59688320D01*
X220128574Y-59580147D01*
X219851335Y-59525000D01*
X219568665Y-59525000D01*
X219291426Y-59580147D01*
X219030273Y-59688320D01*
X218795241Y-59845363D01*
X218595363Y-60045241D01*
X218491957Y-60200000D01*
X217438072Y-60200000D01*
X217438072Y-60060000D01*
X217425812Y-59935518D01*
X217389502Y-59815820D01*
X217330537Y-59705506D01*
X217251185Y-59608815D01*
X217154494Y-59529463D01*
X217044180Y-59470498D01*
X216924482Y-59434188D01*
X216800000Y-59421928D01*
X215000000Y-59421928D01*
X214875518Y-59434188D01*
X214755820Y-59470498D01*
X214645506Y-59529463D01*
X214548815Y-59608815D01*
X214469463Y-59705506D01*
X214410498Y-59815820D01*
X214404944Y-59834127D01*
X214338505Y-59767688D01*
X214087095Y-59599701D01*
X213807743Y-59483989D01*
X213511184Y-59425000D01*
X213208816Y-59425000D01*
X212912257Y-59483989D01*
X212632905Y-59599701D01*
X212381495Y-59767688D01*
X212167688Y-59981495D01*
X212075141Y-60120001D01*
X210913179Y-60120001D01*
X210788476Y-59933369D01*
X210581633Y-59726526D01*
X210407241Y-59610001D01*
X210581633Y-59493476D01*
X210788476Y-59286633D01*
X210950991Y-59043412D01*
X211062933Y-58773159D01*
X211120001Y-58486261D01*
X211120001Y-58193741D01*
X211062933Y-57906843D01*
X210950991Y-57636590D01*
X210788476Y-57393369D01*
X210581633Y-57186526D01*
X210407241Y-57070001D01*
X210581633Y-56953476D01*
X210788476Y-56746633D01*
X210950991Y-56503412D01*
X211062933Y-56233159D01*
X211120001Y-55946261D01*
X211120001Y-55653741D01*
X211062933Y-55366843D01*
X210950991Y-55096590D01*
X210788476Y-54853369D01*
X210581633Y-54646526D01*
X210407241Y-54530001D01*
X210493435Y-54472408D01*
X215773000Y-54472408D01*
X215773000Y-54747592D01*
X215826686Y-55017490D01*
X215931995Y-55271727D01*
X216084880Y-55500535D01*
X216279465Y-55695120D01*
X216508273Y-55848005D01*
X216762510Y-55953314D01*
X217032408Y-56007000D01*
X217307592Y-56007000D01*
X217577490Y-55953314D01*
X217831727Y-55848005D01*
X218060535Y-55695120D01*
X218255120Y-55500535D01*
X218408005Y-55271727D01*
X218440000Y-55194485D01*
X218471995Y-55271727D01*
X218624880Y-55500535D01*
X218819465Y-55695120D01*
X219048273Y-55848005D01*
X219302510Y-55953314D01*
X219572408Y-56007000D01*
X219847592Y-56007000D01*
X220117490Y-55953314D01*
X220371727Y-55848005D01*
X220419248Y-55816252D01*
X221941774Y-55816252D01*
X222027863Y-55996071D01*
X222302541Y-56012775D01*
X222472137Y-55996071D01*
X222558226Y-55816252D01*
X222250000Y-55508026D01*
X221941774Y-55816252D01*
X220419248Y-55816252D01*
X220600535Y-55695120D01*
X220795120Y-55500535D01*
X220948005Y-55271727D01*
X221053314Y-55017490D01*
X221080337Y-54881637D01*
X221351974Y-54610000D01*
X223148026Y-54610000D01*
X223389928Y-54851902D01*
X223389928Y-55372000D01*
X223402188Y-55496482D01*
X223438498Y-55616180D01*
X223497463Y-55726494D01*
X223576815Y-55823185D01*
X223673506Y-55902537D01*
X223783820Y-55961502D01*
X223903518Y-55997812D01*
X224028000Y-56010072D01*
X225552000Y-56010072D01*
X225676482Y-55997812D01*
X225796180Y-55961502D01*
X225906494Y-55902537D01*
X226003185Y-55823185D01*
X226082537Y-55726494D01*
X226141502Y-55616180D01*
X226177812Y-55496482D01*
X226190072Y-55372000D01*
X226190072Y-53848000D01*
X226177812Y-53723518D01*
X226141502Y-53603820D01*
X226082537Y-53493506D01*
X226003185Y-53396815D01*
X225906494Y-53317463D01*
X225796180Y-53258498D01*
X225676482Y-53222188D01*
X225552000Y-53209928D01*
X224028000Y-53209928D01*
X223903518Y-53222188D01*
X223783820Y-53258498D01*
X223673506Y-53317463D01*
X223576815Y-53396815D01*
X223497463Y-53493506D01*
X223438498Y-53603820D01*
X223402188Y-53723518D01*
X223389928Y-53848000D01*
X223389928Y-54368098D01*
X223148026Y-54610000D01*
X221351974Y-54610000D01*
X221080337Y-54338363D01*
X221053314Y-54202510D01*
X220948005Y-53948273D01*
X220795120Y-53719465D01*
X220600535Y-53524880D01*
X220419249Y-53403748D01*
X221941774Y-53403748D01*
X222250000Y-53711974D01*
X222558226Y-53403748D01*
X222472137Y-53223929D01*
X222197459Y-53207225D01*
X222027863Y-53223929D01*
X221941774Y-53403748D01*
X220419249Y-53403748D01*
X220371727Y-53371995D01*
X220117490Y-53266686D01*
X219847592Y-53213000D01*
X219572408Y-53213000D01*
X219302510Y-53266686D01*
X219048273Y-53371995D01*
X218819465Y-53524880D01*
X218624880Y-53719465D01*
X218471995Y-53948273D01*
X218440000Y-54025515D01*
X218408005Y-53948273D01*
X218255120Y-53719465D01*
X218060535Y-53524880D01*
X217831727Y-53371995D01*
X217577490Y-53266686D01*
X217307592Y-53213000D01*
X217032408Y-53213000D01*
X216762510Y-53266686D01*
X216508273Y-53371995D01*
X216279465Y-53524880D01*
X216084880Y-53719465D01*
X215931995Y-53948273D01*
X215826686Y-54202510D01*
X215773000Y-54472408D01*
X210493435Y-54472408D01*
X210581633Y-54413476D01*
X210788476Y-54206633D01*
X210950991Y-53963412D01*
X211062933Y-53693159D01*
X211120001Y-53406261D01*
X211120001Y-53113741D01*
X211062933Y-52826843D01*
X210966074Y-52593003D01*
X211120001Y-52593003D01*
X211120001Y-52205001D01*
X211508003Y-52205001D01*
X211508003Y-51570001D01*
X211120001Y-51570001D01*
X211120001Y-51015001D01*
X212400679Y-51015001D01*
X212438001Y-51018677D01*
X212475323Y-51015001D01*
X212475334Y-51015001D01*
X212586987Y-51004004D01*
X212730248Y-50960547D01*
X212862277Y-50889975D01*
X212978002Y-50795002D01*
X213001805Y-50765998D01*
X213325998Y-50441805D01*
X213355002Y-50418002D01*
X213449975Y-50302277D01*
X213520547Y-50170248D01*
X213564004Y-50026987D01*
X213575001Y-49915334D01*
X213578678Y-49878001D01*
X213575001Y-49840668D01*
X213575001Y-49053750D01*
X214503000Y-49053750D01*
X214510426Y-49137266D01*
X214544972Y-49257485D01*
X214602307Y-49368654D01*
X214680229Y-49466502D01*
X214775743Y-49547268D01*
X214885179Y-49607847D01*
X215004330Y-49645914D01*
X215106250Y-49657000D01*
X215265000Y-49498250D01*
X215265000Y-48895000D01*
X214661750Y-48895000D01*
X214503000Y-49053750D01*
X213575001Y-49053750D01*
X213575001Y-47466250D01*
X214503000Y-47466250D01*
X214661750Y-47625000D01*
X215265000Y-47625000D01*
X215265000Y-47021750D01*
X216535000Y-47021750D01*
X216535000Y-47625000D01*
X216662000Y-47625000D01*
X216662000Y-48895000D01*
X216535000Y-48895000D01*
X216535000Y-49498250D01*
X216662000Y-49625250D01*
X216662000Y-50133002D01*
X217297000Y-50133002D01*
X217297000Y-49063911D01*
X217354880Y-49150535D01*
X217549465Y-49345120D01*
X217778273Y-49498005D01*
X218032510Y-49603314D01*
X218302408Y-49657000D01*
X218577592Y-49657000D01*
X218847490Y-49603314D01*
X219101727Y-49498005D01*
X219330535Y-49345120D01*
X219525120Y-49150535D01*
X219678005Y-48921727D01*
X219710000Y-48844485D01*
X219741995Y-48921727D01*
X219894880Y-49150535D01*
X220089465Y-49345120D01*
X220318273Y-49498005D01*
X220572510Y-49603314D01*
X220842408Y-49657000D01*
X221117592Y-49657000D01*
X221387490Y-49603314D01*
X221641727Y-49498005D01*
X221870535Y-49345120D01*
X222065120Y-49150535D01*
X222218005Y-48921727D01*
X222323314Y-48667490D01*
X222377000Y-48397592D01*
X222377000Y-48122408D01*
X222323314Y-47852510D01*
X222218005Y-47598273D01*
X222065120Y-47369465D01*
X221870535Y-47174880D01*
X221641727Y-47021995D01*
X221387490Y-46916686D01*
X221117592Y-46863000D01*
X220842408Y-46863000D01*
X220572510Y-46916686D01*
X220318273Y-47021995D01*
X220089465Y-47174880D01*
X219894880Y-47369465D01*
X219741995Y-47598273D01*
X219710000Y-47675515D01*
X219678005Y-47598273D01*
X219525120Y-47369465D01*
X219330535Y-47174880D01*
X219101727Y-47021995D01*
X218847490Y-46916686D01*
X218577592Y-46863000D01*
X218302408Y-46863000D01*
X218032510Y-46916686D01*
X217778273Y-47021995D01*
X217549465Y-47174880D01*
X217354880Y-47369465D01*
X217297000Y-47456089D01*
X217297000Y-46386998D01*
X216662000Y-46386998D01*
X216662000Y-46894750D01*
X216535000Y-47021750D01*
X215265000Y-47021750D01*
X215106250Y-46863000D01*
X215004330Y-46874086D01*
X214885179Y-46912153D01*
X214775743Y-46972732D01*
X214680229Y-47053498D01*
X214602307Y-47151346D01*
X214544972Y-47262515D01*
X214510426Y-47382734D01*
X214503000Y-47466250D01*
X213575001Y-47466250D01*
X213575001Y-43395912D01*
X213578677Y-43358589D01*
X213575001Y-43321266D01*
X213575001Y-43321256D01*
X213564004Y-43209603D01*
X213520547Y-43066342D01*
X213449975Y-42934313D01*
X213355002Y-42818588D01*
X213326005Y-42794791D01*
X209943190Y-39411977D01*
X209919392Y-39382979D01*
X209887308Y-39356648D01*
X209803668Y-39288006D01*
X209671638Y-39217434D01*
X209528377Y-39173977D01*
X209416724Y-39162980D01*
X209416714Y-39162980D01*
X209379392Y-39159304D01*
X209342070Y-39162980D01*
X145542000Y-39162981D01*
X145542000Y-38760000D01*
X224028000Y-38760000D01*
X224028000Y-46355000D01*
G04 #@! TA.AperFunction,Conductor*
D27*
G36*
X224028000Y-46355000D02*
G01*
X224030440Y-46379776D01*
X224037667Y-46403601D01*
X224049403Y-46425557D01*
X224065197Y-46444803D01*
X224084443Y-46460597D01*
X224106399Y-46472333D01*
X224130224Y-46479560D01*
X224155000Y-46482000D01*
X231750001Y-46482000D01*
X231750000Y-122428000D01*
X224155000Y-122428000D01*
X224130224Y-122430440D01*
X224106399Y-122437667D01*
X224084443Y-122449403D01*
X224065197Y-122465197D01*
X224049403Y-122484443D01*
X224037667Y-122506399D01*
X224030440Y-122530224D01*
X224028000Y-122555000D01*
X224028000Y-130150000D01*
X209379801Y-130150000D01*
X213871003Y-125658799D01*
X213900001Y-125635001D01*
X213926332Y-125602917D01*
X213994974Y-125519277D01*
X214065546Y-125387247D01*
X214090091Y-125306331D01*
X214109003Y-125243986D01*
X214120000Y-125132333D01*
X214120000Y-125132323D01*
X214123676Y-125095000D01*
X214120000Y-125057677D01*
X214120000Y-120718711D01*
X214163937Y-120674774D01*
X214277205Y-120505256D01*
X214355226Y-120316898D01*
X214395000Y-120116939D01*
X214395000Y-119913061D01*
X214355226Y-119713102D01*
X214277205Y-119524744D01*
X214163937Y-119355226D01*
X214019774Y-119211063D01*
X213850256Y-119097795D01*
X213661898Y-119019774D01*
X213461939Y-118980000D01*
X213258061Y-118980000D01*
X213058102Y-119019774D01*
X212869744Y-119097795D01*
X212700226Y-119211063D01*
X212556063Y-119355226D01*
X212442795Y-119524744D01*
X212364774Y-119713102D01*
X212325000Y-119913061D01*
X212325000Y-120116939D01*
X212364774Y-120316898D01*
X212442795Y-120505256D01*
X212556063Y-120674774D01*
X212600000Y-120718711D01*
X212600001Y-124780197D01*
X207965199Y-129415000D01*
X146177000Y-129415000D01*
X146177000Y-123502802D01*
X147196003Y-122483799D01*
X147225001Y-122460001D01*
X147251332Y-122427917D01*
X147319974Y-122344277D01*
X147390546Y-122212247D01*
X147434003Y-122068986D01*
X147445000Y-121957333D01*
X147445000Y-121957324D01*
X147448676Y-121920001D01*
X147445000Y-121882678D01*
X147445000Y-91119801D01*
X148223592Y-90341210D01*
X148443740Y-90385000D01*
X148736260Y-90385000D01*
X149023158Y-90327932D01*
X149293411Y-90215990D01*
X149536632Y-90053475D01*
X149743475Y-89846632D01*
X149905990Y-89603411D01*
X150017932Y-89333158D01*
X150075000Y-89046260D01*
X150075000Y-88753740D01*
X150017932Y-88466842D01*
X149905990Y-88196589D01*
X149836785Y-88093016D01*
X153349802Y-84580000D01*
X201861289Y-84580000D01*
X201905226Y-84623937D01*
X202074744Y-84737205D01*
X202263102Y-84815226D01*
X202463061Y-84855000D01*
X202666939Y-84855000D01*
X202866898Y-84815226D01*
X203055256Y-84737205D01*
X203224774Y-84623937D01*
X203229971Y-84618740D01*
X203229971Y-98305471D01*
X203226295Y-98342793D01*
X203229971Y-98380115D01*
X203229971Y-98380125D01*
X203240968Y-98491778D01*
X203275303Y-98604966D01*
X203284425Y-98635039D01*
X203354997Y-98767069D01*
X203373817Y-98790001D01*
X203449970Y-98882794D01*
X203478974Y-98906597D01*
X216410001Y-111837625D01*
X216410000Y-115667659D01*
X216279465Y-115754880D01*
X216084880Y-115949465D01*
X215931995Y-116178273D01*
X215826686Y-116432510D01*
X215773000Y-116702408D01*
X215773000Y-116977592D01*
X215826686Y-117247490D01*
X215931995Y-117501727D01*
X216084880Y-117730535D01*
X216279465Y-117925120D01*
X216508273Y-118078005D01*
X216762510Y-118183314D01*
X217032408Y-118237000D01*
X217307592Y-118237000D01*
X217577490Y-118183314D01*
X217831727Y-118078005D01*
X218060535Y-117925120D01*
X218255120Y-117730535D01*
X218408005Y-117501727D01*
X218440000Y-117424485D01*
X218471995Y-117501727D01*
X218624880Y-117730535D01*
X218819465Y-117925120D01*
X219048273Y-118078005D01*
X219302510Y-118183314D01*
X219572408Y-118237000D01*
X219847592Y-118237000D01*
X220117490Y-118183314D01*
X220371727Y-118078005D01*
X220600535Y-117925120D01*
X220795120Y-117730535D01*
X220948005Y-117501727D01*
X220980000Y-117424485D01*
X221011995Y-117501727D01*
X221164880Y-117730535D01*
X221359465Y-117925120D01*
X221588273Y-118078005D01*
X221842510Y-118183314D01*
X222112408Y-118237000D01*
X222387592Y-118237000D01*
X222657490Y-118183314D01*
X222911727Y-118078005D01*
X223140535Y-117925120D01*
X223335120Y-117730535D01*
X223393000Y-117643911D01*
X223393000Y-118713002D01*
X224028000Y-118713002D01*
X224028000Y-118205250D01*
X224155000Y-118078250D01*
X224155000Y-117475000D01*
X225425000Y-117475000D01*
X225425000Y-118078250D01*
X225583750Y-118237000D01*
X225685670Y-118225914D01*
X225804821Y-118187847D01*
X225914257Y-118127268D01*
X226009771Y-118046502D01*
X226087693Y-117948654D01*
X226145028Y-117837485D01*
X226179574Y-117717266D01*
X226187000Y-117633750D01*
X226028250Y-117475000D01*
X225425000Y-117475000D01*
X224155000Y-117475000D01*
X224028000Y-117475000D01*
X224028000Y-116205000D01*
X224155000Y-116205000D01*
X224155000Y-115601750D01*
X225425000Y-115601750D01*
X225425000Y-116205000D01*
X226028250Y-116205000D01*
X226187000Y-116046250D01*
X226179574Y-115962734D01*
X226145028Y-115842515D01*
X226087693Y-115731346D01*
X226009771Y-115633498D01*
X225914257Y-115552732D01*
X225804821Y-115492153D01*
X225685670Y-115454086D01*
X225583750Y-115443000D01*
X225425000Y-115601750D01*
X224155000Y-115601750D01*
X224028000Y-115474750D01*
X224028000Y-114966998D01*
X223393000Y-114966998D01*
X223393000Y-116036089D01*
X223335120Y-115949465D01*
X223140535Y-115754880D01*
X222911727Y-115601995D01*
X222657490Y-115496686D01*
X222387592Y-115443000D01*
X222112408Y-115443000D01*
X221917339Y-115481802D01*
X221922999Y-115424334D01*
X221922999Y-115424324D01*
X221926675Y-115387001D01*
X221922999Y-115349678D01*
X221922999Y-108039324D01*
X222112408Y-108077000D01*
X222387592Y-108077000D01*
X222657490Y-108023314D01*
X222911727Y-107918005D01*
X223140535Y-107765120D01*
X223335120Y-107570535D01*
X223393000Y-107483911D01*
X223393000Y-108553002D01*
X224028000Y-108553002D01*
X224028000Y-108045250D01*
X224155000Y-107918250D01*
X224155000Y-107315000D01*
X225425000Y-107315000D01*
X225425000Y-107918250D01*
X225583750Y-108077000D01*
X225685670Y-108065914D01*
X225804821Y-108027847D01*
X225914257Y-107967268D01*
X226009771Y-107886502D01*
X226087693Y-107788654D01*
X226145028Y-107677485D01*
X226179574Y-107557266D01*
X226187000Y-107473750D01*
X226028250Y-107315000D01*
X225425000Y-107315000D01*
X224155000Y-107315000D01*
X224028000Y-107315000D01*
X224028000Y-106045000D01*
X224155000Y-106045000D01*
X224155000Y-105441750D01*
X225425000Y-105441750D01*
X225425000Y-106045000D01*
X226028250Y-106045000D01*
X226187000Y-105886250D01*
X226179574Y-105802734D01*
X226145028Y-105682515D01*
X226087693Y-105571346D01*
X226009771Y-105473498D01*
X225914257Y-105392732D01*
X225804821Y-105332153D01*
X225685670Y-105294086D01*
X225583750Y-105283000D01*
X225425000Y-105441750D01*
X224155000Y-105441750D01*
X224028000Y-105314750D01*
X224028000Y-104806998D01*
X223393000Y-104806998D01*
X223393000Y-105876089D01*
X223335120Y-105789465D01*
X223140535Y-105594880D01*
X222911727Y-105441995D01*
X222657490Y-105336686D01*
X222387592Y-105283000D01*
X222112408Y-105283000D01*
X221842510Y-105336686D01*
X221588273Y-105441995D01*
X221359465Y-105594880D01*
X221333954Y-105620391D01*
X216167566Y-100454003D01*
X216143763Y-100424999D01*
X216028038Y-100330026D01*
X215896009Y-100259454D01*
X215752748Y-100215997D01*
X215641095Y-100205000D01*
X215641084Y-100205000D01*
X215603762Y-100201324D01*
X215578604Y-100203802D01*
X215141262Y-99766460D01*
X215309727Y-99696680D01*
X215544759Y-99539637D01*
X215744637Y-99339759D01*
X215848043Y-99185000D01*
X221417678Y-99185000D01*
X221455000Y-99188676D01*
X221492322Y-99185000D01*
X221492333Y-99185000D01*
X221603986Y-99174003D01*
X221662350Y-99156299D01*
X221773088Y-99202168D01*
X222088967Y-99265000D01*
X222411033Y-99265000D01*
X222726912Y-99202168D01*
X223024463Y-99078918D01*
X223292252Y-98899987D01*
X223519987Y-98672252D01*
X223698918Y-98404463D01*
X223822168Y-98106912D01*
X223885000Y-97791033D01*
X223885000Y-97468967D01*
X223822168Y-97153088D01*
X223698918Y-96855537D01*
X223519987Y-96587748D01*
X223292252Y-96360013D01*
X223024463Y-96181082D01*
X222726912Y-96057832D01*
X222411033Y-95995000D01*
X222088967Y-95995000D01*
X221773088Y-96057832D01*
X221475537Y-96181082D01*
X221207748Y-96360013D01*
X220980013Y-96587748D01*
X220801082Y-96855537D01*
X220677832Y-97153088D01*
X220615000Y-97468967D01*
X220615000Y-97665000D01*
X215848043Y-97665000D01*
X215744637Y-97510241D01*
X215544759Y-97310363D01*
X215309727Y-97153320D01*
X215048574Y-97045147D01*
X214907625Y-97017110D01*
X214912205Y-97010256D01*
X214990226Y-96821898D01*
X215030000Y-96621939D01*
X215030000Y-96563910D01*
X215085032Y-96496853D01*
X215119975Y-96454276D01*
X215190547Y-96322246D01*
X215219210Y-96227754D01*
X215234004Y-96178985D01*
X215245001Y-96067332D01*
X215245001Y-96067323D01*
X215248677Y-96030000D01*
X215245001Y-95992677D01*
X215245001Y-88661750D01*
X220615000Y-88661750D01*
X220625734Y-88762013D01*
X220663483Y-88881264D01*
X220723772Y-88990860D01*
X220804284Y-89086588D01*
X220901924Y-89164770D01*
X221012941Y-89222401D01*
X221133067Y-89257266D01*
X221218250Y-89265000D01*
X221377000Y-89106250D01*
X221377000Y-88503000D01*
X223123000Y-88503000D01*
X223123000Y-89106250D01*
X223281750Y-89265000D01*
X223366933Y-89257266D01*
X223487059Y-89222401D01*
X223598076Y-89164770D01*
X223695716Y-89086588D01*
X223776228Y-88990860D01*
X223836517Y-88881264D01*
X223874266Y-88762013D01*
X223885000Y-88661750D01*
X223726250Y-88503000D01*
X223123000Y-88503000D01*
X221377000Y-88503000D01*
X220773750Y-88503000D01*
X220615000Y-88661750D01*
X215245001Y-88661750D01*
X215245001Y-86598250D01*
X220615000Y-86598250D01*
X220773750Y-86757000D01*
X221377000Y-86757000D01*
X221377000Y-86153750D01*
X223123000Y-86153750D01*
X223123000Y-86757000D01*
X223726250Y-86757000D01*
X223885000Y-86598250D01*
X223874266Y-86497987D01*
X223836517Y-86378736D01*
X223776228Y-86269140D01*
X223695716Y-86173412D01*
X223598076Y-86095230D01*
X223487059Y-86037599D01*
X223366933Y-86002734D01*
X223281750Y-85995000D01*
X223123000Y-86153750D01*
X221377000Y-86153750D01*
X221218250Y-85995000D01*
X221133067Y-86002734D01*
X221012941Y-86037599D01*
X220901924Y-86095230D01*
X220804284Y-86173412D01*
X220723772Y-86269140D01*
X220663483Y-86378736D01*
X220625734Y-86497987D01*
X220615000Y-86598250D01*
X215245001Y-86598250D01*
X215245001Y-80518000D01*
X215769928Y-80518000D01*
X215769928Y-82042000D01*
X215782188Y-82166482D01*
X215818498Y-82286180D01*
X215877463Y-82396494D01*
X215956815Y-82493185D01*
X216053506Y-82572537D01*
X216163820Y-82631502D01*
X216283518Y-82667812D01*
X216408000Y-82680072D01*
X217932000Y-82680072D01*
X218056482Y-82667812D01*
X218176180Y-82631502D01*
X218286494Y-82572537D01*
X218383185Y-82493185D01*
X218462537Y-82396494D01*
X218521502Y-82286180D01*
X218557812Y-82166482D01*
X218566080Y-82082535D01*
X218624880Y-82170535D01*
X218819465Y-82365120D01*
X219048273Y-82518005D01*
X219302510Y-82623314D01*
X219572408Y-82677000D01*
X219847592Y-82677000D01*
X220117490Y-82623314D01*
X220371727Y-82518005D01*
X220419248Y-82486252D01*
X221941774Y-82486252D01*
X222027863Y-82666071D01*
X222302541Y-82682775D01*
X222472137Y-82666071D01*
X222558226Y-82486252D01*
X222250000Y-82178026D01*
X221941774Y-82486252D01*
X220419248Y-82486252D01*
X220600535Y-82365120D01*
X220795120Y-82170535D01*
X220948005Y-81941727D01*
X221053314Y-81687490D01*
X221080337Y-81551637D01*
X221351974Y-81280000D01*
X223148026Y-81280000D01*
X223419663Y-81551637D01*
X223446686Y-81687490D01*
X223551995Y-81941727D01*
X223704880Y-82170535D01*
X223899465Y-82365120D01*
X224128273Y-82518005D01*
X224382510Y-82623314D01*
X224652408Y-82677000D01*
X224927592Y-82677000D01*
X225197490Y-82623314D01*
X225451727Y-82518005D01*
X225680535Y-82365120D01*
X225875120Y-82170535D01*
X226028005Y-81941727D01*
X226133314Y-81687490D01*
X226187000Y-81417592D01*
X226187000Y-81142408D01*
X226133314Y-80872510D01*
X226028005Y-80618273D01*
X225875120Y-80389465D01*
X225680535Y-80194880D01*
X225451727Y-80041995D01*
X225197490Y-79936686D01*
X224927592Y-79883000D01*
X224652408Y-79883000D01*
X224382510Y-79936686D01*
X224128273Y-80041995D01*
X223899465Y-80194880D01*
X223704880Y-80389465D01*
X223551995Y-80618273D01*
X223446686Y-80872510D01*
X223419663Y-81008363D01*
X223148026Y-81280000D01*
X221351974Y-81280000D01*
X221080337Y-81008363D01*
X221053314Y-80872510D01*
X220948005Y-80618273D01*
X220795120Y-80389465D01*
X220600535Y-80194880D01*
X220419249Y-80073748D01*
X221941774Y-80073748D01*
X222250000Y-80381974D01*
X222558226Y-80073748D01*
X222472137Y-79893929D01*
X222197459Y-79877225D01*
X222027863Y-79893929D01*
X221941774Y-80073748D01*
X220419249Y-80073748D01*
X220371727Y-80041995D01*
X220117490Y-79936686D01*
X219847592Y-79883000D01*
X219572408Y-79883000D01*
X219302510Y-79936686D01*
X219048273Y-80041995D01*
X218819465Y-80194880D01*
X218624880Y-80389465D01*
X218566080Y-80477465D01*
X218557812Y-80393518D01*
X218521502Y-80273820D01*
X218462537Y-80163506D01*
X218383185Y-80066815D01*
X218286494Y-79987463D01*
X218176180Y-79928498D01*
X218056482Y-79892188D01*
X217932000Y-79879928D01*
X216408000Y-79879928D01*
X216283518Y-79892188D01*
X216163820Y-79928498D01*
X216053506Y-79987463D01*
X215956815Y-80066815D01*
X215877463Y-80163506D01*
X215818498Y-80273820D01*
X215782188Y-80393518D01*
X215769928Y-80518000D01*
X215245001Y-80518000D01*
X215245001Y-79902324D01*
X215248677Y-79865001D01*
X215245001Y-79827678D01*
X215245001Y-79827668D01*
X215234004Y-79716015D01*
X215190547Y-79572754D01*
X215119975Y-79440725D01*
X215025002Y-79325000D01*
X214996003Y-79301202D01*
X214712500Y-79017698D01*
X214712500Y-78955561D01*
X214672726Y-78755602D01*
X214594705Y-78567244D01*
X214481437Y-78397726D01*
X214337274Y-78253563D01*
X214167756Y-78140295D01*
X213979398Y-78062274D01*
X213779439Y-78022500D01*
X213600615Y-78022500D01*
X213642205Y-77960256D01*
X213720226Y-77771898D01*
X213760000Y-77571939D01*
X213760000Y-77368061D01*
X213720226Y-77168102D01*
X213642205Y-76979744D01*
X213528937Y-76810226D01*
X213384774Y-76666063D01*
X213215256Y-76552795D01*
X213026898Y-76474774D01*
X212916908Y-76452896D01*
X213871004Y-75498800D01*
X213900001Y-75475003D01*
X213944931Y-75420256D01*
X213994974Y-75359279D01*
X214065546Y-75227249D01*
X214070109Y-75212205D01*
X214109003Y-75083988D01*
X214120000Y-74972335D01*
X214120000Y-74972326D01*
X214123676Y-74935003D01*
X214120000Y-74897680D01*
X214120000Y-73728313D01*
X214338505Y-73582312D01*
X214404944Y-73515873D01*
X214410498Y-73534180D01*
X214469463Y-73644494D01*
X214548815Y-73741185D01*
X214645506Y-73820537D01*
X214755820Y-73879502D01*
X214875518Y-73915812D01*
X215000000Y-73928072D01*
X216800000Y-73928072D01*
X216924482Y-73915812D01*
X217044180Y-73879502D01*
X217154494Y-73820537D01*
X217251185Y-73741185D01*
X217330537Y-73644494D01*
X217389502Y-73534180D01*
X217425812Y-73414482D01*
X217438072Y-73290000D01*
X217438072Y-73150000D01*
X218491957Y-73150000D01*
X218595363Y-73304759D01*
X218795241Y-73504637D01*
X219030273Y-73661680D01*
X219291426Y-73769853D01*
X219568665Y-73825000D01*
X219851335Y-73825000D01*
X220128574Y-73769853D01*
X220389727Y-73661680D01*
X220624759Y-73504637D01*
X220824637Y-73304759D01*
X220981680Y-73069727D01*
X221089853Y-72808574D01*
X221145000Y-72531335D01*
X221145000Y-72248665D01*
X225895000Y-72248665D01*
X225895000Y-72531335D01*
X225950147Y-72808574D01*
X226058320Y-73069727D01*
X226215363Y-73304759D01*
X226415241Y-73504637D01*
X226650273Y-73661680D01*
X226911426Y-73769853D01*
X227188665Y-73825000D01*
X227471335Y-73825000D01*
X227748574Y-73769853D01*
X228009727Y-73661680D01*
X228244759Y-73504637D01*
X228444637Y-73304759D01*
X228601680Y-73069727D01*
X228709853Y-72808574D01*
X228765000Y-72531335D01*
X228765000Y-72248665D01*
X228709853Y-71971426D01*
X228601680Y-71710273D01*
X228444637Y-71475241D01*
X228244759Y-71275363D01*
X228009727Y-71118320D01*
X227748574Y-71010147D01*
X227471335Y-70955000D01*
X227188665Y-70955000D01*
X226911426Y-71010147D01*
X226650273Y-71118320D01*
X226415241Y-71275363D01*
X226215363Y-71475241D01*
X226058320Y-71710273D01*
X225950147Y-71971426D01*
X225895000Y-72248665D01*
X221145000Y-72248665D01*
X221089853Y-71971426D01*
X220981680Y-71710273D01*
X220824637Y-71475241D01*
X220624759Y-71275363D01*
X220389727Y-71118320D01*
X220128574Y-71010147D01*
X219851335Y-70955000D01*
X219568665Y-70955000D01*
X219291426Y-71010147D01*
X219030273Y-71118320D01*
X218795241Y-71275363D01*
X218595363Y-71475241D01*
X218491957Y-71630000D01*
X217438072Y-71630000D01*
X217438072Y-71490000D01*
X217425812Y-71365518D01*
X217389502Y-71245820D01*
X217330537Y-71135506D01*
X217251185Y-71038815D01*
X217154494Y-70959463D01*
X217044180Y-70900498D01*
X216924482Y-70864188D01*
X216800000Y-70851928D01*
X215000000Y-70851928D01*
X214875518Y-70864188D01*
X214755820Y-70900498D01*
X214645506Y-70959463D01*
X214548815Y-71038815D01*
X214469463Y-71135506D01*
X214410498Y-71245820D01*
X214404944Y-71264127D01*
X214338505Y-71197688D01*
X214087095Y-71029701D01*
X213807743Y-70913989D01*
X213511184Y-70855000D01*
X213208816Y-70855000D01*
X212912257Y-70913989D01*
X212632905Y-71029701D01*
X212381495Y-71197688D01*
X212167688Y-71411495D01*
X211999701Y-71662905D01*
X211883989Y-71942257D01*
X211825000Y-72238816D01*
X211825000Y-72541184D01*
X211883989Y-72837743D01*
X211999701Y-73117095D01*
X212025485Y-73155683D01*
X210815696Y-71945895D01*
X210911479Y-71802546D01*
X210937321Y-71800001D01*
X210937332Y-71800001D01*
X211048985Y-71789004D01*
X211192246Y-71745547D01*
X211324275Y-71674975D01*
X211440000Y-71580002D01*
X211463803Y-71550998D01*
X212951070Y-70063731D01*
X213208816Y-70115000D01*
X213511184Y-70115000D01*
X213807743Y-70056011D01*
X214087095Y-69940299D01*
X214338505Y-69772312D01*
X214404944Y-69705873D01*
X214410498Y-69724180D01*
X214469463Y-69834494D01*
X214548815Y-69931185D01*
X214645506Y-70010537D01*
X214755820Y-70069502D01*
X214875518Y-70105812D01*
X215000000Y-70118072D01*
X216800000Y-70118072D01*
X216924482Y-70105812D01*
X217044180Y-70069502D01*
X217154494Y-70010537D01*
X217251185Y-69931185D01*
X217330537Y-69834494D01*
X217389502Y-69724180D01*
X217425812Y-69604482D01*
X217438072Y-69480000D01*
X217438072Y-69340000D01*
X218491957Y-69340000D01*
X218595363Y-69494759D01*
X218795241Y-69694637D01*
X219030273Y-69851680D01*
X219291426Y-69959853D01*
X219568665Y-70015000D01*
X219851335Y-70015000D01*
X220128574Y-69959853D01*
X220389727Y-69851680D01*
X220624759Y-69694637D01*
X220824637Y-69494759D01*
X220981680Y-69259727D01*
X221089853Y-68998574D01*
X221145000Y-68721335D01*
X221145000Y-68438665D01*
X225895000Y-68438665D01*
X225895000Y-68721335D01*
X225950147Y-68998574D01*
X226058320Y-69259727D01*
X226215363Y-69494759D01*
X226415241Y-69694637D01*
X226650273Y-69851680D01*
X226911426Y-69959853D01*
X227188665Y-70015000D01*
X227471335Y-70015000D01*
X227748574Y-69959853D01*
X228009727Y-69851680D01*
X228244759Y-69694637D01*
X228444637Y-69494759D01*
X228601680Y-69259727D01*
X228709853Y-68998574D01*
X228765000Y-68721335D01*
X228765000Y-68438665D01*
X228709853Y-68161426D01*
X228601680Y-67900273D01*
X228444637Y-67665241D01*
X228244759Y-67465363D01*
X228009727Y-67308320D01*
X227748574Y-67200147D01*
X227471335Y-67145000D01*
X227188665Y-67145000D01*
X226911426Y-67200147D01*
X226650273Y-67308320D01*
X226415241Y-67465363D01*
X226215363Y-67665241D01*
X226058320Y-67900273D01*
X225950147Y-68161426D01*
X225895000Y-68438665D01*
X221145000Y-68438665D01*
X221089853Y-68161426D01*
X220981680Y-67900273D01*
X220824637Y-67665241D01*
X220624759Y-67465363D01*
X220389727Y-67308320D01*
X220128574Y-67200147D01*
X219851335Y-67145000D01*
X219568665Y-67145000D01*
X219291426Y-67200147D01*
X219030273Y-67308320D01*
X218795241Y-67465363D01*
X218595363Y-67665241D01*
X218491957Y-67820000D01*
X217438072Y-67820000D01*
X217438072Y-67680000D01*
X217425812Y-67555518D01*
X217389502Y-67435820D01*
X217330537Y-67325506D01*
X217251185Y-67228815D01*
X217154494Y-67149463D01*
X217044180Y-67090498D01*
X216924482Y-67054188D01*
X216800000Y-67041928D01*
X215000000Y-67041928D01*
X214875518Y-67054188D01*
X214755820Y-67090498D01*
X214645506Y-67149463D01*
X214548815Y-67228815D01*
X214469463Y-67325506D01*
X214410498Y-67435820D01*
X214404944Y-67454127D01*
X214338505Y-67387688D01*
X214087095Y-67219701D01*
X213807743Y-67103989D01*
X213511184Y-67045000D01*
X213208816Y-67045000D01*
X212912257Y-67103989D01*
X212632905Y-67219701D01*
X212381495Y-67387688D01*
X212167688Y-67601495D01*
X211999701Y-67852905D01*
X211883989Y-68132257D01*
X211825000Y-68428816D01*
X211825000Y-68731184D01*
X211876269Y-68988930D01*
X210780153Y-70085046D01*
X210581633Y-69886526D01*
X210407241Y-69770001D01*
X210581633Y-69653476D01*
X210788476Y-69446633D01*
X210950991Y-69203412D01*
X211062933Y-68933159D01*
X211120001Y-68646261D01*
X211120001Y-68353741D01*
X211076210Y-68133593D01*
X212955242Y-66254561D01*
X213208816Y-66305000D01*
X213511184Y-66305000D01*
X213807743Y-66246011D01*
X214087095Y-66130299D01*
X214338505Y-65962312D01*
X214404944Y-65895873D01*
X214410498Y-65914180D01*
X214469463Y-66024494D01*
X214548815Y-66121185D01*
X214645506Y-66200537D01*
X214755820Y-66259502D01*
X214875518Y-66295812D01*
X215000000Y-66308072D01*
X216800000Y-66308072D01*
X216924482Y-66295812D01*
X217044180Y-66259502D01*
X217154494Y-66200537D01*
X217251185Y-66121185D01*
X217330537Y-66024494D01*
X217389502Y-65914180D01*
X217425812Y-65794482D01*
X217438072Y-65670000D01*
X217438072Y-65530000D01*
X218491957Y-65530000D01*
X218595363Y-65684759D01*
X218795241Y-65884637D01*
X219030273Y-66041680D01*
X219291426Y-66149853D01*
X219568665Y-66205000D01*
X219851335Y-66205000D01*
X220128574Y-66149853D01*
X220389727Y-66041680D01*
X220624759Y-65884637D01*
X220824637Y-65684759D01*
X220981680Y-65449727D01*
X221089853Y-65188574D01*
X221145000Y-64911335D01*
X221145000Y-64628665D01*
X225895000Y-64628665D01*
X225895000Y-64911335D01*
X225950147Y-65188574D01*
X226058320Y-65449727D01*
X226215363Y-65684759D01*
X226415241Y-65884637D01*
X226650273Y-66041680D01*
X226911426Y-66149853D01*
X227188665Y-66205000D01*
X227471335Y-66205000D01*
X227748574Y-66149853D01*
X228009727Y-66041680D01*
X228244759Y-65884637D01*
X228444637Y-65684759D01*
X228601680Y-65449727D01*
X228709853Y-65188574D01*
X228765000Y-64911335D01*
X228765000Y-64628665D01*
X228709853Y-64351426D01*
X228601680Y-64090273D01*
X228444637Y-63855241D01*
X228244759Y-63655363D01*
X228009727Y-63498320D01*
X227748574Y-63390147D01*
X227471335Y-63335000D01*
X227188665Y-63335000D01*
X226911426Y-63390147D01*
X226650273Y-63498320D01*
X226415241Y-63655363D01*
X226215363Y-63855241D01*
X226058320Y-64090273D01*
X225950147Y-64351426D01*
X225895000Y-64628665D01*
X221145000Y-64628665D01*
X221089853Y-64351426D01*
X220981680Y-64090273D01*
X220824637Y-63855241D01*
X220624759Y-63655363D01*
X220389727Y-63498320D01*
X220128574Y-63390147D01*
X219851335Y-63335000D01*
X219568665Y-63335000D01*
X219291426Y-63390147D01*
X219030273Y-63498320D01*
X218795241Y-63655363D01*
X218595363Y-63855241D01*
X218491957Y-64010000D01*
X217438072Y-64010000D01*
X217438072Y-63870000D01*
X217425812Y-63745518D01*
X217389502Y-63625820D01*
X217330537Y-63515506D01*
X217251185Y-63418815D01*
X217154494Y-63339463D01*
X217044180Y-63280498D01*
X216924482Y-63244188D01*
X216800000Y-63231928D01*
X215000000Y-63231928D01*
X214875518Y-63244188D01*
X214755820Y-63280498D01*
X214645506Y-63339463D01*
X214548815Y-63418815D01*
X214469463Y-63515506D01*
X214410498Y-63625820D01*
X214404944Y-63644127D01*
X214338505Y-63577688D01*
X214087095Y-63409701D01*
X213807743Y-63293989D01*
X213511184Y-63235000D01*
X213208816Y-63235000D01*
X212912257Y-63293989D01*
X212632905Y-63409701D01*
X212381495Y-63577688D01*
X212167688Y-63791495D01*
X211999701Y-64042905D01*
X211883989Y-64322257D01*
X211825000Y-64618816D01*
X211825000Y-64921184D01*
X211877098Y-65183102D01*
X211120001Y-65940199D01*
X211120001Y-65813741D01*
X211062933Y-65526843D01*
X210950991Y-65256590D01*
X210788476Y-65013369D01*
X210581633Y-64806526D01*
X210407241Y-64690001D01*
X210581633Y-64573476D01*
X210788476Y-64366633D01*
X210950991Y-64123412D01*
X211062933Y-63853159D01*
X211120001Y-63566261D01*
X211120001Y-63273741D01*
X211062933Y-62986843D01*
X210950991Y-62716590D01*
X210788476Y-62473369D01*
X210581633Y-62266526D01*
X210407241Y-62150001D01*
X210581633Y-62033476D01*
X210788476Y-61826633D01*
X210913179Y-61640001D01*
X211980194Y-61640001D01*
X211999701Y-61687095D01*
X212167688Y-61938505D01*
X212381495Y-62152312D01*
X212632905Y-62320299D01*
X212912257Y-62436011D01*
X213208816Y-62495000D01*
X213511184Y-62495000D01*
X213807743Y-62436011D01*
X214087095Y-62320299D01*
X214338505Y-62152312D01*
X214404944Y-62085873D01*
X214410498Y-62104180D01*
X214469463Y-62214494D01*
X214548815Y-62311185D01*
X214645506Y-62390537D01*
X214755820Y-62449502D01*
X214875518Y-62485812D01*
X215000000Y-62498072D01*
X216800000Y-62498072D01*
X216924482Y-62485812D01*
X217044180Y-62449502D01*
X217154494Y-62390537D01*
X217251185Y-62311185D01*
X217330537Y-62214494D01*
X217389502Y-62104180D01*
X217425812Y-61984482D01*
X217438072Y-61860000D01*
X217438072Y-61720000D01*
X218491957Y-61720000D01*
X218595363Y-61874759D01*
X218795241Y-62074637D01*
X219030273Y-62231680D01*
X219291426Y-62339853D01*
X219568665Y-62395000D01*
X219851335Y-62395000D01*
X220128574Y-62339853D01*
X220389727Y-62231680D01*
X220624759Y-62074637D01*
X220824637Y-61874759D01*
X220981680Y-61639727D01*
X221089853Y-61378574D01*
X221145000Y-61101335D01*
X221145000Y-60818665D01*
X225895000Y-60818665D01*
X225895000Y-61101335D01*
X225950147Y-61378574D01*
X226058320Y-61639727D01*
X226215363Y-61874759D01*
X226415241Y-62074637D01*
X226650273Y-62231680D01*
X226911426Y-62339853D01*
X227188665Y-62395000D01*
X227471335Y-62395000D01*
X227748574Y-62339853D01*
X228009727Y-62231680D01*
X228244759Y-62074637D01*
X228444637Y-61874759D01*
X228601680Y-61639727D01*
X228709853Y-61378574D01*
X228765000Y-61101335D01*
X228765000Y-60818665D01*
X228709853Y-60541426D01*
X228601680Y-60280273D01*
X228444637Y-60045241D01*
X228244759Y-59845363D01*
X228009727Y-59688320D01*
X227748574Y-59580147D01*
X227471335Y-59525000D01*
X227188665Y-59525000D01*
X226911426Y-59580147D01*
X226650273Y-59688320D01*
X226415241Y-59845363D01*
X226215363Y-60045241D01*
X226058320Y-60280273D01*
X225950147Y-60541426D01*
X225895000Y-60818665D01*
X221145000Y-60818665D01*
X221089853Y-60541426D01*
X220981680Y-60280273D01*
X220824637Y-60045241D01*
X220624759Y-59845363D01*
X220389727Y-59688320D01*
X220128574Y-59580147D01*
X219851335Y-59525000D01*
X219568665Y-59525000D01*
X219291426Y-59580147D01*
X219030273Y-59688320D01*
X218795241Y-59845363D01*
X218595363Y-60045241D01*
X218491957Y-60200000D01*
X217438072Y-60200000D01*
X217438072Y-60060000D01*
X217425812Y-59935518D01*
X217389502Y-59815820D01*
X217330537Y-59705506D01*
X217251185Y-59608815D01*
X217154494Y-59529463D01*
X217044180Y-59470498D01*
X216924482Y-59434188D01*
X216800000Y-59421928D01*
X215000000Y-59421928D01*
X214875518Y-59434188D01*
X214755820Y-59470498D01*
X214645506Y-59529463D01*
X214548815Y-59608815D01*
X214469463Y-59705506D01*
X214410498Y-59815820D01*
X214404944Y-59834127D01*
X214338505Y-59767688D01*
X214087095Y-59599701D01*
X213807743Y-59483989D01*
X213511184Y-59425000D01*
X213208816Y-59425000D01*
X212912257Y-59483989D01*
X212632905Y-59599701D01*
X212381495Y-59767688D01*
X212167688Y-59981495D01*
X212075141Y-60120001D01*
X210913179Y-60120001D01*
X210788476Y-59933369D01*
X210581633Y-59726526D01*
X210407241Y-59610001D01*
X210581633Y-59493476D01*
X210788476Y-59286633D01*
X210950991Y-59043412D01*
X211062933Y-58773159D01*
X211120001Y-58486261D01*
X211120001Y-58193741D01*
X211062933Y-57906843D01*
X210950991Y-57636590D01*
X210788476Y-57393369D01*
X210581633Y-57186526D01*
X210407241Y-57070001D01*
X210581633Y-56953476D01*
X210788476Y-56746633D01*
X210950991Y-56503412D01*
X211062933Y-56233159D01*
X211120001Y-55946261D01*
X211120001Y-55653741D01*
X211062933Y-55366843D01*
X210950991Y-55096590D01*
X210788476Y-54853369D01*
X210581633Y-54646526D01*
X210407241Y-54530001D01*
X210493435Y-54472408D01*
X215773000Y-54472408D01*
X215773000Y-54747592D01*
X215826686Y-55017490D01*
X215931995Y-55271727D01*
X216084880Y-55500535D01*
X216279465Y-55695120D01*
X216508273Y-55848005D01*
X216762510Y-55953314D01*
X217032408Y-56007000D01*
X217307592Y-56007000D01*
X217577490Y-55953314D01*
X217831727Y-55848005D01*
X218060535Y-55695120D01*
X218255120Y-55500535D01*
X218408005Y-55271727D01*
X218440000Y-55194485D01*
X218471995Y-55271727D01*
X218624880Y-55500535D01*
X218819465Y-55695120D01*
X219048273Y-55848005D01*
X219302510Y-55953314D01*
X219572408Y-56007000D01*
X219847592Y-56007000D01*
X220117490Y-55953314D01*
X220371727Y-55848005D01*
X220419248Y-55816252D01*
X221941774Y-55816252D01*
X222027863Y-55996071D01*
X222302541Y-56012775D01*
X222472137Y-55996071D01*
X222558226Y-55816252D01*
X222250000Y-55508026D01*
X221941774Y-55816252D01*
X220419248Y-55816252D01*
X220600535Y-55695120D01*
X220795120Y-55500535D01*
X220948005Y-55271727D01*
X221053314Y-55017490D01*
X221080337Y-54881637D01*
X221351974Y-54610000D01*
X223148026Y-54610000D01*
X223389928Y-54851902D01*
X223389928Y-55372000D01*
X223402188Y-55496482D01*
X223438498Y-55616180D01*
X223497463Y-55726494D01*
X223576815Y-55823185D01*
X223673506Y-55902537D01*
X223783820Y-55961502D01*
X223903518Y-55997812D01*
X224028000Y-56010072D01*
X225552000Y-56010072D01*
X225676482Y-55997812D01*
X225796180Y-55961502D01*
X225906494Y-55902537D01*
X226003185Y-55823185D01*
X226082537Y-55726494D01*
X226141502Y-55616180D01*
X226177812Y-55496482D01*
X226190072Y-55372000D01*
X226190072Y-53848000D01*
X226177812Y-53723518D01*
X226141502Y-53603820D01*
X226082537Y-53493506D01*
X226003185Y-53396815D01*
X225906494Y-53317463D01*
X225796180Y-53258498D01*
X225676482Y-53222188D01*
X225552000Y-53209928D01*
X224028000Y-53209928D01*
X223903518Y-53222188D01*
X223783820Y-53258498D01*
X223673506Y-53317463D01*
X223576815Y-53396815D01*
X223497463Y-53493506D01*
X223438498Y-53603820D01*
X223402188Y-53723518D01*
X223389928Y-53848000D01*
X223389928Y-54368098D01*
X223148026Y-54610000D01*
X221351974Y-54610000D01*
X221080337Y-54338363D01*
X221053314Y-54202510D01*
X220948005Y-53948273D01*
X220795120Y-53719465D01*
X220600535Y-53524880D01*
X220419249Y-53403748D01*
X221941774Y-53403748D01*
X222250000Y-53711974D01*
X222558226Y-53403748D01*
X222472137Y-53223929D01*
X222197459Y-53207225D01*
X222027863Y-53223929D01*
X221941774Y-53403748D01*
X220419249Y-53403748D01*
X220371727Y-53371995D01*
X220117490Y-53266686D01*
X219847592Y-53213000D01*
X219572408Y-53213000D01*
X219302510Y-53266686D01*
X219048273Y-53371995D01*
X218819465Y-53524880D01*
X218624880Y-53719465D01*
X218471995Y-53948273D01*
X218440000Y-54025515D01*
X218408005Y-53948273D01*
X218255120Y-53719465D01*
X218060535Y-53524880D01*
X217831727Y-53371995D01*
X217577490Y-53266686D01*
X217307592Y-53213000D01*
X217032408Y-53213000D01*
X216762510Y-53266686D01*
X216508273Y-53371995D01*
X216279465Y-53524880D01*
X216084880Y-53719465D01*
X215931995Y-53948273D01*
X215826686Y-54202510D01*
X215773000Y-54472408D01*
X210493435Y-54472408D01*
X210581633Y-54413476D01*
X210788476Y-54206633D01*
X210950991Y-53963412D01*
X211062933Y-53693159D01*
X211120001Y-53406261D01*
X211120001Y-53113741D01*
X211062933Y-52826843D01*
X210966074Y-52593003D01*
X211120001Y-52593003D01*
X211120001Y-52205001D01*
X211508003Y-52205001D01*
X211508003Y-51570001D01*
X211120001Y-51570001D01*
X211120001Y-51015001D01*
X212400679Y-51015001D01*
X212438001Y-51018677D01*
X212475323Y-51015001D01*
X212475334Y-51015001D01*
X212586987Y-51004004D01*
X212730248Y-50960547D01*
X212862277Y-50889975D01*
X212978002Y-50795002D01*
X213001805Y-50765998D01*
X213325998Y-50441805D01*
X213355002Y-50418002D01*
X213449975Y-50302277D01*
X213520547Y-50170248D01*
X213564004Y-50026987D01*
X213575001Y-49915334D01*
X213578678Y-49878001D01*
X213575001Y-49840668D01*
X213575001Y-49053750D01*
X214503000Y-49053750D01*
X214510426Y-49137266D01*
X214544972Y-49257485D01*
X214602307Y-49368654D01*
X214680229Y-49466502D01*
X214775743Y-49547268D01*
X214885179Y-49607847D01*
X215004330Y-49645914D01*
X215106250Y-49657000D01*
X215265000Y-49498250D01*
X215265000Y-48895000D01*
X214661750Y-48895000D01*
X214503000Y-49053750D01*
X213575001Y-49053750D01*
X213575001Y-47466250D01*
X214503000Y-47466250D01*
X214661750Y-47625000D01*
X215265000Y-47625000D01*
X215265000Y-47021750D01*
X216535000Y-47021750D01*
X216535000Y-47625000D01*
X216662000Y-47625000D01*
X216662000Y-48895000D01*
X216535000Y-48895000D01*
X216535000Y-49498250D01*
X216662000Y-49625250D01*
X216662000Y-50133002D01*
X217297000Y-50133002D01*
X217297000Y-49063911D01*
X217354880Y-49150535D01*
X217549465Y-49345120D01*
X217778273Y-49498005D01*
X218032510Y-49603314D01*
X218302408Y-49657000D01*
X218577592Y-49657000D01*
X218847490Y-49603314D01*
X219101727Y-49498005D01*
X219330535Y-49345120D01*
X219525120Y-49150535D01*
X219678005Y-48921727D01*
X219710000Y-48844485D01*
X219741995Y-48921727D01*
X219894880Y-49150535D01*
X220089465Y-49345120D01*
X220318273Y-49498005D01*
X220572510Y-49603314D01*
X220842408Y-49657000D01*
X221117592Y-49657000D01*
X221387490Y-49603314D01*
X221641727Y-49498005D01*
X221870535Y-49345120D01*
X222065120Y-49150535D01*
X222218005Y-48921727D01*
X222323314Y-48667490D01*
X222377000Y-48397592D01*
X222377000Y-48122408D01*
X222323314Y-47852510D01*
X222218005Y-47598273D01*
X222065120Y-47369465D01*
X221870535Y-47174880D01*
X221641727Y-47021995D01*
X221387490Y-46916686D01*
X221117592Y-46863000D01*
X220842408Y-46863000D01*
X220572510Y-46916686D01*
X220318273Y-47021995D01*
X220089465Y-47174880D01*
X219894880Y-47369465D01*
X219741995Y-47598273D01*
X219710000Y-47675515D01*
X219678005Y-47598273D01*
X219525120Y-47369465D01*
X219330535Y-47174880D01*
X219101727Y-47021995D01*
X218847490Y-46916686D01*
X218577592Y-46863000D01*
X218302408Y-46863000D01*
X218032510Y-46916686D01*
X217778273Y-47021995D01*
X217549465Y-47174880D01*
X217354880Y-47369465D01*
X217297000Y-47456089D01*
X217297000Y-46386998D01*
X216662000Y-46386998D01*
X216662000Y-46894750D01*
X216535000Y-47021750D01*
X215265000Y-47021750D01*
X215106250Y-46863000D01*
X215004330Y-46874086D01*
X214885179Y-46912153D01*
X214775743Y-46972732D01*
X214680229Y-47053498D01*
X214602307Y-47151346D01*
X214544972Y-47262515D01*
X214510426Y-47382734D01*
X214503000Y-47466250D01*
X213575001Y-47466250D01*
X213575001Y-43395912D01*
X213578677Y-43358589D01*
X213575001Y-43321266D01*
X213575001Y-43321256D01*
X213564004Y-43209603D01*
X213520547Y-43066342D01*
X213449975Y-42934313D01*
X213355002Y-42818588D01*
X213326005Y-42794791D01*
X209943190Y-39411977D01*
X209919392Y-39382979D01*
X209887308Y-39356648D01*
X209803668Y-39288006D01*
X209671638Y-39217434D01*
X209528377Y-39173977D01*
X209416724Y-39162980D01*
X209416714Y-39162980D01*
X209379392Y-39159304D01*
X209342070Y-39162980D01*
X145542000Y-39162981D01*
X145542000Y-38760000D01*
X224028000Y-38760000D01*
X224028000Y-46355000D01*
G37*
G04 #@! TD.AperFunction*
D26*
X201170001Y-46671213D02*
X201170000Y-73697332D01*
X201170001Y-73697342D01*
X201170001Y-74025988D01*
X201150256Y-74012795D01*
X200961898Y-73934774D01*
X200761939Y-73895000D01*
X200558061Y-73895000D01*
X200358102Y-73934774D01*
X200169744Y-74012795D01*
X200000226Y-74126063D01*
X199956289Y-74170000D01*
X149986103Y-74170000D01*
X150017932Y-74093158D01*
X150075000Y-73806260D01*
X150075000Y-73513740D01*
X150017932Y-73226842D01*
X149905990Y-72956589D01*
X149743475Y-72713368D01*
X149536632Y-72506525D01*
X149362240Y-72390000D01*
X149536632Y-72273475D01*
X149743475Y-72066632D01*
X149905990Y-71823411D01*
X150017932Y-71553158D01*
X150075000Y-71266260D01*
X150075000Y-70973740D01*
X150017932Y-70686842D01*
X149905990Y-70416589D01*
X149743475Y-70173368D01*
X149536632Y-69966525D01*
X149362240Y-69850000D01*
X149536632Y-69733475D01*
X149743475Y-69526632D01*
X149905990Y-69283411D01*
X150017932Y-69013158D01*
X150075000Y-68726260D01*
X150075000Y-68433740D01*
X150017932Y-68146842D01*
X149905990Y-67876589D01*
X149743475Y-67633368D01*
X149536632Y-67426525D01*
X149362240Y-67310000D01*
X149536632Y-67193475D01*
X149743475Y-66986632D01*
X149905990Y-66743411D01*
X150017932Y-66473158D01*
X150075000Y-66186260D01*
X150075000Y-65893740D01*
X150017932Y-65606842D01*
X149905990Y-65336589D01*
X149743475Y-65093368D01*
X149635107Y-64985000D01*
X150463002Y-64985000D01*
X150463002Y-64350000D01*
X149738631Y-64350000D01*
X149701850Y-64223000D01*
X149313000Y-64223000D01*
X149313000Y-64350000D01*
X147867000Y-64350000D01*
X147867000Y-64223000D01*
X147740000Y-64223000D01*
X147740000Y-62777000D01*
X147867000Y-62777000D01*
X147867000Y-62650000D01*
X149313000Y-62650000D01*
X149313000Y-62777000D01*
X149701850Y-62777000D01*
X149738631Y-62650000D01*
X150463002Y-62650000D01*
X150463002Y-62015000D01*
X149635107Y-62015000D01*
X149743475Y-61906632D01*
X149905990Y-61663411D01*
X150017932Y-61393158D01*
X150075000Y-61106260D01*
X150075000Y-60813740D01*
X150017932Y-60526842D01*
X149905990Y-60256589D01*
X149743475Y-60013368D01*
X149536632Y-59806525D01*
X149362240Y-59690000D01*
X149536632Y-59573475D01*
X149743475Y-59366632D01*
X149905990Y-59123411D01*
X150017932Y-58853158D01*
X150075000Y-58566260D01*
X150075000Y-58273740D01*
X150017932Y-57986842D01*
X149905990Y-57716589D01*
X149743475Y-57473368D01*
X149536632Y-57266525D01*
X149362240Y-57150000D01*
X149536632Y-57033475D01*
X149743475Y-56826632D01*
X149905990Y-56583411D01*
X150017932Y-56313158D01*
X150075000Y-56026260D01*
X150075000Y-55733740D01*
X150017932Y-55446842D01*
X149905990Y-55176589D01*
X149743475Y-54933368D01*
X149536632Y-54726525D01*
X149362240Y-54610000D01*
X149536632Y-54493475D01*
X149743475Y-54286632D01*
X149905990Y-54043411D01*
X150017932Y-53773158D01*
X150075000Y-53486260D01*
X150075000Y-53193740D01*
X150017932Y-52906842D01*
X149905990Y-52636589D01*
X149743475Y-52393368D01*
X149536632Y-52186525D01*
X149362240Y-52070000D01*
X149536632Y-51953475D01*
X149743475Y-51746632D01*
X149905990Y-51503411D01*
X150017932Y-51233158D01*
X150075000Y-50946260D01*
X150075000Y-50653740D01*
X150017932Y-50366842D01*
X149905990Y-50096589D01*
X149743475Y-49853368D01*
X149635107Y-49745000D01*
X150463002Y-49745000D01*
X150463002Y-49110000D01*
X149738631Y-49110000D01*
X149701850Y-48983000D01*
X149313000Y-48983000D01*
X149313000Y-49110000D01*
X147867000Y-49110000D01*
X147867000Y-48983000D01*
X147740000Y-48983000D01*
X147740000Y-47583039D01*
X147826132Y-47537000D01*
X147867000Y-47537000D01*
X147867000Y-47507222D01*
X147955000Y-47435002D01*
X147975519Y-47410000D01*
X149313000Y-47410000D01*
X149313000Y-47537000D01*
X149701850Y-47537000D01*
X149738631Y-47410000D01*
X150463002Y-47410000D01*
X150463002Y-46775000D01*
X149635107Y-46775000D01*
X149743475Y-46666632D01*
X149905990Y-46423411D01*
X150017932Y-46153158D01*
X150075000Y-45866260D01*
X150075000Y-45573740D01*
X150017932Y-45286842D01*
X149905990Y-45016589D01*
X149743475Y-44773368D01*
X149611620Y-44641513D01*
X149684180Y-44619502D01*
X149794494Y-44560537D01*
X149891185Y-44481185D01*
X149970537Y-44384494D01*
X150029502Y-44274180D01*
X150065812Y-44154482D01*
X150078072Y-44030000D01*
X150078072Y-43305000D01*
X197803789Y-43305000D01*
X201170001Y-46671213D01*
G04 #@! TA.AperFunction,Conductor*
D27*
G36*
X201170001Y-46671213D02*
G01*
X201170000Y-73697332D01*
X201170001Y-73697342D01*
X201170001Y-74025988D01*
X201150256Y-74012795D01*
X200961898Y-73934774D01*
X200761939Y-73895000D01*
X200558061Y-73895000D01*
X200358102Y-73934774D01*
X200169744Y-74012795D01*
X200000226Y-74126063D01*
X199956289Y-74170000D01*
X149986103Y-74170000D01*
X150017932Y-74093158D01*
X150075000Y-73806260D01*
X150075000Y-73513740D01*
X150017932Y-73226842D01*
X149905990Y-72956589D01*
X149743475Y-72713368D01*
X149536632Y-72506525D01*
X149362240Y-72390000D01*
X149536632Y-72273475D01*
X149743475Y-72066632D01*
X149905990Y-71823411D01*
X150017932Y-71553158D01*
X150075000Y-71266260D01*
X150075000Y-70973740D01*
X150017932Y-70686842D01*
X149905990Y-70416589D01*
X149743475Y-70173368D01*
X149536632Y-69966525D01*
X149362240Y-69850000D01*
X149536632Y-69733475D01*
X149743475Y-69526632D01*
X149905990Y-69283411D01*
X150017932Y-69013158D01*
X150075000Y-68726260D01*
X150075000Y-68433740D01*
X150017932Y-68146842D01*
X149905990Y-67876589D01*
X149743475Y-67633368D01*
X149536632Y-67426525D01*
X149362240Y-67310000D01*
X149536632Y-67193475D01*
X149743475Y-66986632D01*
X149905990Y-66743411D01*
X150017932Y-66473158D01*
X150075000Y-66186260D01*
X150075000Y-65893740D01*
X150017932Y-65606842D01*
X149905990Y-65336589D01*
X149743475Y-65093368D01*
X149635107Y-64985000D01*
X150463002Y-64985000D01*
X150463002Y-64350000D01*
X149738631Y-64350000D01*
X149701850Y-64223000D01*
X149313000Y-64223000D01*
X149313000Y-64350000D01*
X147867000Y-64350000D01*
X147867000Y-64223000D01*
X147740000Y-64223000D01*
X147740000Y-62777000D01*
X147867000Y-62777000D01*
X147867000Y-62650000D01*
X149313000Y-62650000D01*
X149313000Y-62777000D01*
X149701850Y-62777000D01*
X149738631Y-62650000D01*
X150463002Y-62650000D01*
X150463002Y-62015000D01*
X149635107Y-62015000D01*
X149743475Y-61906632D01*
X149905990Y-61663411D01*
X150017932Y-61393158D01*
X150075000Y-61106260D01*
X150075000Y-60813740D01*
X150017932Y-60526842D01*
X149905990Y-60256589D01*
X149743475Y-60013368D01*
X149536632Y-59806525D01*
X149362240Y-59690000D01*
X149536632Y-59573475D01*
X149743475Y-59366632D01*
X149905990Y-59123411D01*
X150017932Y-58853158D01*
X150075000Y-58566260D01*
X150075000Y-58273740D01*
X150017932Y-57986842D01*
X149905990Y-57716589D01*
X149743475Y-57473368D01*
X149536632Y-57266525D01*
X149362240Y-57150000D01*
X149536632Y-57033475D01*
X149743475Y-56826632D01*
X149905990Y-56583411D01*
X150017932Y-56313158D01*
X150075000Y-56026260D01*
X150075000Y-55733740D01*
X150017932Y-55446842D01*
X149905990Y-55176589D01*
X149743475Y-54933368D01*
X149536632Y-54726525D01*
X149362240Y-54610000D01*
X149536632Y-54493475D01*
X149743475Y-54286632D01*
X149905990Y-54043411D01*
X150017932Y-53773158D01*
X150075000Y-53486260D01*
X150075000Y-53193740D01*
X150017932Y-52906842D01*
X149905990Y-52636589D01*
X149743475Y-52393368D01*
X149536632Y-52186525D01*
X149362240Y-52070000D01*
X149536632Y-51953475D01*
X149743475Y-51746632D01*
X149905990Y-51503411D01*
X150017932Y-51233158D01*
X150075000Y-50946260D01*
X150075000Y-50653740D01*
X150017932Y-50366842D01*
X149905990Y-50096589D01*
X149743475Y-49853368D01*
X149635107Y-49745000D01*
X150463002Y-49745000D01*
X150463002Y-49110000D01*
X149738631Y-49110000D01*
X149701850Y-48983000D01*
X149313000Y-48983000D01*
X149313000Y-49110000D01*
X147867000Y-49110000D01*
X147867000Y-48983000D01*
X147740000Y-48983000D01*
X147740000Y-47583039D01*
X147826132Y-47537000D01*
X147867000Y-47537000D01*
X147867000Y-47507222D01*
X147955000Y-47435002D01*
X147975519Y-47410000D01*
X149313000Y-47410000D01*
X149313000Y-47537000D01*
X149701850Y-47537000D01*
X149738631Y-47410000D01*
X150463002Y-47410000D01*
X150463002Y-46775000D01*
X149635107Y-46775000D01*
X149743475Y-46666632D01*
X149905990Y-46423411D01*
X150017932Y-46153158D01*
X150075000Y-45866260D01*
X150075000Y-45573740D01*
X150017932Y-45286842D01*
X149905990Y-45016589D01*
X149743475Y-44773368D01*
X149611620Y-44641513D01*
X149684180Y-44619502D01*
X149794494Y-44560537D01*
X149891185Y-44481185D01*
X149970537Y-44384494D01*
X150029502Y-44274180D01*
X150065812Y-44154482D01*
X150078072Y-44030000D01*
X150078072Y-43305000D01*
X197803789Y-43305000D01*
X201170001Y-46671213D01*
G37*
G04 #@! TD.AperFunction*
D26*
X210345204Y-50766003D02*
X210369002Y-50795002D01*
X210398000Y-50818800D01*
X210484726Y-50889975D01*
X210485001Y-50890122D01*
X210485001Y-51443001D01*
X210358001Y-51443001D01*
X210358001Y-51570001D01*
X209030002Y-51570001D01*
X209030002Y-50660799D01*
X209385802Y-50305000D01*
X209884201Y-50305000D01*
X210345204Y-50766003D01*
G04 #@! TA.AperFunction,Conductor*
D27*
G36*
X210345204Y-50766003D02*
G01*
X210369002Y-50795002D01*
X210398000Y-50818800D01*
X210484726Y-50889975D01*
X210485001Y-50890122D01*
X210485001Y-51443001D01*
X210358001Y-51443001D01*
X210358001Y-51570001D01*
X209030002Y-51570001D01*
X209030002Y-50660799D01*
X209385802Y-50305000D01*
X209884201Y-50305000D01*
X210345204Y-50766003D01*
G37*
G04 #@! TD.AperFunction*
M02*
