G04 #@! TF.GenerationSoftware,KiCad,Pcbnew,(5.1.9)-1*
G04 #@! TF.CreationDate,2021-06-19T16:16:09+09:00*
G04 #@! TF.ProjectId,_______,b3de8ab7-fceb-4c92-9e6b-696361645f70,rev?*
G04 #@! TF.SameCoordinates,Original*
G04 #@! TF.FileFunction,Legend,Bot*
G04 #@! TF.FilePolarity,Positive*
%FSLAX46Y46*%
G04 Gerber Fmt 4.6, Leading zero omitted, Abs format (unit mm)*
G04 Created by KiCad (PCBNEW (5.1.9)-1) date 2021-06-19 16:16:09*
%MOMM*%
%LPD*%
G01*
G04 APERTURE LIST*
%ADD10C,0.300000*%
%ADD11C,3.400000*%
%ADD12C,1.724000*%
%ADD13C,6.700000*%
%ADD14O,1.900000X1.900000*%
%ADD15O,1.700000X1.700000*%
%ADD16C,2.000000*%
%ADD17C,1.800000*%
%ADD18O,1.800000X1.800000*%
%ADD19C,2.200000*%
%ADD20O,1.250000X1.500000*%
%ADD21C,1.000000*%
G04 APERTURE END LIST*
D10*
X197950714Y-114328571D02*
X197950714Y-112828571D01*
X197093571Y-114328571D01*
X197093571Y-112828571D01*
X196379285Y-114328571D02*
X196379285Y-112828571D01*
X195879285Y-112828571D02*
X195022142Y-112828571D01*
X195450714Y-114328571D02*
X195450714Y-112828571D01*
X193593571Y-112828571D02*
X192736428Y-112828571D01*
X193165000Y-114328571D02*
X193165000Y-112828571D01*
X192022142Y-114328571D02*
X192165000Y-114257142D01*
X192236428Y-114185714D01*
X192307857Y-114042857D01*
X192307857Y-113614285D01*
X192236428Y-113471428D01*
X192165000Y-113400000D01*
X192022142Y-113328571D01*
X191807857Y-113328571D01*
X191665000Y-113400000D01*
X191593571Y-113471428D01*
X191522142Y-113614285D01*
X191522142Y-114042857D01*
X191593571Y-114185714D01*
X191665000Y-114257142D01*
X191807857Y-114328571D01*
X192022142Y-114328571D01*
X191022142Y-113328571D02*
X190665000Y-114328571D01*
X190307857Y-113328571D02*
X190665000Y-114328571D01*
X190807857Y-114685714D01*
X190879285Y-114757142D01*
X191022142Y-114828571D01*
X189522142Y-114328571D02*
X189665000Y-114257142D01*
X189736428Y-114185714D01*
X189807857Y-114042857D01*
X189807857Y-113614285D01*
X189736428Y-113471428D01*
X189665000Y-113400000D01*
X189522142Y-113328571D01*
X189307857Y-113328571D01*
X189165000Y-113400000D01*
X189093571Y-113471428D01*
X189022142Y-113614285D01*
X189022142Y-114042857D01*
X189093571Y-114185714D01*
X189165000Y-114257142D01*
X189307857Y-114328571D01*
X189522142Y-114328571D01*
X188593571Y-113328571D02*
X188022142Y-113328571D01*
X188379285Y-112828571D02*
X188379285Y-114114285D01*
X188307857Y-114257142D01*
X188165000Y-114328571D01*
X188022142Y-114328571D01*
X186879285Y-114328571D02*
X186879285Y-113542857D01*
X186950714Y-113400000D01*
X187093571Y-113328571D01*
X187379285Y-113328571D01*
X187522142Y-113400000D01*
X186879285Y-114257142D02*
X187022142Y-114328571D01*
X187379285Y-114328571D01*
X187522142Y-114257142D01*
X187593571Y-114114285D01*
X187593571Y-113971428D01*
X187522142Y-113828571D01*
X187379285Y-113757142D01*
X187022142Y-113757142D01*
X186879285Y-113685714D01*
X184165000Y-114185714D02*
X184236428Y-114257142D01*
X184450714Y-114328571D01*
X184593571Y-114328571D01*
X184807857Y-114257142D01*
X184950714Y-114114285D01*
X185022142Y-113971428D01*
X185093571Y-113685714D01*
X185093571Y-113471428D01*
X185022142Y-113185714D01*
X184950714Y-113042857D01*
X184807857Y-112900000D01*
X184593571Y-112828571D01*
X184450714Y-112828571D01*
X184236428Y-112900000D01*
X184165000Y-112971428D01*
X183307857Y-114328571D02*
X183450714Y-114257142D01*
X183522142Y-114185714D01*
X183593571Y-114042857D01*
X183593571Y-113614285D01*
X183522142Y-113471428D01*
X183450714Y-113400000D01*
X183307857Y-113328571D01*
X183093571Y-113328571D01*
X182950714Y-113400000D01*
X182879285Y-113471428D01*
X182807857Y-113614285D01*
X182807857Y-114042857D01*
X182879285Y-114185714D01*
X182950714Y-114257142D01*
X183093571Y-114328571D01*
X183307857Y-114328571D01*
X181950714Y-114328571D02*
X182093571Y-114257142D01*
X182165000Y-114114285D01*
X182165000Y-112828571D01*
X181165000Y-114328571D02*
X181307857Y-114257142D01*
X181379285Y-114114285D01*
X181379285Y-112828571D01*
X180022142Y-114257142D02*
X180165000Y-114328571D01*
X180450714Y-114328571D01*
X180593571Y-114257142D01*
X180665000Y-114114285D01*
X180665000Y-113542857D01*
X180593571Y-113400000D01*
X180450714Y-113328571D01*
X180165000Y-113328571D01*
X180022142Y-113400000D01*
X179950714Y-113542857D01*
X179950714Y-113685714D01*
X180665000Y-113828571D01*
X178665000Y-113328571D02*
X178665000Y-114542857D01*
X178736428Y-114685714D01*
X178807857Y-114757142D01*
X178950714Y-114828571D01*
X179165000Y-114828571D01*
X179307857Y-114757142D01*
X178665000Y-114257142D02*
X178807857Y-114328571D01*
X179093571Y-114328571D01*
X179236428Y-114257142D01*
X179307857Y-114185714D01*
X179379285Y-114042857D01*
X179379285Y-113614285D01*
X179307857Y-113471428D01*
X179236428Y-113400000D01*
X179093571Y-113328571D01*
X178807857Y-113328571D01*
X178665000Y-113400000D01*
X177379285Y-114257142D02*
X177522142Y-114328571D01*
X177807857Y-114328571D01*
X177950714Y-114257142D01*
X178022142Y-114114285D01*
X178022142Y-113542857D01*
X177950714Y-113400000D01*
X177807857Y-113328571D01*
X177522142Y-113328571D01*
X177379285Y-113400000D01*
X177307857Y-113542857D01*
X177307857Y-113685714D01*
X178022142Y-113828571D01*
X174665000Y-114328571D02*
X175165000Y-113614285D01*
X175522142Y-114328571D02*
X175522142Y-112828571D01*
X174950714Y-112828571D01*
X174807857Y-112900000D01*
X174736428Y-112971428D01*
X174665000Y-113114285D01*
X174665000Y-113328571D01*
X174736428Y-113471428D01*
X174807857Y-113542857D01*
X174950714Y-113614285D01*
X175522142Y-113614285D01*
X173736428Y-112828571D02*
X173450714Y-112828571D01*
X173307857Y-112900000D01*
X173165000Y-113042857D01*
X173093571Y-113328571D01*
X173093571Y-113828571D01*
X173165000Y-114114285D01*
X173307857Y-114257142D01*
X173450714Y-114328571D01*
X173736428Y-114328571D01*
X173879285Y-114257142D01*
X174022142Y-114114285D01*
X174093571Y-113828571D01*
X174093571Y-113328571D01*
X174022142Y-113042857D01*
X173879285Y-112900000D01*
X173736428Y-112828571D01*
X171950714Y-113542857D02*
X171736428Y-113614285D01*
X171665000Y-113685714D01*
X171593571Y-113828571D01*
X171593571Y-114042857D01*
X171665000Y-114185714D01*
X171736428Y-114257142D01*
X171879285Y-114328571D01*
X172450714Y-114328571D01*
X172450714Y-112828571D01*
X171950714Y-112828571D01*
X171807857Y-112900000D01*
X171736428Y-112971428D01*
X171665000Y-113114285D01*
X171665000Y-113257142D01*
X171736428Y-113400000D01*
X171807857Y-113471428D01*
X171950714Y-113542857D01*
X172450714Y-113542857D01*
X170665000Y-112828571D02*
X170379285Y-112828571D01*
X170236428Y-112900000D01*
X170093571Y-113042857D01*
X170022142Y-113328571D01*
X170022142Y-113828571D01*
X170093571Y-114114285D01*
X170236428Y-114257142D01*
X170379285Y-114328571D01*
X170665000Y-114328571D01*
X170807857Y-114257142D01*
X170950714Y-114114285D01*
X171022142Y-113828571D01*
X171022142Y-113328571D01*
X170950714Y-113042857D01*
X170807857Y-112900000D01*
X170665000Y-112828571D01*
X168522142Y-114185714D02*
X168593571Y-114257142D01*
X168807857Y-114328571D01*
X168950714Y-114328571D01*
X169165000Y-114257142D01*
X169307857Y-114114285D01*
X169379285Y-113971428D01*
X169450714Y-113685714D01*
X169450714Y-113471428D01*
X169379285Y-113185714D01*
X169307857Y-113042857D01*
X169165000Y-112900000D01*
X168950714Y-112828571D01*
X168807857Y-112828571D01*
X168593571Y-112900000D01*
X168522142Y-112971428D01*
X167593571Y-112828571D02*
X167307857Y-112828571D01*
X167165000Y-112900000D01*
X167022142Y-113042857D01*
X166950714Y-113328571D01*
X166950714Y-113828571D01*
X167022142Y-114114285D01*
X167165000Y-114257142D01*
X167307857Y-114328571D01*
X167593571Y-114328571D01*
X167736428Y-114257142D01*
X167879285Y-114114285D01*
X167950714Y-113828571D01*
X167950714Y-113328571D01*
X167879285Y-113042857D01*
X167736428Y-112900000D01*
X167593571Y-112828571D01*
X166307857Y-114328571D02*
X166307857Y-112828571D01*
X165450714Y-114328571D01*
X165450714Y-112828571D01*
X163665000Y-113900000D02*
X162950714Y-113900000D01*
X163807857Y-114328571D02*
X163307857Y-112828571D01*
X162807857Y-114328571D01*
X161379285Y-113328571D02*
X160807857Y-113328571D01*
X161165000Y-112828571D02*
X161165000Y-114114285D01*
X161093571Y-114257142D01*
X160950714Y-114328571D01*
X160807857Y-114328571D01*
X159736428Y-114257142D02*
X159879285Y-114328571D01*
X160165000Y-114328571D01*
X160307857Y-114257142D01*
X160379285Y-114114285D01*
X160379285Y-113542857D01*
X160307857Y-113400000D01*
X160165000Y-113328571D01*
X159879285Y-113328571D01*
X159736428Y-113400000D01*
X159665000Y-113542857D01*
X159665000Y-113685714D01*
X160379285Y-113828571D01*
X158379285Y-114328571D02*
X158379285Y-113542857D01*
X158450714Y-113400000D01*
X158593571Y-113328571D01*
X158879285Y-113328571D01*
X159022142Y-113400000D01*
X158379285Y-114257142D02*
X158522142Y-114328571D01*
X158879285Y-114328571D01*
X159022142Y-114257142D01*
X159093571Y-114114285D01*
X159093571Y-113971428D01*
X159022142Y-113828571D01*
X158879285Y-113757142D01*
X158522142Y-113757142D01*
X158379285Y-113685714D01*
X157665000Y-114328571D02*
X157665000Y-113328571D01*
X157665000Y-113471428D02*
X157593571Y-113400000D01*
X157450714Y-113328571D01*
X157236428Y-113328571D01*
X157093571Y-113400000D01*
X157022142Y-113542857D01*
X157022142Y-114328571D01*
X157022142Y-113542857D02*
X156950714Y-113400000D01*
X156807857Y-113328571D01*
X156593571Y-113328571D01*
X156450714Y-113400000D01*
X156379285Y-113542857D01*
X156379285Y-114328571D01*
X197879285Y-115378571D02*
X197879285Y-116592857D01*
X197807857Y-116735714D01*
X197736428Y-116807142D01*
X197593571Y-116878571D01*
X197307857Y-116878571D01*
X197165000Y-116807142D01*
X197093571Y-116735714D01*
X197022142Y-116592857D01*
X197022142Y-115378571D01*
X196307857Y-115878571D02*
X196307857Y-116878571D01*
X196307857Y-116021428D02*
X196236428Y-115950000D01*
X196093571Y-115878571D01*
X195879285Y-115878571D01*
X195736428Y-115950000D01*
X195665000Y-116092857D01*
X195665000Y-116878571D01*
X194307857Y-116878571D02*
X194307857Y-115378571D01*
X194307857Y-116807142D02*
X194450714Y-116878571D01*
X194736428Y-116878571D01*
X194879285Y-116807142D01*
X194950714Y-116735714D01*
X195022142Y-116592857D01*
X195022142Y-116164285D01*
X194950714Y-116021428D01*
X194879285Y-115950000D01*
X194736428Y-115878571D01*
X194450714Y-115878571D01*
X194307857Y-115950000D01*
X193022142Y-116807142D02*
X193165000Y-116878571D01*
X193450714Y-116878571D01*
X193593571Y-116807142D01*
X193665000Y-116664285D01*
X193665000Y-116092857D01*
X193593571Y-115950000D01*
X193450714Y-115878571D01*
X193165000Y-115878571D01*
X193022142Y-115950000D01*
X192950714Y-116092857D01*
X192950714Y-116235714D01*
X193665000Y-116378571D01*
X192307857Y-116878571D02*
X192307857Y-115878571D01*
X192307857Y-116164285D02*
X192236428Y-116021428D01*
X192165000Y-115950000D01*
X192022142Y-115878571D01*
X191879285Y-115878571D01*
X190736428Y-116807142D02*
X190879285Y-116878571D01*
X191165000Y-116878571D01*
X191307857Y-116807142D01*
X191379285Y-116735714D01*
X191450714Y-116592857D01*
X191450714Y-116164285D01*
X191379285Y-116021428D01*
X191307857Y-115950000D01*
X191165000Y-115878571D01*
X190879285Y-115878571D01*
X190736428Y-115950000D01*
X189450714Y-116878571D02*
X189450714Y-116092857D01*
X189522142Y-115950000D01*
X189665000Y-115878571D01*
X189950714Y-115878571D01*
X190093571Y-115950000D01*
X189450714Y-116807142D02*
X189593571Y-116878571D01*
X189950714Y-116878571D01*
X190093571Y-116807142D01*
X190165000Y-116664285D01*
X190165000Y-116521428D01*
X190093571Y-116378571D01*
X189950714Y-116307142D01*
X189593571Y-116307142D01*
X189450714Y-116235714D01*
X188736428Y-116878571D02*
X188736428Y-115878571D01*
X188736428Y-116164285D02*
X188665000Y-116021428D01*
X188593571Y-115950000D01*
X188450714Y-115878571D01*
X188307857Y-115878571D01*
X187807857Y-116878571D02*
X187807857Y-115878571D01*
X187807857Y-116164285D02*
X187736428Y-116021428D01*
X187665000Y-115950000D01*
X187522142Y-115878571D01*
X187379285Y-115878571D01*
X186879285Y-116878571D02*
X186879285Y-115878571D01*
X186879285Y-115378571D02*
X186950714Y-115450000D01*
X186879285Y-115521428D01*
X186807857Y-115450000D01*
X186879285Y-115378571D01*
X186879285Y-115521428D01*
X185522142Y-116878571D02*
X185522142Y-116092857D01*
X185593571Y-115950000D01*
X185736428Y-115878571D01*
X186022142Y-115878571D01*
X186165000Y-115950000D01*
X185522142Y-116807142D02*
X185665000Y-116878571D01*
X186022142Y-116878571D01*
X186165000Y-116807142D01*
X186236428Y-116664285D01*
X186236428Y-116521428D01*
X186165000Y-116378571D01*
X186022142Y-116307142D01*
X185665000Y-116307142D01*
X185522142Y-116235714D01*
X184165000Y-115878571D02*
X184165000Y-117092857D01*
X184236428Y-117235714D01*
X184307857Y-117307142D01*
X184450714Y-117378571D01*
X184665000Y-117378571D01*
X184807857Y-117307142D01*
X184165000Y-116807142D02*
X184307857Y-116878571D01*
X184593571Y-116878571D01*
X184736428Y-116807142D01*
X184807857Y-116735714D01*
X184879285Y-116592857D01*
X184879285Y-116164285D01*
X184807857Y-116021428D01*
X184736428Y-115950000D01*
X184593571Y-115878571D01*
X184307857Y-115878571D01*
X184165000Y-115950000D01*
X182879285Y-116807142D02*
X183022142Y-116878571D01*
X183307857Y-116878571D01*
X183450714Y-116807142D01*
X183522142Y-116664285D01*
X183522142Y-116092857D01*
X183450714Y-115950000D01*
X183307857Y-115878571D01*
X183022142Y-115878571D01*
X182879285Y-115950000D01*
X182807857Y-116092857D01*
X182807857Y-116235714D01*
X183522142Y-116378571D01*
X180165000Y-116735714D02*
X180236428Y-116807142D01*
X180450714Y-116878571D01*
X180593571Y-116878571D01*
X180807857Y-116807142D01*
X180950714Y-116664285D01*
X181022142Y-116521428D01*
X181093571Y-116235714D01*
X181093571Y-116021428D01*
X181022142Y-115735714D01*
X180950714Y-115592857D01*
X180807857Y-115450000D01*
X180593571Y-115378571D01*
X180450714Y-115378571D01*
X180236428Y-115450000D01*
X180165000Y-115521428D01*
X179307857Y-116878571D02*
X179450714Y-116807142D01*
X179522142Y-116735714D01*
X179593571Y-116592857D01*
X179593571Y-116164285D01*
X179522142Y-116021428D01*
X179450714Y-115950000D01*
X179307857Y-115878571D01*
X179093571Y-115878571D01*
X178950714Y-115950000D01*
X178879285Y-116021428D01*
X178807857Y-116164285D01*
X178807857Y-116592857D01*
X178879285Y-116735714D01*
X178950714Y-116807142D01*
X179093571Y-116878571D01*
X179307857Y-116878571D01*
X178165000Y-115878571D02*
X178165000Y-116878571D01*
X178165000Y-116021428D02*
X178093571Y-115950000D01*
X177950714Y-115878571D01*
X177736428Y-115878571D01*
X177593571Y-115950000D01*
X177522142Y-116092857D01*
X177522142Y-116878571D01*
X177022142Y-115878571D02*
X176450714Y-115878571D01*
X176807857Y-115378571D02*
X176807857Y-116664285D01*
X176736428Y-116807142D01*
X176593571Y-116878571D01*
X176450714Y-116878571D01*
X175950714Y-116878571D02*
X175950714Y-115878571D01*
X175950714Y-116164285D02*
X175879285Y-116021428D01*
X175807857Y-115950000D01*
X175665000Y-115878571D01*
X175522142Y-115878571D01*
X174807857Y-116878571D02*
X174950714Y-116807142D01*
X175022142Y-116735714D01*
X175093571Y-116592857D01*
X175093571Y-116164285D01*
X175022142Y-116021428D01*
X174950714Y-115950000D01*
X174807857Y-115878571D01*
X174593571Y-115878571D01*
X174450714Y-115950000D01*
X174379285Y-116021428D01*
X174307857Y-116164285D01*
X174307857Y-116592857D01*
X174379285Y-116735714D01*
X174450714Y-116807142D01*
X174593571Y-116878571D01*
X174807857Y-116878571D01*
X173450714Y-116878571D02*
X173593571Y-116807142D01*
X173665000Y-116664285D01*
X173665000Y-115378571D01*
X171807857Y-116807142D02*
X171593571Y-116878571D01*
X171236428Y-116878571D01*
X171093571Y-116807142D01*
X171022142Y-116735714D01*
X170950714Y-116592857D01*
X170950714Y-116450000D01*
X171022142Y-116307142D01*
X171093571Y-116235714D01*
X171236428Y-116164285D01*
X171522142Y-116092857D01*
X171665000Y-116021428D01*
X171736428Y-115950000D01*
X171807857Y-115807142D01*
X171807857Y-115664285D01*
X171736428Y-115521428D01*
X171665000Y-115450000D01*
X171522142Y-115378571D01*
X171165000Y-115378571D01*
X170950714Y-115450000D01*
X170450714Y-115878571D02*
X170093571Y-116878571D01*
X169736428Y-115878571D02*
X170093571Y-116878571D01*
X170236428Y-117235714D01*
X170307857Y-117307142D01*
X170450714Y-117378571D01*
X169236428Y-116807142D02*
X169093571Y-116878571D01*
X168807857Y-116878571D01*
X168665000Y-116807142D01*
X168593571Y-116664285D01*
X168593571Y-116592857D01*
X168665000Y-116450000D01*
X168807857Y-116378571D01*
X169022142Y-116378571D01*
X169165000Y-116307142D01*
X169236428Y-116164285D01*
X169236428Y-116092857D01*
X169165000Y-115950000D01*
X169022142Y-115878571D01*
X168807857Y-115878571D01*
X168665000Y-115950000D01*
X168165000Y-115878571D02*
X167593571Y-115878571D01*
X167950714Y-115378571D02*
X167950714Y-116664285D01*
X167879285Y-116807142D01*
X167736428Y-116878571D01*
X167593571Y-116878571D01*
X166522142Y-116807142D02*
X166665000Y-116878571D01*
X166950714Y-116878571D01*
X167093571Y-116807142D01*
X167165000Y-116664285D01*
X167165000Y-116092857D01*
X167093571Y-115950000D01*
X166950714Y-115878571D01*
X166665000Y-115878571D01*
X166522142Y-115950000D01*
X166450714Y-116092857D01*
X166450714Y-116235714D01*
X167165000Y-116378571D01*
X165807857Y-116878571D02*
X165807857Y-115878571D01*
X165807857Y-116021428D02*
X165736428Y-115950000D01*
X165593571Y-115878571D01*
X165379285Y-115878571D01*
X165236428Y-115950000D01*
X165165000Y-116092857D01*
X165165000Y-116878571D01*
X165165000Y-116092857D02*
X165093571Y-115950000D01*
X164950714Y-115878571D01*
X164736428Y-115878571D01*
X164593571Y-115950000D01*
X164522142Y-116092857D01*
X164522142Y-116878571D01*
X162807857Y-115878571D02*
X162450714Y-116878571D01*
X162093571Y-115878571D01*
X160950714Y-116807142D02*
X161093571Y-116878571D01*
X161379285Y-116878571D01*
X161522142Y-116807142D01*
X161593571Y-116664285D01*
X161593571Y-116092857D01*
X161522142Y-115950000D01*
X161379285Y-115878571D01*
X161093571Y-115878571D01*
X160950714Y-115950000D01*
X160879285Y-116092857D01*
X160879285Y-116235714D01*
X161593571Y-116378571D01*
X160236428Y-116878571D02*
X160236428Y-115878571D01*
X160236428Y-116164285D02*
X160165000Y-116021428D01*
X160093571Y-115950000D01*
X159950714Y-115878571D01*
X159807857Y-115878571D01*
X158522142Y-116878571D02*
X159379285Y-116878571D01*
X158950714Y-116878571D02*
X158950714Y-115378571D01*
X159093571Y-115592857D01*
X159236428Y-115735714D01*
X159379285Y-115807142D01*
X157879285Y-116735714D02*
X157807857Y-116807142D01*
X157879285Y-116878571D01*
X157950714Y-116807142D01*
X157879285Y-116735714D01*
X157879285Y-116878571D01*
X156879285Y-115378571D02*
X156736428Y-115378571D01*
X156593571Y-115450000D01*
X156522142Y-115521428D01*
X156450714Y-115664285D01*
X156379285Y-115950000D01*
X156379285Y-116307142D01*
X156450714Y-116592857D01*
X156522142Y-116735714D01*
X156593571Y-116807142D01*
X156736428Y-116878571D01*
X156879285Y-116878571D01*
X157022142Y-116807142D01*
X157093571Y-116735714D01*
X157165000Y-116592857D01*
X157236428Y-116307142D01*
X157236428Y-115950000D01*
X157165000Y-115664285D01*
X157093571Y-115521428D01*
X157022142Y-115450000D01*
X156879285Y-115378571D01*
X191557857Y-119428571D02*
X191557857Y-117928571D01*
X191200714Y-117928571D01*
X190986428Y-118000000D01*
X190843571Y-118142857D01*
X190772142Y-118285714D01*
X190700714Y-118571428D01*
X190700714Y-118785714D01*
X190772142Y-119071428D01*
X190843571Y-119214285D01*
X190986428Y-119357142D01*
X191200714Y-119428571D01*
X191557857Y-119428571D01*
X189486428Y-119357142D02*
X189629285Y-119428571D01*
X189915000Y-119428571D01*
X190057857Y-119357142D01*
X190129285Y-119214285D01*
X190129285Y-118642857D01*
X190057857Y-118500000D01*
X189915000Y-118428571D01*
X189629285Y-118428571D01*
X189486428Y-118500000D01*
X189415000Y-118642857D01*
X189415000Y-118785714D01*
X190129285Y-118928571D01*
X188843571Y-119357142D02*
X188700714Y-119428571D01*
X188415000Y-119428571D01*
X188272142Y-119357142D01*
X188200714Y-119214285D01*
X188200714Y-119142857D01*
X188272142Y-119000000D01*
X188415000Y-118928571D01*
X188629285Y-118928571D01*
X188772142Y-118857142D01*
X188843571Y-118714285D01*
X188843571Y-118642857D01*
X188772142Y-118500000D01*
X188629285Y-118428571D01*
X188415000Y-118428571D01*
X188272142Y-118500000D01*
X187557857Y-119428571D02*
X187557857Y-118428571D01*
X187557857Y-117928571D02*
X187629285Y-118000000D01*
X187557857Y-118071428D01*
X187486428Y-118000000D01*
X187557857Y-117928571D01*
X187557857Y-118071428D01*
X186200714Y-118428571D02*
X186200714Y-119642857D01*
X186272142Y-119785714D01*
X186343571Y-119857142D01*
X186486428Y-119928571D01*
X186700714Y-119928571D01*
X186843571Y-119857142D01*
X186200714Y-119357142D02*
X186343571Y-119428571D01*
X186629285Y-119428571D01*
X186772142Y-119357142D01*
X186843571Y-119285714D01*
X186915000Y-119142857D01*
X186915000Y-118714285D01*
X186843571Y-118571428D01*
X186772142Y-118500000D01*
X186629285Y-118428571D01*
X186343571Y-118428571D01*
X186200714Y-118500000D01*
X185486428Y-118428571D02*
X185486428Y-119428571D01*
X185486428Y-118571428D02*
X185415000Y-118500000D01*
X185272142Y-118428571D01*
X185057857Y-118428571D01*
X184915000Y-118500000D01*
X184843571Y-118642857D01*
X184843571Y-119428571D01*
X183557857Y-119357142D02*
X183700714Y-119428571D01*
X183986428Y-119428571D01*
X184129285Y-119357142D01*
X184200714Y-119214285D01*
X184200714Y-118642857D01*
X184129285Y-118500000D01*
X183986428Y-118428571D01*
X183700714Y-118428571D01*
X183557857Y-118500000D01*
X183486428Y-118642857D01*
X183486428Y-118785714D01*
X184200714Y-118928571D01*
X182200714Y-119428571D02*
X182200714Y-117928571D01*
X182200714Y-119357142D02*
X182343571Y-119428571D01*
X182629285Y-119428571D01*
X182772142Y-119357142D01*
X182843571Y-119285714D01*
X182915000Y-119142857D01*
X182915000Y-118714285D01*
X182843571Y-118571428D01*
X182772142Y-118500000D01*
X182629285Y-118428571D01*
X182343571Y-118428571D01*
X182200714Y-118500000D01*
X180343571Y-119428571D02*
X180343571Y-117928571D01*
X180343571Y-118500000D02*
X180200714Y-118428571D01*
X179915000Y-118428571D01*
X179772142Y-118500000D01*
X179700714Y-118571428D01*
X179629285Y-118714285D01*
X179629285Y-119142857D01*
X179700714Y-119285714D01*
X179772142Y-119357142D01*
X179915000Y-119428571D01*
X180200714Y-119428571D01*
X180343571Y-119357142D01*
X179129285Y-118428571D02*
X178772142Y-119428571D01*
X178415000Y-118428571D02*
X178772142Y-119428571D01*
X178915000Y-119785714D01*
X178986428Y-119857142D01*
X179129285Y-119928571D01*
X176915000Y-117928571D02*
X176057857Y-117928571D01*
X176486428Y-119428571D02*
X176486428Y-117928571D01*
X174915000Y-119428571D02*
X174915000Y-118642857D01*
X174986428Y-118500000D01*
X175129285Y-118428571D01*
X175415000Y-118428571D01*
X175557857Y-118500000D01*
X174915000Y-119357142D02*
X175057857Y-119428571D01*
X175415000Y-119428571D01*
X175557857Y-119357142D01*
X175629285Y-119214285D01*
X175629285Y-119071428D01*
X175557857Y-118928571D01*
X175415000Y-118857142D01*
X175057857Y-118857142D01*
X174915000Y-118785714D01*
X174200714Y-119428571D02*
X174200714Y-118428571D01*
X174200714Y-117928571D02*
X174272142Y-118000000D01*
X174200714Y-118071428D01*
X174129285Y-118000000D01*
X174200714Y-117928571D01*
X174200714Y-118071428D01*
X172843571Y-119357142D02*
X172986428Y-119428571D01*
X173272142Y-119428571D01*
X173415000Y-119357142D01*
X173486428Y-119285714D01*
X173557857Y-119142857D01*
X173557857Y-118714285D01*
X173486428Y-118571428D01*
X173415000Y-118500000D01*
X173272142Y-118428571D01*
X172986428Y-118428571D01*
X172843571Y-118500000D01*
X172200714Y-119428571D02*
X172200714Y-117928571D01*
X171557857Y-119428571D02*
X171557857Y-118642857D01*
X171629285Y-118500000D01*
X171772142Y-118428571D01*
X171986428Y-118428571D01*
X172129285Y-118500000D01*
X172200714Y-118571428D01*
X170843571Y-119428571D02*
X170843571Y-118428571D01*
X170843571Y-117928571D02*
X170915000Y-118000000D01*
X170843571Y-118071428D01*
X170772142Y-118000000D01*
X170843571Y-117928571D01*
X170843571Y-118071428D01*
X168986428Y-119428571D02*
X168986428Y-117928571D01*
X168129285Y-119428571D02*
X168772142Y-118571428D01*
X168129285Y-117928571D02*
X168986428Y-118785714D01*
X167272142Y-119428571D02*
X167415000Y-119357142D01*
X167486428Y-119285714D01*
X167557857Y-119142857D01*
X167557857Y-118714285D01*
X167486428Y-118571428D01*
X167415000Y-118500000D01*
X167272142Y-118428571D01*
X167057857Y-118428571D01*
X166915000Y-118500000D01*
X166843571Y-118571428D01*
X166772142Y-118714285D01*
X166772142Y-119142857D01*
X166843571Y-119285714D01*
X166915000Y-119357142D01*
X167057857Y-119428571D01*
X167272142Y-119428571D01*
X166129285Y-118428571D02*
X166129285Y-119428571D01*
X166129285Y-118571428D02*
X166057857Y-118500000D01*
X165915000Y-118428571D01*
X165700714Y-118428571D01*
X165557857Y-118500000D01*
X165486428Y-118642857D01*
X165486428Y-119428571D01*
X164129285Y-119428571D02*
X164129285Y-117928571D01*
X164129285Y-119357142D02*
X164272142Y-119428571D01*
X164557857Y-119428571D01*
X164700714Y-119357142D01*
X164772142Y-119285714D01*
X164843571Y-119142857D01*
X164843571Y-118714285D01*
X164772142Y-118571428D01*
X164700714Y-118500000D01*
X164557857Y-118428571D01*
X164272142Y-118428571D01*
X164129285Y-118500000D01*
X163200714Y-119428571D02*
X163343571Y-119357142D01*
X163415000Y-119285714D01*
X163486428Y-119142857D01*
X163486428Y-118714285D01*
X163415000Y-118571428D01*
X163343571Y-118500000D01*
X163200714Y-118428571D01*
X162986428Y-118428571D01*
X162843571Y-118500000D01*
X162772142Y-118571428D01*
X162700714Y-118714285D01*
X162700714Y-119142857D01*
X162772142Y-119285714D01*
X162843571Y-119357142D01*
X162986428Y-119428571D01*
X163200714Y-119428571D01*
X184165000Y-120621428D02*
X184093571Y-120550000D01*
X183950714Y-120478571D01*
X183593571Y-120478571D01*
X183450714Y-120550000D01*
X183379285Y-120621428D01*
X183307857Y-120764285D01*
X183307857Y-120907142D01*
X183379285Y-121121428D01*
X184236428Y-121978571D01*
X183307857Y-121978571D01*
X182379285Y-120478571D02*
X182236428Y-120478571D01*
X182093571Y-120550000D01*
X182022142Y-120621428D01*
X181950714Y-120764285D01*
X181879285Y-121050000D01*
X181879285Y-121407142D01*
X181950714Y-121692857D01*
X182022142Y-121835714D01*
X182093571Y-121907142D01*
X182236428Y-121978571D01*
X182379285Y-121978571D01*
X182522142Y-121907142D01*
X182593571Y-121835714D01*
X182665000Y-121692857D01*
X182736428Y-121407142D01*
X182736428Y-121050000D01*
X182665000Y-120764285D01*
X182593571Y-120621428D01*
X182522142Y-120550000D01*
X182379285Y-120478571D01*
X181307857Y-120621428D02*
X181236428Y-120550000D01*
X181093571Y-120478571D01*
X180736428Y-120478571D01*
X180593571Y-120550000D01*
X180522142Y-120621428D01*
X180450714Y-120764285D01*
X180450714Y-120907142D01*
X180522142Y-121121428D01*
X181379285Y-121978571D01*
X180450714Y-121978571D01*
X179022142Y-121978571D02*
X179879285Y-121978571D01*
X179450714Y-121978571D02*
X179450714Y-120478571D01*
X179593571Y-120692857D01*
X179736428Y-120835714D01*
X179879285Y-120907142D01*
X177307857Y-120407142D02*
X178593571Y-122335714D01*
X176522142Y-120478571D02*
X176379285Y-120478571D01*
X176236428Y-120550000D01*
X176165000Y-120621428D01*
X176093571Y-120764285D01*
X176022142Y-121050000D01*
X176022142Y-121407142D01*
X176093571Y-121692857D01*
X176165000Y-121835714D01*
X176236428Y-121907142D01*
X176379285Y-121978571D01*
X176522142Y-121978571D01*
X176665000Y-121907142D01*
X176736428Y-121835714D01*
X176807857Y-121692857D01*
X176879285Y-121407142D01*
X176879285Y-121050000D01*
X176807857Y-120764285D01*
X176736428Y-120621428D01*
X176665000Y-120550000D01*
X176522142Y-120478571D01*
X174665000Y-120478571D02*
X175379285Y-120478571D01*
X175450714Y-121192857D01*
X175379285Y-121121428D01*
X175236428Y-121050000D01*
X174879285Y-121050000D01*
X174736428Y-121121428D01*
X174665000Y-121192857D01*
X174593571Y-121335714D01*
X174593571Y-121692857D01*
X174665000Y-121835714D01*
X174736428Y-121907142D01*
X174879285Y-121978571D01*
X175236428Y-121978571D01*
X175379285Y-121907142D01*
X175450714Y-121835714D01*
X172879285Y-120407142D02*
X174165000Y-122335714D01*
X172450714Y-120621428D02*
X172379285Y-120550000D01*
X172236428Y-120478571D01*
X171879285Y-120478571D01*
X171736428Y-120550000D01*
X171665000Y-120621428D01*
X171593571Y-120764285D01*
X171593571Y-120907142D01*
X171665000Y-121121428D01*
X172522142Y-121978571D01*
X171593571Y-121978571D01*
X170879285Y-121978571D02*
X170593571Y-121978571D01*
X170450714Y-121907142D01*
X170379285Y-121835714D01*
X170236428Y-121621428D01*
X170165000Y-121335714D01*
X170165000Y-120764285D01*
X170236428Y-120621428D01*
X170307857Y-120550000D01*
X170450714Y-120478571D01*
X170736428Y-120478571D01*
X170879285Y-120550000D01*
X170950714Y-120621428D01*
X171022142Y-120764285D01*
X171022142Y-121121428D01*
X170950714Y-121264285D01*
X170879285Y-121335714D01*
X170736428Y-121407142D01*
X170450714Y-121407142D01*
X170307857Y-121335714D01*
X170236428Y-121264285D01*
X170165000Y-121121428D01*
%LPC*%
D11*
X71755000Y-126365000D03*
X72390000Y-42545000D03*
X227965000Y-42545000D03*
X227965000Y-126365000D03*
D12*
X111760000Y-81280000D03*
X109220000Y-81280000D03*
X106680000Y-81280000D03*
X104140000Y-81280000D03*
X101600000Y-81280000D03*
X99060000Y-81280000D03*
X96520000Y-81280000D03*
X93980000Y-81280000D03*
X91440000Y-81280000D03*
X88900000Y-81280000D03*
X111760000Y-116840000D03*
X109220000Y-116840000D03*
X106680000Y-116840000D03*
X104140000Y-116840000D03*
X101600000Y-116840000D03*
X99060000Y-116840000D03*
X96520000Y-116840000D03*
X93980000Y-116840000D03*
D13*
X74930000Y-50800000D03*
X82550000Y-50800000D03*
G36*
G01*
X208685001Y-43950001D02*
X208685001Y-42250001D01*
G75*
G02*
X208785001Y-42150001I100000J0D01*
G01*
X210485001Y-42150001D01*
G75*
G02*
X210585001Y-42250001I0J-100000D01*
G01*
X210585001Y-43950001D01*
G75*
G02*
X210485001Y-44050001I-100000J0D01*
G01*
X208785001Y-44050001D01*
G75*
G02*
X208685001Y-43950001I0J100000D01*
G01*
G37*
D14*
X207095001Y-43100001D03*
X209635001Y-45640001D03*
X207095001Y-45640001D03*
X209635001Y-48180001D03*
X207095001Y-48180001D03*
X209635001Y-50720001D03*
X207095001Y-50720001D03*
X209635001Y-53260001D03*
X207095001Y-53260001D03*
X209635001Y-55800001D03*
X207095001Y-55800001D03*
X209635001Y-58340001D03*
X207095001Y-58340001D03*
X209635001Y-60880001D03*
X207095001Y-60880001D03*
X209635001Y-63420001D03*
X207095001Y-63420001D03*
X209635001Y-65960001D03*
X207095001Y-65960001D03*
X209635001Y-68500001D03*
X207095001Y-68500001D03*
X209635001Y-71040001D03*
X207095001Y-71040001D03*
X209635001Y-73580001D03*
X207095001Y-73580001D03*
X209635001Y-76120001D03*
X207095001Y-76120001D03*
X209635001Y-78660001D03*
X207095001Y-78660001D03*
X209635001Y-81200001D03*
X207095001Y-81200001D03*
X209635001Y-83740001D03*
X207095001Y-83740001D03*
X209635001Y-86280001D03*
X207095001Y-86280001D03*
X209635001Y-88820001D03*
X207095001Y-88820001D03*
D12*
X121920000Y-116840000D03*
X124460000Y-116840000D03*
X127000000Y-116840000D03*
X129540000Y-116840000D03*
X132080000Y-116840000D03*
X134620000Y-116840000D03*
X137160000Y-116840000D03*
X139700000Y-116840000D03*
X116840000Y-81280000D03*
X119380000Y-81280000D03*
X121920000Y-81280000D03*
X124460000Y-81280000D03*
X127000000Y-81280000D03*
X129540000Y-81280000D03*
X132080000Y-81280000D03*
X134620000Y-81280000D03*
X137160000Y-81280000D03*
X139700000Y-81280000D03*
G36*
G01*
X132930000Y-84340000D02*
X132930000Y-85840000D01*
G75*
G02*
X132830000Y-85940000I-100000J0D01*
G01*
X131330000Y-85940000D01*
G75*
G02*
X131230000Y-85840000I0J100000D01*
G01*
X131230000Y-84340000D01*
G75*
G02*
X131330000Y-84240000I100000J0D01*
G01*
X132830000Y-84240000D01*
G75*
G02*
X132930000Y-84340000I0J-100000D01*
G01*
G37*
D15*
X124460000Y-85090000D03*
X124460000Y-45720000D03*
G36*
G01*
X132930000Y-44970000D02*
X132930000Y-46470000D01*
G75*
G02*
X132830000Y-46570000I-100000J0D01*
G01*
X131330000Y-46570000D01*
G75*
G02*
X131230000Y-46470000I0J100000D01*
G01*
X131230000Y-44970000D01*
G75*
G02*
X131330000Y-44870000I100000J0D01*
G01*
X132830000Y-44870000D01*
G75*
G02*
X132930000Y-44970000I0J-100000D01*
G01*
G37*
X96520000Y-45720000D03*
G36*
G01*
X104990000Y-44970000D02*
X104990000Y-46470000D01*
G75*
G02*
X104890000Y-46570000I-100000J0D01*
G01*
X103390000Y-46570000D01*
G75*
G02*
X103290000Y-46470000I0J100000D01*
G01*
X103290000Y-44970000D01*
G75*
G02*
X103390000Y-44870000I100000J0D01*
G01*
X104890000Y-44870000D01*
G75*
G02*
X104990000Y-44970000I0J-100000D01*
G01*
G37*
G36*
G01*
X104990000Y-84340000D02*
X104990000Y-85840000D01*
G75*
G02*
X104890000Y-85940000I-100000J0D01*
G01*
X103390000Y-85940000D01*
G75*
G02*
X103290000Y-85840000I0J100000D01*
G01*
X103290000Y-84340000D01*
G75*
G02*
X103390000Y-84240000I100000J0D01*
G01*
X104890000Y-84240000D01*
G75*
G02*
X104990000Y-84340000I0J-100000D01*
G01*
G37*
X96520000Y-85090000D03*
G36*
G01*
X216900000Y-60060000D02*
X216900000Y-61860000D01*
G75*
G02*
X216800000Y-61960000I-100000J0D01*
G01*
X215000000Y-61960000D01*
G75*
G02*
X214900000Y-61860000I0J100000D01*
G01*
X214900000Y-60060000D01*
G75*
G02*
X215000000Y-59960000I100000J0D01*
G01*
X216800000Y-59960000D01*
G75*
G02*
X216900000Y-60060000I0J-100000D01*
G01*
G37*
D16*
X213360000Y-60960000D03*
G36*
G01*
X216900000Y-67680000D02*
X216900000Y-69480000D01*
G75*
G02*
X216800000Y-69580000I-100000J0D01*
G01*
X215000000Y-69580000D01*
G75*
G02*
X214900000Y-69480000I0J100000D01*
G01*
X214900000Y-67680000D01*
G75*
G02*
X215000000Y-67580000I100000J0D01*
G01*
X216800000Y-67580000D01*
G75*
G02*
X216900000Y-67680000I0J-100000D01*
G01*
G37*
X213360000Y-68580000D03*
X213360000Y-64770000D03*
G36*
G01*
X216900000Y-63870000D02*
X216900000Y-65670000D01*
G75*
G02*
X216800000Y-65770000I-100000J0D01*
G01*
X215000000Y-65770000D01*
G75*
G02*
X214900000Y-65670000I0J100000D01*
G01*
X214900000Y-63870000D01*
G75*
G02*
X215000000Y-63770000I100000J0D01*
G01*
X216800000Y-63770000D01*
G75*
G02*
X216900000Y-63870000I0J-100000D01*
G01*
G37*
X213360000Y-72390000D03*
G36*
G01*
X216900000Y-71490000D02*
X216900000Y-73290000D01*
G75*
G02*
X216800000Y-73390000I-100000J0D01*
G01*
X215000000Y-73390000D01*
G75*
G02*
X214900000Y-73290000I0J100000D01*
G01*
X214900000Y-71490000D01*
G75*
G02*
X215000000Y-71390000I100000J0D01*
G01*
X216800000Y-71390000D01*
G75*
G02*
X216900000Y-71490000I0J-100000D01*
G01*
G37*
G36*
G01*
X225652000Y-105918000D02*
X225652000Y-107442000D01*
G75*
G02*
X225552000Y-107542000I-100000J0D01*
G01*
X224028000Y-107542000D01*
G75*
G02*
X223928000Y-107442000I0J100000D01*
G01*
X223928000Y-105918000D01*
G75*
G02*
X224028000Y-105818000I100000J0D01*
G01*
X225552000Y-105818000D01*
G75*
G02*
X225652000Y-105918000I0J-100000D01*
G01*
G37*
D12*
X222250000Y-106680000D03*
X219710000Y-106680000D03*
X217170000Y-106680000D03*
D14*
X146050000Y-88900000D03*
X148590000Y-88900000D03*
X146050000Y-86360000D03*
X148590000Y-86360000D03*
X146050000Y-83820000D03*
X148590000Y-83820000D03*
X146050000Y-81280000D03*
X148590000Y-81280000D03*
X146050000Y-78740000D03*
X148590000Y-78740000D03*
X146050000Y-76200000D03*
X148590000Y-76200000D03*
X146050000Y-73660000D03*
X148590000Y-73660000D03*
X146050000Y-71120000D03*
X148590000Y-71120000D03*
X146050000Y-68580000D03*
X148590000Y-68580000D03*
X146050000Y-66040000D03*
X148590000Y-66040000D03*
X146050000Y-63500000D03*
X148590000Y-63500000D03*
X146050000Y-60960000D03*
X148590000Y-60960000D03*
X146050000Y-58420000D03*
X148590000Y-58420000D03*
X146050000Y-55880000D03*
X148590000Y-55880000D03*
X146050000Y-53340000D03*
X148590000Y-53340000D03*
X146050000Y-50800000D03*
X148590000Y-50800000D03*
X146050000Y-48260000D03*
X148590000Y-48260000D03*
X146050000Y-45720000D03*
X148590000Y-45720000D03*
X146050000Y-43180000D03*
G36*
G01*
X147640000Y-44030000D02*
X147640000Y-42330000D01*
G75*
G02*
X147740000Y-42230000I100000J0D01*
G01*
X149440000Y-42230000D01*
G75*
G02*
X149540000Y-42330000I0J-100000D01*
G01*
X149540000Y-44030000D01*
G75*
G02*
X149440000Y-44130000I-100000J0D01*
G01*
X147740000Y-44130000D01*
G75*
G02*
X147640000Y-44030000I0J100000D01*
G01*
G37*
D12*
X121920000Y-77470000D03*
X124460000Y-77470000D03*
X127000000Y-77470000D03*
X129540000Y-77470000D03*
X132080000Y-77470000D03*
X134620000Y-77470000D03*
X137160000Y-77470000D03*
X139700000Y-77470000D03*
X116840000Y-41910000D03*
X119380000Y-41910000D03*
X121920000Y-41910000D03*
X124460000Y-41910000D03*
X127000000Y-41910000D03*
X129540000Y-41910000D03*
X132080000Y-41910000D03*
X134620000Y-41910000D03*
X137160000Y-41910000D03*
X139700000Y-41910000D03*
X111760000Y-41910000D03*
X109220000Y-41910000D03*
X106680000Y-41910000D03*
X104140000Y-41910000D03*
X101600000Y-41910000D03*
X99060000Y-41910000D03*
X96520000Y-41910000D03*
X93980000Y-41910000D03*
X91440000Y-41910000D03*
X88900000Y-41910000D03*
X111760000Y-77470000D03*
X109220000Y-77470000D03*
X106680000Y-77470000D03*
X104140000Y-77470000D03*
X101600000Y-77470000D03*
X99060000Y-77470000D03*
X96520000Y-77470000D03*
X93980000Y-77470000D03*
X217170000Y-54610000D03*
X219710000Y-54610000D03*
X222250000Y-54610000D03*
G36*
G01*
X225652000Y-53848000D02*
X225652000Y-55372000D01*
G75*
G02*
X225552000Y-55472000I-100000J0D01*
G01*
X224028000Y-55472000D01*
G75*
G02*
X223928000Y-55372000I0J100000D01*
G01*
X223928000Y-53848000D01*
G75*
G02*
X224028000Y-53748000I100000J0D01*
G01*
X225552000Y-53748000D01*
G75*
G02*
X225652000Y-53848000I0J-100000D01*
G01*
G37*
D17*
X219710000Y-60960000D03*
D18*
X227330000Y-60960000D03*
D17*
X219710000Y-68580000D03*
D18*
X227330000Y-68580000D03*
X227330000Y-64770000D03*
D17*
X219710000Y-64770000D03*
D18*
X227330000Y-72390000D03*
D17*
X219710000Y-72390000D03*
G36*
G01*
X72798000Y-60452000D02*
X72798000Y-58928000D01*
G75*
G02*
X72898000Y-58828000I100000J0D01*
G01*
X74422000Y-58828000D01*
G75*
G02*
X74522000Y-58928000I0J-100000D01*
G01*
X74522000Y-60452000D01*
G75*
G02*
X74422000Y-60552000I-100000J0D01*
G01*
X72898000Y-60552000D01*
G75*
G02*
X72798000Y-60452000I0J100000D01*
G01*
G37*
D12*
X76200000Y-59690000D03*
X78740000Y-59690000D03*
X81280000Y-59690000D03*
X83820000Y-59690000D03*
X83820000Y-78740000D03*
X81280000Y-78740000D03*
X78740000Y-78740000D03*
X76200000Y-78740000D03*
G36*
G01*
X72798000Y-79502000D02*
X72798000Y-77978000D01*
G75*
G02*
X72898000Y-77878000I100000J0D01*
G01*
X74422000Y-77878000D01*
G75*
G02*
X74522000Y-77978000I0J-100000D01*
G01*
X74522000Y-79502000D01*
G75*
G02*
X74422000Y-79602000I-100000J0D01*
G01*
X72898000Y-79602000D01*
G75*
G02*
X72798000Y-79502000I0J100000D01*
G01*
G37*
X83820000Y-97790000D03*
X81280000Y-97790000D03*
X78740000Y-97790000D03*
X76200000Y-97790000D03*
G36*
G01*
X72798000Y-98552000D02*
X72798000Y-97028000D01*
G75*
G02*
X72898000Y-96928000I100000J0D01*
G01*
X74422000Y-96928000D01*
G75*
G02*
X74522000Y-97028000I0J-100000D01*
G01*
X74522000Y-98552000D01*
G75*
G02*
X74422000Y-98652000I-100000J0D01*
G01*
X72898000Y-98652000D01*
G75*
G02*
X72798000Y-98552000I0J100000D01*
G01*
G37*
G36*
G01*
X72798000Y-118872000D02*
X72798000Y-117348000D01*
G75*
G02*
X72898000Y-117248000I100000J0D01*
G01*
X74422000Y-117248000D01*
G75*
G02*
X74522000Y-117348000I0J-100000D01*
G01*
X74522000Y-118872000D01*
G75*
G02*
X74422000Y-118972000I-100000J0D01*
G01*
X72898000Y-118972000D01*
G75*
G02*
X72798000Y-118872000I0J100000D01*
G01*
G37*
X76200000Y-118110000D03*
X78740000Y-118110000D03*
X81280000Y-118110000D03*
X83820000Y-118110000D03*
G36*
G01*
X216308000Y-82042000D02*
X216308000Y-80518000D01*
G75*
G02*
X216408000Y-80418000I100000J0D01*
G01*
X217932000Y-80418000D01*
G75*
G02*
X218032000Y-80518000I0J-100000D01*
G01*
X218032000Y-82042000D01*
G75*
G02*
X217932000Y-82142000I-100000J0D01*
G01*
X216408000Y-82142000D01*
G75*
G02*
X216308000Y-82042000I0J100000D01*
G01*
G37*
X219710000Y-81280000D03*
X222250000Y-81280000D03*
X224790000Y-81280000D03*
D19*
X222250000Y-97630000D03*
G36*
G01*
X221250000Y-86530000D02*
X223250000Y-86530000D01*
G75*
G02*
X223350000Y-86630000I0J-100000D01*
G01*
X223350000Y-88630000D01*
G75*
G02*
X223250000Y-88730000I-100000J0D01*
G01*
X221250000Y-88730000D01*
G75*
G02*
X221150000Y-88630000I0J100000D01*
G01*
X221150000Y-86630000D01*
G75*
G02*
X221250000Y-86530000I100000J0D01*
G01*
G37*
D13*
X82550000Y-69850000D03*
X74930000Y-69850000D03*
X82550000Y-88900000D03*
X74930000Y-88900000D03*
X74930000Y-109220000D03*
X82550000Y-109220000D03*
X101600000Y-125095000D03*
X93980000Y-125095000D03*
G36*
G01*
X215038000Y-49022000D02*
X215038000Y-47498000D01*
G75*
G02*
X215138000Y-47398000I100000J0D01*
G01*
X216662000Y-47398000D01*
G75*
G02*
X216762000Y-47498000I0J-100000D01*
G01*
X216762000Y-49022000D01*
G75*
G02*
X216662000Y-49122000I-100000J0D01*
G01*
X215138000Y-49122000D01*
G75*
G02*
X215038000Y-49022000I0J100000D01*
G01*
G37*
D12*
X218440000Y-48260000D03*
X220980000Y-48260000D03*
D20*
X207010000Y-94615000D03*
X205740000Y-94615000D03*
G36*
G01*
X208905000Y-94162500D02*
X208905000Y-95067500D01*
G75*
G02*
X208607500Y-95365000I-297500J0D01*
G01*
X207952500Y-95365000D01*
G75*
G02*
X207655000Y-95067500I0J297500D01*
G01*
X207655000Y-94162500D01*
G75*
G02*
X207952500Y-93865000I297500J0D01*
G01*
X208607500Y-93865000D01*
G75*
G02*
X208905000Y-94162500I0J-297500D01*
G01*
G37*
D17*
X213360000Y-94615000D03*
D18*
X213360000Y-86995000D03*
X207010000Y-98425000D03*
D17*
X214630000Y-98425000D03*
D18*
X135890000Y-125095000D03*
D17*
X128270000Y-125095000D03*
X135890000Y-121920000D03*
D18*
X128270000Y-121920000D03*
G36*
G01*
X82335000Y-45835000D02*
X82335000Y-44335000D01*
G75*
G02*
X82435000Y-44235000I100000J0D01*
G01*
X83935000Y-44235000D01*
G75*
G02*
X84035000Y-44335000I0J-100000D01*
G01*
X84035000Y-45835000D01*
G75*
G02*
X83935000Y-45935000I-100000J0D01*
G01*
X82435000Y-45935000D01*
G75*
G02*
X82335000Y-45835000I0J100000D01*
G01*
G37*
D15*
X90805000Y-45085000D03*
D17*
X78105000Y-41275000D03*
D18*
X85725000Y-41275000D03*
G36*
G01*
X225652000Y-116078000D02*
X225652000Y-117602000D01*
G75*
G02*
X225552000Y-117702000I-100000J0D01*
G01*
X224028000Y-117702000D01*
G75*
G02*
X223928000Y-117602000I0J100000D01*
G01*
X223928000Y-116078000D01*
G75*
G02*
X224028000Y-115978000I100000J0D01*
G01*
X225552000Y-115978000D01*
G75*
G02*
X225652000Y-116078000I0J-100000D01*
G01*
G37*
D12*
X222250000Y-116840000D03*
X219710000Y-116840000D03*
X217170000Y-116840000D03*
D21*
X112077500Y-82867500D03*
X118110000Y-82550000D03*
X122555000Y-84776002D03*
X109537500Y-83502500D03*
X110807500Y-84772500D03*
X199390000Y-48260000D03*
X81189999Y-83275001D03*
X76744999Y-83275001D03*
X144145000Y-89535000D03*
X142240000Y-90170000D03*
X80010000Y-82550000D03*
X86995000Y-81280000D03*
X143827500Y-77152500D03*
X143827500Y-68262500D03*
X198755000Y-78105000D03*
X199390000Y-76200000D03*
X212090000Y-74295000D03*
X213677500Y-79057500D03*
X213995000Y-96520000D03*
X213360000Y-120015000D03*
X212090000Y-45720000D03*
X212090000Y-49530000D03*
X200660000Y-74930000D03*
X203200000Y-74930000D03*
X149860000Y-85090000D03*
X202565000Y-83820000D03*
X200660000Y-76200000D03*
X203200000Y-73660000D03*
X212725000Y-77470000D03*
M02*
