G04 #@! TF.GenerationSoftware,KiCad,Pcbnew,(5.1.9)-1*
G04 #@! TF.CreationDate,2021-06-19T16:16:09+09:00*
G04 #@! TF.ProjectId,_______,b3de8ab7-fceb-4c92-9e6b-696361645f70,rev?*
G04 #@! TF.SameCoordinates,Original*
G04 #@! TF.FileFunction,Legend,Top*
G04 #@! TF.FilePolarity,Positive*
%FSLAX46Y46*%
G04 Gerber Fmt 4.6, Leading zero omitted, Abs format (unit mm)*
G04 Created by KiCad (PCBNEW (5.1.9)-1) date 2021-06-19 16:16:09*
%MOMM*%
%LPD*%
G01*
G04 APERTURE LIST*
%ADD10C,0.120000*%
%ADD11C,0.150000*%
%ADD12C,3.400000*%
%ADD13C,1.724000*%
%ADD14C,6.700000*%
%ADD15O,1.900000X1.900000*%
%ADD16O,1.700000X1.700000*%
%ADD17C,2.000000*%
%ADD18C,1.800000*%
%ADD19O,1.800000X1.800000*%
%ADD20C,2.200000*%
%ADD21O,1.250000X1.500000*%
%ADD22C,1.000000*%
G04 APERTURE END LIST*
D10*
X76200000Y-46355000D02*
X76200000Y-38100000D01*
X67310000Y-46355000D02*
X76200000Y-46355000D01*
D11*
X152217380Y-54379047D02*
X151217380Y-54379047D01*
X152217380Y-53807619D01*
X151217380Y-53807619D01*
X151217380Y-53331428D02*
X152026904Y-53331428D01*
X152122142Y-53283809D01*
X152169761Y-53236190D01*
X152217380Y-53140952D01*
X152217380Y-52950476D01*
X152169761Y-52855238D01*
X152122142Y-52807619D01*
X152026904Y-52760000D01*
X151217380Y-52760000D01*
X152122142Y-51712380D02*
X152169761Y-51760000D01*
X152217380Y-51902857D01*
X152217380Y-51998095D01*
X152169761Y-52140952D01*
X152074523Y-52236190D01*
X151979285Y-52283809D01*
X151788809Y-52331428D01*
X151645952Y-52331428D01*
X151455476Y-52283809D01*
X151360238Y-52236190D01*
X151265000Y-52140952D01*
X151217380Y-51998095D01*
X151217380Y-51902857D01*
X151265000Y-51760000D01*
X151312619Y-51712380D01*
X152217380Y-50807619D02*
X152217380Y-51283809D01*
X151217380Y-51283809D01*
X151693571Y-50474285D02*
X151693571Y-50140952D01*
X152217380Y-49998095D02*
X152217380Y-50474285D01*
X151217380Y-50474285D01*
X151217380Y-49998095D01*
X151217380Y-49379047D02*
X151217380Y-49188571D01*
X151265000Y-49093333D01*
X151360238Y-48998095D01*
X151550714Y-48950476D01*
X151884047Y-48950476D01*
X152074523Y-48998095D01*
X152169761Y-49093333D01*
X152217380Y-49188571D01*
X152217380Y-49379047D01*
X152169761Y-49474285D01*
X152074523Y-49569523D01*
X151884047Y-49617142D01*
X151550714Y-49617142D01*
X151360238Y-49569523D01*
X151265000Y-49474285D01*
X151217380Y-49379047D01*
X151836428Y-48521904D02*
X151836428Y-47760000D01*
X151693571Y-46950476D02*
X151693571Y-47283809D01*
X152217380Y-47283809D02*
X151217380Y-47283809D01*
X151217380Y-46807619D01*
X151550714Y-45998095D02*
X152217380Y-45998095D01*
X151169761Y-46236190D02*
X151884047Y-46474285D01*
X151884047Y-45855238D01*
X151550714Y-45045714D02*
X152217380Y-45045714D01*
X151169761Y-45283809D02*
X151884047Y-45521904D01*
X151884047Y-44902857D01*
X151217380Y-44093333D02*
X151217380Y-44283809D01*
X151265000Y-44379047D01*
X151312619Y-44426666D01*
X151455476Y-44521904D01*
X151645952Y-44569523D01*
X152026904Y-44569523D01*
X152122142Y-44521904D01*
X152169761Y-44474285D01*
X152217380Y-44379047D01*
X152217380Y-44188571D01*
X152169761Y-44093333D01*
X152122142Y-44045714D01*
X152026904Y-43998095D01*
X151788809Y-43998095D01*
X151693571Y-44045714D01*
X151645952Y-44093333D01*
X151598333Y-44188571D01*
X151598333Y-44379047D01*
X151645952Y-44474285D01*
X151693571Y-44521904D01*
X151788809Y-44569523D01*
X152217380Y-42998095D02*
X151741190Y-43331428D01*
X152217380Y-43569523D02*
X151217380Y-43569523D01*
X151217380Y-43188571D01*
X151265000Y-43093333D01*
X151312619Y-43045714D01*
X151407857Y-42998095D01*
X151550714Y-42998095D01*
X151645952Y-43045714D01*
X151693571Y-43093333D01*
X151741190Y-43188571D01*
X151741190Y-43569523D01*
X151693571Y-42569523D02*
X151693571Y-42236190D01*
X152217380Y-42093333D02*
X152217380Y-42569523D01*
X151217380Y-42569523D01*
X151217380Y-42093333D01*
D10*
X95250000Y-117856000D02*
X95250000Y-115824000D01*
X97790000Y-115824000D02*
X97790000Y-117856000D01*
X97536000Y-115824000D02*
X97790000Y-115824000D01*
X100330000Y-117856000D02*
X100330000Y-115824000D01*
X102870000Y-117856000D02*
X102870000Y-115824000D01*
X105410000Y-115824000D02*
X105410000Y-117856000D01*
X107950000Y-117856000D02*
X107950000Y-115824000D01*
X110490000Y-115824000D02*
X110490000Y-117856000D01*
X90170000Y-82296000D02*
X90170000Y-80264000D01*
X92710000Y-80264000D02*
X92710000Y-82296000D01*
X95250000Y-82296000D02*
X95250000Y-80264000D01*
X97790000Y-80264000D02*
X97790000Y-82296000D01*
X100330000Y-82296000D02*
X100330000Y-80264000D01*
X102870000Y-80264000D02*
X102870000Y-82296000D01*
X105410000Y-82296000D02*
X105410000Y-80264000D01*
X107950000Y-80264000D02*
X107950000Y-82296000D01*
X110490000Y-82296000D02*
X110490000Y-80264000D01*
X87884000Y-82296000D02*
X112776000Y-82296000D01*
X92964000Y-115824000D02*
X92964000Y-117856000D01*
X112776000Y-115824000D02*
X92964000Y-115824000D01*
X87884000Y-117856000D02*
X112776000Y-117856000D01*
X87884000Y-80264000D02*
X87884000Y-117856000D01*
X112776000Y-80264000D02*
X87884000Y-80264000D01*
X112776000Y-117856000D02*
X112776000Y-80264000D01*
X83820000Y-46990000D02*
X71120000Y-46990000D01*
X83820000Y-54610000D02*
X71120000Y-54610000D01*
X86360000Y-52070000D02*
X83820000Y-54610000D01*
X86360000Y-49530000D02*
X86360000Y-52070000D01*
X83820000Y-46990000D02*
X86360000Y-49530000D01*
X71120000Y-54610000D02*
X71120000Y-46990000D01*
X209635001Y-41770001D02*
X210965001Y-41770001D01*
X210965001Y-41770001D02*
X210965001Y-43100001D01*
X208365001Y-41770001D02*
X208365001Y-44370001D01*
X208365001Y-44370001D02*
X210965001Y-44370001D01*
X210965001Y-44370001D02*
X210965001Y-90150001D01*
X205765001Y-90150001D02*
X210965001Y-90150001D01*
X205765001Y-41770001D02*
X205765001Y-90150001D01*
X205765001Y-41770001D02*
X208365001Y-41770001D01*
X140716000Y-117856000D02*
X140716000Y-80264000D01*
X140716000Y-80264000D02*
X115824000Y-80264000D01*
X115824000Y-80264000D02*
X115824000Y-117856000D01*
X115824000Y-117856000D02*
X140716000Y-117856000D01*
X140716000Y-115824000D02*
X120904000Y-115824000D01*
X120904000Y-115824000D02*
X120904000Y-117856000D01*
X115824000Y-82296000D02*
X140716000Y-82296000D01*
X138430000Y-82296000D02*
X138430000Y-80264000D01*
X135890000Y-80264000D02*
X135890000Y-82296000D01*
X133350000Y-82296000D02*
X133350000Y-80264000D01*
X130810000Y-80264000D02*
X130810000Y-82296000D01*
X128270000Y-82296000D02*
X128270000Y-80264000D01*
X125730000Y-80264000D02*
X125730000Y-82296000D01*
X123190000Y-82296000D02*
X123190000Y-80264000D01*
X120650000Y-80264000D02*
X120650000Y-82296000D01*
X118110000Y-82296000D02*
X118110000Y-80264000D01*
X138430000Y-115824000D02*
X138430000Y-117856000D01*
X135890000Y-117856000D02*
X135890000Y-115824000D01*
X133350000Y-115824000D02*
X133350000Y-117856000D01*
X130810000Y-117856000D02*
X130810000Y-115824000D01*
X128270000Y-117856000D02*
X128270000Y-115824000D01*
X125476000Y-115824000D02*
X125730000Y-115824000D01*
X125730000Y-115824000D02*
X125730000Y-117856000D01*
X123190000Y-117856000D02*
X123190000Y-115824000D01*
X129454000Y-86010000D02*
X129454000Y-84170000D01*
X129214000Y-86010000D02*
X129214000Y-84170000D01*
X129334000Y-86010000D02*
X129334000Y-84170000D01*
X125450000Y-85090000D02*
X126630000Y-85090000D01*
X131090000Y-85090000D02*
X129910000Y-85090000D01*
X126630000Y-86010000D02*
X129910000Y-86010000D01*
X126630000Y-84170000D02*
X126630000Y-86010000D01*
X129910000Y-84170000D02*
X126630000Y-84170000D01*
X129910000Y-86010000D02*
X129910000Y-84170000D01*
X129910000Y-46640000D02*
X129910000Y-44800000D01*
X129910000Y-44800000D02*
X126630000Y-44800000D01*
X126630000Y-44800000D02*
X126630000Y-46640000D01*
X126630000Y-46640000D02*
X129910000Y-46640000D01*
X131090000Y-45720000D02*
X129910000Y-45720000D01*
X125450000Y-45720000D02*
X126630000Y-45720000D01*
X129334000Y-46640000D02*
X129334000Y-44800000D01*
X129214000Y-46640000D02*
X129214000Y-44800000D01*
X129454000Y-46640000D02*
X129454000Y-44800000D01*
X101970000Y-46640000D02*
X101970000Y-44800000D01*
X101970000Y-44800000D02*
X98690000Y-44800000D01*
X98690000Y-44800000D02*
X98690000Y-46640000D01*
X98690000Y-46640000D02*
X101970000Y-46640000D01*
X103150000Y-45720000D02*
X101970000Y-45720000D01*
X97510000Y-45720000D02*
X98690000Y-45720000D01*
X101394000Y-46640000D02*
X101394000Y-44800000D01*
X101274000Y-46640000D02*
X101274000Y-44800000D01*
X101514000Y-46640000D02*
X101514000Y-44800000D01*
X101514000Y-86010000D02*
X101514000Y-84170000D01*
X101274000Y-86010000D02*
X101274000Y-84170000D01*
X101394000Y-86010000D02*
X101394000Y-84170000D01*
X97510000Y-85090000D02*
X98690000Y-85090000D01*
X103150000Y-85090000D02*
X101970000Y-85090000D01*
X98690000Y-86010000D02*
X101970000Y-86010000D01*
X98690000Y-84170000D02*
X98690000Y-86010000D01*
X101970000Y-84170000D02*
X98690000Y-84170000D01*
X101970000Y-86010000D02*
X101970000Y-84170000D01*
X217070000Y-62020000D02*
X217070000Y-59900000D01*
X212070000Y-62020000D02*
X212070000Y-59900000D01*
X217190000Y-62020000D02*
X217190000Y-59900000D01*
X212630000Y-59900000D02*
X212070000Y-59900000D01*
X214820000Y-59900000D02*
X214089000Y-59900000D01*
X217190000Y-59900000D02*
X216980000Y-59900000D01*
X212630000Y-62020000D02*
X212070000Y-62020000D01*
X214820000Y-62020000D02*
X214089000Y-62020000D01*
X217190000Y-62020000D02*
X216980000Y-62020000D01*
X217070000Y-69640000D02*
X217070000Y-67520000D01*
X212070000Y-69640000D02*
X212070000Y-67520000D01*
X217190000Y-69640000D02*
X217190000Y-67520000D01*
X212630000Y-67520000D02*
X212070000Y-67520000D01*
X214820000Y-67520000D02*
X214089000Y-67520000D01*
X217190000Y-67520000D02*
X216980000Y-67520000D01*
X212630000Y-69640000D02*
X212070000Y-69640000D01*
X214820000Y-69640000D02*
X214089000Y-69640000D01*
X217190000Y-69640000D02*
X216980000Y-69640000D01*
X217190000Y-65830000D02*
X216980000Y-65830000D01*
X214820000Y-65830000D02*
X214089000Y-65830000D01*
X212630000Y-65830000D02*
X212070000Y-65830000D01*
X217190000Y-63710000D02*
X216980000Y-63710000D01*
X214820000Y-63710000D02*
X214089000Y-63710000D01*
X212630000Y-63710000D02*
X212070000Y-63710000D01*
X217190000Y-65830000D02*
X217190000Y-63710000D01*
X212070000Y-65830000D02*
X212070000Y-63710000D01*
X217070000Y-65830000D02*
X217070000Y-63710000D01*
X217190000Y-73450000D02*
X216980000Y-73450000D01*
X214820000Y-73450000D02*
X214089000Y-73450000D01*
X212630000Y-73450000D02*
X212070000Y-73450000D01*
X217190000Y-71330000D02*
X216980000Y-71330000D01*
X214820000Y-71330000D02*
X214089000Y-71330000D01*
X212630000Y-71330000D02*
X212070000Y-71330000D01*
X217190000Y-73450000D02*
X217190000Y-71330000D01*
X212070000Y-73450000D02*
X212070000Y-71330000D01*
X217070000Y-73450000D02*
X217070000Y-71330000D01*
X221615000Y-108585000D02*
X220345000Y-108585000D01*
X217170000Y-109855000D02*
X214630000Y-109855000D01*
X217170000Y-108585000D02*
X217170000Y-109855000D01*
X220345000Y-108585000D02*
X217170000Y-108585000D01*
X220345000Y-109220000D02*
X220345000Y-108585000D01*
X221615000Y-109220000D02*
X220345000Y-109220000D01*
X221615000Y-108585000D02*
X221615000Y-109220000D01*
X224790000Y-108585000D02*
X221615000Y-108585000D01*
X224790000Y-109855000D02*
X224790000Y-108585000D01*
X227330000Y-104140000D02*
X227330000Y-106680000D01*
X214630000Y-104140000D02*
X227330000Y-104140000D01*
X214630000Y-109855000D02*
X214630000Y-104140000D01*
X227330000Y-109855000D02*
X224790000Y-109855000D01*
X227330000Y-106680000D02*
X227330000Y-109855000D01*
X144720000Y-41850000D02*
X147320000Y-41850000D01*
X144720000Y-41850000D02*
X144720000Y-90230000D01*
X144720000Y-90230000D02*
X149920000Y-90230000D01*
X149920000Y-44450000D02*
X149920000Y-90230000D01*
X147320000Y-44450000D02*
X149920000Y-44450000D01*
X147320000Y-41850000D02*
X147320000Y-44450000D01*
X149920000Y-41850000D02*
X149920000Y-43180000D01*
X148590000Y-41850000D02*
X149920000Y-41850000D01*
X140716000Y-78486000D02*
X140716000Y-40894000D01*
X140716000Y-40894000D02*
X115824000Y-40894000D01*
X115824000Y-40894000D02*
X115824000Y-78486000D01*
X115824000Y-78486000D02*
X140716000Y-78486000D01*
X140716000Y-76454000D02*
X120904000Y-76454000D01*
X120904000Y-76454000D02*
X120904000Y-78486000D01*
X115824000Y-42926000D02*
X140716000Y-42926000D01*
X138430000Y-42926000D02*
X138430000Y-40894000D01*
X135890000Y-40894000D02*
X135890000Y-42926000D01*
X133350000Y-42926000D02*
X133350000Y-40894000D01*
X130810000Y-40894000D02*
X130810000Y-42926000D01*
X128270000Y-42926000D02*
X128270000Y-40894000D01*
X125730000Y-40894000D02*
X125730000Y-42926000D01*
X123190000Y-42926000D02*
X123190000Y-40894000D01*
X120650000Y-40894000D02*
X120650000Y-42926000D01*
X118110000Y-42926000D02*
X118110000Y-40894000D01*
X138430000Y-76454000D02*
X138430000Y-78486000D01*
X135890000Y-78486000D02*
X135890000Y-76454000D01*
X133350000Y-76454000D02*
X133350000Y-78486000D01*
X130810000Y-78486000D02*
X130810000Y-76454000D01*
X128270000Y-78486000D02*
X128270000Y-76454000D01*
X125476000Y-76454000D02*
X125730000Y-76454000D01*
X125730000Y-76454000D02*
X125730000Y-78486000D01*
X123190000Y-78486000D02*
X123190000Y-76454000D01*
X95250000Y-78486000D02*
X95250000Y-76454000D01*
X97790000Y-76454000D02*
X97790000Y-78486000D01*
X97536000Y-76454000D02*
X97790000Y-76454000D01*
X100330000Y-78486000D02*
X100330000Y-76454000D01*
X102870000Y-78486000D02*
X102870000Y-76454000D01*
X105410000Y-76454000D02*
X105410000Y-78486000D01*
X107950000Y-78486000D02*
X107950000Y-76454000D01*
X110490000Y-76454000D02*
X110490000Y-78486000D01*
X90170000Y-42926000D02*
X90170000Y-40894000D01*
X92710000Y-40894000D02*
X92710000Y-42926000D01*
X95250000Y-42926000D02*
X95250000Y-40894000D01*
X97790000Y-40894000D02*
X97790000Y-42926000D01*
X100330000Y-42926000D02*
X100330000Y-40894000D01*
X102870000Y-40894000D02*
X102870000Y-42926000D01*
X105410000Y-42926000D02*
X105410000Y-40894000D01*
X107950000Y-40894000D02*
X107950000Y-42926000D01*
X110490000Y-42926000D02*
X110490000Y-40894000D01*
X87884000Y-42926000D02*
X112776000Y-42926000D01*
X92964000Y-76454000D02*
X92964000Y-78486000D01*
X112776000Y-76454000D02*
X92964000Y-76454000D01*
X87884000Y-78486000D02*
X112776000Y-78486000D01*
X87884000Y-40894000D02*
X87884000Y-78486000D01*
X112776000Y-40894000D02*
X87884000Y-40894000D01*
X112776000Y-78486000D02*
X112776000Y-40894000D01*
X227330000Y-54610000D02*
X227330000Y-57785000D01*
X227330000Y-57785000D02*
X224790000Y-57785000D01*
X214630000Y-57785000D02*
X214630000Y-52070000D01*
X214630000Y-52070000D02*
X227330000Y-52070000D01*
X227330000Y-52070000D02*
X227330000Y-54610000D01*
X224790000Y-57785000D02*
X224790000Y-56515000D01*
X224790000Y-56515000D02*
X221615000Y-56515000D01*
X221615000Y-56515000D02*
X221615000Y-57150000D01*
X221615000Y-57150000D02*
X220345000Y-57150000D01*
X220345000Y-57150000D02*
X220345000Y-56515000D01*
X220345000Y-56515000D02*
X217170000Y-56515000D01*
X217170000Y-56515000D02*
X217170000Y-57785000D01*
X217170000Y-57785000D02*
X214630000Y-57785000D01*
X221615000Y-56515000D02*
X220345000Y-56515000D01*
X226790000Y-62330000D02*
X226790000Y-62000000D01*
X220250000Y-62330000D02*
X226790000Y-62330000D01*
X220250000Y-62000000D02*
X220250000Y-62330000D01*
X226790000Y-59590000D02*
X226790000Y-59920000D01*
X220250000Y-59590000D02*
X226790000Y-59590000D01*
X220250000Y-59920000D02*
X220250000Y-59590000D01*
X226790000Y-69950000D02*
X226790000Y-69620000D01*
X220250000Y-69950000D02*
X226790000Y-69950000D01*
X220250000Y-69620000D02*
X220250000Y-69950000D01*
X226790000Y-67210000D02*
X226790000Y-67540000D01*
X220250000Y-67210000D02*
X226790000Y-67210000D01*
X220250000Y-67540000D02*
X220250000Y-67210000D01*
X220250000Y-63730000D02*
X220250000Y-63400000D01*
X220250000Y-63400000D02*
X226790000Y-63400000D01*
X226790000Y-63400000D02*
X226790000Y-63730000D01*
X220250000Y-65810000D02*
X220250000Y-66140000D01*
X220250000Y-66140000D02*
X226790000Y-66140000D01*
X226790000Y-66140000D02*
X226790000Y-65810000D01*
X220250000Y-71350000D02*
X220250000Y-71020000D01*
X220250000Y-71020000D02*
X226790000Y-71020000D01*
X226790000Y-71020000D02*
X226790000Y-71350000D01*
X220250000Y-73430000D02*
X220250000Y-73760000D01*
X220250000Y-73760000D02*
X226790000Y-73760000D01*
X226790000Y-73760000D02*
X226790000Y-73430000D01*
X78105000Y-57785000D02*
X79375000Y-57785000D01*
X71120000Y-56515000D02*
X71120000Y-62230000D01*
X71120000Y-62230000D02*
X86360000Y-62230000D01*
X86360000Y-62230000D02*
X86360000Y-56515000D01*
X86360000Y-56515000D02*
X83820000Y-56515000D01*
X71120000Y-56515000D02*
X73660000Y-56515000D01*
X73660000Y-56515000D02*
X73660000Y-57785000D01*
X73660000Y-57785000D02*
X78105000Y-57785000D01*
X78105000Y-57785000D02*
X78105000Y-57150000D01*
X78105000Y-57150000D02*
X79375000Y-57150000D01*
X79375000Y-57150000D02*
X79375000Y-57785000D01*
X79375000Y-57785000D02*
X83820000Y-57785000D01*
X83820000Y-57785000D02*
X83820000Y-56515000D01*
X83820000Y-76835000D02*
X83820000Y-75565000D01*
X79375000Y-76835000D02*
X83820000Y-76835000D01*
X79375000Y-76200000D02*
X79375000Y-76835000D01*
X78105000Y-76200000D02*
X79375000Y-76200000D01*
X78105000Y-76835000D02*
X78105000Y-76200000D01*
X73660000Y-76835000D02*
X78105000Y-76835000D01*
X73660000Y-75565000D02*
X73660000Y-76835000D01*
X71120000Y-75565000D02*
X73660000Y-75565000D01*
X86360000Y-75565000D02*
X83820000Y-75565000D01*
X86360000Y-81280000D02*
X86360000Y-75565000D01*
X71120000Y-81280000D02*
X86360000Y-81280000D01*
X71120000Y-75565000D02*
X71120000Y-81280000D01*
X78105000Y-76835000D02*
X79375000Y-76835000D01*
X83820000Y-95885000D02*
X83820000Y-94615000D01*
X79375000Y-95885000D02*
X83820000Y-95885000D01*
X79375000Y-95250000D02*
X79375000Y-95885000D01*
X78105000Y-95250000D02*
X79375000Y-95250000D01*
X78105000Y-95885000D02*
X78105000Y-95250000D01*
X73660000Y-95885000D02*
X78105000Y-95885000D01*
X73660000Y-94615000D02*
X73660000Y-95885000D01*
X71120000Y-94615000D02*
X73660000Y-94615000D01*
X86360000Y-94615000D02*
X83820000Y-94615000D01*
X86360000Y-100330000D02*
X86360000Y-94615000D01*
X71120000Y-100330000D02*
X86360000Y-100330000D01*
X71120000Y-94615000D02*
X71120000Y-100330000D01*
X78105000Y-95885000D02*
X79375000Y-95885000D01*
X78105000Y-116205000D02*
X79375000Y-116205000D01*
X71120000Y-114935000D02*
X71120000Y-120650000D01*
X71120000Y-120650000D02*
X86360000Y-120650000D01*
X86360000Y-120650000D02*
X86360000Y-114935000D01*
X86360000Y-114935000D02*
X83820000Y-114935000D01*
X71120000Y-114935000D02*
X73660000Y-114935000D01*
X73660000Y-114935000D02*
X73660000Y-116205000D01*
X73660000Y-116205000D02*
X78105000Y-116205000D01*
X78105000Y-116205000D02*
X78105000Y-115570000D01*
X78105000Y-115570000D02*
X79375000Y-115570000D01*
X79375000Y-115570000D02*
X79375000Y-116205000D01*
X79375000Y-116205000D02*
X83820000Y-116205000D01*
X83820000Y-116205000D02*
X83820000Y-114935000D01*
X220345000Y-79375000D02*
X221615000Y-79375000D01*
X224790000Y-78105000D02*
X227330000Y-78105000D01*
X224790000Y-79375000D02*
X224790000Y-78105000D01*
X221615000Y-79375000D02*
X224790000Y-79375000D01*
X221615000Y-78740000D02*
X221615000Y-79375000D01*
X220345000Y-78740000D02*
X221615000Y-78740000D01*
X220345000Y-79375000D02*
X220345000Y-78740000D01*
X217170000Y-79375000D02*
X220345000Y-79375000D01*
X217170000Y-78105000D02*
X217170000Y-79375000D01*
X214630000Y-83820000D02*
X214630000Y-81280000D01*
X227330000Y-83820000D02*
X214630000Y-83820000D01*
X227330000Y-78105000D02*
X227330000Y-83820000D01*
X214630000Y-78105000D02*
X217170000Y-78105000D01*
X214630000Y-81280000D02*
X214630000Y-78105000D01*
X229350000Y-92630000D02*
G75*
G03*
X229350000Y-92630000I-7100000J0D01*
G01*
X71120000Y-73660000D02*
X71120000Y-66040000D01*
X83820000Y-66040000D02*
X86360000Y-68580000D01*
X86360000Y-68580000D02*
X86360000Y-71120000D01*
X86360000Y-71120000D02*
X83820000Y-73660000D01*
X83820000Y-73660000D02*
X71120000Y-73660000D01*
X83820000Y-66040000D02*
X71120000Y-66040000D01*
X71120000Y-92710000D02*
X71120000Y-85090000D01*
X83820000Y-85090000D02*
X86360000Y-87630000D01*
X86360000Y-87630000D02*
X86360000Y-90170000D01*
X86360000Y-90170000D02*
X83820000Y-92710000D01*
X83820000Y-92710000D02*
X71120000Y-92710000D01*
X83820000Y-85090000D02*
X71120000Y-85090000D01*
X83820000Y-105410000D02*
X71120000Y-105410000D01*
X83820000Y-113030000D02*
X71120000Y-113030000D01*
X86360000Y-110490000D02*
X83820000Y-113030000D01*
X86360000Y-107950000D02*
X86360000Y-110490000D01*
X83820000Y-105410000D02*
X86360000Y-107950000D01*
X71120000Y-113030000D02*
X71120000Y-105410000D01*
X90170000Y-128905000D02*
X90170000Y-121285000D01*
X102870000Y-121285000D02*
X105410000Y-123825000D01*
X105410000Y-123825000D02*
X105410000Y-126365000D01*
X105410000Y-126365000D02*
X102870000Y-128905000D01*
X102870000Y-128905000D02*
X90170000Y-128905000D01*
X102870000Y-121285000D02*
X90170000Y-121285000D01*
X213360000Y-50800000D02*
X213360000Y-45085000D01*
X223520000Y-50800000D02*
X223520000Y-45085000D01*
X213360000Y-50800000D02*
X223520000Y-50800000D01*
X220980000Y-45085000D02*
X223520000Y-45085000D01*
X213360000Y-45085000D02*
X215900000Y-45085000D01*
X217805000Y-46355000D02*
X219075000Y-46355000D01*
X219075000Y-46355000D02*
X220980000Y-46355000D01*
X215900000Y-46355000D02*
X217805000Y-46355000D01*
X219075000Y-45720000D02*
X219075000Y-46355000D01*
X217805000Y-45720000D02*
X219075000Y-45720000D01*
X217805000Y-46355000D02*
X217805000Y-45720000D01*
X220980000Y-46355000D02*
X220980000Y-45085000D01*
X215900000Y-45085000D02*
X215900000Y-46355000D01*
X208990000Y-94165000D02*
X209140000Y-94315000D01*
X208290000Y-93515000D02*
X208540000Y-93765000D01*
X205040000Y-94165000D02*
X204890000Y-94315000D01*
X205690000Y-93515000D02*
X205440000Y-93765000D01*
X208290000Y-93515000D02*
X205690000Y-93515000D01*
X209140000Y-94315000D02*
X209140000Y-95265000D01*
X204890000Y-95265000D02*
X204890000Y-94315000D01*
X212320000Y-94075000D02*
X211990000Y-94075000D01*
X211990000Y-94075000D02*
X211990000Y-87535000D01*
X211990000Y-87535000D02*
X212320000Y-87535000D01*
X214400000Y-94075000D02*
X214730000Y-94075000D01*
X214730000Y-94075000D02*
X214730000Y-87535000D01*
X214730000Y-87535000D02*
X214400000Y-87535000D01*
X207550000Y-97055000D02*
X207550000Y-97385000D01*
X214090000Y-97055000D02*
X207550000Y-97055000D01*
X214090000Y-97385000D02*
X214090000Y-97055000D01*
X207550000Y-99795000D02*
X207550000Y-99465000D01*
X214090000Y-99795000D02*
X207550000Y-99795000D01*
X214090000Y-99465000D02*
X214090000Y-99795000D01*
X135350000Y-126465000D02*
X135350000Y-126135000D01*
X128810000Y-126465000D02*
X135350000Y-126465000D01*
X128810000Y-126135000D02*
X128810000Y-126465000D01*
X135350000Y-123725000D02*
X135350000Y-124055000D01*
X128810000Y-123725000D02*
X135350000Y-123725000D01*
X128810000Y-124055000D02*
X128810000Y-123725000D01*
X135350000Y-122960000D02*
X135350000Y-123290000D01*
X135350000Y-123290000D02*
X128810000Y-123290000D01*
X128810000Y-123290000D02*
X128810000Y-122960000D01*
X135350000Y-120880000D02*
X135350000Y-120550000D01*
X135350000Y-120550000D02*
X128810000Y-120550000D01*
X128810000Y-120550000D02*
X128810000Y-120880000D01*
X85811000Y-44165000D02*
X85811000Y-46005000D01*
X86051000Y-44165000D02*
X86051000Y-46005000D01*
X85931000Y-44165000D02*
X85931000Y-46005000D01*
X89815000Y-45085000D02*
X88635000Y-45085000D01*
X84175000Y-45085000D02*
X85355000Y-45085000D01*
X88635000Y-44165000D02*
X85355000Y-44165000D01*
X88635000Y-46005000D02*
X88635000Y-44165000D01*
X85355000Y-46005000D02*
X88635000Y-46005000D01*
X85355000Y-44165000D02*
X85355000Y-46005000D01*
X85185000Y-42645000D02*
X85185000Y-42315000D01*
X78645000Y-42645000D02*
X85185000Y-42645000D01*
X78645000Y-42315000D02*
X78645000Y-42645000D01*
X85185000Y-39905000D02*
X85185000Y-40235000D01*
X78645000Y-39905000D02*
X85185000Y-39905000D01*
X78645000Y-40235000D02*
X78645000Y-39905000D01*
X227330000Y-116840000D02*
X227330000Y-120015000D01*
X227330000Y-120015000D02*
X224790000Y-120015000D01*
X214630000Y-120015000D02*
X214630000Y-114300000D01*
X214630000Y-114300000D02*
X227330000Y-114300000D01*
X227330000Y-114300000D02*
X227330000Y-116840000D01*
X224790000Y-120015000D02*
X224790000Y-118745000D01*
X224790000Y-118745000D02*
X221615000Y-118745000D01*
X221615000Y-118745000D02*
X221615000Y-119380000D01*
X221615000Y-119380000D02*
X220345000Y-119380000D01*
X220345000Y-119380000D02*
X220345000Y-118745000D01*
X220345000Y-118745000D02*
X217170000Y-118745000D01*
X217170000Y-118745000D02*
X217170000Y-120015000D01*
X217170000Y-120015000D02*
X214630000Y-120015000D01*
X221615000Y-118745000D02*
X220345000Y-118745000D01*
D11*
X99020476Y-99512380D02*
X99020476Y-98512380D01*
X99353809Y-99226666D01*
X99687142Y-98512380D01*
X99687142Y-99512380D01*
X100163333Y-99512380D02*
X100163333Y-98512380D01*
X100401428Y-98512380D01*
X100544285Y-98560000D01*
X100639523Y-98655238D01*
X100687142Y-98750476D01*
X100734761Y-98940952D01*
X100734761Y-99083809D01*
X100687142Y-99274285D01*
X100639523Y-99369523D01*
X100544285Y-99464761D01*
X100401428Y-99512380D01*
X100163333Y-99512380D01*
X101591904Y-98845714D02*
X101591904Y-99512380D01*
X101353809Y-98464761D02*
X101115714Y-99179047D01*
X101734761Y-99179047D01*
X70302380Y-53538095D02*
X69302380Y-53538095D01*
X70016666Y-53204761D01*
X69302380Y-52871428D01*
X70302380Y-52871428D01*
X69302380Y-52204761D02*
X69302380Y-52014285D01*
X69350000Y-51919047D01*
X69445238Y-51823809D01*
X69635714Y-51776190D01*
X69969047Y-51776190D01*
X70159523Y-51823809D01*
X70254761Y-51919047D01*
X70302380Y-52014285D01*
X70302380Y-52204761D01*
X70254761Y-52300000D01*
X70159523Y-52395238D01*
X69969047Y-52442857D01*
X69635714Y-52442857D01*
X69445238Y-52395238D01*
X69350000Y-52300000D01*
X69302380Y-52204761D01*
X69302380Y-51490476D02*
X69302380Y-50919047D01*
X70302380Y-51204761D02*
X69302380Y-51204761D01*
X69302380Y-50395238D02*
X69302380Y-50204761D01*
X69350000Y-50109523D01*
X69445238Y-50014285D01*
X69635714Y-49966666D01*
X69969047Y-49966666D01*
X70159523Y-50014285D01*
X70254761Y-50109523D01*
X70302380Y-50204761D01*
X70302380Y-50395238D01*
X70254761Y-50490476D01*
X70159523Y-50585714D01*
X69969047Y-50633333D01*
X69635714Y-50633333D01*
X69445238Y-50585714D01*
X69350000Y-50490476D01*
X69302380Y-50395238D01*
X70302380Y-48966666D02*
X69826190Y-49300000D01*
X70302380Y-49538095D02*
X69302380Y-49538095D01*
X69302380Y-49157142D01*
X69350000Y-49061904D01*
X69397619Y-49014285D01*
X69492857Y-48966666D01*
X69635714Y-48966666D01*
X69730952Y-49014285D01*
X69778571Y-49061904D01*
X69826190Y-49157142D01*
X69826190Y-49538095D01*
X70302380Y-48014285D02*
X70302380Y-48585714D01*
X70302380Y-48300000D02*
X69302380Y-48300000D01*
X69445238Y-48395238D01*
X69540476Y-48490476D01*
X69588095Y-48585714D01*
X208031667Y-39782381D02*
X208031667Y-40496667D01*
X207984048Y-40639524D01*
X207888810Y-40734762D01*
X207745953Y-40782381D01*
X207650715Y-40782381D01*
X208412620Y-39782381D02*
X209079286Y-39782381D01*
X208650715Y-40782381D01*
X126960476Y-99512380D02*
X126960476Y-98512380D01*
X127293809Y-99226666D01*
X127627142Y-98512380D01*
X127627142Y-99512380D01*
X128103333Y-99512380D02*
X128103333Y-98512380D01*
X128341428Y-98512380D01*
X128484285Y-98560000D01*
X128579523Y-98655238D01*
X128627142Y-98750476D01*
X128674761Y-98940952D01*
X128674761Y-99083809D01*
X128627142Y-99274285D01*
X128579523Y-99369523D01*
X128484285Y-99464761D01*
X128341428Y-99512380D01*
X128103333Y-99512380D01*
X129008095Y-98512380D02*
X129627142Y-98512380D01*
X129293809Y-98893333D01*
X129436666Y-98893333D01*
X129531904Y-98940952D01*
X129579523Y-98988571D01*
X129627142Y-99083809D01*
X129627142Y-99321904D01*
X129579523Y-99417142D01*
X129531904Y-99464761D01*
X129436666Y-99512380D01*
X129150952Y-99512380D01*
X129055714Y-99464761D01*
X129008095Y-99417142D01*
X127531904Y-87462380D02*
X127531904Y-86462380D01*
X127770000Y-86462380D01*
X127912857Y-86510000D01*
X128008095Y-86605238D01*
X128055714Y-86700476D01*
X128103333Y-86890952D01*
X128103333Y-87033809D01*
X128055714Y-87224285D01*
X128008095Y-87319523D01*
X127912857Y-87414761D01*
X127770000Y-87462380D01*
X127531904Y-87462380D01*
X128484285Y-86557619D02*
X128531904Y-86510000D01*
X128627142Y-86462380D01*
X128865238Y-86462380D01*
X128960476Y-86510000D01*
X129008095Y-86557619D01*
X129055714Y-86652857D01*
X129055714Y-86748095D01*
X129008095Y-86890952D01*
X128436666Y-87462380D01*
X129055714Y-87462380D01*
X131818095Y-87292380D02*
X131818095Y-86292380D01*
X132389523Y-87292380D02*
X131960952Y-86720952D01*
X132389523Y-86292380D02*
X131818095Y-86863809D01*
X127531904Y-48092380D02*
X127531904Y-47092380D01*
X127770000Y-47092380D01*
X127912857Y-47140000D01*
X128008095Y-47235238D01*
X128055714Y-47330476D01*
X128103333Y-47520952D01*
X128103333Y-47663809D01*
X128055714Y-47854285D01*
X128008095Y-47949523D01*
X127912857Y-48044761D01*
X127770000Y-48092380D01*
X127531904Y-48092380D01*
X129055714Y-48092380D02*
X128484285Y-48092380D01*
X128770000Y-48092380D02*
X128770000Y-47092380D01*
X128674761Y-47235238D01*
X128579523Y-47330476D01*
X128484285Y-47378095D01*
X131818095Y-47922380D02*
X131818095Y-46922380D01*
X132389523Y-47922380D02*
X131960952Y-47350952D01*
X132389523Y-46922380D02*
X131818095Y-47493809D01*
X99591904Y-48092380D02*
X99591904Y-47092380D01*
X99830000Y-47092380D01*
X99972857Y-47140000D01*
X100068095Y-47235238D01*
X100115714Y-47330476D01*
X100163333Y-47520952D01*
X100163333Y-47663809D01*
X100115714Y-47854285D01*
X100068095Y-47949523D01*
X99972857Y-48044761D01*
X99830000Y-48092380D01*
X99591904Y-48092380D01*
X100496666Y-47092380D02*
X101115714Y-47092380D01*
X100782380Y-47473333D01*
X100925238Y-47473333D01*
X101020476Y-47520952D01*
X101068095Y-47568571D01*
X101115714Y-47663809D01*
X101115714Y-47901904D01*
X101068095Y-47997142D01*
X101020476Y-48044761D01*
X100925238Y-48092380D01*
X100639523Y-48092380D01*
X100544285Y-48044761D01*
X100496666Y-47997142D01*
X103878095Y-47922380D02*
X103878095Y-46922380D01*
X104449523Y-47922380D02*
X104020952Y-47350952D01*
X104449523Y-46922380D02*
X103878095Y-47493809D01*
X99591904Y-87462380D02*
X99591904Y-86462380D01*
X99830000Y-86462380D01*
X99972857Y-86510000D01*
X100068095Y-86605238D01*
X100115714Y-86700476D01*
X100163333Y-86890952D01*
X100163333Y-87033809D01*
X100115714Y-87224285D01*
X100068095Y-87319523D01*
X99972857Y-87414761D01*
X99830000Y-87462380D01*
X99591904Y-87462380D01*
X101020476Y-86795714D02*
X101020476Y-87462380D01*
X100782380Y-86414761D02*
X100544285Y-87129047D01*
X101163333Y-87129047D01*
X103878095Y-87292380D02*
X103878095Y-86292380D01*
X104449523Y-87292380D02*
X104020952Y-86720952D01*
X104449523Y-86292380D02*
X103878095Y-86863809D01*
X213891904Y-59507380D02*
X213891904Y-58507380D01*
X214130000Y-58507380D01*
X214272857Y-58555000D01*
X214368095Y-58650238D01*
X214415714Y-58745476D01*
X214463333Y-58935952D01*
X214463333Y-59078809D01*
X214415714Y-59269285D01*
X214368095Y-59364523D01*
X214272857Y-59459761D01*
X214130000Y-59507380D01*
X213891904Y-59507380D01*
X215368095Y-58507380D02*
X214891904Y-58507380D01*
X214844285Y-58983571D01*
X214891904Y-58935952D01*
X214987142Y-58888333D01*
X215225238Y-58888333D01*
X215320476Y-58935952D01*
X215368095Y-58983571D01*
X215415714Y-59078809D01*
X215415714Y-59316904D01*
X215368095Y-59412142D01*
X215320476Y-59459761D01*
X215225238Y-59507380D01*
X214987142Y-59507380D01*
X214891904Y-59459761D01*
X214844285Y-59412142D01*
X213891904Y-67127380D02*
X213891904Y-66127380D01*
X214130000Y-66127380D01*
X214272857Y-66175000D01*
X214368095Y-66270238D01*
X214415714Y-66365476D01*
X214463333Y-66555952D01*
X214463333Y-66698809D01*
X214415714Y-66889285D01*
X214368095Y-66984523D01*
X214272857Y-67079761D01*
X214130000Y-67127380D01*
X213891904Y-67127380D01*
X215320476Y-66127380D02*
X215130000Y-66127380D01*
X215034761Y-66175000D01*
X214987142Y-66222619D01*
X214891904Y-66365476D01*
X214844285Y-66555952D01*
X214844285Y-66936904D01*
X214891904Y-67032142D01*
X214939523Y-67079761D01*
X215034761Y-67127380D01*
X215225238Y-67127380D01*
X215320476Y-67079761D01*
X215368095Y-67032142D01*
X215415714Y-66936904D01*
X215415714Y-66698809D01*
X215368095Y-66603571D01*
X215320476Y-66555952D01*
X215225238Y-66508333D01*
X215034761Y-66508333D01*
X214939523Y-66555952D01*
X214891904Y-66603571D01*
X214844285Y-66698809D01*
X213891904Y-63317380D02*
X213891904Y-62317380D01*
X214130000Y-62317380D01*
X214272857Y-62365000D01*
X214368095Y-62460238D01*
X214415714Y-62555476D01*
X214463333Y-62745952D01*
X214463333Y-62888809D01*
X214415714Y-63079285D01*
X214368095Y-63174523D01*
X214272857Y-63269761D01*
X214130000Y-63317380D01*
X213891904Y-63317380D01*
X214796666Y-62317380D02*
X215463333Y-62317380D01*
X215034761Y-63317380D01*
X213891904Y-70937380D02*
X213891904Y-69937380D01*
X214130000Y-69937380D01*
X214272857Y-69985000D01*
X214368095Y-70080238D01*
X214415714Y-70175476D01*
X214463333Y-70365952D01*
X214463333Y-70508809D01*
X214415714Y-70699285D01*
X214368095Y-70794523D01*
X214272857Y-70889761D01*
X214130000Y-70937380D01*
X213891904Y-70937380D01*
X215034761Y-70365952D02*
X214939523Y-70318333D01*
X214891904Y-70270714D01*
X214844285Y-70175476D01*
X214844285Y-70127857D01*
X214891904Y-70032619D01*
X214939523Y-69985000D01*
X215034761Y-69937380D01*
X215225238Y-69937380D01*
X215320476Y-69985000D01*
X215368095Y-70032619D01*
X215415714Y-70127857D01*
X215415714Y-70175476D01*
X215368095Y-70270714D01*
X215320476Y-70318333D01*
X215225238Y-70365952D01*
X215034761Y-70365952D01*
X214939523Y-70413571D01*
X214891904Y-70461190D01*
X214844285Y-70556428D01*
X214844285Y-70746904D01*
X214891904Y-70842142D01*
X214939523Y-70889761D01*
X215034761Y-70937380D01*
X215225238Y-70937380D01*
X215320476Y-70889761D01*
X215368095Y-70842142D01*
X215415714Y-70746904D01*
X215415714Y-70556428D01*
X215368095Y-70461190D01*
X215320476Y-70413571D01*
X215225238Y-70365952D01*
X216099047Y-110656666D02*
X216575238Y-110656666D01*
X216003809Y-110942380D02*
X216337142Y-109942380D01*
X216670476Y-110942380D01*
X217575238Y-110847142D02*
X217527619Y-110894761D01*
X217384761Y-110942380D01*
X217289523Y-110942380D01*
X217146666Y-110894761D01*
X217051428Y-110799523D01*
X217003809Y-110704285D01*
X216956190Y-110513809D01*
X216956190Y-110370952D01*
X217003809Y-110180476D01*
X217051428Y-110085238D01*
X217146666Y-109990000D01*
X217289523Y-109942380D01*
X217384761Y-109942380D01*
X217527619Y-109990000D01*
X217575238Y-110037619D01*
X218575238Y-110847142D02*
X218527619Y-110894761D01*
X218384761Y-110942380D01*
X218289523Y-110942380D01*
X218146666Y-110894761D01*
X218051428Y-110799523D01*
X218003809Y-110704285D01*
X217956190Y-110513809D01*
X217956190Y-110370952D01*
X218003809Y-110180476D01*
X218051428Y-110085238D01*
X218146666Y-109990000D01*
X218289523Y-109942380D01*
X218384761Y-109942380D01*
X218527619Y-109990000D01*
X218575238Y-110037619D01*
X219003809Y-110418571D02*
X219337142Y-110418571D01*
X219480000Y-110942380D02*
X219003809Y-110942380D01*
X219003809Y-109942380D01*
X219480000Y-109942380D01*
X220384761Y-110942380D02*
X219908571Y-110942380D01*
X219908571Y-109942380D01*
X220480000Y-111037619D02*
X221241904Y-111037619D01*
X221432380Y-110894761D02*
X221575238Y-110942380D01*
X221813333Y-110942380D01*
X221908571Y-110894761D01*
X221956190Y-110847142D01*
X222003809Y-110751904D01*
X222003809Y-110656666D01*
X221956190Y-110561428D01*
X221908571Y-110513809D01*
X221813333Y-110466190D01*
X221622857Y-110418571D01*
X221527619Y-110370952D01*
X221480000Y-110323333D01*
X221432380Y-110228095D01*
X221432380Y-110132857D01*
X221480000Y-110037619D01*
X221527619Y-109990000D01*
X221622857Y-109942380D01*
X221860952Y-109942380D01*
X222003809Y-109990000D01*
X222432380Y-110418571D02*
X222765714Y-110418571D01*
X222908571Y-110942380D02*
X222432380Y-110942380D01*
X222432380Y-109942380D01*
X222908571Y-109942380D01*
X223337142Y-110942380D02*
X223337142Y-109942380D01*
X223908571Y-110942380D01*
X223908571Y-109942380D01*
X224337142Y-110894761D02*
X224480000Y-110942380D01*
X224718095Y-110942380D01*
X224813333Y-110894761D01*
X224860952Y-110847142D01*
X224908571Y-110751904D01*
X224908571Y-110656666D01*
X224860952Y-110561428D01*
X224813333Y-110513809D01*
X224718095Y-110466190D01*
X224527619Y-110418571D01*
X224432380Y-110370952D01*
X224384761Y-110323333D01*
X224337142Y-110228095D01*
X224337142Y-110132857D01*
X224384761Y-110037619D01*
X224432380Y-109990000D01*
X224527619Y-109942380D01*
X224765714Y-109942380D01*
X224908571Y-109990000D01*
X225860952Y-110942380D02*
X225289523Y-110942380D01*
X225575238Y-110942380D02*
X225575238Y-109942380D01*
X225480000Y-110085238D01*
X225384761Y-110180476D01*
X225289523Y-110228095D01*
X146986666Y-39862380D02*
X146986666Y-40576666D01*
X146939047Y-40719523D01*
X146843809Y-40814761D01*
X146700952Y-40862380D01*
X146605714Y-40862380D01*
X147415238Y-39957619D02*
X147462857Y-39910000D01*
X147558095Y-39862380D01*
X147796190Y-39862380D01*
X147891428Y-39910000D01*
X147939047Y-39957619D01*
X147986666Y-40052857D01*
X147986666Y-40148095D01*
X147939047Y-40290952D01*
X147367619Y-40862380D01*
X147986666Y-40862380D01*
X126960476Y-60142380D02*
X126960476Y-59142380D01*
X127293809Y-59856666D01*
X127627142Y-59142380D01*
X127627142Y-60142380D01*
X128103333Y-60142380D02*
X128103333Y-59142380D01*
X128341428Y-59142380D01*
X128484285Y-59190000D01*
X128579523Y-59285238D01*
X128627142Y-59380476D01*
X128674761Y-59570952D01*
X128674761Y-59713809D01*
X128627142Y-59904285D01*
X128579523Y-59999523D01*
X128484285Y-60094761D01*
X128341428Y-60142380D01*
X128103333Y-60142380D01*
X129627142Y-60142380D02*
X129055714Y-60142380D01*
X129341428Y-60142380D02*
X129341428Y-59142380D01*
X129246190Y-59285238D01*
X129150952Y-59380476D01*
X129055714Y-59428095D01*
X99020476Y-60142380D02*
X99020476Y-59142380D01*
X99353809Y-59856666D01*
X99687142Y-59142380D01*
X99687142Y-60142380D01*
X100163333Y-60142380D02*
X100163333Y-59142380D01*
X100401428Y-59142380D01*
X100544285Y-59190000D01*
X100639523Y-59285238D01*
X100687142Y-59380476D01*
X100734761Y-59570952D01*
X100734761Y-59713809D01*
X100687142Y-59904285D01*
X100639523Y-59999523D01*
X100544285Y-60094761D01*
X100401428Y-60142380D01*
X100163333Y-60142380D01*
X101115714Y-59237619D02*
X101163333Y-59190000D01*
X101258571Y-59142380D01*
X101496666Y-59142380D01*
X101591904Y-59190000D01*
X101639523Y-59237619D01*
X101687142Y-59332857D01*
X101687142Y-59428095D01*
X101639523Y-59570952D01*
X101068095Y-60142380D01*
X101687142Y-60142380D01*
X216551428Y-58872380D02*
X216551428Y-57872380D01*
X216884761Y-58586666D01*
X217218095Y-57872380D01*
X217218095Y-58872380D01*
X217884761Y-57872380D02*
X218075238Y-57872380D01*
X218170476Y-57920000D01*
X218265714Y-58015238D01*
X218313333Y-58205714D01*
X218313333Y-58539047D01*
X218265714Y-58729523D01*
X218170476Y-58824761D01*
X218075238Y-58872380D01*
X217884761Y-58872380D01*
X217789523Y-58824761D01*
X217694285Y-58729523D01*
X217646666Y-58539047D01*
X217646666Y-58205714D01*
X217694285Y-58015238D01*
X217789523Y-57920000D01*
X217884761Y-57872380D01*
X218599047Y-57872380D02*
X218932380Y-58872380D01*
X219265714Y-57872380D01*
X219599047Y-58348571D02*
X219932380Y-58348571D01*
X220075238Y-58872380D02*
X219599047Y-58872380D01*
X219599047Y-57872380D01*
X220075238Y-57872380D01*
X220265714Y-58967619D02*
X221027619Y-58967619D01*
X221265714Y-57872380D02*
X221265714Y-58681904D01*
X221313333Y-58777142D01*
X221360952Y-58824761D01*
X221456190Y-58872380D01*
X221646666Y-58872380D01*
X221741904Y-58824761D01*
X221789523Y-58777142D01*
X221837142Y-58681904D01*
X221837142Y-57872380D01*
X222265714Y-58586666D02*
X222741904Y-58586666D01*
X222170476Y-58872380D02*
X222503809Y-57872380D01*
X222837142Y-58872380D01*
X223741904Y-58872380D02*
X223408571Y-58396190D01*
X223170476Y-58872380D02*
X223170476Y-57872380D01*
X223551428Y-57872380D01*
X223646666Y-57920000D01*
X223694285Y-57967619D01*
X223741904Y-58062857D01*
X223741904Y-58205714D01*
X223694285Y-58300952D01*
X223646666Y-58348571D01*
X223551428Y-58396190D01*
X223170476Y-58396190D01*
X224027619Y-57872380D02*
X224599047Y-57872380D01*
X224313333Y-58872380D02*
X224313333Y-57872380D01*
X225456190Y-58872380D02*
X224884761Y-58872380D01*
X225170476Y-58872380D02*
X225170476Y-57872380D01*
X225075238Y-58015238D01*
X224980000Y-58110476D01*
X224884761Y-58158095D01*
X223353333Y-61412380D02*
X223020000Y-60936190D01*
X222781904Y-61412380D02*
X222781904Y-60412380D01*
X223162857Y-60412380D01*
X223258095Y-60460000D01*
X223305714Y-60507619D01*
X223353333Y-60602857D01*
X223353333Y-60745714D01*
X223305714Y-60840952D01*
X223258095Y-60888571D01*
X223162857Y-60936190D01*
X222781904Y-60936190D01*
X224305714Y-61412380D02*
X223734285Y-61412380D01*
X224020000Y-61412380D02*
X224020000Y-60412380D01*
X223924761Y-60555238D01*
X223829523Y-60650476D01*
X223734285Y-60698095D01*
X223353333Y-69032380D02*
X223020000Y-68556190D01*
X222781904Y-69032380D02*
X222781904Y-68032380D01*
X223162857Y-68032380D01*
X223258095Y-68080000D01*
X223305714Y-68127619D01*
X223353333Y-68222857D01*
X223353333Y-68365714D01*
X223305714Y-68460952D01*
X223258095Y-68508571D01*
X223162857Y-68556190D01*
X222781904Y-68556190D01*
X223734285Y-68127619D02*
X223781904Y-68080000D01*
X223877142Y-68032380D01*
X224115238Y-68032380D01*
X224210476Y-68080000D01*
X224258095Y-68127619D01*
X224305714Y-68222857D01*
X224305714Y-68318095D01*
X224258095Y-68460952D01*
X223686666Y-69032380D01*
X224305714Y-69032380D01*
X223353333Y-65222380D02*
X223020000Y-64746190D01*
X222781904Y-65222380D02*
X222781904Y-64222380D01*
X223162857Y-64222380D01*
X223258095Y-64270000D01*
X223305714Y-64317619D01*
X223353333Y-64412857D01*
X223353333Y-64555714D01*
X223305714Y-64650952D01*
X223258095Y-64698571D01*
X223162857Y-64746190D01*
X222781904Y-64746190D01*
X223686666Y-64222380D02*
X224305714Y-64222380D01*
X223972380Y-64603333D01*
X224115238Y-64603333D01*
X224210476Y-64650952D01*
X224258095Y-64698571D01*
X224305714Y-64793809D01*
X224305714Y-65031904D01*
X224258095Y-65127142D01*
X224210476Y-65174761D01*
X224115238Y-65222380D01*
X223829523Y-65222380D01*
X223734285Y-65174761D01*
X223686666Y-65127142D01*
X223353333Y-72842380D02*
X223020000Y-72366190D01*
X222781904Y-72842380D02*
X222781904Y-71842380D01*
X223162857Y-71842380D01*
X223258095Y-71890000D01*
X223305714Y-71937619D01*
X223353333Y-72032857D01*
X223353333Y-72175714D01*
X223305714Y-72270952D01*
X223258095Y-72318571D01*
X223162857Y-72366190D01*
X222781904Y-72366190D01*
X224210476Y-72175714D02*
X224210476Y-72842380D01*
X223972380Y-71794761D02*
X223734285Y-72509047D01*
X224353333Y-72509047D01*
X78120952Y-56332380D02*
X77787619Y-55856190D01*
X77549523Y-56332380D02*
X77549523Y-55332380D01*
X77930476Y-55332380D01*
X78025714Y-55380000D01*
X78073333Y-55427619D01*
X78120952Y-55522857D01*
X78120952Y-55665714D01*
X78073333Y-55760952D01*
X78025714Y-55808571D01*
X77930476Y-55856190D01*
X77549523Y-55856190D01*
X78549523Y-55808571D02*
X78882857Y-55808571D01*
X79025714Y-56332380D02*
X78549523Y-56332380D01*
X78549523Y-55332380D01*
X79025714Y-55332380D01*
X79978095Y-56332380D02*
X79406666Y-56332380D01*
X79692380Y-56332380D02*
X79692380Y-55332380D01*
X79597142Y-55475238D01*
X79501904Y-55570476D01*
X79406666Y-55618095D01*
X78120952Y-75382380D02*
X77787619Y-74906190D01*
X77549523Y-75382380D02*
X77549523Y-74382380D01*
X77930476Y-74382380D01*
X78025714Y-74430000D01*
X78073333Y-74477619D01*
X78120952Y-74572857D01*
X78120952Y-74715714D01*
X78073333Y-74810952D01*
X78025714Y-74858571D01*
X77930476Y-74906190D01*
X77549523Y-74906190D01*
X78549523Y-74858571D02*
X78882857Y-74858571D01*
X79025714Y-75382380D02*
X78549523Y-75382380D01*
X78549523Y-74382380D01*
X79025714Y-74382380D01*
X79406666Y-74477619D02*
X79454285Y-74430000D01*
X79549523Y-74382380D01*
X79787619Y-74382380D01*
X79882857Y-74430000D01*
X79930476Y-74477619D01*
X79978095Y-74572857D01*
X79978095Y-74668095D01*
X79930476Y-74810952D01*
X79359047Y-75382380D01*
X79978095Y-75382380D01*
X78120952Y-94432380D02*
X77787619Y-93956190D01*
X77549523Y-94432380D02*
X77549523Y-93432380D01*
X77930476Y-93432380D01*
X78025714Y-93480000D01*
X78073333Y-93527619D01*
X78120952Y-93622857D01*
X78120952Y-93765714D01*
X78073333Y-93860952D01*
X78025714Y-93908571D01*
X77930476Y-93956190D01*
X77549523Y-93956190D01*
X78549523Y-93908571D02*
X78882857Y-93908571D01*
X79025714Y-94432380D02*
X78549523Y-94432380D01*
X78549523Y-93432380D01*
X79025714Y-93432380D01*
X79359047Y-93432380D02*
X79978095Y-93432380D01*
X79644761Y-93813333D01*
X79787619Y-93813333D01*
X79882857Y-93860952D01*
X79930476Y-93908571D01*
X79978095Y-94003809D01*
X79978095Y-94241904D01*
X79930476Y-94337142D01*
X79882857Y-94384761D01*
X79787619Y-94432380D01*
X79501904Y-94432380D01*
X79406666Y-94384761D01*
X79359047Y-94337142D01*
X78120952Y-114752380D02*
X77787619Y-114276190D01*
X77549523Y-114752380D02*
X77549523Y-113752380D01*
X77930476Y-113752380D01*
X78025714Y-113800000D01*
X78073333Y-113847619D01*
X78120952Y-113942857D01*
X78120952Y-114085714D01*
X78073333Y-114180952D01*
X78025714Y-114228571D01*
X77930476Y-114276190D01*
X77549523Y-114276190D01*
X78549523Y-114228571D02*
X78882857Y-114228571D01*
X79025714Y-114752380D02*
X78549523Y-114752380D01*
X78549523Y-113752380D01*
X79025714Y-113752380D01*
X79882857Y-114085714D02*
X79882857Y-114752380D01*
X79644761Y-113704761D02*
X79406666Y-114419047D01*
X80025714Y-114419047D01*
X216980000Y-77874761D02*
X217122857Y-77922380D01*
X217360952Y-77922380D01*
X217456190Y-77874761D01*
X217503809Y-77827142D01*
X217551428Y-77731904D01*
X217551428Y-77636666D01*
X217503809Y-77541428D01*
X217456190Y-77493809D01*
X217360952Y-77446190D01*
X217170476Y-77398571D01*
X217075238Y-77350952D01*
X217027619Y-77303333D01*
X216980000Y-77208095D01*
X216980000Y-77112857D01*
X217027619Y-77017619D01*
X217075238Y-76970000D01*
X217170476Y-76922380D01*
X217408571Y-76922380D01*
X217551428Y-76970000D01*
X217980000Y-76922380D02*
X217980000Y-77731904D01*
X218027619Y-77827142D01*
X218075238Y-77874761D01*
X218170476Y-77922380D01*
X218360952Y-77922380D01*
X218456190Y-77874761D01*
X218503809Y-77827142D01*
X218551428Y-77731904D01*
X218551428Y-76922380D01*
X219360952Y-77398571D02*
X219503809Y-77446190D01*
X219551428Y-77493809D01*
X219599047Y-77589047D01*
X219599047Y-77731904D01*
X219551428Y-77827142D01*
X219503809Y-77874761D01*
X219408571Y-77922380D01*
X219027619Y-77922380D01*
X219027619Y-76922380D01*
X219360952Y-76922380D01*
X219456190Y-76970000D01*
X219503809Y-77017619D01*
X219551428Y-77112857D01*
X219551428Y-77208095D01*
X219503809Y-77303333D01*
X219456190Y-77350952D01*
X219360952Y-77398571D01*
X219027619Y-77398571D01*
X219789523Y-78017619D02*
X220551428Y-78017619D01*
X220789523Y-76922380D02*
X220789523Y-77731904D01*
X220837142Y-77827142D01*
X220884761Y-77874761D01*
X220980000Y-77922380D01*
X221170476Y-77922380D01*
X221265714Y-77874761D01*
X221313333Y-77827142D01*
X221360952Y-77731904D01*
X221360952Y-76922380D01*
X221789523Y-77636666D02*
X222265714Y-77636666D01*
X221694285Y-77922380D02*
X222027619Y-76922380D01*
X222360952Y-77922380D01*
X223265714Y-77922380D02*
X222932380Y-77446190D01*
X222694285Y-77922380D02*
X222694285Y-76922380D01*
X223075238Y-76922380D01*
X223170476Y-76970000D01*
X223218095Y-77017619D01*
X223265714Y-77112857D01*
X223265714Y-77255714D01*
X223218095Y-77350952D01*
X223170476Y-77398571D01*
X223075238Y-77446190D01*
X222694285Y-77446190D01*
X223551428Y-76922380D02*
X224122857Y-76922380D01*
X223837142Y-77922380D02*
X223837142Y-76922380D01*
X224980000Y-77922380D02*
X224408571Y-77922380D01*
X224694285Y-77922380D02*
X224694285Y-76922380D01*
X224599047Y-77065238D01*
X224503809Y-77160476D01*
X224408571Y-77208095D01*
X230408571Y-93670952D02*
X230456190Y-93528095D01*
X230503809Y-93480476D01*
X230599047Y-93432857D01*
X230741904Y-93432857D01*
X230837142Y-93480476D01*
X230884761Y-93528095D01*
X230932380Y-93623333D01*
X230932380Y-94004285D01*
X229932380Y-94004285D01*
X229932380Y-93670952D01*
X229980000Y-93575714D01*
X230027619Y-93528095D01*
X230122857Y-93480476D01*
X230218095Y-93480476D01*
X230313333Y-93528095D01*
X230360952Y-93575714D01*
X230408571Y-93670952D01*
X230408571Y-94004285D01*
X229932380Y-93099523D02*
X229932380Y-92432857D01*
X230932380Y-93099523D01*
X230932380Y-92432857D01*
X230932380Y-91528095D02*
X230932380Y-92099523D01*
X230932380Y-91813809D02*
X229932380Y-91813809D01*
X230075238Y-91909047D01*
X230170476Y-92004285D01*
X230218095Y-92099523D01*
X224861428Y-88000952D02*
X224861428Y-87239047D01*
X225242380Y-87620000D02*
X224480476Y-87620000D01*
X70302380Y-72588095D02*
X69302380Y-72588095D01*
X70016666Y-72254761D01*
X69302380Y-71921428D01*
X70302380Y-71921428D01*
X69302380Y-71254761D02*
X69302380Y-71064285D01*
X69350000Y-70969047D01*
X69445238Y-70873809D01*
X69635714Y-70826190D01*
X69969047Y-70826190D01*
X70159523Y-70873809D01*
X70254761Y-70969047D01*
X70302380Y-71064285D01*
X70302380Y-71254761D01*
X70254761Y-71350000D01*
X70159523Y-71445238D01*
X69969047Y-71492857D01*
X69635714Y-71492857D01*
X69445238Y-71445238D01*
X69350000Y-71350000D01*
X69302380Y-71254761D01*
X69302380Y-70540476D02*
X69302380Y-69969047D01*
X70302380Y-70254761D02*
X69302380Y-70254761D01*
X69302380Y-69445238D02*
X69302380Y-69254761D01*
X69350000Y-69159523D01*
X69445238Y-69064285D01*
X69635714Y-69016666D01*
X69969047Y-69016666D01*
X70159523Y-69064285D01*
X70254761Y-69159523D01*
X70302380Y-69254761D01*
X70302380Y-69445238D01*
X70254761Y-69540476D01*
X70159523Y-69635714D01*
X69969047Y-69683333D01*
X69635714Y-69683333D01*
X69445238Y-69635714D01*
X69350000Y-69540476D01*
X69302380Y-69445238D01*
X70302380Y-68016666D02*
X69826190Y-68350000D01*
X70302380Y-68588095D02*
X69302380Y-68588095D01*
X69302380Y-68207142D01*
X69350000Y-68111904D01*
X69397619Y-68064285D01*
X69492857Y-68016666D01*
X69635714Y-68016666D01*
X69730952Y-68064285D01*
X69778571Y-68111904D01*
X69826190Y-68207142D01*
X69826190Y-68588095D01*
X69397619Y-67635714D02*
X69350000Y-67588095D01*
X69302380Y-67492857D01*
X69302380Y-67254761D01*
X69350000Y-67159523D01*
X69397619Y-67111904D01*
X69492857Y-67064285D01*
X69588095Y-67064285D01*
X69730952Y-67111904D01*
X70302380Y-67683333D01*
X70302380Y-67064285D01*
X70302380Y-91638095D02*
X69302380Y-91638095D01*
X70016666Y-91304761D01*
X69302380Y-90971428D01*
X70302380Y-90971428D01*
X69302380Y-90304761D02*
X69302380Y-90114285D01*
X69350000Y-90019047D01*
X69445238Y-89923809D01*
X69635714Y-89876190D01*
X69969047Y-89876190D01*
X70159523Y-89923809D01*
X70254761Y-90019047D01*
X70302380Y-90114285D01*
X70302380Y-90304761D01*
X70254761Y-90400000D01*
X70159523Y-90495238D01*
X69969047Y-90542857D01*
X69635714Y-90542857D01*
X69445238Y-90495238D01*
X69350000Y-90400000D01*
X69302380Y-90304761D01*
X69302380Y-89590476D02*
X69302380Y-89019047D01*
X70302380Y-89304761D02*
X69302380Y-89304761D01*
X69302380Y-88495238D02*
X69302380Y-88304761D01*
X69350000Y-88209523D01*
X69445238Y-88114285D01*
X69635714Y-88066666D01*
X69969047Y-88066666D01*
X70159523Y-88114285D01*
X70254761Y-88209523D01*
X70302380Y-88304761D01*
X70302380Y-88495238D01*
X70254761Y-88590476D01*
X70159523Y-88685714D01*
X69969047Y-88733333D01*
X69635714Y-88733333D01*
X69445238Y-88685714D01*
X69350000Y-88590476D01*
X69302380Y-88495238D01*
X70302380Y-87066666D02*
X69826190Y-87400000D01*
X70302380Y-87638095D02*
X69302380Y-87638095D01*
X69302380Y-87257142D01*
X69350000Y-87161904D01*
X69397619Y-87114285D01*
X69492857Y-87066666D01*
X69635714Y-87066666D01*
X69730952Y-87114285D01*
X69778571Y-87161904D01*
X69826190Y-87257142D01*
X69826190Y-87638095D01*
X69302380Y-86733333D02*
X69302380Y-86114285D01*
X69683333Y-86447619D01*
X69683333Y-86304761D01*
X69730952Y-86209523D01*
X69778571Y-86161904D01*
X69873809Y-86114285D01*
X70111904Y-86114285D01*
X70207142Y-86161904D01*
X70254761Y-86209523D01*
X70302380Y-86304761D01*
X70302380Y-86590476D01*
X70254761Y-86685714D01*
X70207142Y-86733333D01*
X70302380Y-111958095D02*
X69302380Y-111958095D01*
X70016666Y-111624761D01*
X69302380Y-111291428D01*
X70302380Y-111291428D01*
X69302380Y-110624761D02*
X69302380Y-110434285D01*
X69350000Y-110339047D01*
X69445238Y-110243809D01*
X69635714Y-110196190D01*
X69969047Y-110196190D01*
X70159523Y-110243809D01*
X70254761Y-110339047D01*
X70302380Y-110434285D01*
X70302380Y-110624761D01*
X70254761Y-110720000D01*
X70159523Y-110815238D01*
X69969047Y-110862857D01*
X69635714Y-110862857D01*
X69445238Y-110815238D01*
X69350000Y-110720000D01*
X69302380Y-110624761D01*
X69302380Y-109910476D02*
X69302380Y-109339047D01*
X70302380Y-109624761D02*
X69302380Y-109624761D01*
X69302380Y-108815238D02*
X69302380Y-108624761D01*
X69350000Y-108529523D01*
X69445238Y-108434285D01*
X69635714Y-108386666D01*
X69969047Y-108386666D01*
X70159523Y-108434285D01*
X70254761Y-108529523D01*
X70302380Y-108624761D01*
X70302380Y-108815238D01*
X70254761Y-108910476D01*
X70159523Y-109005714D01*
X69969047Y-109053333D01*
X69635714Y-109053333D01*
X69445238Y-109005714D01*
X69350000Y-108910476D01*
X69302380Y-108815238D01*
X70302380Y-107386666D02*
X69826190Y-107720000D01*
X70302380Y-107958095D02*
X69302380Y-107958095D01*
X69302380Y-107577142D01*
X69350000Y-107481904D01*
X69397619Y-107434285D01*
X69492857Y-107386666D01*
X69635714Y-107386666D01*
X69730952Y-107434285D01*
X69778571Y-107481904D01*
X69826190Y-107577142D01*
X69826190Y-107958095D01*
X69635714Y-106529523D02*
X70302380Y-106529523D01*
X69254761Y-106767619D02*
X69969047Y-107005714D01*
X69969047Y-106386666D01*
X92123333Y-120967380D02*
X92123333Y-119967380D01*
X92456666Y-120681666D01*
X92790000Y-119967380D01*
X92790000Y-120967380D01*
X93456666Y-119967380D02*
X93647142Y-119967380D01*
X93742380Y-120015000D01*
X93837619Y-120110238D01*
X93885238Y-120300714D01*
X93885238Y-120634047D01*
X93837619Y-120824523D01*
X93742380Y-120919761D01*
X93647142Y-120967380D01*
X93456666Y-120967380D01*
X93361428Y-120919761D01*
X93266190Y-120824523D01*
X93218571Y-120634047D01*
X93218571Y-120300714D01*
X93266190Y-120110238D01*
X93361428Y-120015000D01*
X93456666Y-119967380D01*
X94170952Y-119967380D02*
X94742380Y-119967380D01*
X94456666Y-120967380D02*
X94456666Y-119967380D01*
X95266190Y-119967380D02*
X95456666Y-119967380D01*
X95551904Y-120015000D01*
X95647142Y-120110238D01*
X95694761Y-120300714D01*
X95694761Y-120634047D01*
X95647142Y-120824523D01*
X95551904Y-120919761D01*
X95456666Y-120967380D01*
X95266190Y-120967380D01*
X95170952Y-120919761D01*
X95075714Y-120824523D01*
X95028095Y-120634047D01*
X95028095Y-120300714D01*
X95075714Y-120110238D01*
X95170952Y-120015000D01*
X95266190Y-119967380D01*
X96694761Y-120967380D02*
X96361428Y-120491190D01*
X96123333Y-120967380D02*
X96123333Y-119967380D01*
X96504285Y-119967380D01*
X96599523Y-120015000D01*
X96647142Y-120062619D01*
X96694761Y-120157857D01*
X96694761Y-120300714D01*
X96647142Y-120395952D01*
X96599523Y-120443571D01*
X96504285Y-120491190D01*
X96123333Y-120491190D01*
X96885238Y-121062619D02*
X97647142Y-121062619D01*
X97885238Y-120967380D02*
X97885238Y-119967380D01*
X98266190Y-119967380D01*
X98361428Y-120015000D01*
X98409047Y-120062619D01*
X98456666Y-120157857D01*
X98456666Y-120300714D01*
X98409047Y-120395952D01*
X98361428Y-120443571D01*
X98266190Y-120491190D01*
X97885238Y-120491190D01*
X99075714Y-119967380D02*
X99266190Y-119967380D01*
X99361428Y-120015000D01*
X99456666Y-120110238D01*
X99504285Y-120300714D01*
X99504285Y-120634047D01*
X99456666Y-120824523D01*
X99361428Y-120919761D01*
X99266190Y-120967380D01*
X99075714Y-120967380D01*
X98980476Y-120919761D01*
X98885238Y-120824523D01*
X98837619Y-120634047D01*
X98837619Y-120300714D01*
X98885238Y-120110238D01*
X98980476Y-120015000D01*
X99075714Y-119967380D01*
X99837619Y-119967380D02*
X100075714Y-120967380D01*
X100266190Y-120253095D01*
X100456666Y-120967380D01*
X100694761Y-119967380D01*
X101075714Y-120443571D02*
X101409047Y-120443571D01*
X101551904Y-120967380D02*
X101075714Y-120967380D01*
X101075714Y-119967380D01*
X101551904Y-119967380D01*
X102551904Y-120967380D02*
X102218571Y-120491190D01*
X101980476Y-120967380D02*
X101980476Y-119967380D01*
X102361428Y-119967380D01*
X102456666Y-120015000D01*
X102504285Y-120062619D01*
X102551904Y-120157857D01*
X102551904Y-120300714D01*
X102504285Y-120395952D01*
X102456666Y-120443571D01*
X102361428Y-120491190D01*
X101980476Y-120491190D01*
X103504285Y-120967380D02*
X102932857Y-120967380D01*
X103218571Y-120967380D02*
X103218571Y-119967380D01*
X103123333Y-120110238D01*
X103028095Y-120205476D01*
X102932857Y-120253095D01*
X215654285Y-44902380D02*
X215654285Y-43902380D01*
X216035238Y-43902380D01*
X216130476Y-43950000D01*
X216178095Y-43997619D01*
X216225714Y-44092857D01*
X216225714Y-44235714D01*
X216178095Y-44330952D01*
X216130476Y-44378571D01*
X216035238Y-44426190D01*
X215654285Y-44426190D01*
X216844761Y-43902380D02*
X217035238Y-43902380D01*
X217130476Y-43950000D01*
X217225714Y-44045238D01*
X217273333Y-44235714D01*
X217273333Y-44569047D01*
X217225714Y-44759523D01*
X217130476Y-44854761D01*
X217035238Y-44902380D01*
X216844761Y-44902380D01*
X216749523Y-44854761D01*
X216654285Y-44759523D01*
X216606666Y-44569047D01*
X216606666Y-44235714D01*
X216654285Y-44045238D01*
X216749523Y-43950000D01*
X216844761Y-43902380D01*
X217606666Y-43902380D02*
X217844761Y-44902380D01*
X218035238Y-44188095D01*
X218225714Y-44902380D01*
X218463809Y-43902380D01*
X218844761Y-44378571D02*
X219178095Y-44378571D01*
X219320952Y-44902380D02*
X218844761Y-44902380D01*
X218844761Y-43902380D01*
X219320952Y-43902380D01*
X220320952Y-44902380D02*
X219987619Y-44426190D01*
X219749523Y-44902380D02*
X219749523Y-43902380D01*
X220130476Y-43902380D01*
X220225714Y-43950000D01*
X220273333Y-43997619D01*
X220320952Y-44092857D01*
X220320952Y-44235714D01*
X220273333Y-44330952D01*
X220225714Y-44378571D01*
X220130476Y-44426190D01*
X219749523Y-44426190D01*
X221273333Y-44902380D02*
X220701904Y-44902380D01*
X220987619Y-44902380D02*
X220987619Y-43902380D01*
X220892380Y-44045238D01*
X220797142Y-44140476D01*
X220701904Y-44188095D01*
X206914761Y-96612619D02*
X206819523Y-96565000D01*
X206724285Y-96469761D01*
X206581428Y-96326904D01*
X206486190Y-96279285D01*
X206390952Y-96279285D01*
X206438571Y-96517380D02*
X206343333Y-96469761D01*
X206248095Y-96374523D01*
X206200476Y-96184047D01*
X206200476Y-95850714D01*
X206248095Y-95660238D01*
X206343333Y-95565000D01*
X206438571Y-95517380D01*
X206629047Y-95517380D01*
X206724285Y-95565000D01*
X206819523Y-95660238D01*
X206867142Y-95850714D01*
X206867142Y-96184047D01*
X206819523Y-96374523D01*
X206724285Y-96469761D01*
X206629047Y-96517380D01*
X206438571Y-96517380D01*
X207819523Y-96517380D02*
X207248095Y-96517380D01*
X207533809Y-96517380D02*
X207533809Y-95517380D01*
X207438571Y-95660238D01*
X207343333Y-95755476D01*
X207248095Y-95803095D01*
X213812380Y-90971666D02*
X213336190Y-91305000D01*
X213812380Y-91543095D02*
X212812380Y-91543095D01*
X212812380Y-91162142D01*
X212860000Y-91066904D01*
X212907619Y-91019285D01*
X213002857Y-90971666D01*
X213145714Y-90971666D01*
X213240952Y-91019285D01*
X213288571Y-91066904D01*
X213336190Y-91162142D01*
X213336190Y-91543095D01*
X212812380Y-90066904D02*
X212812380Y-90543095D01*
X213288571Y-90590714D01*
X213240952Y-90543095D01*
X213193333Y-90447857D01*
X213193333Y-90209761D01*
X213240952Y-90114523D01*
X213288571Y-90066904D01*
X213383809Y-90019285D01*
X213621904Y-90019285D01*
X213717142Y-90066904D01*
X213764761Y-90114523D01*
X213812380Y-90209761D01*
X213812380Y-90447857D01*
X213764761Y-90543095D01*
X213717142Y-90590714D01*
X210653333Y-98877380D02*
X210320000Y-98401190D01*
X210081904Y-98877380D02*
X210081904Y-97877380D01*
X210462857Y-97877380D01*
X210558095Y-97925000D01*
X210605714Y-97972619D01*
X210653333Y-98067857D01*
X210653333Y-98210714D01*
X210605714Y-98305952D01*
X210558095Y-98353571D01*
X210462857Y-98401190D01*
X210081904Y-98401190D01*
X211510476Y-97877380D02*
X211320000Y-97877380D01*
X211224761Y-97925000D01*
X211177142Y-97972619D01*
X211081904Y-98115476D01*
X211034285Y-98305952D01*
X211034285Y-98686904D01*
X211081904Y-98782142D01*
X211129523Y-98829761D01*
X211224761Y-98877380D01*
X211415238Y-98877380D01*
X211510476Y-98829761D01*
X211558095Y-98782142D01*
X211605714Y-98686904D01*
X211605714Y-98448809D01*
X211558095Y-98353571D01*
X211510476Y-98305952D01*
X211415238Y-98258333D01*
X211224761Y-98258333D01*
X211129523Y-98305952D01*
X211081904Y-98353571D01*
X211034285Y-98448809D01*
X131913333Y-125547380D02*
X131580000Y-125071190D01*
X131341904Y-125547380D02*
X131341904Y-124547380D01*
X131722857Y-124547380D01*
X131818095Y-124595000D01*
X131865714Y-124642619D01*
X131913333Y-124737857D01*
X131913333Y-124880714D01*
X131865714Y-124975952D01*
X131818095Y-125023571D01*
X131722857Y-125071190D01*
X131341904Y-125071190D01*
X132246666Y-124547380D02*
X132913333Y-124547380D01*
X132484761Y-125547380D01*
X131913333Y-122372380D02*
X131580000Y-121896190D01*
X131341904Y-122372380D02*
X131341904Y-121372380D01*
X131722857Y-121372380D01*
X131818095Y-121420000D01*
X131865714Y-121467619D01*
X131913333Y-121562857D01*
X131913333Y-121705714D01*
X131865714Y-121800952D01*
X131818095Y-121848571D01*
X131722857Y-121896190D01*
X131341904Y-121896190D01*
X132484761Y-121800952D02*
X132389523Y-121753333D01*
X132341904Y-121705714D01*
X132294285Y-121610476D01*
X132294285Y-121562857D01*
X132341904Y-121467619D01*
X132389523Y-121420000D01*
X132484761Y-121372380D01*
X132675238Y-121372380D01*
X132770476Y-121420000D01*
X132818095Y-121467619D01*
X132865714Y-121562857D01*
X132865714Y-121610476D01*
X132818095Y-121705714D01*
X132770476Y-121753333D01*
X132675238Y-121800952D01*
X132484761Y-121800952D01*
X132389523Y-121848571D01*
X132341904Y-121896190D01*
X132294285Y-121991428D01*
X132294285Y-122181904D01*
X132341904Y-122277142D01*
X132389523Y-122324761D01*
X132484761Y-122372380D01*
X132675238Y-122372380D01*
X132770476Y-122324761D01*
X132818095Y-122277142D01*
X132865714Y-122181904D01*
X132865714Y-121991428D01*
X132818095Y-121896190D01*
X132770476Y-121848571D01*
X132675238Y-121800952D01*
X85621904Y-43632380D02*
X85621904Y-42632380D01*
X85860000Y-42632380D01*
X86002857Y-42680000D01*
X86098095Y-42775238D01*
X86145714Y-42870476D01*
X86193333Y-43060952D01*
X86193333Y-43203809D01*
X86145714Y-43394285D01*
X86098095Y-43489523D01*
X86002857Y-43584761D01*
X85860000Y-43632380D01*
X85621904Y-43632380D01*
X86669523Y-43632380D02*
X86860000Y-43632380D01*
X86955238Y-43584761D01*
X87002857Y-43537142D01*
X87098095Y-43394285D01*
X87145714Y-43203809D01*
X87145714Y-42822857D01*
X87098095Y-42727619D01*
X87050476Y-42680000D01*
X86955238Y-42632380D01*
X86764761Y-42632380D01*
X86669523Y-42680000D01*
X86621904Y-42727619D01*
X86574285Y-42822857D01*
X86574285Y-43060952D01*
X86621904Y-43156190D01*
X86669523Y-43203809D01*
X86764761Y-43251428D01*
X86955238Y-43251428D01*
X87050476Y-43203809D01*
X87098095Y-43156190D01*
X87145714Y-43060952D01*
X82923095Y-43787380D02*
X82923095Y-42787380D01*
X83494523Y-43787380D02*
X83065952Y-43215952D01*
X83494523Y-42787380D02*
X82923095Y-43358809D01*
X81748333Y-41727380D02*
X81415000Y-41251190D01*
X81176904Y-41727380D02*
X81176904Y-40727380D01*
X81557857Y-40727380D01*
X81653095Y-40775000D01*
X81700714Y-40822619D01*
X81748333Y-40917857D01*
X81748333Y-41060714D01*
X81700714Y-41155952D01*
X81653095Y-41203571D01*
X81557857Y-41251190D01*
X81176904Y-41251190D01*
X82224523Y-41727380D02*
X82415000Y-41727380D01*
X82510238Y-41679761D01*
X82557857Y-41632142D01*
X82653095Y-41489285D01*
X82700714Y-41298809D01*
X82700714Y-40917857D01*
X82653095Y-40822619D01*
X82605476Y-40775000D01*
X82510238Y-40727380D01*
X82319761Y-40727380D01*
X82224523Y-40775000D01*
X82176904Y-40822619D01*
X82129285Y-40917857D01*
X82129285Y-41155952D01*
X82176904Y-41251190D01*
X82224523Y-41298809D01*
X82319761Y-41346428D01*
X82510238Y-41346428D01*
X82605476Y-41298809D01*
X82653095Y-41251190D01*
X82700714Y-41155952D01*
X216099047Y-120816666D02*
X216575238Y-120816666D01*
X216003809Y-121102380D02*
X216337142Y-120102380D01*
X216670476Y-121102380D01*
X217575238Y-121007142D02*
X217527619Y-121054761D01*
X217384761Y-121102380D01*
X217289523Y-121102380D01*
X217146666Y-121054761D01*
X217051428Y-120959523D01*
X217003809Y-120864285D01*
X216956190Y-120673809D01*
X216956190Y-120530952D01*
X217003809Y-120340476D01*
X217051428Y-120245238D01*
X217146666Y-120150000D01*
X217289523Y-120102380D01*
X217384761Y-120102380D01*
X217527619Y-120150000D01*
X217575238Y-120197619D01*
X218575238Y-121007142D02*
X218527619Y-121054761D01*
X218384761Y-121102380D01*
X218289523Y-121102380D01*
X218146666Y-121054761D01*
X218051428Y-120959523D01*
X218003809Y-120864285D01*
X217956190Y-120673809D01*
X217956190Y-120530952D01*
X218003809Y-120340476D01*
X218051428Y-120245238D01*
X218146666Y-120150000D01*
X218289523Y-120102380D01*
X218384761Y-120102380D01*
X218527619Y-120150000D01*
X218575238Y-120197619D01*
X219003809Y-120578571D02*
X219337142Y-120578571D01*
X219480000Y-121102380D02*
X219003809Y-121102380D01*
X219003809Y-120102380D01*
X219480000Y-120102380D01*
X220384761Y-121102380D02*
X219908571Y-121102380D01*
X219908571Y-120102380D01*
X220480000Y-121197619D02*
X221241904Y-121197619D01*
X221432380Y-121054761D02*
X221575238Y-121102380D01*
X221813333Y-121102380D01*
X221908571Y-121054761D01*
X221956190Y-121007142D01*
X222003809Y-120911904D01*
X222003809Y-120816666D01*
X221956190Y-120721428D01*
X221908571Y-120673809D01*
X221813333Y-120626190D01*
X221622857Y-120578571D01*
X221527619Y-120530952D01*
X221480000Y-120483333D01*
X221432380Y-120388095D01*
X221432380Y-120292857D01*
X221480000Y-120197619D01*
X221527619Y-120150000D01*
X221622857Y-120102380D01*
X221860952Y-120102380D01*
X222003809Y-120150000D01*
X222432380Y-120578571D02*
X222765714Y-120578571D01*
X222908571Y-121102380D02*
X222432380Y-121102380D01*
X222432380Y-120102380D01*
X222908571Y-120102380D01*
X223337142Y-121102380D02*
X223337142Y-120102380D01*
X223908571Y-121102380D01*
X223908571Y-120102380D01*
X224337142Y-121054761D02*
X224480000Y-121102380D01*
X224718095Y-121102380D01*
X224813333Y-121054761D01*
X224860952Y-121007142D01*
X224908571Y-120911904D01*
X224908571Y-120816666D01*
X224860952Y-120721428D01*
X224813333Y-120673809D01*
X224718095Y-120626190D01*
X224527619Y-120578571D01*
X224432380Y-120530952D01*
X224384761Y-120483333D01*
X224337142Y-120388095D01*
X224337142Y-120292857D01*
X224384761Y-120197619D01*
X224432380Y-120150000D01*
X224527619Y-120102380D01*
X224765714Y-120102380D01*
X224908571Y-120150000D01*
X225289523Y-120197619D02*
X225337142Y-120150000D01*
X225432380Y-120102380D01*
X225670476Y-120102380D01*
X225765714Y-120150000D01*
X225813333Y-120197619D01*
X225860952Y-120292857D01*
X225860952Y-120388095D01*
X225813333Y-120530952D01*
X225241904Y-121102380D01*
X225860952Y-121102380D01*
%LPC*%
D12*
X71755000Y-126365000D03*
X72390000Y-42545000D03*
X227965000Y-42545000D03*
X227965000Y-126365000D03*
D13*
X111760000Y-81280000D03*
X109220000Y-81280000D03*
X106680000Y-81280000D03*
X104140000Y-81280000D03*
X101600000Y-81280000D03*
X99060000Y-81280000D03*
X96520000Y-81280000D03*
X93980000Y-81280000D03*
X91440000Y-81280000D03*
X88900000Y-81280000D03*
X111760000Y-116840000D03*
X109220000Y-116840000D03*
X106680000Y-116840000D03*
X104140000Y-116840000D03*
X101600000Y-116840000D03*
X99060000Y-116840000D03*
X96520000Y-116840000D03*
X93980000Y-116840000D03*
D14*
X74930000Y-50800000D03*
X82550000Y-50800000D03*
G36*
G01*
X208685001Y-43950001D02*
X208685001Y-42250001D01*
G75*
G02*
X208785001Y-42150001I100000J0D01*
G01*
X210485001Y-42150001D01*
G75*
G02*
X210585001Y-42250001I0J-100000D01*
G01*
X210585001Y-43950001D01*
G75*
G02*
X210485001Y-44050001I-100000J0D01*
G01*
X208785001Y-44050001D01*
G75*
G02*
X208685001Y-43950001I0J100000D01*
G01*
G37*
D15*
X207095001Y-43100001D03*
X209635001Y-45640001D03*
X207095001Y-45640001D03*
X209635001Y-48180001D03*
X207095001Y-48180001D03*
X209635001Y-50720001D03*
X207095001Y-50720001D03*
X209635001Y-53260001D03*
X207095001Y-53260001D03*
X209635001Y-55800001D03*
X207095001Y-55800001D03*
X209635001Y-58340001D03*
X207095001Y-58340001D03*
X209635001Y-60880001D03*
X207095001Y-60880001D03*
X209635001Y-63420001D03*
X207095001Y-63420001D03*
X209635001Y-65960001D03*
X207095001Y-65960001D03*
X209635001Y-68500001D03*
X207095001Y-68500001D03*
X209635001Y-71040001D03*
X207095001Y-71040001D03*
X209635001Y-73580001D03*
X207095001Y-73580001D03*
X209635001Y-76120001D03*
X207095001Y-76120001D03*
X209635001Y-78660001D03*
X207095001Y-78660001D03*
X209635001Y-81200001D03*
X207095001Y-81200001D03*
X209635001Y-83740001D03*
X207095001Y-83740001D03*
X209635001Y-86280001D03*
X207095001Y-86280001D03*
X209635001Y-88820001D03*
X207095001Y-88820001D03*
D13*
X121920000Y-116840000D03*
X124460000Y-116840000D03*
X127000000Y-116840000D03*
X129540000Y-116840000D03*
X132080000Y-116840000D03*
X134620000Y-116840000D03*
X137160000Y-116840000D03*
X139700000Y-116840000D03*
X116840000Y-81280000D03*
X119380000Y-81280000D03*
X121920000Y-81280000D03*
X124460000Y-81280000D03*
X127000000Y-81280000D03*
X129540000Y-81280000D03*
X132080000Y-81280000D03*
X134620000Y-81280000D03*
X137160000Y-81280000D03*
X139700000Y-81280000D03*
G36*
G01*
X132930000Y-84340000D02*
X132930000Y-85840000D01*
G75*
G02*
X132830000Y-85940000I-100000J0D01*
G01*
X131330000Y-85940000D01*
G75*
G02*
X131230000Y-85840000I0J100000D01*
G01*
X131230000Y-84340000D01*
G75*
G02*
X131330000Y-84240000I100000J0D01*
G01*
X132830000Y-84240000D01*
G75*
G02*
X132930000Y-84340000I0J-100000D01*
G01*
G37*
D16*
X124460000Y-85090000D03*
X124460000Y-45720000D03*
G36*
G01*
X132930000Y-44970000D02*
X132930000Y-46470000D01*
G75*
G02*
X132830000Y-46570000I-100000J0D01*
G01*
X131330000Y-46570000D01*
G75*
G02*
X131230000Y-46470000I0J100000D01*
G01*
X131230000Y-44970000D01*
G75*
G02*
X131330000Y-44870000I100000J0D01*
G01*
X132830000Y-44870000D01*
G75*
G02*
X132930000Y-44970000I0J-100000D01*
G01*
G37*
X96520000Y-45720000D03*
G36*
G01*
X104990000Y-44970000D02*
X104990000Y-46470000D01*
G75*
G02*
X104890000Y-46570000I-100000J0D01*
G01*
X103390000Y-46570000D01*
G75*
G02*
X103290000Y-46470000I0J100000D01*
G01*
X103290000Y-44970000D01*
G75*
G02*
X103390000Y-44870000I100000J0D01*
G01*
X104890000Y-44870000D01*
G75*
G02*
X104990000Y-44970000I0J-100000D01*
G01*
G37*
G36*
G01*
X104990000Y-84340000D02*
X104990000Y-85840000D01*
G75*
G02*
X104890000Y-85940000I-100000J0D01*
G01*
X103390000Y-85940000D01*
G75*
G02*
X103290000Y-85840000I0J100000D01*
G01*
X103290000Y-84340000D01*
G75*
G02*
X103390000Y-84240000I100000J0D01*
G01*
X104890000Y-84240000D01*
G75*
G02*
X104990000Y-84340000I0J-100000D01*
G01*
G37*
X96520000Y-85090000D03*
G36*
G01*
X216900000Y-60060000D02*
X216900000Y-61860000D01*
G75*
G02*
X216800000Y-61960000I-100000J0D01*
G01*
X215000000Y-61960000D01*
G75*
G02*
X214900000Y-61860000I0J100000D01*
G01*
X214900000Y-60060000D01*
G75*
G02*
X215000000Y-59960000I100000J0D01*
G01*
X216800000Y-59960000D01*
G75*
G02*
X216900000Y-60060000I0J-100000D01*
G01*
G37*
D17*
X213360000Y-60960000D03*
G36*
G01*
X216900000Y-67680000D02*
X216900000Y-69480000D01*
G75*
G02*
X216800000Y-69580000I-100000J0D01*
G01*
X215000000Y-69580000D01*
G75*
G02*
X214900000Y-69480000I0J100000D01*
G01*
X214900000Y-67680000D01*
G75*
G02*
X215000000Y-67580000I100000J0D01*
G01*
X216800000Y-67580000D01*
G75*
G02*
X216900000Y-67680000I0J-100000D01*
G01*
G37*
X213360000Y-68580000D03*
X213360000Y-64770000D03*
G36*
G01*
X216900000Y-63870000D02*
X216900000Y-65670000D01*
G75*
G02*
X216800000Y-65770000I-100000J0D01*
G01*
X215000000Y-65770000D01*
G75*
G02*
X214900000Y-65670000I0J100000D01*
G01*
X214900000Y-63870000D01*
G75*
G02*
X215000000Y-63770000I100000J0D01*
G01*
X216800000Y-63770000D01*
G75*
G02*
X216900000Y-63870000I0J-100000D01*
G01*
G37*
X213360000Y-72390000D03*
G36*
G01*
X216900000Y-71490000D02*
X216900000Y-73290000D01*
G75*
G02*
X216800000Y-73390000I-100000J0D01*
G01*
X215000000Y-73390000D01*
G75*
G02*
X214900000Y-73290000I0J100000D01*
G01*
X214900000Y-71490000D01*
G75*
G02*
X215000000Y-71390000I100000J0D01*
G01*
X216800000Y-71390000D01*
G75*
G02*
X216900000Y-71490000I0J-100000D01*
G01*
G37*
G36*
G01*
X225652000Y-105918000D02*
X225652000Y-107442000D01*
G75*
G02*
X225552000Y-107542000I-100000J0D01*
G01*
X224028000Y-107542000D01*
G75*
G02*
X223928000Y-107442000I0J100000D01*
G01*
X223928000Y-105918000D01*
G75*
G02*
X224028000Y-105818000I100000J0D01*
G01*
X225552000Y-105818000D01*
G75*
G02*
X225652000Y-105918000I0J-100000D01*
G01*
G37*
D13*
X222250000Y-106680000D03*
X219710000Y-106680000D03*
X217170000Y-106680000D03*
D15*
X146050000Y-88900000D03*
X148590000Y-88900000D03*
X146050000Y-86360000D03*
X148590000Y-86360000D03*
X146050000Y-83820000D03*
X148590000Y-83820000D03*
X146050000Y-81280000D03*
X148590000Y-81280000D03*
X146050000Y-78740000D03*
X148590000Y-78740000D03*
X146050000Y-76200000D03*
X148590000Y-76200000D03*
X146050000Y-73660000D03*
X148590000Y-73660000D03*
X146050000Y-71120000D03*
X148590000Y-71120000D03*
X146050000Y-68580000D03*
X148590000Y-68580000D03*
X146050000Y-66040000D03*
X148590000Y-66040000D03*
X146050000Y-63500000D03*
X148590000Y-63500000D03*
X146050000Y-60960000D03*
X148590000Y-60960000D03*
X146050000Y-58420000D03*
X148590000Y-58420000D03*
X146050000Y-55880000D03*
X148590000Y-55880000D03*
X146050000Y-53340000D03*
X148590000Y-53340000D03*
X146050000Y-50800000D03*
X148590000Y-50800000D03*
X146050000Y-48260000D03*
X148590000Y-48260000D03*
X146050000Y-45720000D03*
X148590000Y-45720000D03*
X146050000Y-43180000D03*
G36*
G01*
X147640000Y-44030000D02*
X147640000Y-42330000D01*
G75*
G02*
X147740000Y-42230000I100000J0D01*
G01*
X149440000Y-42230000D01*
G75*
G02*
X149540000Y-42330000I0J-100000D01*
G01*
X149540000Y-44030000D01*
G75*
G02*
X149440000Y-44130000I-100000J0D01*
G01*
X147740000Y-44130000D01*
G75*
G02*
X147640000Y-44030000I0J100000D01*
G01*
G37*
D13*
X121920000Y-77470000D03*
X124460000Y-77470000D03*
X127000000Y-77470000D03*
X129540000Y-77470000D03*
X132080000Y-77470000D03*
X134620000Y-77470000D03*
X137160000Y-77470000D03*
X139700000Y-77470000D03*
X116840000Y-41910000D03*
X119380000Y-41910000D03*
X121920000Y-41910000D03*
X124460000Y-41910000D03*
X127000000Y-41910000D03*
X129540000Y-41910000D03*
X132080000Y-41910000D03*
X134620000Y-41910000D03*
X137160000Y-41910000D03*
X139700000Y-41910000D03*
X111760000Y-41910000D03*
X109220000Y-41910000D03*
X106680000Y-41910000D03*
X104140000Y-41910000D03*
X101600000Y-41910000D03*
X99060000Y-41910000D03*
X96520000Y-41910000D03*
X93980000Y-41910000D03*
X91440000Y-41910000D03*
X88900000Y-41910000D03*
X111760000Y-77470000D03*
X109220000Y-77470000D03*
X106680000Y-77470000D03*
X104140000Y-77470000D03*
X101600000Y-77470000D03*
X99060000Y-77470000D03*
X96520000Y-77470000D03*
X93980000Y-77470000D03*
X217170000Y-54610000D03*
X219710000Y-54610000D03*
X222250000Y-54610000D03*
G36*
G01*
X225652000Y-53848000D02*
X225652000Y-55372000D01*
G75*
G02*
X225552000Y-55472000I-100000J0D01*
G01*
X224028000Y-55472000D01*
G75*
G02*
X223928000Y-55372000I0J100000D01*
G01*
X223928000Y-53848000D01*
G75*
G02*
X224028000Y-53748000I100000J0D01*
G01*
X225552000Y-53748000D01*
G75*
G02*
X225652000Y-53848000I0J-100000D01*
G01*
G37*
D18*
X219710000Y-60960000D03*
D19*
X227330000Y-60960000D03*
D18*
X219710000Y-68580000D03*
D19*
X227330000Y-68580000D03*
X227330000Y-64770000D03*
D18*
X219710000Y-64770000D03*
D19*
X227330000Y-72390000D03*
D18*
X219710000Y-72390000D03*
G36*
G01*
X72798000Y-60452000D02*
X72798000Y-58928000D01*
G75*
G02*
X72898000Y-58828000I100000J0D01*
G01*
X74422000Y-58828000D01*
G75*
G02*
X74522000Y-58928000I0J-100000D01*
G01*
X74522000Y-60452000D01*
G75*
G02*
X74422000Y-60552000I-100000J0D01*
G01*
X72898000Y-60552000D01*
G75*
G02*
X72798000Y-60452000I0J100000D01*
G01*
G37*
D13*
X76200000Y-59690000D03*
X78740000Y-59690000D03*
X81280000Y-59690000D03*
X83820000Y-59690000D03*
X83820000Y-78740000D03*
X81280000Y-78740000D03*
X78740000Y-78740000D03*
X76200000Y-78740000D03*
G36*
G01*
X72798000Y-79502000D02*
X72798000Y-77978000D01*
G75*
G02*
X72898000Y-77878000I100000J0D01*
G01*
X74422000Y-77878000D01*
G75*
G02*
X74522000Y-77978000I0J-100000D01*
G01*
X74522000Y-79502000D01*
G75*
G02*
X74422000Y-79602000I-100000J0D01*
G01*
X72898000Y-79602000D01*
G75*
G02*
X72798000Y-79502000I0J100000D01*
G01*
G37*
X83820000Y-97790000D03*
X81280000Y-97790000D03*
X78740000Y-97790000D03*
X76200000Y-97790000D03*
G36*
G01*
X72798000Y-98552000D02*
X72798000Y-97028000D01*
G75*
G02*
X72898000Y-96928000I100000J0D01*
G01*
X74422000Y-96928000D01*
G75*
G02*
X74522000Y-97028000I0J-100000D01*
G01*
X74522000Y-98552000D01*
G75*
G02*
X74422000Y-98652000I-100000J0D01*
G01*
X72898000Y-98652000D01*
G75*
G02*
X72798000Y-98552000I0J100000D01*
G01*
G37*
G36*
G01*
X72798000Y-118872000D02*
X72798000Y-117348000D01*
G75*
G02*
X72898000Y-117248000I100000J0D01*
G01*
X74422000Y-117248000D01*
G75*
G02*
X74522000Y-117348000I0J-100000D01*
G01*
X74522000Y-118872000D01*
G75*
G02*
X74422000Y-118972000I-100000J0D01*
G01*
X72898000Y-118972000D01*
G75*
G02*
X72798000Y-118872000I0J100000D01*
G01*
G37*
X76200000Y-118110000D03*
X78740000Y-118110000D03*
X81280000Y-118110000D03*
X83820000Y-118110000D03*
G36*
G01*
X216308000Y-82042000D02*
X216308000Y-80518000D01*
G75*
G02*
X216408000Y-80418000I100000J0D01*
G01*
X217932000Y-80418000D01*
G75*
G02*
X218032000Y-80518000I0J-100000D01*
G01*
X218032000Y-82042000D01*
G75*
G02*
X217932000Y-82142000I-100000J0D01*
G01*
X216408000Y-82142000D01*
G75*
G02*
X216308000Y-82042000I0J100000D01*
G01*
G37*
X219710000Y-81280000D03*
X222250000Y-81280000D03*
X224790000Y-81280000D03*
D20*
X222250000Y-97630000D03*
G36*
G01*
X221250000Y-86530000D02*
X223250000Y-86530000D01*
G75*
G02*
X223350000Y-86630000I0J-100000D01*
G01*
X223350000Y-88630000D01*
G75*
G02*
X223250000Y-88730000I-100000J0D01*
G01*
X221250000Y-88730000D01*
G75*
G02*
X221150000Y-88630000I0J100000D01*
G01*
X221150000Y-86630000D01*
G75*
G02*
X221250000Y-86530000I100000J0D01*
G01*
G37*
D14*
X82550000Y-69850000D03*
X74930000Y-69850000D03*
X82550000Y-88900000D03*
X74930000Y-88900000D03*
X74930000Y-109220000D03*
X82550000Y-109220000D03*
X101600000Y-125095000D03*
X93980000Y-125095000D03*
G36*
G01*
X215038000Y-49022000D02*
X215038000Y-47498000D01*
G75*
G02*
X215138000Y-47398000I100000J0D01*
G01*
X216662000Y-47398000D01*
G75*
G02*
X216762000Y-47498000I0J-100000D01*
G01*
X216762000Y-49022000D01*
G75*
G02*
X216662000Y-49122000I-100000J0D01*
G01*
X215138000Y-49122000D01*
G75*
G02*
X215038000Y-49022000I0J100000D01*
G01*
G37*
D13*
X218440000Y-48260000D03*
X220980000Y-48260000D03*
D21*
X207010000Y-94615000D03*
X205740000Y-94615000D03*
G36*
G01*
X208905000Y-94162500D02*
X208905000Y-95067500D01*
G75*
G02*
X208607500Y-95365000I-297500J0D01*
G01*
X207952500Y-95365000D01*
G75*
G02*
X207655000Y-95067500I0J297500D01*
G01*
X207655000Y-94162500D01*
G75*
G02*
X207952500Y-93865000I297500J0D01*
G01*
X208607500Y-93865000D01*
G75*
G02*
X208905000Y-94162500I0J-297500D01*
G01*
G37*
D18*
X213360000Y-94615000D03*
D19*
X213360000Y-86995000D03*
X207010000Y-98425000D03*
D18*
X214630000Y-98425000D03*
D19*
X135890000Y-125095000D03*
D18*
X128270000Y-125095000D03*
X135890000Y-121920000D03*
D19*
X128270000Y-121920000D03*
G36*
G01*
X82335000Y-45835000D02*
X82335000Y-44335000D01*
G75*
G02*
X82435000Y-44235000I100000J0D01*
G01*
X83935000Y-44235000D01*
G75*
G02*
X84035000Y-44335000I0J-100000D01*
G01*
X84035000Y-45835000D01*
G75*
G02*
X83935000Y-45935000I-100000J0D01*
G01*
X82435000Y-45935000D01*
G75*
G02*
X82335000Y-45835000I0J100000D01*
G01*
G37*
D16*
X90805000Y-45085000D03*
D18*
X78105000Y-41275000D03*
D19*
X85725000Y-41275000D03*
G36*
G01*
X225652000Y-116078000D02*
X225652000Y-117602000D01*
G75*
G02*
X225552000Y-117702000I-100000J0D01*
G01*
X224028000Y-117702000D01*
G75*
G02*
X223928000Y-117602000I0J100000D01*
G01*
X223928000Y-116078000D01*
G75*
G02*
X224028000Y-115978000I100000J0D01*
G01*
X225552000Y-115978000D01*
G75*
G02*
X225652000Y-116078000I0J-100000D01*
G01*
G37*
D13*
X222250000Y-116840000D03*
X219710000Y-116840000D03*
X217170000Y-116840000D03*
D22*
X112077500Y-82867500D03*
X118110000Y-82550000D03*
X122555000Y-84776002D03*
X109537500Y-83502500D03*
X110807500Y-84772500D03*
X199390000Y-48260000D03*
X81189999Y-83275001D03*
X76744999Y-83275001D03*
X144145000Y-89535000D03*
X142240000Y-90170000D03*
X80010000Y-82550000D03*
X86995000Y-81280000D03*
X143827500Y-77152500D03*
X143827500Y-68262500D03*
X198755000Y-78105000D03*
X199390000Y-76200000D03*
X212090000Y-74295000D03*
X213677500Y-79057500D03*
X213995000Y-96520000D03*
X213360000Y-120015000D03*
X212090000Y-45720000D03*
X212090000Y-49530000D03*
X200660000Y-74930000D03*
X203200000Y-74930000D03*
X149860000Y-85090000D03*
X202565000Y-83820000D03*
X200660000Y-76200000D03*
X203200000Y-73660000D03*
X212725000Y-77470000D03*
M02*
