G04 #@! TF.GenerationSoftware,KiCad,Pcbnew,(5.1.9)-1*
G04 #@! TF.CreationDate,2021-06-19T16:16:09+09:00*
G04 #@! TF.ProjectId,_______,b3de8ab7-fceb-4c92-9e6b-696361645f70,rev?*
G04 #@! TF.SameCoordinates,Original*
G04 #@! TF.FileFunction,Soldermask,Top*
G04 #@! TF.FilePolarity,Negative*
%FSLAX46Y46*%
G04 Gerber Fmt 4.6, Leading zero omitted, Abs format (unit mm)*
G04 Created by KiCad (PCBNEW (5.1.9)-1) date 2021-06-19 16:16:09*
%MOMM*%
%LPD*%
G01*
G04 APERTURE LIST*
%ADD10C,3.400000*%
%ADD11C,1.724000*%
%ADD12C,6.700000*%
%ADD13O,1.900000X1.900000*%
%ADD14O,1.700000X1.700000*%
%ADD15C,2.000000*%
%ADD16C,1.800000*%
%ADD17O,1.800000X1.800000*%
%ADD18C,2.200000*%
%ADD19O,1.250000X1.500000*%
%ADD20C,1.000000*%
G04 APERTURE END LIST*
D10*
X71755000Y-126365000D03*
X72390000Y-42545000D03*
X227965000Y-42545000D03*
X227965000Y-126365000D03*
D11*
X111760000Y-81280000D03*
X109220000Y-81280000D03*
X106680000Y-81280000D03*
X104140000Y-81280000D03*
X101600000Y-81280000D03*
X99060000Y-81280000D03*
X96520000Y-81280000D03*
X93980000Y-81280000D03*
X91440000Y-81280000D03*
X88900000Y-81280000D03*
X111760000Y-116840000D03*
X109220000Y-116840000D03*
X106680000Y-116840000D03*
X104140000Y-116840000D03*
X101600000Y-116840000D03*
X99060000Y-116840000D03*
X96520000Y-116840000D03*
X93980000Y-116840000D03*
D12*
X74930000Y-50800000D03*
X82550000Y-50800000D03*
G36*
G01*
X208685001Y-43950001D02*
X208685001Y-42250001D01*
G75*
G02*
X208785001Y-42150001I100000J0D01*
G01*
X210485001Y-42150001D01*
G75*
G02*
X210585001Y-42250001I0J-100000D01*
G01*
X210585001Y-43950001D01*
G75*
G02*
X210485001Y-44050001I-100000J0D01*
G01*
X208785001Y-44050001D01*
G75*
G02*
X208685001Y-43950001I0J100000D01*
G01*
G37*
D13*
X207095001Y-43100001D03*
X209635001Y-45640001D03*
X207095001Y-45640001D03*
X209635001Y-48180001D03*
X207095001Y-48180001D03*
X209635001Y-50720001D03*
X207095001Y-50720001D03*
X209635001Y-53260001D03*
X207095001Y-53260001D03*
X209635001Y-55800001D03*
X207095001Y-55800001D03*
X209635001Y-58340001D03*
X207095001Y-58340001D03*
X209635001Y-60880001D03*
X207095001Y-60880001D03*
X209635001Y-63420001D03*
X207095001Y-63420001D03*
X209635001Y-65960001D03*
X207095001Y-65960001D03*
X209635001Y-68500001D03*
X207095001Y-68500001D03*
X209635001Y-71040001D03*
X207095001Y-71040001D03*
X209635001Y-73580001D03*
X207095001Y-73580001D03*
X209635001Y-76120001D03*
X207095001Y-76120001D03*
X209635001Y-78660001D03*
X207095001Y-78660001D03*
X209635001Y-81200001D03*
X207095001Y-81200001D03*
X209635001Y-83740001D03*
X207095001Y-83740001D03*
X209635001Y-86280001D03*
X207095001Y-86280001D03*
X209635001Y-88820001D03*
X207095001Y-88820001D03*
D11*
X121920000Y-116840000D03*
X124460000Y-116840000D03*
X127000000Y-116840000D03*
X129540000Y-116840000D03*
X132080000Y-116840000D03*
X134620000Y-116840000D03*
X137160000Y-116840000D03*
X139700000Y-116840000D03*
X116840000Y-81280000D03*
X119380000Y-81280000D03*
X121920000Y-81280000D03*
X124460000Y-81280000D03*
X127000000Y-81280000D03*
X129540000Y-81280000D03*
X132080000Y-81280000D03*
X134620000Y-81280000D03*
X137160000Y-81280000D03*
X139700000Y-81280000D03*
G36*
G01*
X132930000Y-84340000D02*
X132930000Y-85840000D01*
G75*
G02*
X132830000Y-85940000I-100000J0D01*
G01*
X131330000Y-85940000D01*
G75*
G02*
X131230000Y-85840000I0J100000D01*
G01*
X131230000Y-84340000D01*
G75*
G02*
X131330000Y-84240000I100000J0D01*
G01*
X132830000Y-84240000D01*
G75*
G02*
X132930000Y-84340000I0J-100000D01*
G01*
G37*
D14*
X124460000Y-85090000D03*
X124460000Y-45720000D03*
G36*
G01*
X132930000Y-44970000D02*
X132930000Y-46470000D01*
G75*
G02*
X132830000Y-46570000I-100000J0D01*
G01*
X131330000Y-46570000D01*
G75*
G02*
X131230000Y-46470000I0J100000D01*
G01*
X131230000Y-44970000D01*
G75*
G02*
X131330000Y-44870000I100000J0D01*
G01*
X132830000Y-44870000D01*
G75*
G02*
X132930000Y-44970000I0J-100000D01*
G01*
G37*
X96520000Y-45720000D03*
G36*
G01*
X104990000Y-44970000D02*
X104990000Y-46470000D01*
G75*
G02*
X104890000Y-46570000I-100000J0D01*
G01*
X103390000Y-46570000D01*
G75*
G02*
X103290000Y-46470000I0J100000D01*
G01*
X103290000Y-44970000D01*
G75*
G02*
X103390000Y-44870000I100000J0D01*
G01*
X104890000Y-44870000D01*
G75*
G02*
X104990000Y-44970000I0J-100000D01*
G01*
G37*
G36*
G01*
X104990000Y-84340000D02*
X104990000Y-85840000D01*
G75*
G02*
X104890000Y-85940000I-100000J0D01*
G01*
X103390000Y-85940000D01*
G75*
G02*
X103290000Y-85840000I0J100000D01*
G01*
X103290000Y-84340000D01*
G75*
G02*
X103390000Y-84240000I100000J0D01*
G01*
X104890000Y-84240000D01*
G75*
G02*
X104990000Y-84340000I0J-100000D01*
G01*
G37*
X96520000Y-85090000D03*
G36*
G01*
X216900000Y-60060000D02*
X216900000Y-61860000D01*
G75*
G02*
X216800000Y-61960000I-100000J0D01*
G01*
X215000000Y-61960000D01*
G75*
G02*
X214900000Y-61860000I0J100000D01*
G01*
X214900000Y-60060000D01*
G75*
G02*
X215000000Y-59960000I100000J0D01*
G01*
X216800000Y-59960000D01*
G75*
G02*
X216900000Y-60060000I0J-100000D01*
G01*
G37*
D15*
X213360000Y-60960000D03*
G36*
G01*
X216900000Y-67680000D02*
X216900000Y-69480000D01*
G75*
G02*
X216800000Y-69580000I-100000J0D01*
G01*
X215000000Y-69580000D01*
G75*
G02*
X214900000Y-69480000I0J100000D01*
G01*
X214900000Y-67680000D01*
G75*
G02*
X215000000Y-67580000I100000J0D01*
G01*
X216800000Y-67580000D01*
G75*
G02*
X216900000Y-67680000I0J-100000D01*
G01*
G37*
X213360000Y-68580000D03*
X213360000Y-64770000D03*
G36*
G01*
X216900000Y-63870000D02*
X216900000Y-65670000D01*
G75*
G02*
X216800000Y-65770000I-100000J0D01*
G01*
X215000000Y-65770000D01*
G75*
G02*
X214900000Y-65670000I0J100000D01*
G01*
X214900000Y-63870000D01*
G75*
G02*
X215000000Y-63770000I100000J0D01*
G01*
X216800000Y-63770000D01*
G75*
G02*
X216900000Y-63870000I0J-100000D01*
G01*
G37*
X213360000Y-72390000D03*
G36*
G01*
X216900000Y-71490000D02*
X216900000Y-73290000D01*
G75*
G02*
X216800000Y-73390000I-100000J0D01*
G01*
X215000000Y-73390000D01*
G75*
G02*
X214900000Y-73290000I0J100000D01*
G01*
X214900000Y-71490000D01*
G75*
G02*
X215000000Y-71390000I100000J0D01*
G01*
X216800000Y-71390000D01*
G75*
G02*
X216900000Y-71490000I0J-100000D01*
G01*
G37*
G36*
G01*
X225652000Y-105918000D02*
X225652000Y-107442000D01*
G75*
G02*
X225552000Y-107542000I-100000J0D01*
G01*
X224028000Y-107542000D01*
G75*
G02*
X223928000Y-107442000I0J100000D01*
G01*
X223928000Y-105918000D01*
G75*
G02*
X224028000Y-105818000I100000J0D01*
G01*
X225552000Y-105818000D01*
G75*
G02*
X225652000Y-105918000I0J-100000D01*
G01*
G37*
D11*
X222250000Y-106680000D03*
X219710000Y-106680000D03*
X217170000Y-106680000D03*
D13*
X146050000Y-88900000D03*
X148590000Y-88900000D03*
X146050000Y-86360000D03*
X148590000Y-86360000D03*
X146050000Y-83820000D03*
X148590000Y-83820000D03*
X146050000Y-81280000D03*
X148590000Y-81280000D03*
X146050000Y-78740000D03*
X148590000Y-78740000D03*
X146050000Y-76200000D03*
X148590000Y-76200000D03*
X146050000Y-73660000D03*
X148590000Y-73660000D03*
X146050000Y-71120000D03*
X148590000Y-71120000D03*
X146050000Y-68580000D03*
X148590000Y-68580000D03*
X146050000Y-66040000D03*
X148590000Y-66040000D03*
X146050000Y-63500000D03*
X148590000Y-63500000D03*
X146050000Y-60960000D03*
X148590000Y-60960000D03*
X146050000Y-58420000D03*
X148590000Y-58420000D03*
X146050000Y-55880000D03*
X148590000Y-55880000D03*
X146050000Y-53340000D03*
X148590000Y-53340000D03*
X146050000Y-50800000D03*
X148590000Y-50800000D03*
X146050000Y-48260000D03*
X148590000Y-48260000D03*
X146050000Y-45720000D03*
X148590000Y-45720000D03*
X146050000Y-43180000D03*
G36*
G01*
X147640000Y-44030000D02*
X147640000Y-42330000D01*
G75*
G02*
X147740000Y-42230000I100000J0D01*
G01*
X149440000Y-42230000D01*
G75*
G02*
X149540000Y-42330000I0J-100000D01*
G01*
X149540000Y-44030000D01*
G75*
G02*
X149440000Y-44130000I-100000J0D01*
G01*
X147740000Y-44130000D01*
G75*
G02*
X147640000Y-44030000I0J100000D01*
G01*
G37*
D11*
X121920000Y-77470000D03*
X124460000Y-77470000D03*
X127000000Y-77470000D03*
X129540000Y-77470000D03*
X132080000Y-77470000D03*
X134620000Y-77470000D03*
X137160000Y-77470000D03*
X139700000Y-77470000D03*
X116840000Y-41910000D03*
X119380000Y-41910000D03*
X121920000Y-41910000D03*
X124460000Y-41910000D03*
X127000000Y-41910000D03*
X129540000Y-41910000D03*
X132080000Y-41910000D03*
X134620000Y-41910000D03*
X137160000Y-41910000D03*
X139700000Y-41910000D03*
X111760000Y-41910000D03*
X109220000Y-41910000D03*
X106680000Y-41910000D03*
X104140000Y-41910000D03*
X101600000Y-41910000D03*
X99060000Y-41910000D03*
X96520000Y-41910000D03*
X93980000Y-41910000D03*
X91440000Y-41910000D03*
X88900000Y-41910000D03*
X111760000Y-77470000D03*
X109220000Y-77470000D03*
X106680000Y-77470000D03*
X104140000Y-77470000D03*
X101600000Y-77470000D03*
X99060000Y-77470000D03*
X96520000Y-77470000D03*
X93980000Y-77470000D03*
X217170000Y-54610000D03*
X219710000Y-54610000D03*
X222250000Y-54610000D03*
G36*
G01*
X225652000Y-53848000D02*
X225652000Y-55372000D01*
G75*
G02*
X225552000Y-55472000I-100000J0D01*
G01*
X224028000Y-55472000D01*
G75*
G02*
X223928000Y-55372000I0J100000D01*
G01*
X223928000Y-53848000D01*
G75*
G02*
X224028000Y-53748000I100000J0D01*
G01*
X225552000Y-53748000D01*
G75*
G02*
X225652000Y-53848000I0J-100000D01*
G01*
G37*
D16*
X219710000Y-60960000D03*
D17*
X227330000Y-60960000D03*
D16*
X219710000Y-68580000D03*
D17*
X227330000Y-68580000D03*
X227330000Y-64770000D03*
D16*
X219710000Y-64770000D03*
D17*
X227330000Y-72390000D03*
D16*
X219710000Y-72390000D03*
G36*
G01*
X72798000Y-60452000D02*
X72798000Y-58928000D01*
G75*
G02*
X72898000Y-58828000I100000J0D01*
G01*
X74422000Y-58828000D01*
G75*
G02*
X74522000Y-58928000I0J-100000D01*
G01*
X74522000Y-60452000D01*
G75*
G02*
X74422000Y-60552000I-100000J0D01*
G01*
X72898000Y-60552000D01*
G75*
G02*
X72798000Y-60452000I0J100000D01*
G01*
G37*
D11*
X76200000Y-59690000D03*
X78740000Y-59690000D03*
X81280000Y-59690000D03*
X83820000Y-59690000D03*
X83820000Y-78740000D03*
X81280000Y-78740000D03*
X78740000Y-78740000D03*
X76200000Y-78740000D03*
G36*
G01*
X72798000Y-79502000D02*
X72798000Y-77978000D01*
G75*
G02*
X72898000Y-77878000I100000J0D01*
G01*
X74422000Y-77878000D01*
G75*
G02*
X74522000Y-77978000I0J-100000D01*
G01*
X74522000Y-79502000D01*
G75*
G02*
X74422000Y-79602000I-100000J0D01*
G01*
X72898000Y-79602000D01*
G75*
G02*
X72798000Y-79502000I0J100000D01*
G01*
G37*
X83820000Y-97790000D03*
X81280000Y-97790000D03*
X78740000Y-97790000D03*
X76200000Y-97790000D03*
G36*
G01*
X72798000Y-98552000D02*
X72798000Y-97028000D01*
G75*
G02*
X72898000Y-96928000I100000J0D01*
G01*
X74422000Y-96928000D01*
G75*
G02*
X74522000Y-97028000I0J-100000D01*
G01*
X74522000Y-98552000D01*
G75*
G02*
X74422000Y-98652000I-100000J0D01*
G01*
X72898000Y-98652000D01*
G75*
G02*
X72798000Y-98552000I0J100000D01*
G01*
G37*
G36*
G01*
X72798000Y-118872000D02*
X72798000Y-117348000D01*
G75*
G02*
X72898000Y-117248000I100000J0D01*
G01*
X74422000Y-117248000D01*
G75*
G02*
X74522000Y-117348000I0J-100000D01*
G01*
X74522000Y-118872000D01*
G75*
G02*
X74422000Y-118972000I-100000J0D01*
G01*
X72898000Y-118972000D01*
G75*
G02*
X72798000Y-118872000I0J100000D01*
G01*
G37*
X76200000Y-118110000D03*
X78740000Y-118110000D03*
X81280000Y-118110000D03*
X83820000Y-118110000D03*
G36*
G01*
X216308000Y-82042000D02*
X216308000Y-80518000D01*
G75*
G02*
X216408000Y-80418000I100000J0D01*
G01*
X217932000Y-80418000D01*
G75*
G02*
X218032000Y-80518000I0J-100000D01*
G01*
X218032000Y-82042000D01*
G75*
G02*
X217932000Y-82142000I-100000J0D01*
G01*
X216408000Y-82142000D01*
G75*
G02*
X216308000Y-82042000I0J100000D01*
G01*
G37*
X219710000Y-81280000D03*
X222250000Y-81280000D03*
X224790000Y-81280000D03*
D18*
X222250000Y-97630000D03*
G36*
G01*
X221250000Y-86530000D02*
X223250000Y-86530000D01*
G75*
G02*
X223350000Y-86630000I0J-100000D01*
G01*
X223350000Y-88630000D01*
G75*
G02*
X223250000Y-88730000I-100000J0D01*
G01*
X221250000Y-88730000D01*
G75*
G02*
X221150000Y-88630000I0J100000D01*
G01*
X221150000Y-86630000D01*
G75*
G02*
X221250000Y-86530000I100000J0D01*
G01*
G37*
D12*
X82550000Y-69850000D03*
X74930000Y-69850000D03*
X82550000Y-88900000D03*
X74930000Y-88900000D03*
X74930000Y-109220000D03*
X82550000Y-109220000D03*
X101600000Y-125095000D03*
X93980000Y-125095000D03*
G36*
G01*
X215038000Y-49022000D02*
X215038000Y-47498000D01*
G75*
G02*
X215138000Y-47398000I100000J0D01*
G01*
X216662000Y-47398000D01*
G75*
G02*
X216762000Y-47498000I0J-100000D01*
G01*
X216762000Y-49022000D01*
G75*
G02*
X216662000Y-49122000I-100000J0D01*
G01*
X215138000Y-49122000D01*
G75*
G02*
X215038000Y-49022000I0J100000D01*
G01*
G37*
D11*
X218440000Y-48260000D03*
X220980000Y-48260000D03*
D19*
X207010000Y-94615000D03*
X205740000Y-94615000D03*
G36*
G01*
X208905000Y-94162500D02*
X208905000Y-95067500D01*
G75*
G02*
X208607500Y-95365000I-297500J0D01*
G01*
X207952500Y-95365000D01*
G75*
G02*
X207655000Y-95067500I0J297500D01*
G01*
X207655000Y-94162500D01*
G75*
G02*
X207952500Y-93865000I297500J0D01*
G01*
X208607500Y-93865000D01*
G75*
G02*
X208905000Y-94162500I0J-297500D01*
G01*
G37*
D16*
X213360000Y-94615000D03*
D17*
X213360000Y-86995000D03*
X207010000Y-98425000D03*
D16*
X214630000Y-98425000D03*
D17*
X135890000Y-125095000D03*
D16*
X128270000Y-125095000D03*
X135890000Y-121920000D03*
D17*
X128270000Y-121920000D03*
G36*
G01*
X82335000Y-45835000D02*
X82335000Y-44335000D01*
G75*
G02*
X82435000Y-44235000I100000J0D01*
G01*
X83935000Y-44235000D01*
G75*
G02*
X84035000Y-44335000I0J-100000D01*
G01*
X84035000Y-45835000D01*
G75*
G02*
X83935000Y-45935000I-100000J0D01*
G01*
X82435000Y-45935000D01*
G75*
G02*
X82335000Y-45835000I0J100000D01*
G01*
G37*
D14*
X90805000Y-45085000D03*
D16*
X78105000Y-41275000D03*
D17*
X85725000Y-41275000D03*
G36*
G01*
X225652000Y-116078000D02*
X225652000Y-117602000D01*
G75*
G02*
X225552000Y-117702000I-100000J0D01*
G01*
X224028000Y-117702000D01*
G75*
G02*
X223928000Y-117602000I0J100000D01*
G01*
X223928000Y-116078000D01*
G75*
G02*
X224028000Y-115978000I100000J0D01*
G01*
X225552000Y-115978000D01*
G75*
G02*
X225652000Y-116078000I0J-100000D01*
G01*
G37*
D11*
X222250000Y-116840000D03*
X219710000Y-116840000D03*
X217170000Y-116840000D03*
D20*
X112077500Y-82867500D03*
X118110000Y-82550000D03*
X122555000Y-84776002D03*
X109537500Y-83502500D03*
X110807500Y-84772500D03*
X199390000Y-48260000D03*
X81189999Y-83275001D03*
X76744999Y-83275001D03*
X144145000Y-89535000D03*
X142240000Y-90170000D03*
X80010000Y-82550000D03*
X86995000Y-81280000D03*
X143827500Y-77152500D03*
X143827500Y-68262500D03*
X198755000Y-78105000D03*
X199390000Y-76200000D03*
X212090000Y-74295000D03*
X213677500Y-79057500D03*
X213995000Y-96520000D03*
X213360000Y-120015000D03*
X212090000Y-45720000D03*
X212090000Y-49530000D03*
X200660000Y-74930000D03*
X203200000Y-74930000D03*
X149860000Y-85090000D03*
X202565000Y-83820000D03*
X200660000Y-76200000D03*
X203200000Y-73660000D03*
X212725000Y-77470000D03*
M02*
